M48
; DRILL file {KiCad 6.0.10-2.fc37} date Wed 26 Apr 2023 12:59:36 PM CEST
; FORMAT={-:-/ absolute / metric / decimal}
; #@! TF.CreationDate,2023-04-26T12:59:36+02:00
; #@! TF.GenerationSoftware,Kicad,Pcbnew,6.0.10-2.fc37
; #@! TF.FileFunction,MixedPlating,1,4
FMAT,2
METRIC
; #@! TA.AperFunction,Plated,PTH,ViaDrill
T1C0.400
; #@! TA.AperFunction,Plated,PTH,ComponentDrill
T2C0.500
; #@! TA.AperFunction,NonPlated,NPTH,ComponentDrill
T3C0.650
; #@! TA.AperFunction,NonPlated,NPTH,ComponentDrill
T4C1.000
%
G90
G05
T1
X122.24Y-104.61
X122.3Y-87.1
X122.3Y-87.92
X122.34Y-108.11
X122.34Y-109.01
X122.35Y-106.92
X122.94Y-103.91
X123.285Y-114.04
X123.44Y-80.01
X123.9Y-114.74
X123.94Y-103.67
X124.42Y-88.84
X124.94Y-111.51
X124.95Y-103.67
X125.04Y-84.91
X126.355Y-101.89
X126.53Y-114.53
X126.8Y-111.7
X126.94Y-88.88
X127.44Y-80.31
X127.8Y-103.67
X127.85Y-97.5
X128.24Y-89.71
X128.68Y-112.6
X129.16Y-103.63
X129.391Y-107.734
X129.427Y-111.62
X129.698Y-114.225
X130.13Y-95.55
X130.14Y-100.01
X130.17Y-106.88
X130.46Y-81.08
X130.54Y-86.193
X130.66Y-83.12
X130.879Y-88.987
X131.53Y-100.04
X131.59Y-95.51
X131.96Y-88.8
X132.05Y-103.46
X132.08Y-108.84
X133.04Y-107.88
X133.151Y-102.979
X133.44Y-93.18
X133.44Y-95.31
X133.63Y-83.14
X133.65Y-81.05
X134.41Y-92.46
X135.375Y-103.432
X135.48Y-107.94
X135.81Y-88.78
X136.44Y-103.71
X137.67Y-103.747
X137.977Y-92.11
X138.06Y-107.37
X138.12Y-90.53
X138.62Y-92.94
X138.65Y-94.15
X139.06Y-99.73
X139.15Y-112.5
X139.34Y-101.71
X139.55Y-81.03
X139.62Y-83.26
X139.645Y-88.915
X140.74Y-109.01
X142.14Y-102.01
X142.63Y-81.02
X142.64Y-83.19
X142.74Y-113.01
X142.74Y-114.41
X143.264Y-90.42
X143.69Y-96.61
X144.1Y-90.42
X144.37Y-109.47
X144.37Y-110.28
X144.38Y-104.73
X144.613Y-93.44
X145.07Y-108.51
X145.65Y-93.486
X145.91Y-108.52
X146.931Y-96.319
X147.565Y-93.486
X147.79Y-98.171
X147.87Y-101.98
X148.1Y-84.79
X148.13Y-96.42
X148.86Y-97.49
X148.9Y-81.06
X148.915Y-93.753
X149.41Y-107.01
X149.496Y-105.486
X149.824Y-93.336
X150.223Y-92.42
X150.258Y-108.159
X150.34Y-102.89
X150.35Y-96.2
X151.2Y-108.2
X151.21Y-89.54
X151.22Y-88.73
X151.77Y-93.3
X151.94Y-83.31
X152.03Y-81.09
X152.25Y-110.3
X152.27Y-109.48
X153.37Y-89.69
X153.618Y-100.833
X153.63Y-101.87
X153.64Y-98.01
X153.9Y-114.38
X153.91Y-113.04
X154.195Y-94.255
X154.2Y-95.95
X154.24Y-92.42
X155.345Y-102.44
X155.75Y-106.709
X156.05Y-93.84
X156.23Y-97.14
X156.39Y-94.94
X156.696Y-110.046
X157.09Y-115.32
X157.642Y-111.502
X157.79Y-80.95
X157.83Y-83.19
X158.74Y-101.31
X158.78Y-96.47
X158.78Y-97.87
X158.78Y-98.68
X158.79Y-95.67
X159.6Y-87.334
X159.74Y-102.01
X160.84Y-83.11
X160.92Y-80.91
X161.24Y-109.01
X161.8Y-108.11
X162.92Y-105.75
X162.94Y-109.01
X167.02Y-80.81
X167.13Y-83.21
X167.98Y-102.0
X168.1Y-88.83
X170.14Y-83.11
X170.21Y-80.77
T3
X144.57Y-111.275
X152.07Y-111.275
T4
X168.065Y-92.26
X168.065Y-100.26
T2
G00X142.74Y-110.785
M15
G01X142.74Y-111.935
M16
G05
G00X142.74Y-115.455
M15
G01X142.74Y-116.605
M16
G05
G00X153.9Y-110.785
M15
G01X153.9Y-111.935
M16
G05
G00X153.9Y-115.465
M15
G01X153.9Y-116.615
M16
G05
T0
M30
