%TF.GenerationSoftware,KiCad,Pcbnew,6.0.10-2.fc37*%
%TF.CreationDate,2023-04-26T13:00:43+02:00*%
%TF.ProjectId,motherboard,6d6f7468-6572-4626-9f61-72642e6b6963,rev?*%
%TF.SameCoordinates,Original*%
%TF.FileFunction,Copper,L2,Inr*%
%TF.FilePolarity,Positive*%
%FSLAX46Y46*%
G04 Gerber Fmt 4.6, Leading zero omitted, Abs format (unit mm)*
G04 Created by KiCad (PCBNEW 6.0.10-2.fc37) date 2023-04-26 13:00:43*
%MOMM*%
%LPD*%
G01*
G04 APERTURE LIST*
G04 Aperture macros list*
%AMRoundRect*
0 Rectangle with rounded corners*
0 $1 Rounding radius*
0 $2 $3 $4 $5 $6 $7 $8 $9 X,Y pos of 4 corners*
0 Add a 4 corners polygon primitive as box body*
4,1,4,$2,$3,$4,$5,$6,$7,$8,$9,$2,$3,0*
0 Add four circle primitives for the rounded corners*
1,1,$1+$1,$2,$3*
1,1,$1+$1,$4,$5*
1,1,$1+$1,$6,$7*
1,1,$1+$1,$8,$9*
0 Add four rect primitives between the rounded corners*
20,1,$1+$1,$2,$3,$4,$5,0*
20,1,$1+$1,$4,$5,$6,$7,0*
20,1,$1+$1,$6,$7,$8,$9,0*
20,1,$1+$1,$8,$9,$2,$3,0*%
G04 Aperture macros list end*
%TA.AperFunction,ComponentPad*%
%ADD10RoundRect,0.500000X0.000000X-0.600000X0.000000X-0.600000X0.000000X0.600000X0.000000X0.600000X0*%
%TD*%
%TA.AperFunction,ViaPad*%
%ADD11C,0.800000*%
%TD*%
%TA.AperFunction,ViaPad*%
%ADD12C,1.000000*%
%TD*%
G04 APERTURE END LIST*
D10*
%TO.N,GND*%
%TO.C,J1*%
X142740000Y-111360000D03*
X153900000Y-116040000D03*
X142740000Y-116030000D03*
X153900000Y-111360000D03*
%TD*%
D11*
%TO.N,GND*%
X144100000Y-90420000D03*
%TO.N,+3V3*%
X150223007Y-92420159D03*
X150350000Y-96200000D03*
%TO.N,GND*%
X131530000Y-100040000D03*
X144370000Y-109470000D03*
X130460000Y-81080000D03*
X142740000Y-114410000D03*
X161240000Y-109010000D03*
X153640000Y-98010000D03*
X157790000Y-80950000D03*
X133650000Y-81050000D03*
X152270000Y-109480000D03*
X122300000Y-87100000D03*
X142630000Y-81020000D03*
X148100000Y-84790000D03*
X168100000Y-88830000D03*
X144370000Y-110280000D03*
X139620000Y-83260000D03*
X122340000Y-109010000D03*
X158780000Y-98680000D03*
X122300000Y-87920000D03*
X157830000Y-83190000D03*
X152250000Y-110300000D03*
X153910000Y-113040000D03*
X154240000Y-92420000D03*
X170210000Y-80770000D03*
X122240000Y-104610000D03*
X131590000Y-95510000D03*
X161800000Y-108110000D03*
X158780000Y-97870000D03*
X167980000Y-102000000D03*
X162940000Y-109010000D03*
X123900000Y-114740000D03*
X167130000Y-83210000D03*
X159600000Y-87334500D03*
X130140000Y-100010000D03*
X160920000Y-80910000D03*
X123285000Y-114040000D03*
X155344951Y-102439549D03*
X151220000Y-88730000D03*
X148900000Y-81060000D03*
X150340000Y-102890500D03*
X157090000Y-115320000D03*
X149496401Y-105486476D03*
X153900000Y-114380000D03*
X151210000Y-89540000D03*
X147565087Y-93485500D03*
X154200000Y-95950000D03*
X143264500Y-90420000D03*
X123440000Y-80010000D03*
X130660000Y-83120000D03*
X142140000Y-102010000D03*
X147789500Y-98171422D03*
X122340000Y-108110000D03*
X140740000Y-109010000D03*
X122940000Y-103910000D03*
X139550000Y-81030000D03*
X142740000Y-113010000D03*
X152030000Y-81090000D03*
D12*
X155749528Y-106709500D03*
D11*
X167020000Y-80810000D03*
X139150000Y-112500000D03*
X154195023Y-94254977D03*
X130130000Y-95550000D03*
%TO.N,VBUS*%
X157641938Y-111501938D03*
X150258205Y-108158945D03*
X151200000Y-108200000D03*
X156695562Y-110045562D03*
X145910000Y-108520000D03*
X145070000Y-108510000D03*
%TO.N,CS*%
X138120000Y-90530000D03*
X156050000Y-93840000D03*
%TO.N,MOSI*%
X124420000Y-88840000D03*
X134410500Y-92460000D03*
X156390000Y-94940000D03*
X137976512Y-92109750D03*
%TO.N,+3V3*%
X160840000Y-83110000D03*
X149410000Y-107010000D03*
X129698019Y-114225404D03*
X124950000Y-103670000D03*
X151940000Y-83310000D03*
X142640000Y-83190000D03*
X153617938Y-100833340D03*
X123940000Y-103670000D03*
X151770000Y-93300000D03*
X158780000Y-96470000D03*
X158790000Y-95670000D03*
X162920000Y-105750000D03*
X129391496Y-107734500D03*
X147870000Y-101980000D03*
X122350000Y-106920000D03*
X170140000Y-83110000D03*
X124940000Y-111510000D03*
X125040000Y-84910000D03*
X133630000Y-83140000D03*
X153370000Y-89690000D03*
%TO.N,SCLK*%
X156230000Y-97140000D03*
X139059670Y-99729670D03*
%TO.N,MISO*%
X159740000Y-102010000D03*
X131960000Y-88800000D03*
%TO.N,SD_DETECT*%
X158740000Y-101310000D03*
X135810000Y-88780000D03*
%TO.N,DTR*%
X127850500Y-97500000D03*
X129160000Y-103630000D03*
X138060000Y-107370000D03*
X144380000Y-104729500D03*
X129427045Y-111619826D03*
%TO.N,GPIO0*%
X143690000Y-96610000D03*
X139645000Y-88915000D03*
%TO.N,RTS*%
X127800000Y-103670000D03*
X126354750Y-101890500D03*
X126800000Y-111700000D03*
%TO.N,EN*%
X132080000Y-108840000D03*
X130170000Y-106880000D03*
%TO.N,IO35*%
X139340000Y-101710000D03*
X153630000Y-101870000D03*
%TO.N,IO33*%
X133151470Y-102978530D03*
X127440000Y-80310000D03*
%TO.N,IO25*%
X135375273Y-103432451D03*
%TO.N,IO26*%
X136440000Y-103710000D03*
%TO.N,IO13*%
X130879303Y-88986783D03*
X133440000Y-95310000D03*
X130540000Y-86192998D03*
X133440000Y-93180500D03*
%TO.N,I2C1_SDA*%
X138620000Y-92940000D03*
X149823639Y-93336407D03*
%TO.N,PROG_TX*%
X126530477Y-114530477D03*
X128240000Y-89710000D03*
%TO.N,PROG_RX*%
X126940000Y-88880000D03*
X128680477Y-112600000D03*
%TO.N,I2C1_SCL*%
X138650500Y-94150000D03*
X148915000Y-93752796D03*
%TO.N,Onboard_SDA*%
X144613323Y-93440327D03*
X146931102Y-96318898D03*
X148860000Y-97490500D03*
%TO.N,Onboard_SCL*%
X148130000Y-96420000D03*
X145650000Y-93485500D03*
%TO.N,IO27*%
X137670380Y-103747440D03*
%TO.N,IO32*%
X132050000Y-103460000D03*
X133040000Y-107880000D03*
X135480000Y-107940000D03*
%TD*%
%TA.AperFunction,Conductor*%
%TO.N,GND*%
G36*
X127133254Y-79238502D02*
G01*
X127179747Y-79292158D01*
X127189851Y-79362432D01*
X127160357Y-79427012D01*
X127116382Y-79459607D01*
X126989278Y-79516197D01*
X126989276Y-79516198D01*
X126983248Y-79518882D01*
X126828747Y-79631134D01*
X126700960Y-79773056D01*
X126605473Y-79938444D01*
X126546458Y-80120072D01*
X126526496Y-80310000D01*
X126546458Y-80499928D01*
X126605473Y-80681556D01*
X126700960Y-80846944D01*
X126828747Y-80988866D01*
X126983248Y-81101118D01*
X126989276Y-81103802D01*
X126989278Y-81103803D01*
X127028456Y-81121246D01*
X127157712Y-81178794D01*
X127251112Y-81198647D01*
X127338056Y-81217128D01*
X127338061Y-81217128D01*
X127344513Y-81218500D01*
X127535487Y-81218500D01*
X127541939Y-81217128D01*
X127541944Y-81217128D01*
X127628888Y-81198647D01*
X127722288Y-81178794D01*
X127851544Y-81121246D01*
X127890722Y-81103803D01*
X127890724Y-81103802D01*
X127896752Y-81101118D01*
X128051253Y-80988866D01*
X128179040Y-80846944D01*
X128274527Y-80681556D01*
X128333542Y-80499928D01*
X128353504Y-80310000D01*
X128333542Y-80120072D01*
X128274527Y-79938444D01*
X128179040Y-79773056D01*
X128051253Y-79631134D01*
X127896752Y-79518882D01*
X127890724Y-79516198D01*
X127890722Y-79516197D01*
X127763618Y-79459607D01*
X127709522Y-79413627D01*
X127688873Y-79345700D01*
X127708225Y-79277391D01*
X127761436Y-79230390D01*
X127814867Y-79218500D01*
X170590633Y-79218500D01*
X170610018Y-79220000D01*
X170624851Y-79222310D01*
X170624855Y-79222310D01*
X170633724Y-79223691D01*
X170650923Y-79221442D01*
X170674863Y-79220609D01*
X170932710Y-79236206D01*
X170947814Y-79238040D01*
X171019786Y-79251229D01*
X171228760Y-79289525D01*
X171243526Y-79293164D01*
X171516231Y-79378142D01*
X171530445Y-79383534D01*
X171748223Y-79481547D01*
X171790906Y-79500757D01*
X171804379Y-79507828D01*
X172048813Y-79655595D01*
X172061334Y-79664238D01*
X172286171Y-79840385D01*
X172297560Y-79850475D01*
X172499525Y-80052440D01*
X172509615Y-80063829D01*
X172685762Y-80288666D01*
X172694405Y-80301187D01*
X172842172Y-80545621D01*
X172849242Y-80559092D01*
X172966466Y-80819555D01*
X172971858Y-80833769D01*
X173018658Y-80983955D01*
X173056836Y-81106473D01*
X173060475Y-81121240D01*
X173078299Y-81218500D01*
X173111960Y-81402186D01*
X173113794Y-81417290D01*
X173128953Y-81667904D01*
X173127692Y-81694716D01*
X173127690Y-81694852D01*
X173126309Y-81703724D01*
X173127473Y-81712626D01*
X173127473Y-81712628D01*
X173130436Y-81735283D01*
X173131500Y-81751621D01*
X173131500Y-114660633D01*
X173130000Y-114680018D01*
X173127690Y-114694851D01*
X173127690Y-114694855D01*
X173126309Y-114703724D01*
X173128558Y-114720919D01*
X173129391Y-114744863D01*
X173113794Y-115002710D01*
X173111960Y-115017814D01*
X173091738Y-115128167D01*
X173060477Y-115298754D01*
X173056836Y-115313526D01*
X173018172Y-115437605D01*
X172971859Y-115586227D01*
X172966466Y-115600445D01*
X172882955Y-115786000D01*
X172849243Y-115860906D01*
X172842172Y-115874379D01*
X172694405Y-116118813D01*
X172685762Y-116131334D01*
X172509615Y-116356171D01*
X172499525Y-116367560D01*
X172297560Y-116569525D01*
X172286171Y-116579615D01*
X172061334Y-116755762D01*
X172048813Y-116764405D01*
X171804379Y-116912172D01*
X171790908Y-116919242D01*
X171530445Y-117036466D01*
X171516231Y-117041858D01*
X171243527Y-117126836D01*
X171228760Y-117130475D01*
X171019786Y-117168771D01*
X170947814Y-117181960D01*
X170932710Y-117183794D01*
X170682096Y-117198953D01*
X170655284Y-117197692D01*
X170655148Y-117197690D01*
X170646276Y-117196309D01*
X170637375Y-117197473D01*
X170637370Y-117197473D01*
X170614897Y-117200412D01*
X170598489Y-117201476D01*
X154950702Y-117192645D01*
X154882592Y-117172604D01*
X154836130Y-117118923D01*
X154826066Y-117048643D01*
X154834449Y-117018223D01*
X154866249Y-116941829D01*
X154869838Y-116930091D01*
X154906767Y-116746945D01*
X154907923Y-116737733D01*
X154908000Y-116734681D01*
X154908000Y-116312115D01*
X154903525Y-116296876D01*
X154902135Y-116295671D01*
X154894452Y-116294000D01*
X153772000Y-116294000D01*
X153703879Y-116273998D01*
X153657386Y-116220342D01*
X153646000Y-116168000D01*
X153646000Y-115767885D01*
X154154000Y-115767885D01*
X154158475Y-115783124D01*
X154159865Y-115784329D01*
X154167548Y-115786000D01*
X154889885Y-115786000D01*
X154905124Y-115781525D01*
X154906329Y-115780135D01*
X154908000Y-115772452D01*
X154908000Y-115345319D01*
X154907923Y-115342267D01*
X154906767Y-115333055D01*
X154869838Y-115149909D01*
X154866248Y-115138167D01*
X154795022Y-114967057D01*
X154789222Y-114956241D01*
X154686115Y-114802221D01*
X154678322Y-114792734D01*
X154547266Y-114661678D01*
X154537779Y-114653885D01*
X154383759Y-114550778D01*
X154372943Y-114544978D01*
X154201828Y-114473750D01*
X154190096Y-114470163D01*
X154171758Y-114466465D01*
X154158941Y-114467579D01*
X154154000Y-114482812D01*
X154154000Y-115767885D01*
X153646000Y-115767885D01*
X153646000Y-114481000D01*
X153642376Y-114468656D01*
X153626467Y-114466823D01*
X153609904Y-114470163D01*
X153592281Y-114475551D01*
X153591508Y-114473024D01*
X153532332Y-114479484D01*
X153468793Y-114447808D01*
X153432465Y-114386810D01*
X153428500Y-114355449D01*
X153428500Y-113044551D01*
X153448502Y-112976430D01*
X153502158Y-112929937D01*
X153572432Y-112919833D01*
X153592042Y-112925230D01*
X153592281Y-112924449D01*
X153609904Y-112929837D01*
X153628242Y-112933535D01*
X153641059Y-112932421D01*
X153645412Y-112919000D01*
X154154000Y-112919000D01*
X154157624Y-112931344D01*
X154173533Y-112933177D01*
X154190096Y-112929837D01*
X154201828Y-112926250D01*
X154372943Y-112855022D01*
X154383759Y-112849222D01*
X154537779Y-112746115D01*
X154547266Y-112738322D01*
X154678322Y-112607266D01*
X154686115Y-112597779D01*
X154789222Y-112443759D01*
X154795022Y-112432943D01*
X154866248Y-112261833D01*
X154869838Y-112250091D01*
X154906767Y-112066945D01*
X154907923Y-112057733D01*
X154908000Y-112054681D01*
X154908000Y-111632115D01*
X154903525Y-111616876D01*
X154902135Y-111615671D01*
X154894452Y-111614000D01*
X154172115Y-111614000D01*
X154156876Y-111618475D01*
X154155671Y-111619865D01*
X154154000Y-111627548D01*
X154154000Y-112919000D01*
X153645412Y-112919000D01*
X153646000Y-112917188D01*
X153646000Y-111087885D01*
X154154000Y-111087885D01*
X154158475Y-111103124D01*
X154159865Y-111104329D01*
X154167548Y-111106000D01*
X154889885Y-111106000D01*
X154905124Y-111101525D01*
X154906329Y-111100135D01*
X154908000Y-111092452D01*
X154908000Y-110665319D01*
X154907923Y-110662267D01*
X154906767Y-110653055D01*
X154869838Y-110469909D01*
X154866248Y-110458167D01*
X154795022Y-110287057D01*
X154789222Y-110276241D01*
X154686115Y-110122221D01*
X154678322Y-110112734D01*
X154611150Y-110045562D01*
X155782058Y-110045562D01*
X155802020Y-110235490D01*
X155861035Y-110417118D01*
X155956522Y-110582506D01*
X155960940Y-110587413D01*
X155960941Y-110587414D01*
X156072056Y-110710820D01*
X156084309Y-110724428D01*
X156165025Y-110783072D01*
X156231276Y-110831206D01*
X156238810Y-110836680D01*
X156244838Y-110839364D01*
X156244840Y-110839365D01*
X156394948Y-110906197D01*
X156413274Y-110914356D01*
X156506675Y-110934209D01*
X156593618Y-110952690D01*
X156593623Y-110952690D01*
X156600075Y-110954062D01*
X156692646Y-110954062D01*
X156760767Y-110974064D01*
X156807260Y-111027720D01*
X156817364Y-111097994D01*
X156808632Y-111128268D01*
X156807411Y-111130382D01*
X156805370Y-111136664D01*
X156805369Y-111136666D01*
X156793548Y-111173048D01*
X156748396Y-111312010D01*
X156747706Y-111318571D01*
X156747706Y-111318573D01*
X156734757Y-111441782D01*
X156728434Y-111501938D01*
X156748396Y-111691866D01*
X156807411Y-111873494D01*
X156810714Y-111879216D01*
X156810715Y-111879217D01*
X156813110Y-111883365D01*
X156902898Y-112038882D01*
X156907316Y-112043789D01*
X156907317Y-112043790D01*
X156965410Y-112108309D01*
X157030685Y-112180804D01*
X157185186Y-112293056D01*
X157191214Y-112295740D01*
X157191216Y-112295741D01*
X157353619Y-112368047D01*
X157359650Y-112370732D01*
X157453051Y-112390585D01*
X157539994Y-112409066D01*
X157539999Y-112409066D01*
X157546451Y-112410438D01*
X157737425Y-112410438D01*
X157743877Y-112409066D01*
X157743882Y-112409066D01*
X157830825Y-112390585D01*
X157924226Y-112370732D01*
X157930257Y-112368047D01*
X158092660Y-112295741D01*
X158092662Y-112295740D01*
X158098690Y-112293056D01*
X158253191Y-112180804D01*
X158318466Y-112108309D01*
X158376559Y-112043790D01*
X158376560Y-112043789D01*
X158380978Y-112038882D01*
X158470766Y-111883365D01*
X158473161Y-111879217D01*
X158473162Y-111879216D01*
X158476465Y-111873494D01*
X158535480Y-111691866D01*
X158555442Y-111501938D01*
X158549119Y-111441782D01*
X158536170Y-111318573D01*
X158536170Y-111318571D01*
X158535480Y-111312010D01*
X158476465Y-111130382D01*
X158380978Y-110964994D01*
X158369900Y-110952690D01*
X158257613Y-110827983D01*
X158257612Y-110827982D01*
X158253191Y-110823072D01*
X158115128Y-110722763D01*
X158104032Y-110714701D01*
X158104031Y-110714700D01*
X158098690Y-110710820D01*
X158092662Y-110708136D01*
X158092660Y-110708135D01*
X157930257Y-110635829D01*
X157930256Y-110635829D01*
X157924226Y-110633144D01*
X157830826Y-110613291D01*
X157743882Y-110594810D01*
X157743877Y-110594810D01*
X157737425Y-110593438D01*
X157644854Y-110593438D01*
X157576733Y-110573436D01*
X157530240Y-110519780D01*
X157520136Y-110449506D01*
X157528868Y-110419232D01*
X157530089Y-110417118D01*
X157589104Y-110235490D01*
X157609066Y-110045562D01*
X157589104Y-109855634D01*
X157530089Y-109674006D01*
X157434602Y-109508618D01*
X157353460Y-109418500D01*
X157311237Y-109371607D01*
X157311236Y-109371606D01*
X157306815Y-109366696D01*
X157152314Y-109254444D01*
X157146286Y-109251760D01*
X157146284Y-109251759D01*
X156983881Y-109179453D01*
X156983880Y-109179453D01*
X156977850Y-109176768D01*
X156884449Y-109156915D01*
X156797506Y-109138434D01*
X156797501Y-109138434D01*
X156791049Y-109137062D01*
X156600075Y-109137062D01*
X156593623Y-109138434D01*
X156593618Y-109138434D01*
X156506675Y-109156915D01*
X156413274Y-109176768D01*
X156407244Y-109179453D01*
X156407243Y-109179453D01*
X156244840Y-109251759D01*
X156244838Y-109251760D01*
X156238810Y-109254444D01*
X156084309Y-109366696D01*
X156079888Y-109371606D01*
X156079887Y-109371607D01*
X156037665Y-109418500D01*
X155956522Y-109508618D01*
X155861035Y-109674006D01*
X155802020Y-109855634D01*
X155782058Y-110045562D01*
X154611150Y-110045562D01*
X154547266Y-109981678D01*
X154537779Y-109973885D01*
X154383759Y-109870778D01*
X154372943Y-109864978D01*
X154201828Y-109793750D01*
X154190096Y-109790163D01*
X154171758Y-109786465D01*
X154158941Y-109787579D01*
X154154000Y-109802812D01*
X154154000Y-111087885D01*
X153646000Y-111087885D01*
X153646000Y-109801000D01*
X153642376Y-109788656D01*
X153626467Y-109786823D01*
X153609904Y-109790163D01*
X153598172Y-109793750D01*
X153427057Y-109864978D01*
X153416241Y-109870778D01*
X153262221Y-109973885D01*
X153252734Y-109981678D01*
X153121678Y-110112734D01*
X153113885Y-110122221D01*
X153010778Y-110276241D01*
X153004978Y-110287057D01*
X152933752Y-110458167D01*
X152930162Y-110469909D01*
X152893233Y-110653055D01*
X152892077Y-110662267D01*
X152892000Y-110665319D01*
X152892000Y-111156602D01*
X152871998Y-111224723D01*
X152818342Y-111271216D01*
X152748068Y-111281320D01*
X152683488Y-111251826D01*
X152645104Y-111192100D01*
X152641078Y-111173048D01*
X152635662Y-111131908D01*
X152634584Y-111123720D01*
X152576192Y-110982750D01*
X152483304Y-110861696D01*
X152362250Y-110768808D01*
X152241575Y-110718823D01*
X152228909Y-110713576D01*
X152221280Y-110710416D01*
X152107980Y-110695500D01*
X152032020Y-110695500D01*
X151918720Y-110710416D01*
X151911091Y-110713576D01*
X151898425Y-110718823D01*
X151777750Y-110768808D01*
X151759160Y-110783073D01*
X151692941Y-110808672D01*
X151663074Y-110807609D01*
X151640986Y-110804170D01*
X151624268Y-110800387D01*
X151604534Y-110794485D01*
X151604528Y-110794484D01*
X151595934Y-110791914D01*
X151586963Y-110791859D01*
X151586962Y-110791859D01*
X151576903Y-110791798D01*
X151561494Y-110791704D01*
X151560711Y-110791671D01*
X151559614Y-110791500D01*
X151528623Y-110791500D01*
X151527853Y-110791498D01*
X151454215Y-110791048D01*
X151454214Y-110791048D01*
X151450279Y-110791024D01*
X151448935Y-110791408D01*
X151447590Y-110791500D01*
X145228623Y-110791500D01*
X145227853Y-110791498D01*
X145227037Y-110791493D01*
X145150279Y-110791024D01*
X145127918Y-110797415D01*
X145121847Y-110799150D01*
X145105085Y-110802728D01*
X145075813Y-110806920D01*
X145067645Y-110810634D01*
X145067644Y-110810634D01*
X145052438Y-110817548D01*
X145034913Y-110823996D01*
X145032943Y-110824559D01*
X145022509Y-110827541D01*
X144951514Y-110827027D01*
X144911183Y-110806354D01*
X144868806Y-110773837D01*
X144868798Y-110773832D01*
X144862250Y-110768808D01*
X144741575Y-110718823D01*
X144728909Y-110713576D01*
X144721280Y-110710416D01*
X144607980Y-110695500D01*
X144532020Y-110695500D01*
X144418720Y-110710416D01*
X144411091Y-110713576D01*
X144398425Y-110718823D01*
X144277750Y-110768808D01*
X144156696Y-110861696D01*
X144063808Y-110982750D01*
X144005416Y-111123720D01*
X144004338Y-111131908D01*
X143998922Y-111173048D01*
X143970200Y-111237975D01*
X143910935Y-111277067D01*
X143839943Y-111277912D01*
X143779764Y-111240242D01*
X143749505Y-111176017D01*
X143748000Y-111156602D01*
X143748000Y-110665319D01*
X143747923Y-110662267D01*
X143746767Y-110653055D01*
X143709838Y-110469909D01*
X143706248Y-110458167D01*
X143635022Y-110287057D01*
X143629222Y-110276241D01*
X143526115Y-110122221D01*
X143518322Y-110112734D01*
X143387266Y-109981678D01*
X143377779Y-109973885D01*
X143223759Y-109870778D01*
X143212943Y-109864978D01*
X143041828Y-109793750D01*
X143030096Y-109790163D01*
X143011758Y-109786465D01*
X142998941Y-109787579D01*
X142994000Y-109802812D01*
X142994000Y-112919000D01*
X142997624Y-112931344D01*
X143013533Y-112933177D01*
X143030096Y-112929837D01*
X143047719Y-112924449D01*
X143048492Y-112926976D01*
X143107668Y-112920516D01*
X143171207Y-112952192D01*
X143207535Y-113013190D01*
X143211500Y-113044551D01*
X143211500Y-114345449D01*
X143191498Y-114413570D01*
X143137842Y-114460063D01*
X143067568Y-114470167D01*
X143047958Y-114464770D01*
X143047719Y-114465551D01*
X143030096Y-114460163D01*
X143011758Y-114456465D01*
X142998941Y-114457579D01*
X142994000Y-114472812D01*
X142994000Y-116158000D01*
X142973998Y-116226121D01*
X142920342Y-116272614D01*
X142868000Y-116284000D01*
X141750115Y-116284000D01*
X141734876Y-116288475D01*
X141733671Y-116289865D01*
X141732000Y-116297548D01*
X141732000Y-116724681D01*
X141732077Y-116727733D01*
X141733233Y-116736945D01*
X141770162Y-116920091D01*
X141773751Y-116931829D01*
X141809679Y-117018140D01*
X141817392Y-117088717D01*
X141785724Y-117152259D01*
X141724729Y-117188593D01*
X141693424Y-117192562D01*
X124689262Y-117201474D01*
X124669816Y-117199974D01*
X124660720Y-117198558D01*
X124655147Y-117197690D01*
X124655145Y-117197690D01*
X124646276Y-117196309D01*
X124629077Y-117198558D01*
X124605137Y-117199391D01*
X124347290Y-117183794D01*
X124332186Y-117181960D01*
X124260214Y-117168771D01*
X124051240Y-117130475D01*
X124036473Y-117126836D01*
X123763769Y-117041858D01*
X123749555Y-117036466D01*
X123489092Y-116919242D01*
X123475621Y-116912172D01*
X123231187Y-116764405D01*
X123218666Y-116755762D01*
X122993829Y-116579615D01*
X122982440Y-116569525D01*
X122780475Y-116367560D01*
X122770385Y-116356171D01*
X122594238Y-116131334D01*
X122585595Y-116118813D01*
X122437828Y-115874379D01*
X122430757Y-115860906D01*
X122397045Y-115786000D01*
X122384392Y-115757885D01*
X141732000Y-115757885D01*
X141736475Y-115773124D01*
X141737865Y-115774329D01*
X141745548Y-115776000D01*
X142467885Y-115776000D01*
X142483124Y-115771525D01*
X142484329Y-115770135D01*
X142486000Y-115762452D01*
X142486000Y-114471000D01*
X142482376Y-114458656D01*
X142466467Y-114456823D01*
X142449904Y-114460163D01*
X142438172Y-114463750D01*
X142267057Y-114534978D01*
X142256241Y-114540778D01*
X142102221Y-114643885D01*
X142092734Y-114651678D01*
X141961678Y-114782734D01*
X141953885Y-114792221D01*
X141850778Y-114946241D01*
X141844978Y-114957057D01*
X141773752Y-115128167D01*
X141770162Y-115139909D01*
X141733233Y-115323055D01*
X141732077Y-115332267D01*
X141732000Y-115335319D01*
X141732000Y-115757885D01*
X122384392Y-115757885D01*
X122313534Y-115600445D01*
X122308141Y-115586227D01*
X122261829Y-115437605D01*
X122223164Y-115313526D01*
X122219523Y-115298754D01*
X122188263Y-115128167D01*
X122168040Y-115017814D01*
X122166206Y-115002710D01*
X122151269Y-114755768D01*
X122152520Y-114732216D01*
X122152334Y-114732199D01*
X122152769Y-114727350D01*
X122153576Y-114722552D01*
X122153729Y-114710000D01*
X122149773Y-114682376D01*
X122148500Y-114664514D01*
X122148500Y-114530477D01*
X125616973Y-114530477D01*
X125617663Y-114537042D01*
X125630763Y-114661678D01*
X125636935Y-114720405D01*
X125695950Y-114902033D01*
X125699253Y-114907755D01*
X125699254Y-114907756D01*
X125727247Y-114956241D01*
X125791437Y-115067421D01*
X125795855Y-115072328D01*
X125795856Y-115072329D01*
X125815547Y-115094198D01*
X125919224Y-115209343D01*
X126073725Y-115321595D01*
X126079753Y-115324279D01*
X126079755Y-115324280D01*
X126120155Y-115342267D01*
X126248189Y-115399271D01*
X126341590Y-115419124D01*
X126428533Y-115437605D01*
X126428538Y-115437605D01*
X126434990Y-115438977D01*
X126625964Y-115438977D01*
X126632416Y-115437605D01*
X126632421Y-115437605D01*
X126719364Y-115419124D01*
X126812765Y-115399271D01*
X126940799Y-115342267D01*
X126981199Y-115324280D01*
X126981201Y-115324279D01*
X126987229Y-115321595D01*
X127141730Y-115209343D01*
X127245407Y-115094198D01*
X127265098Y-115072329D01*
X127265099Y-115072328D01*
X127269517Y-115067421D01*
X127333707Y-114956241D01*
X127361700Y-114907756D01*
X127361701Y-114907755D01*
X127365004Y-114902033D01*
X127424019Y-114720405D01*
X127430192Y-114661678D01*
X127443291Y-114537042D01*
X127443981Y-114530477D01*
X127438781Y-114481000D01*
X127424709Y-114347112D01*
X127424709Y-114347110D01*
X127424019Y-114340549D01*
X127365004Y-114158921D01*
X127269517Y-113993533D01*
X127141730Y-113851611D01*
X126987229Y-113739359D01*
X126981201Y-113736675D01*
X126981199Y-113736674D01*
X126818796Y-113664368D01*
X126818795Y-113664368D01*
X126812765Y-113661683D01*
X126719365Y-113641830D01*
X126632421Y-113623349D01*
X126632416Y-113623349D01*
X126625964Y-113621977D01*
X126434990Y-113621977D01*
X126428538Y-113623349D01*
X126428533Y-113623349D01*
X126341589Y-113641830D01*
X126248189Y-113661683D01*
X126242159Y-113664368D01*
X126242158Y-113664368D01*
X126079755Y-113736674D01*
X126079753Y-113736675D01*
X126073725Y-113739359D01*
X125919224Y-113851611D01*
X125791437Y-113993533D01*
X125695950Y-114158921D01*
X125636935Y-114340549D01*
X125636245Y-114347110D01*
X125636245Y-114347112D01*
X125622173Y-114481000D01*
X125616973Y-114530477D01*
X122148500Y-114530477D01*
X122148500Y-111510000D01*
X124026496Y-111510000D01*
X124027186Y-111516565D01*
X124045611Y-111691866D01*
X124046458Y-111699928D01*
X124105473Y-111881556D01*
X124108776Y-111887278D01*
X124108777Y-111887279D01*
X124128323Y-111921134D01*
X124200960Y-112046944D01*
X124205378Y-112051851D01*
X124205379Y-112051852D01*
X124256213Y-112108309D01*
X124328747Y-112188866D01*
X124401676Y-112241852D01*
X124473150Y-112293781D01*
X124483248Y-112301118D01*
X124489276Y-112303802D01*
X124489278Y-112303803D01*
X124639604Y-112370732D01*
X124657712Y-112378794D01*
X124751112Y-112398647D01*
X124838056Y-112417128D01*
X124838061Y-112417128D01*
X124844513Y-112418500D01*
X125035487Y-112418500D01*
X125041939Y-112417128D01*
X125041944Y-112417128D01*
X125128888Y-112398647D01*
X125222288Y-112378794D01*
X125240396Y-112370732D01*
X125390722Y-112303803D01*
X125390724Y-112303802D01*
X125396752Y-112301118D01*
X125406851Y-112293781D01*
X125478324Y-112241852D01*
X125551253Y-112188866D01*
X125623787Y-112108309D01*
X125674621Y-112051852D01*
X125674622Y-112051851D01*
X125679040Y-112046944D01*
X125715707Y-111983435D01*
X125767090Y-111934442D01*
X125836803Y-111921006D01*
X125902714Y-111947392D01*
X125944659Y-112007498D01*
X125965473Y-112071556D01*
X126060960Y-112236944D01*
X126065378Y-112241851D01*
X126065379Y-112241852D01*
X126181423Y-112370732D01*
X126188747Y-112378866D01*
X126343248Y-112491118D01*
X126349276Y-112493802D01*
X126349278Y-112493803D01*
X126354013Y-112495911D01*
X126517712Y-112568794D01*
X126611113Y-112588647D01*
X126698056Y-112607128D01*
X126698061Y-112607128D01*
X126704513Y-112608500D01*
X126895487Y-112608500D01*
X126901939Y-112607128D01*
X126901944Y-112607128D01*
X126935477Y-112600000D01*
X127766973Y-112600000D01*
X127786935Y-112789928D01*
X127845950Y-112971556D01*
X127941437Y-113136944D01*
X128069224Y-113278866D01*
X128223725Y-113391118D01*
X128229753Y-113393802D01*
X128229755Y-113393803D01*
X128320682Y-113434286D01*
X128398189Y-113468794D01*
X128491590Y-113488647D01*
X128578533Y-113507128D01*
X128578538Y-113507128D01*
X128584990Y-113508500D01*
X128775964Y-113508500D01*
X128788462Y-113505843D01*
X128826974Y-113497658D01*
X128897765Y-113503061D01*
X128954397Y-113545878D01*
X128978890Y-113612515D01*
X128963469Y-113681817D01*
X128959881Y-113687458D01*
X128958979Y-113688460D01*
X128863492Y-113853848D01*
X128804477Y-114035476D01*
X128803787Y-114042037D01*
X128803787Y-114042039D01*
X128790842Y-114165206D01*
X128784515Y-114225404D01*
X128804477Y-114415332D01*
X128863492Y-114596960D01*
X128866795Y-114602682D01*
X128866796Y-114602683D01*
X128896358Y-114653885D01*
X128958979Y-114762348D01*
X128963397Y-114767255D01*
X128963398Y-114767256D01*
X128994881Y-114802221D01*
X129086766Y-114904270D01*
X129144534Y-114946241D01*
X129232727Y-115010317D01*
X129241267Y-115016522D01*
X129247295Y-115019206D01*
X129247297Y-115019207D01*
X129366612Y-115072329D01*
X129415731Y-115094198D01*
X129509132Y-115114051D01*
X129596075Y-115132532D01*
X129596080Y-115132532D01*
X129602532Y-115133904D01*
X129793506Y-115133904D01*
X129799958Y-115132532D01*
X129799963Y-115132532D01*
X129886906Y-115114051D01*
X129980307Y-115094198D01*
X130029426Y-115072329D01*
X130148741Y-115019207D01*
X130148743Y-115019206D01*
X130154771Y-115016522D01*
X130163312Y-115010317D01*
X130251504Y-114946241D01*
X130309272Y-114904270D01*
X130401157Y-114802221D01*
X130432640Y-114767256D01*
X130432641Y-114767255D01*
X130437059Y-114762348D01*
X130499680Y-114653885D01*
X130529242Y-114602683D01*
X130529243Y-114602682D01*
X130532546Y-114596960D01*
X130591561Y-114415332D01*
X130611523Y-114225404D01*
X130605196Y-114165206D01*
X130592251Y-114042039D01*
X130592251Y-114042037D01*
X130591561Y-114035476D01*
X130532546Y-113853848D01*
X130437059Y-113688460D01*
X130415367Y-113664368D01*
X130313694Y-113551449D01*
X130313693Y-113551448D01*
X130309272Y-113546538D01*
X130154771Y-113434286D01*
X130148743Y-113431602D01*
X130148741Y-113431601D01*
X129986338Y-113359295D01*
X129986337Y-113359295D01*
X129980307Y-113356610D01*
X129886907Y-113336757D01*
X129799963Y-113318276D01*
X129799958Y-113318276D01*
X129793506Y-113316904D01*
X129602532Y-113316904D01*
X129596072Y-113318277D01*
X129596073Y-113318277D01*
X129551522Y-113327746D01*
X129480731Y-113322343D01*
X129424099Y-113279526D01*
X129399606Y-113212889D01*
X129415027Y-113143587D01*
X129418615Y-113137946D01*
X129419517Y-113136944D01*
X129515004Y-112971556D01*
X129574019Y-112789928D01*
X129593750Y-112602198D01*
X129620763Y-112536541D01*
X129678985Y-112495911D01*
X129692862Y-112492122D01*
X129702869Y-112489995D01*
X129702878Y-112489992D01*
X129709333Y-112488620D01*
X129810093Y-112443759D01*
X129877767Y-112413629D01*
X129877769Y-112413628D01*
X129883797Y-112410944D01*
X130038298Y-112298692D01*
X130071486Y-112261833D01*
X130161666Y-112161678D01*
X130161667Y-112161677D01*
X130166085Y-112156770D01*
X130225026Y-112054681D01*
X141732000Y-112054681D01*
X141732077Y-112057733D01*
X141733233Y-112066945D01*
X141770162Y-112250091D01*
X141773752Y-112261833D01*
X141844978Y-112432943D01*
X141850778Y-112443759D01*
X141953885Y-112597779D01*
X141961678Y-112607266D01*
X142092734Y-112738322D01*
X142102221Y-112746115D01*
X142256241Y-112849222D01*
X142267057Y-112855022D01*
X142438172Y-112926250D01*
X142449904Y-112929837D01*
X142468242Y-112933535D01*
X142481059Y-112932421D01*
X142486000Y-112917188D01*
X142486000Y-111632115D01*
X142481525Y-111616876D01*
X142480135Y-111615671D01*
X142472452Y-111614000D01*
X141750115Y-111614000D01*
X141734876Y-111618475D01*
X141733671Y-111619865D01*
X141732000Y-111627548D01*
X141732000Y-112054681D01*
X130225026Y-112054681D01*
X130232323Y-112042042D01*
X130258268Y-111997105D01*
X130258269Y-111997104D01*
X130261572Y-111991382D01*
X130320587Y-111809754D01*
X130328561Y-111733891D01*
X130339859Y-111626391D01*
X130340549Y-111619826D01*
X130336838Y-111584515D01*
X130321277Y-111436461D01*
X130321277Y-111436459D01*
X130320587Y-111429898D01*
X130261572Y-111248270D01*
X130168973Y-111087885D01*
X141732000Y-111087885D01*
X141736475Y-111103124D01*
X141737865Y-111104329D01*
X141745548Y-111106000D01*
X142467885Y-111106000D01*
X142483124Y-111101525D01*
X142484329Y-111100135D01*
X142486000Y-111092452D01*
X142486000Y-109801000D01*
X142482376Y-109788656D01*
X142466467Y-109786823D01*
X142449904Y-109790163D01*
X142438172Y-109793750D01*
X142267057Y-109864978D01*
X142256241Y-109870778D01*
X142102221Y-109973885D01*
X142092734Y-109981678D01*
X141961678Y-110112734D01*
X141953885Y-110122221D01*
X141850778Y-110276241D01*
X141844978Y-110287057D01*
X141773752Y-110458167D01*
X141770162Y-110469909D01*
X141733233Y-110653055D01*
X141732077Y-110662267D01*
X141732000Y-110665319D01*
X141732000Y-111087885D01*
X130168973Y-111087885D01*
X130166085Y-111082882D01*
X130038298Y-110940960D01*
X129898465Y-110839365D01*
X129889139Y-110832589D01*
X129889138Y-110832588D01*
X129883797Y-110828708D01*
X129877769Y-110826024D01*
X129877767Y-110826023D01*
X129715364Y-110753717D01*
X129715363Y-110753717D01*
X129709333Y-110751032D01*
X129602440Y-110728311D01*
X129528989Y-110712698D01*
X129528984Y-110712698D01*
X129522532Y-110711326D01*
X129331558Y-110711326D01*
X129325106Y-110712698D01*
X129325101Y-110712698D01*
X129251650Y-110728311D01*
X129144757Y-110751032D01*
X129138727Y-110753717D01*
X129138726Y-110753717D01*
X128976323Y-110826023D01*
X128976321Y-110826024D01*
X128970293Y-110828708D01*
X128964952Y-110832588D01*
X128964951Y-110832589D01*
X128955625Y-110839365D01*
X128815792Y-110940960D01*
X128688005Y-111082882D01*
X128592518Y-111248270D01*
X128533503Y-111429898D01*
X128532813Y-111436459D01*
X128532813Y-111436461D01*
X128513772Y-111617628D01*
X128486759Y-111683285D01*
X128428537Y-111723915D01*
X128414660Y-111727704D01*
X128404653Y-111729831D01*
X128404644Y-111729834D01*
X128398189Y-111731206D01*
X128392159Y-111733891D01*
X128392158Y-111733891D01*
X128229755Y-111806197D01*
X128229753Y-111806198D01*
X128223725Y-111808882D01*
X128069224Y-111921134D01*
X128064803Y-111926044D01*
X128064802Y-111926045D01*
X127991462Y-112007498D01*
X127941437Y-112063056D01*
X127918187Y-112103326D01*
X127866559Y-112192749D01*
X127845950Y-112228444D01*
X127786935Y-112410072D01*
X127786245Y-112416633D01*
X127786245Y-112416635D01*
X127778825Y-112487237D01*
X127766973Y-112600000D01*
X126935477Y-112600000D01*
X126988887Y-112588647D01*
X127082288Y-112568794D01*
X127245987Y-112495911D01*
X127250722Y-112493803D01*
X127250724Y-112493802D01*
X127256752Y-112491118D01*
X127411253Y-112378866D01*
X127418577Y-112370732D01*
X127534621Y-112241852D01*
X127534622Y-112241851D01*
X127539040Y-112236944D01*
X127634527Y-112071556D01*
X127693542Y-111889928D01*
X127695083Y-111875271D01*
X127712814Y-111706565D01*
X127713504Y-111700000D01*
X127705889Y-111627548D01*
X127694232Y-111516635D01*
X127694232Y-111516633D01*
X127693542Y-111510072D01*
X127634527Y-111328444D01*
X127630474Y-111321423D01*
X127575707Y-111226565D01*
X127539040Y-111163056D01*
X127515279Y-111136666D01*
X127415675Y-111026045D01*
X127415674Y-111026044D01*
X127411253Y-111021134D01*
X127266175Y-110915728D01*
X127262094Y-110912763D01*
X127262093Y-110912762D01*
X127256752Y-110908882D01*
X127250724Y-110906198D01*
X127250722Y-110906197D01*
X127088319Y-110833891D01*
X127088318Y-110833891D01*
X127082288Y-110831206D01*
X126976496Y-110808719D01*
X126901944Y-110792872D01*
X126901939Y-110792872D01*
X126895487Y-110791500D01*
X126704513Y-110791500D01*
X126698061Y-110792872D01*
X126698056Y-110792872D01*
X126623504Y-110808719D01*
X126517712Y-110831206D01*
X126511682Y-110833891D01*
X126511681Y-110833891D01*
X126349278Y-110906197D01*
X126349276Y-110906198D01*
X126343248Y-110908882D01*
X126337907Y-110912762D01*
X126337906Y-110912763D01*
X126333825Y-110915728D01*
X126188747Y-111021134D01*
X126184326Y-111026044D01*
X126184325Y-111026045D01*
X126084722Y-111136666D01*
X126060960Y-111163056D01*
X126038186Y-111202502D01*
X126024293Y-111226565D01*
X125972910Y-111275558D01*
X125903197Y-111288994D01*
X125837286Y-111262608D01*
X125795341Y-111202502D01*
X125776568Y-111144726D01*
X125774527Y-111138444D01*
X125770754Y-111131908D01*
X125682341Y-110978774D01*
X125679040Y-110973056D01*
X125660703Y-110952690D01*
X125555675Y-110836045D01*
X125555674Y-110836044D01*
X125551253Y-110831134D01*
X125409730Y-110728311D01*
X125402094Y-110722763D01*
X125402093Y-110722762D01*
X125396752Y-110718882D01*
X125390724Y-110716198D01*
X125390722Y-110716197D01*
X125228319Y-110643891D01*
X125228318Y-110643891D01*
X125222288Y-110641206D01*
X125128887Y-110621353D01*
X125041944Y-110602872D01*
X125041939Y-110602872D01*
X125035487Y-110601500D01*
X124844513Y-110601500D01*
X124838061Y-110602872D01*
X124838056Y-110602872D01*
X124751113Y-110621353D01*
X124657712Y-110641206D01*
X124651682Y-110643891D01*
X124651681Y-110643891D01*
X124489278Y-110716197D01*
X124489276Y-110716198D01*
X124483248Y-110718882D01*
X124477907Y-110722762D01*
X124477906Y-110722763D01*
X124470270Y-110728311D01*
X124328747Y-110831134D01*
X124324326Y-110836044D01*
X124324325Y-110836045D01*
X124219298Y-110952690D01*
X124200960Y-110973056D01*
X124197659Y-110978774D01*
X124109247Y-111131908D01*
X124105473Y-111138444D01*
X124046458Y-111320072D01*
X124045768Y-111326633D01*
X124045768Y-111326635D01*
X124043164Y-111351413D01*
X124026496Y-111510000D01*
X122148500Y-111510000D01*
X122148500Y-108840000D01*
X131166496Y-108840000D01*
X131167186Y-108846565D01*
X131182423Y-108991533D01*
X131186458Y-109029928D01*
X131245473Y-109211556D01*
X131340960Y-109376944D01*
X131468747Y-109518866D01*
X131623248Y-109631118D01*
X131629276Y-109633802D01*
X131629278Y-109633803D01*
X131791681Y-109706109D01*
X131797712Y-109708794D01*
X131891112Y-109728647D01*
X131978056Y-109747128D01*
X131978061Y-109747128D01*
X131984513Y-109748500D01*
X132175487Y-109748500D01*
X132181939Y-109747128D01*
X132181944Y-109747128D01*
X132268887Y-109728647D01*
X132362288Y-109708794D01*
X132368319Y-109706109D01*
X132530722Y-109633803D01*
X132530724Y-109633802D01*
X132536752Y-109631118D01*
X132691253Y-109518866D01*
X132819040Y-109376944D01*
X132914527Y-109211556D01*
X132973542Y-109029928D01*
X132977578Y-108991533D01*
X132987058Y-108901330D01*
X133014071Y-108835673D01*
X133072293Y-108795043D01*
X133112368Y-108788500D01*
X133135487Y-108788500D01*
X133141939Y-108787128D01*
X133141944Y-108787128D01*
X133228887Y-108768647D01*
X133322288Y-108748794D01*
X133361747Y-108731226D01*
X133490722Y-108673803D01*
X133490724Y-108673802D01*
X133496752Y-108671118D01*
X133651253Y-108558866D01*
X133779040Y-108416944D01*
X133874527Y-108251556D01*
X133933542Y-108069928D01*
X133947198Y-107940000D01*
X134566496Y-107940000D01*
X134567186Y-107946565D01*
X134574551Y-108016635D01*
X134586458Y-108129928D01*
X134645473Y-108311556D01*
X134648776Y-108317278D01*
X134648777Y-108317279D01*
X134654179Y-108326635D01*
X134740960Y-108476944D01*
X134745378Y-108481851D01*
X134745379Y-108481852D01*
X134776635Y-108516565D01*
X134868747Y-108618866D01*
X134944361Y-108673803D01*
X134994083Y-108709928D01*
X135023248Y-108731118D01*
X135029276Y-108733802D01*
X135029278Y-108733803D01*
X135191681Y-108806109D01*
X135197712Y-108808794D01*
X135291112Y-108828647D01*
X135378056Y-108847128D01*
X135378061Y-108847128D01*
X135384513Y-108848500D01*
X135575487Y-108848500D01*
X135581939Y-108847128D01*
X135581944Y-108847128D01*
X135668887Y-108828647D01*
X135762288Y-108808794D01*
X135768319Y-108806109D01*
X135930722Y-108733803D01*
X135930724Y-108733802D01*
X135936752Y-108731118D01*
X135965918Y-108709928D01*
X136015639Y-108673803D01*
X136091253Y-108618866D01*
X136183365Y-108516565D01*
X136189276Y-108510000D01*
X144156496Y-108510000D01*
X144157186Y-108516565D01*
X144175433Y-108690171D01*
X144176458Y-108699928D01*
X144235473Y-108881556D01*
X144238776Y-108887278D01*
X144238777Y-108887279D01*
X144272686Y-108946010D01*
X144330960Y-109046944D01*
X144335378Y-109051851D01*
X144335379Y-109051852D01*
X144454325Y-109183955D01*
X144458747Y-109188866D01*
X144613248Y-109301118D01*
X144619276Y-109303802D01*
X144619278Y-109303803D01*
X144781681Y-109376109D01*
X144787712Y-109378794D01*
X144881112Y-109398647D01*
X144968056Y-109417128D01*
X144968061Y-109417128D01*
X144974513Y-109418500D01*
X145165487Y-109418500D01*
X145171939Y-109417128D01*
X145171944Y-109417128D01*
X145258888Y-109398647D01*
X145352288Y-109378794D01*
X145368431Y-109371607D01*
X145388182Y-109362813D01*
X145427522Y-109345298D01*
X145497888Y-109335864D01*
X145530016Y-109345297D01*
X145589109Y-109371607D01*
X145605252Y-109378794D01*
X145627712Y-109388794D01*
X145721113Y-109408647D01*
X145808056Y-109427128D01*
X145808061Y-109427128D01*
X145814513Y-109428500D01*
X146005487Y-109428500D01*
X146011939Y-109427128D01*
X146011944Y-109427128D01*
X146098887Y-109408647D01*
X146192288Y-109388794D01*
X146211667Y-109380166D01*
X146360722Y-109313803D01*
X146360724Y-109313802D01*
X146366752Y-109311118D01*
X146385858Y-109297237D01*
X146448452Y-109251759D01*
X146521253Y-109198866D01*
X146541150Y-109176768D01*
X146644621Y-109061852D01*
X146644622Y-109061851D01*
X146649040Y-109056944D01*
X146744527Y-108891556D01*
X146803542Y-108709928D01*
X146823504Y-108520000D01*
X146812673Y-108416944D01*
X146804232Y-108336635D01*
X146804232Y-108336633D01*
X146803542Y-108330072D01*
X146744527Y-108148444D01*
X146738754Y-108138444D01*
X146699196Y-108069928D01*
X146649040Y-107983056D01*
X146616184Y-107946565D01*
X146525675Y-107846045D01*
X146525674Y-107846044D01*
X146521253Y-107841134D01*
X146396047Y-107750166D01*
X146372094Y-107732763D01*
X146372093Y-107732762D01*
X146366752Y-107728882D01*
X146360724Y-107726198D01*
X146360722Y-107726197D01*
X146198319Y-107653891D01*
X146198318Y-107653891D01*
X146192288Y-107651206D01*
X146098888Y-107631353D01*
X146011944Y-107612872D01*
X146011939Y-107612872D01*
X146005487Y-107611500D01*
X145814513Y-107611500D01*
X145808061Y-107612872D01*
X145808056Y-107612872D01*
X145721112Y-107631353D01*
X145627712Y-107651206D01*
X145552478Y-107684702D01*
X145482112Y-107694136D01*
X145449984Y-107684703D01*
X145380779Y-107653891D01*
X145358319Y-107643891D01*
X145358318Y-107643891D01*
X145352288Y-107641206D01*
X145258888Y-107621353D01*
X145171944Y-107602872D01*
X145171939Y-107602872D01*
X145165487Y-107601500D01*
X144974513Y-107601500D01*
X144968061Y-107602872D01*
X144968056Y-107602872D01*
X144881113Y-107621353D01*
X144787712Y-107641206D01*
X144781682Y-107643891D01*
X144781681Y-107643891D01*
X144619278Y-107716197D01*
X144619276Y-107716198D01*
X144613248Y-107718882D01*
X144607907Y-107722762D01*
X144607906Y-107722763D01*
X144582716Y-107741065D01*
X144458747Y-107831134D01*
X144454326Y-107836044D01*
X144454325Y-107836045D01*
X144354813Y-107946565D01*
X144330960Y-107973056D01*
X144235473Y-108138444D01*
X144176458Y-108320072D01*
X144175768Y-108326633D01*
X144175768Y-108326635D01*
X144166276Y-108416944D01*
X144156496Y-108510000D01*
X136189276Y-108510000D01*
X136214621Y-108481852D01*
X136214622Y-108481851D01*
X136219040Y-108476944D01*
X136305821Y-108326635D01*
X136311223Y-108317279D01*
X136311224Y-108317278D01*
X136314527Y-108311556D01*
X136373542Y-108129928D01*
X136385450Y-108016635D01*
X136392814Y-107946565D01*
X136393504Y-107940000D01*
X136373542Y-107750072D01*
X136314527Y-107568444D01*
X136300745Y-107544572D01*
X136223757Y-107411226D01*
X136219040Y-107403056D01*
X136204835Y-107387279D01*
X136189277Y-107370000D01*
X137146496Y-107370000D01*
X137147186Y-107376565D01*
X137162381Y-107521134D01*
X137166458Y-107559928D01*
X137225473Y-107741556D01*
X137228776Y-107747278D01*
X137228777Y-107747279D01*
X137259861Y-107801118D01*
X137320960Y-107906944D01*
X137325378Y-107911851D01*
X137325379Y-107911852D01*
X137376068Y-107968148D01*
X137448747Y-108048866D01*
X137527462Y-108106056D01*
X137591223Y-108152381D01*
X137603248Y-108161118D01*
X137609276Y-108163802D01*
X137609278Y-108163803D01*
X137705324Y-108206565D01*
X137777712Y-108238794D01*
X137864677Y-108257279D01*
X137958056Y-108277128D01*
X137958061Y-108277128D01*
X137964513Y-108278500D01*
X138155487Y-108278500D01*
X138161939Y-108277128D01*
X138161944Y-108277128D01*
X138255323Y-108257279D01*
X138342288Y-108238794D01*
X138414676Y-108206565D01*
X138510722Y-108163803D01*
X138510724Y-108163802D01*
X138516752Y-108161118D01*
X138528778Y-108152381D01*
X138592538Y-108106056D01*
X138671253Y-108048866D01*
X138743932Y-107968148D01*
X138794621Y-107911852D01*
X138794622Y-107911851D01*
X138799040Y-107906944D01*
X138860139Y-107801118D01*
X138891223Y-107747279D01*
X138891224Y-107747278D01*
X138894527Y-107741556D01*
X138953542Y-107559928D01*
X138957620Y-107521134D01*
X138972814Y-107376565D01*
X138973504Y-107370000D01*
X138965259Y-107291556D01*
X138954232Y-107186635D01*
X138954232Y-107186633D01*
X138953542Y-107180072D01*
X138898282Y-107010000D01*
X148496496Y-107010000D01*
X148497186Y-107016564D01*
X148497186Y-107016565D01*
X148512958Y-107166624D01*
X148516458Y-107199928D01*
X148575473Y-107381556D01*
X148578776Y-107387278D01*
X148578777Y-107387279D01*
X148591187Y-107408774D01*
X148670960Y-107546944D01*
X148675378Y-107551851D01*
X148675379Y-107551852D01*
X148779272Y-107667237D01*
X148798747Y-107688866D01*
X148883119Y-107750166D01*
X148936286Y-107788794D01*
X148953248Y-107801118D01*
X148959276Y-107803802D01*
X148959278Y-107803803D01*
X149054156Y-107846045D01*
X149127712Y-107878794D01*
X149232355Y-107901037D01*
X149257789Y-107906443D01*
X149320263Y-107940172D01*
X149354584Y-108002321D01*
X149356902Y-108042860D01*
X149344701Y-108158945D01*
X149345391Y-108165510D01*
X149359332Y-108298148D01*
X149364663Y-108348873D01*
X149423678Y-108530501D01*
X149426981Y-108536223D01*
X149426982Y-108536224D01*
X149447381Y-108571556D01*
X149519165Y-108695889D01*
X149523583Y-108700796D01*
X149523584Y-108700797D01*
X149618407Y-108806109D01*
X149646952Y-108837811D01*
X149801453Y-108950063D01*
X149807481Y-108952747D01*
X149807483Y-108952748D01*
X149969886Y-109025054D01*
X149975917Y-109027739D01*
X150066269Y-109046944D01*
X150156261Y-109066073D01*
X150156266Y-109066073D01*
X150162718Y-109067445D01*
X150353692Y-109067445D01*
X150360144Y-109066073D01*
X150360149Y-109066073D01*
X150450141Y-109046944D01*
X150540493Y-109027739D01*
X150550318Y-109023365D01*
X150632911Y-108986592D01*
X150703278Y-108977158D01*
X150743214Y-108991194D01*
X150743248Y-108991118D01*
X150749276Y-108993802D01*
X150749278Y-108993803D01*
X150911681Y-109066109D01*
X150917712Y-109068794D01*
X151011112Y-109088647D01*
X151098056Y-109107128D01*
X151098061Y-109107128D01*
X151104513Y-109108500D01*
X151295487Y-109108500D01*
X151301939Y-109107128D01*
X151301944Y-109107128D01*
X151388887Y-109088647D01*
X151482288Y-109068794D01*
X151488319Y-109066109D01*
X151650722Y-108993803D01*
X151650724Y-108993802D01*
X151656752Y-108991118D01*
X151662982Y-108986592D01*
X151780334Y-108901330D01*
X151811253Y-108878866D01*
X151876764Y-108806109D01*
X151934621Y-108741852D01*
X151934622Y-108741851D01*
X151939040Y-108736944D01*
X152034527Y-108571556D01*
X152093542Y-108389928D01*
X152105254Y-108278500D01*
X152112814Y-108206565D01*
X152113504Y-108200000D01*
X152109011Y-108157251D01*
X152094232Y-108016635D01*
X152094232Y-108016633D01*
X152093542Y-108010072D01*
X152034527Y-107828444D01*
X152020301Y-107803803D01*
X151976498Y-107727935D01*
X151939040Y-107663056D01*
X151884740Y-107602749D01*
X151815675Y-107526045D01*
X151815674Y-107526044D01*
X151811253Y-107521134D01*
X151674604Y-107421852D01*
X151662094Y-107412763D01*
X151662093Y-107412762D01*
X151656752Y-107408882D01*
X151650724Y-107406198D01*
X151650722Y-107406197D01*
X151488319Y-107333891D01*
X151488318Y-107333891D01*
X151482288Y-107331206D01*
X151388888Y-107311353D01*
X151301944Y-107292872D01*
X151301939Y-107292872D01*
X151295487Y-107291500D01*
X151104513Y-107291500D01*
X151098061Y-107292872D01*
X151098056Y-107292872D01*
X151011112Y-107311353D01*
X150917712Y-107331206D01*
X150911682Y-107333891D01*
X150911681Y-107333891D01*
X150825294Y-107372353D01*
X150754927Y-107381787D01*
X150714991Y-107367751D01*
X150714957Y-107367827D01*
X150714025Y-107367412D01*
X150714024Y-107367412D01*
X150708929Y-107365143D01*
X150708927Y-107365142D01*
X150546524Y-107292836D01*
X150546523Y-107292836D01*
X150540493Y-107290151D01*
X150427084Y-107266045D01*
X150410416Y-107262502D01*
X150347942Y-107228773D01*
X150313621Y-107166624D01*
X150311303Y-107126084D01*
X150316546Y-107076206D01*
X150323504Y-107010000D01*
X150309151Y-106873435D01*
X150304232Y-106826635D01*
X150304232Y-106826633D01*
X150303542Y-106820072D01*
X150244527Y-106638444D01*
X150212380Y-106582763D01*
X150169471Y-106508444D01*
X150149040Y-106473056D01*
X150112748Y-106432749D01*
X150025675Y-106336045D01*
X150025674Y-106336044D01*
X150021253Y-106331134D01*
X149866752Y-106218882D01*
X149860724Y-106216198D01*
X149860722Y-106216197D01*
X149698319Y-106143891D01*
X149698318Y-106143891D01*
X149692288Y-106141206D01*
X149598887Y-106121353D01*
X149511944Y-106102872D01*
X149511939Y-106102872D01*
X149505487Y-106101500D01*
X149314513Y-106101500D01*
X149308061Y-106102872D01*
X149308056Y-106102872D01*
X149221113Y-106121353D01*
X149127712Y-106141206D01*
X149121682Y-106143891D01*
X149121681Y-106143891D01*
X148959278Y-106216197D01*
X148959276Y-106216198D01*
X148953248Y-106218882D01*
X148798747Y-106331134D01*
X148794326Y-106336044D01*
X148794325Y-106336045D01*
X148707253Y-106432749D01*
X148670960Y-106473056D01*
X148650529Y-106508444D01*
X148607621Y-106582763D01*
X148575473Y-106638444D01*
X148516458Y-106820072D01*
X148515768Y-106826633D01*
X148515768Y-106826635D01*
X148510849Y-106873435D01*
X148496496Y-107010000D01*
X138898282Y-107010000D01*
X138894527Y-106998444D01*
X138799040Y-106833056D01*
X138781697Y-106813794D01*
X138675675Y-106696045D01*
X138675674Y-106696044D01*
X138671253Y-106691134D01*
X138516752Y-106578882D01*
X138510724Y-106576198D01*
X138510722Y-106576197D01*
X138348319Y-106503891D01*
X138348318Y-106503891D01*
X138342288Y-106501206D01*
X138248887Y-106481353D01*
X138161944Y-106462872D01*
X138161939Y-106462872D01*
X138155487Y-106461500D01*
X137964513Y-106461500D01*
X137958061Y-106462872D01*
X137958056Y-106462872D01*
X137871112Y-106481353D01*
X137777712Y-106501206D01*
X137771682Y-106503891D01*
X137771681Y-106503891D01*
X137609278Y-106576197D01*
X137609276Y-106576198D01*
X137603248Y-106578882D01*
X137448747Y-106691134D01*
X137444326Y-106696044D01*
X137444325Y-106696045D01*
X137338304Y-106813794D01*
X137320960Y-106833056D01*
X137225473Y-106998444D01*
X137166458Y-107180072D01*
X137165768Y-107186633D01*
X137165768Y-107186635D01*
X137154741Y-107291556D01*
X137146496Y-107370000D01*
X136189277Y-107370000D01*
X136095675Y-107266045D01*
X136095674Y-107266044D01*
X136091253Y-107261134D01*
X135936752Y-107148882D01*
X135930724Y-107146198D01*
X135930722Y-107146197D01*
X135768319Y-107073891D01*
X135768318Y-107073891D01*
X135762288Y-107071206D01*
X135668888Y-107051353D01*
X135581944Y-107032872D01*
X135581939Y-107032872D01*
X135575487Y-107031500D01*
X135384513Y-107031500D01*
X135378061Y-107032872D01*
X135378056Y-107032872D01*
X135291112Y-107051353D01*
X135197712Y-107071206D01*
X135191682Y-107073891D01*
X135191681Y-107073891D01*
X135029278Y-107146197D01*
X135029276Y-107146198D01*
X135023248Y-107148882D01*
X134868747Y-107261134D01*
X134864326Y-107266044D01*
X134864325Y-107266045D01*
X134755166Y-107387279D01*
X134740960Y-107403056D01*
X134736243Y-107411226D01*
X134659256Y-107544572D01*
X134645473Y-107568444D01*
X134586458Y-107750072D01*
X134566496Y-107940000D01*
X133947198Y-107940000D01*
X133948835Y-107924428D01*
X133952814Y-107886565D01*
X133953504Y-107880000D01*
X133945723Y-107805966D01*
X133934232Y-107696635D01*
X133934232Y-107696633D01*
X133933542Y-107690072D01*
X133874527Y-107508444D01*
X133779040Y-107343056D01*
X133651253Y-107201134D01*
X133496752Y-107088882D01*
X133490724Y-107086198D01*
X133490722Y-107086197D01*
X133328319Y-107013891D01*
X133328318Y-107013891D01*
X133322288Y-107011206D01*
X133228887Y-106991353D01*
X133141944Y-106972872D01*
X133141939Y-106972872D01*
X133135487Y-106971500D01*
X132944513Y-106971500D01*
X132938061Y-106972872D01*
X132938056Y-106972872D01*
X132851112Y-106991353D01*
X132757712Y-107011206D01*
X132751682Y-107013891D01*
X132751681Y-107013891D01*
X132589278Y-107086197D01*
X132589276Y-107086198D01*
X132583248Y-107088882D01*
X132428747Y-107201134D01*
X132300960Y-107343056D01*
X132205473Y-107508444D01*
X132146458Y-107690072D01*
X132145768Y-107696633D01*
X132145768Y-107696635D01*
X132132942Y-107818670D01*
X132105929Y-107884327D01*
X132047707Y-107924957D01*
X132007632Y-107931500D01*
X131984513Y-107931500D01*
X131978061Y-107932872D01*
X131978056Y-107932872D01*
X131913638Y-107946565D01*
X131797712Y-107971206D01*
X131791682Y-107973891D01*
X131791681Y-107973891D01*
X131629278Y-108046197D01*
X131629276Y-108046198D01*
X131623248Y-108048882D01*
X131468747Y-108161134D01*
X131464326Y-108166044D01*
X131464325Y-108166045D01*
X131364306Y-108277128D01*
X131340960Y-108303056D01*
X131290804Y-108389928D01*
X131275031Y-108417249D01*
X131245473Y-108468444D01*
X131186458Y-108650072D01*
X131185768Y-108656633D01*
X131185768Y-108656635D01*
X131180857Y-108703365D01*
X131166496Y-108840000D01*
X122148500Y-108840000D01*
X122148500Y-107954500D01*
X122168502Y-107886379D01*
X122222158Y-107839886D01*
X122274500Y-107828500D01*
X122445487Y-107828500D01*
X122451939Y-107827128D01*
X122451944Y-107827128D01*
X122548852Y-107806529D01*
X122632288Y-107788794D01*
X122704519Y-107756635D01*
X122754235Y-107734500D01*
X128477992Y-107734500D01*
X128478682Y-107741065D01*
X128492876Y-107876109D01*
X128497954Y-107924428D01*
X128556969Y-108106056D01*
X128560272Y-108111778D01*
X128560273Y-108111779D01*
X128587505Y-108158945D01*
X128652456Y-108271444D01*
X128656874Y-108276351D01*
X128656875Y-108276352D01*
X128682914Y-108305271D01*
X128780243Y-108413366D01*
X128791923Y-108421852D01*
X128927012Y-108520000D01*
X128934744Y-108525618D01*
X128940772Y-108528302D01*
X128940774Y-108528303D01*
X129050777Y-108577279D01*
X129109208Y-108603294D01*
X129200736Y-108622749D01*
X129289552Y-108641628D01*
X129289557Y-108641628D01*
X129296009Y-108643000D01*
X129486983Y-108643000D01*
X129493435Y-108641628D01*
X129493440Y-108641628D01*
X129582256Y-108622749D01*
X129673784Y-108603294D01*
X129732215Y-108577279D01*
X129842218Y-108528303D01*
X129842220Y-108528302D01*
X129848248Y-108525618D01*
X129855981Y-108520000D01*
X129991069Y-108421852D01*
X130002749Y-108413366D01*
X130100078Y-108305271D01*
X130126117Y-108276352D01*
X130126118Y-108276351D01*
X130130536Y-108271444D01*
X130195487Y-108158945D01*
X130222719Y-108111779D01*
X130222720Y-108111778D01*
X130226023Y-108106056D01*
X130264131Y-107988774D01*
X130282998Y-107930707D01*
X130282998Y-107930705D01*
X130285038Y-107924428D01*
X130290529Y-107872186D01*
X130317542Y-107806529D01*
X130375764Y-107765900D01*
X130389642Y-107762110D01*
X130404671Y-107758915D01*
X130452288Y-107748794D01*
X130458319Y-107746109D01*
X130620722Y-107673803D01*
X130620724Y-107673802D01*
X130626752Y-107671118D01*
X130637849Y-107663056D01*
X130720853Y-107602749D01*
X130781253Y-107558866D01*
X130786206Y-107553365D01*
X130904621Y-107421852D01*
X130904622Y-107421851D01*
X130909040Y-107416944D01*
X131004527Y-107251556D01*
X131063542Y-107069928D01*
X131065045Y-107055634D01*
X131082814Y-106886565D01*
X131083504Y-106880000D01*
X131063542Y-106690072D01*
X131004527Y-106508444D01*
X130909040Y-106343056D01*
X130898306Y-106331134D01*
X130785675Y-106206045D01*
X130785674Y-106206044D01*
X130781253Y-106201134D01*
X130679601Y-106127279D01*
X130632094Y-106092763D01*
X130632093Y-106092762D01*
X130626752Y-106088882D01*
X130620724Y-106086198D01*
X130620722Y-106086197D01*
X130458319Y-106013891D01*
X130458318Y-106013891D01*
X130452288Y-106011206D01*
X130358887Y-105991353D01*
X130271944Y-105972872D01*
X130271939Y-105972872D01*
X130265487Y-105971500D01*
X130074513Y-105971500D01*
X130068061Y-105972872D01*
X130068056Y-105972872D01*
X129981113Y-105991353D01*
X129887712Y-106011206D01*
X129881682Y-106013891D01*
X129881681Y-106013891D01*
X129719278Y-106086197D01*
X129719276Y-106086198D01*
X129713248Y-106088882D01*
X129707907Y-106092762D01*
X129707906Y-106092763D01*
X129660399Y-106127279D01*
X129558747Y-106201134D01*
X129554326Y-106206044D01*
X129554325Y-106206045D01*
X129441695Y-106331134D01*
X129430960Y-106343056D01*
X129335473Y-106508444D01*
X129276458Y-106690072D01*
X129275768Y-106696635D01*
X129275768Y-106696636D01*
X129270967Y-106742314D01*
X129243954Y-106807971D01*
X129185732Y-106848600D01*
X129171854Y-106852390D01*
X129156825Y-106855585D01*
X129109208Y-106865706D01*
X129103178Y-106868391D01*
X129103177Y-106868391D01*
X128940774Y-106940697D01*
X128940772Y-106940698D01*
X128934744Y-106943382D01*
X128780243Y-107055634D01*
X128775822Y-107060544D01*
X128775821Y-107060545D01*
X128668199Y-107180072D01*
X128652456Y-107197556D01*
X128556969Y-107362944D01*
X128497954Y-107544572D01*
X128497264Y-107551133D01*
X128497264Y-107551135D01*
X128480167Y-107713803D01*
X128477992Y-107734500D01*
X122754235Y-107734500D01*
X122800722Y-107713803D01*
X122800724Y-107713802D01*
X122806752Y-107711118D01*
X122858112Y-107673803D01*
X122891102Y-107649834D01*
X122961253Y-107598866D01*
X123008004Y-107546944D01*
X123084621Y-107461852D01*
X123084622Y-107461851D01*
X123089040Y-107456944D01*
X123184527Y-107291556D01*
X123243542Y-107109928D01*
X123249249Y-107055634D01*
X123262814Y-106926565D01*
X123263504Y-106920000D01*
X123253001Y-106820072D01*
X123244232Y-106736635D01*
X123244232Y-106736633D01*
X123243542Y-106730072D01*
X123184527Y-106548444D01*
X123180298Y-106541118D01*
X123092341Y-106388774D01*
X123089040Y-106383056D01*
X123058173Y-106348774D01*
X122965675Y-106246045D01*
X122965674Y-106246044D01*
X122961253Y-106241134D01*
X122827410Y-106143891D01*
X122812094Y-106132763D01*
X122812093Y-106132762D01*
X122806752Y-106128882D01*
X122800724Y-106126198D01*
X122800722Y-106126197D01*
X122638319Y-106053891D01*
X122638318Y-106053891D01*
X122632288Y-106051206D01*
X122538887Y-106031353D01*
X122451944Y-106012872D01*
X122451939Y-106012872D01*
X122445487Y-106011500D01*
X122274500Y-106011500D01*
X122206379Y-105991498D01*
X122159886Y-105937842D01*
X122148500Y-105885500D01*
X122148500Y-105750000D01*
X162006496Y-105750000D01*
X162026458Y-105939928D01*
X162085473Y-106121556D01*
X162088776Y-106127278D01*
X162088777Y-106127279D01*
X162091943Y-106132763D01*
X162180960Y-106286944D01*
X162185378Y-106291851D01*
X162185379Y-106291852D01*
X162272648Y-106388774D01*
X162308747Y-106428866D01*
X162463248Y-106541118D01*
X162469276Y-106543802D01*
X162469278Y-106543803D01*
X162631681Y-106616109D01*
X162637712Y-106618794D01*
X162730157Y-106638444D01*
X162818056Y-106657128D01*
X162818061Y-106657128D01*
X162824513Y-106658500D01*
X163015487Y-106658500D01*
X163021939Y-106657128D01*
X163021944Y-106657128D01*
X163109843Y-106638444D01*
X163202288Y-106618794D01*
X163208319Y-106616109D01*
X163370722Y-106543803D01*
X163370724Y-106543802D01*
X163376752Y-106541118D01*
X163531253Y-106428866D01*
X163567352Y-106388774D01*
X163654621Y-106291852D01*
X163654622Y-106291851D01*
X163659040Y-106286944D01*
X163748057Y-106132763D01*
X163751223Y-106127279D01*
X163751224Y-106127278D01*
X163754527Y-106121556D01*
X163813542Y-105939928D01*
X163833504Y-105750000D01*
X163832814Y-105743435D01*
X163814232Y-105566635D01*
X163814232Y-105566633D01*
X163813542Y-105560072D01*
X163754527Y-105378444D01*
X163659040Y-105213056D01*
X163531253Y-105071134D01*
X163376752Y-104958882D01*
X163370724Y-104956198D01*
X163370722Y-104956197D01*
X163208319Y-104883891D01*
X163208318Y-104883891D01*
X163202288Y-104881206D01*
X163108887Y-104861353D01*
X163021944Y-104842872D01*
X163021939Y-104842872D01*
X163015487Y-104841500D01*
X162824513Y-104841500D01*
X162818061Y-104842872D01*
X162818056Y-104842872D01*
X162731113Y-104861353D01*
X162637712Y-104881206D01*
X162631682Y-104883891D01*
X162631681Y-104883891D01*
X162469278Y-104956197D01*
X162469276Y-104956198D01*
X162463248Y-104958882D01*
X162308747Y-105071134D01*
X162180960Y-105213056D01*
X162085473Y-105378444D01*
X162026458Y-105560072D01*
X162025768Y-105566633D01*
X162025768Y-105566635D01*
X162007186Y-105743435D01*
X162006496Y-105750000D01*
X122148500Y-105750000D01*
X122148500Y-104729500D01*
X143466496Y-104729500D01*
X143467186Y-104736065D01*
X143482297Y-104879834D01*
X143486458Y-104919428D01*
X143545473Y-105101056D01*
X143640960Y-105266444D01*
X143768747Y-105408366D01*
X143923248Y-105520618D01*
X143929276Y-105523302D01*
X143929278Y-105523303D01*
X144026604Y-105566635D01*
X144097712Y-105598294D01*
X144191112Y-105618147D01*
X144278056Y-105636628D01*
X144278061Y-105636628D01*
X144284513Y-105638000D01*
X144475487Y-105638000D01*
X144481939Y-105636628D01*
X144481944Y-105636628D01*
X144568888Y-105618147D01*
X144662288Y-105598294D01*
X144733396Y-105566635D01*
X144830722Y-105523303D01*
X144830724Y-105523302D01*
X144836752Y-105520618D01*
X144991253Y-105408366D01*
X145119040Y-105266444D01*
X145214527Y-105101056D01*
X145273542Y-104919428D01*
X145277704Y-104879834D01*
X145292814Y-104736065D01*
X145293504Y-104729500D01*
X145285773Y-104655940D01*
X145274232Y-104546135D01*
X145274232Y-104546133D01*
X145273542Y-104539572D01*
X145214527Y-104357944D01*
X145206451Y-104343955D01*
X145150610Y-104247237D01*
X145119040Y-104192556D01*
X145090831Y-104161226D01*
X144995675Y-104055545D01*
X144995674Y-104055544D01*
X144991253Y-104050634D01*
X144879438Y-103969395D01*
X144842094Y-103942263D01*
X144842093Y-103942262D01*
X144836752Y-103938382D01*
X144830724Y-103935698D01*
X144830722Y-103935697D01*
X144668319Y-103863391D01*
X144668318Y-103863391D01*
X144662288Y-103860706D01*
X144568887Y-103840853D01*
X144481944Y-103822372D01*
X144481939Y-103822372D01*
X144475487Y-103821000D01*
X144284513Y-103821000D01*
X144278061Y-103822372D01*
X144278056Y-103822372D01*
X144191113Y-103840853D01*
X144097712Y-103860706D01*
X144091682Y-103863391D01*
X144091681Y-103863391D01*
X143929278Y-103935697D01*
X143929276Y-103935698D01*
X143923248Y-103938382D01*
X143917907Y-103942262D01*
X143917906Y-103942263D01*
X143880562Y-103969395D01*
X143768747Y-104050634D01*
X143764326Y-104055544D01*
X143764325Y-104055545D01*
X143669170Y-104161226D01*
X143640960Y-104192556D01*
X143609390Y-104247237D01*
X143553550Y-104343955D01*
X143545473Y-104357944D01*
X143486458Y-104539572D01*
X143485768Y-104546133D01*
X143485768Y-104546135D01*
X143474227Y-104655940D01*
X143466496Y-104729500D01*
X122148500Y-104729500D01*
X122148500Y-103670000D01*
X123026496Y-103670000D01*
X123027186Y-103676565D01*
X123045258Y-103848506D01*
X123046458Y-103859928D01*
X123105473Y-104041556D01*
X123108776Y-104047278D01*
X123108777Y-104047279D01*
X123142686Y-104106010D01*
X123200960Y-104206944D01*
X123205378Y-104211851D01*
X123205379Y-104211852D01*
X123310674Y-104328794D01*
X123328747Y-104348866D01*
X123355771Y-104368500D01*
X123435001Y-104426064D01*
X123483248Y-104461118D01*
X123489276Y-104463802D01*
X123489278Y-104463803D01*
X123648465Y-104534677D01*
X123657712Y-104538794D01*
X123751112Y-104558647D01*
X123838056Y-104577128D01*
X123838061Y-104577128D01*
X123844513Y-104578500D01*
X124035487Y-104578500D01*
X124041939Y-104577128D01*
X124041944Y-104577128D01*
X124128888Y-104558647D01*
X124222288Y-104538794D01*
X124234642Y-104533294D01*
X124393751Y-104462454D01*
X124464118Y-104453020D01*
X124496249Y-104462454D01*
X124655359Y-104533294D01*
X124667712Y-104538794D01*
X124761112Y-104558647D01*
X124848056Y-104577128D01*
X124848061Y-104577128D01*
X124854513Y-104578500D01*
X125045487Y-104578500D01*
X125051939Y-104577128D01*
X125051944Y-104577128D01*
X125138888Y-104558647D01*
X125232288Y-104538794D01*
X125241535Y-104534677D01*
X125400722Y-104463803D01*
X125400724Y-104463802D01*
X125406752Y-104461118D01*
X125455000Y-104426064D01*
X125534229Y-104368500D01*
X125561253Y-104348866D01*
X125579326Y-104328794D01*
X125684621Y-104211852D01*
X125684622Y-104211851D01*
X125689040Y-104206944D01*
X125747314Y-104106010D01*
X125781223Y-104047279D01*
X125781224Y-104047278D01*
X125784527Y-104041556D01*
X125843542Y-103859928D01*
X125844743Y-103848506D01*
X125862814Y-103676565D01*
X125863504Y-103670000D01*
X126886496Y-103670000D01*
X126887186Y-103676565D01*
X126905258Y-103848506D01*
X126906458Y-103859928D01*
X126965473Y-104041556D01*
X126968776Y-104047278D01*
X126968777Y-104047279D01*
X127002686Y-104106010D01*
X127060960Y-104206944D01*
X127065378Y-104211851D01*
X127065379Y-104211852D01*
X127170674Y-104328794D01*
X127188747Y-104348866D01*
X127215771Y-104368500D01*
X127295001Y-104426064D01*
X127343248Y-104461118D01*
X127349276Y-104463802D01*
X127349278Y-104463803D01*
X127508465Y-104534677D01*
X127517712Y-104538794D01*
X127611112Y-104558647D01*
X127698056Y-104577128D01*
X127698061Y-104577128D01*
X127704513Y-104578500D01*
X127895487Y-104578500D01*
X127901939Y-104577128D01*
X127901944Y-104577128D01*
X127988888Y-104558647D01*
X128082288Y-104538794D01*
X128091535Y-104534677D01*
X128250722Y-104463803D01*
X128250724Y-104463802D01*
X128256752Y-104461118D01*
X128304667Y-104426306D01*
X128398758Y-104357944D01*
X128411253Y-104348866D01*
X128415668Y-104343963D01*
X128420580Y-104339540D01*
X128422586Y-104341768D01*
X128471932Y-104311366D01*
X128542916Y-104312717D01*
X128579182Y-104330979D01*
X128703248Y-104421118D01*
X128709276Y-104423802D01*
X128709278Y-104423803D01*
X128871681Y-104496109D01*
X128877712Y-104498794D01*
X128971113Y-104518647D01*
X129058056Y-104537128D01*
X129058061Y-104537128D01*
X129064513Y-104538500D01*
X129255487Y-104538500D01*
X129261939Y-104537128D01*
X129261944Y-104537128D01*
X129348887Y-104518647D01*
X129442288Y-104498794D01*
X129448319Y-104496109D01*
X129610722Y-104423803D01*
X129610724Y-104423802D01*
X129616752Y-104421118D01*
X129655799Y-104392749D01*
X129689174Y-104368500D01*
X129771253Y-104308866D01*
X129780533Y-104298560D01*
X129894621Y-104171852D01*
X129894622Y-104171851D01*
X129899040Y-104166944D01*
X129994527Y-104001556D01*
X130053542Y-103819928D01*
X130055216Y-103804007D01*
X130072814Y-103636565D01*
X130073504Y-103630000D01*
X130065885Y-103557512D01*
X130055637Y-103460000D01*
X131136496Y-103460000D01*
X131137186Y-103466565D01*
X131155054Y-103636565D01*
X131156458Y-103649928D01*
X131215473Y-103831556D01*
X131310960Y-103996944D01*
X131315378Y-104001851D01*
X131315379Y-104001852D01*
X131409520Y-104106406D01*
X131438747Y-104138866D01*
X131593248Y-104251118D01*
X131599276Y-104253802D01*
X131599278Y-104253803D01*
X131731602Y-104312717D01*
X131767712Y-104328794D01*
X131861113Y-104348647D01*
X131948056Y-104367128D01*
X131948061Y-104367128D01*
X131954513Y-104368500D01*
X132145487Y-104368500D01*
X132151939Y-104367128D01*
X132151944Y-104367128D01*
X132238887Y-104348647D01*
X132332288Y-104328794D01*
X132368398Y-104312717D01*
X132500722Y-104253803D01*
X132500724Y-104253802D01*
X132506752Y-104251118D01*
X132661253Y-104138866D01*
X132690480Y-104106406D01*
X132784621Y-104001852D01*
X132784622Y-104001851D01*
X132789040Y-103996944D01*
X132828969Y-103927785D01*
X132880352Y-103878792D01*
X132950066Y-103865357D01*
X132964285Y-103867539D01*
X133049526Y-103885658D01*
X133049530Y-103885658D01*
X133055983Y-103887030D01*
X133246957Y-103887030D01*
X133253409Y-103885658D01*
X133253414Y-103885658D01*
X133358169Y-103863391D01*
X133433758Y-103847324D01*
X133481190Y-103826206D01*
X133602192Y-103772333D01*
X133602194Y-103772332D01*
X133608222Y-103769648D01*
X133647825Y-103740875D01*
X133754411Y-103663435D01*
X133762723Y-103657396D01*
X133781479Y-103636565D01*
X133886091Y-103520382D01*
X133886092Y-103520381D01*
X133890510Y-103515474D01*
X133938444Y-103432451D01*
X134461769Y-103432451D01*
X134481731Y-103622379D01*
X134540746Y-103804007D01*
X134544049Y-103809729D01*
X134544050Y-103809730D01*
X134566547Y-103848696D01*
X134636233Y-103969395D01*
X134640651Y-103974302D01*
X134640652Y-103974303D01*
X134706360Y-104047279D01*
X134764020Y-104111317D01*
X134832714Y-104161226D01*
X134887769Y-104201226D01*
X134918521Y-104223569D01*
X134924549Y-104226253D01*
X134924551Y-104226254D01*
X135042271Y-104278666D01*
X135092985Y-104301245D01*
X135186385Y-104321098D01*
X135273329Y-104339579D01*
X135273334Y-104339579D01*
X135279786Y-104340951D01*
X135470760Y-104340951D01*
X135477212Y-104339579D01*
X135477217Y-104339579D01*
X135657561Y-104301245D01*
X135657841Y-104302564D01*
X135721600Y-104300740D01*
X135783210Y-104338292D01*
X135828747Y-104388866D01*
X135880279Y-104426306D01*
X135976354Y-104496109D01*
X135983248Y-104501118D01*
X135989276Y-104503802D01*
X135989278Y-104503803D01*
X136084358Y-104546135D01*
X136157712Y-104578794D01*
X136251112Y-104598647D01*
X136338056Y-104617128D01*
X136338061Y-104617128D01*
X136344513Y-104618500D01*
X136535487Y-104618500D01*
X136541939Y-104617128D01*
X136541944Y-104617128D01*
X136628888Y-104598647D01*
X136722288Y-104578794D01*
X136795642Y-104546135D01*
X136890722Y-104503803D01*
X136890724Y-104503802D01*
X136896752Y-104501118D01*
X136955365Y-104458533D01*
X137022230Y-104434676D01*
X137091382Y-104450756D01*
X137103484Y-104458533D01*
X137108880Y-104462454D01*
X137206383Y-104533294D01*
X137213628Y-104538558D01*
X137219656Y-104541242D01*
X137219658Y-104541243D01*
X137382061Y-104613549D01*
X137388092Y-104616234D01*
X137481493Y-104636087D01*
X137568436Y-104654568D01*
X137568441Y-104654568D01*
X137574893Y-104655940D01*
X137765867Y-104655940D01*
X137772319Y-104654568D01*
X137772324Y-104654568D01*
X137859267Y-104636087D01*
X137952668Y-104616234D01*
X137958699Y-104613549D01*
X138121102Y-104541243D01*
X138121104Y-104541242D01*
X138127132Y-104538558D01*
X138134378Y-104533294D01*
X138230023Y-104463803D01*
X138281633Y-104426306D01*
X138337527Y-104364229D01*
X138405001Y-104289292D01*
X138405002Y-104289291D01*
X138409420Y-104284384D01*
X138477224Y-104166944D01*
X138501603Y-104124719D01*
X138501604Y-104124718D01*
X138504907Y-104118996D01*
X138563922Y-103937368D01*
X138571980Y-103860706D01*
X138583194Y-103754005D01*
X138583884Y-103747440D01*
X138573635Y-103649928D01*
X138564612Y-103564075D01*
X138564612Y-103564073D01*
X138563922Y-103557512D01*
X138504907Y-103375884D01*
X138490013Y-103350086D01*
X138443816Y-103270072D01*
X138409420Y-103210496D01*
X138299258Y-103088148D01*
X138286055Y-103073485D01*
X138286054Y-103073484D01*
X138281633Y-103068574D01*
X138175046Y-102991134D01*
X138132474Y-102960203D01*
X138132473Y-102960202D01*
X138127132Y-102956322D01*
X138121104Y-102953638D01*
X138121102Y-102953637D01*
X137958699Y-102881331D01*
X137958698Y-102881331D01*
X137952668Y-102878646D01*
X137859267Y-102858793D01*
X137772324Y-102840312D01*
X137772319Y-102840312D01*
X137765867Y-102838940D01*
X137574893Y-102838940D01*
X137568441Y-102840312D01*
X137568436Y-102840312D01*
X137481492Y-102858793D01*
X137388092Y-102878646D01*
X137382062Y-102881331D01*
X137382061Y-102881331D01*
X137219658Y-102953637D01*
X137219656Y-102953638D01*
X137213628Y-102956322D01*
X137155015Y-102998907D01*
X137088150Y-103022764D01*
X137018998Y-103006684D01*
X137006895Y-102998906D01*
X136990898Y-102987283D01*
X136935804Y-102947255D01*
X136902094Y-102922763D01*
X136902093Y-102922762D01*
X136896752Y-102918882D01*
X136890724Y-102916198D01*
X136890722Y-102916197D01*
X136728319Y-102843891D01*
X136728318Y-102843891D01*
X136722288Y-102841206D01*
X136628888Y-102821353D01*
X136541944Y-102802872D01*
X136541939Y-102802872D01*
X136535487Y-102801500D01*
X136344513Y-102801500D01*
X136338061Y-102802872D01*
X136338056Y-102802872D01*
X136157712Y-102841206D01*
X136157432Y-102839887D01*
X136093673Y-102841711D01*
X136032063Y-102804159D01*
X136031743Y-102803803D01*
X135992153Y-102759834D01*
X135990948Y-102758496D01*
X135990947Y-102758495D01*
X135986526Y-102753585D01*
X135862952Y-102663803D01*
X135837367Y-102645214D01*
X135837366Y-102645213D01*
X135832025Y-102641333D01*
X135825997Y-102638649D01*
X135825995Y-102638648D01*
X135663592Y-102566342D01*
X135663591Y-102566342D01*
X135657561Y-102563657D01*
X135552032Y-102541226D01*
X135477217Y-102525323D01*
X135477212Y-102525323D01*
X135470760Y-102523951D01*
X135279786Y-102523951D01*
X135273334Y-102525323D01*
X135273329Y-102525323D01*
X135198514Y-102541226D01*
X135092985Y-102563657D01*
X135086955Y-102566342D01*
X135086954Y-102566342D01*
X134924551Y-102638648D01*
X134924549Y-102638649D01*
X134918521Y-102641333D01*
X134913180Y-102645213D01*
X134913179Y-102645214D01*
X134887594Y-102663803D01*
X134764020Y-102753585D01*
X134759599Y-102758495D01*
X134759598Y-102758496D01*
X134678294Y-102848794D01*
X134636233Y-102895507D01*
X134598881Y-102960203D01*
X134557929Y-103031134D01*
X134540746Y-103060895D01*
X134481731Y-103242523D01*
X134481041Y-103249084D01*
X134481041Y-103249086D01*
X134475193Y-103304729D01*
X134461769Y-103432451D01*
X133938444Y-103432451D01*
X133967474Y-103382169D01*
X133982693Y-103355809D01*
X133982694Y-103355808D01*
X133985997Y-103350086D01*
X134045012Y-103168458D01*
X134064974Y-102978530D01*
X134061687Y-102947255D01*
X134045702Y-102795165D01*
X134045702Y-102795163D01*
X134045012Y-102788602D01*
X133985997Y-102606974D01*
X133890510Y-102441586D01*
X133863738Y-102411852D01*
X133767145Y-102304575D01*
X133767144Y-102304574D01*
X133762723Y-102299664D01*
X133608222Y-102187412D01*
X133602194Y-102184728D01*
X133602192Y-102184727D01*
X133439789Y-102112421D01*
X133439788Y-102112421D01*
X133433758Y-102109736D01*
X133325411Y-102086706D01*
X133253414Y-102071402D01*
X133253409Y-102071402D01*
X133246957Y-102070030D01*
X133055983Y-102070030D01*
X133049531Y-102071402D01*
X133049526Y-102071402D01*
X132977529Y-102086706D01*
X132869182Y-102109736D01*
X132863152Y-102112421D01*
X132863151Y-102112421D01*
X132700748Y-102184727D01*
X132700746Y-102184728D01*
X132694718Y-102187412D01*
X132540217Y-102299664D01*
X132535796Y-102304574D01*
X132535795Y-102304575D01*
X132439203Y-102411852D01*
X132412430Y-102441586D01*
X132409129Y-102447304D01*
X132372501Y-102510745D01*
X132321118Y-102559738D01*
X132251404Y-102573173D01*
X132237185Y-102570991D01*
X132151944Y-102552872D01*
X132151940Y-102552872D01*
X132145487Y-102551500D01*
X131954513Y-102551500D01*
X131948061Y-102552872D01*
X131948056Y-102552872D01*
X131862816Y-102570991D01*
X131767712Y-102591206D01*
X131761682Y-102593891D01*
X131761681Y-102593891D01*
X131599278Y-102666197D01*
X131599276Y-102666198D01*
X131593248Y-102668882D01*
X131438747Y-102781134D01*
X131434326Y-102786044D01*
X131434325Y-102786045D01*
X131316298Y-102917128D01*
X131310960Y-102923056D01*
X131271655Y-102991134D01*
X131224110Y-103073485D01*
X131215473Y-103088444D01*
X131156458Y-103270072D01*
X131155768Y-103276633D01*
X131155768Y-103276635D01*
X131153476Y-103298444D01*
X131136496Y-103460000D01*
X130055637Y-103460000D01*
X130054232Y-103446635D01*
X130054232Y-103446633D01*
X130053542Y-103440072D01*
X129994527Y-103258444D01*
X129981711Y-103236245D01*
X129902341Y-103098774D01*
X129899040Y-103093056D01*
X129889735Y-103082721D01*
X129775675Y-102956045D01*
X129775674Y-102956044D01*
X129771253Y-102951134D01*
X129669594Y-102877274D01*
X129622094Y-102842763D01*
X129622093Y-102842762D01*
X129616752Y-102838882D01*
X129610724Y-102836198D01*
X129610722Y-102836197D01*
X129448319Y-102763891D01*
X129448318Y-102763891D01*
X129442288Y-102761206D01*
X129343303Y-102740166D01*
X129261944Y-102722872D01*
X129261939Y-102722872D01*
X129255487Y-102721500D01*
X129064513Y-102721500D01*
X129058061Y-102722872D01*
X129058056Y-102722872D01*
X128976697Y-102740166D01*
X128877712Y-102761206D01*
X128871682Y-102763891D01*
X128871681Y-102763891D01*
X128709278Y-102836197D01*
X128709276Y-102836198D01*
X128703248Y-102838882D01*
X128697907Y-102842762D01*
X128697906Y-102842763D01*
X128599945Y-102913936D01*
X128548747Y-102951134D01*
X128544332Y-102956037D01*
X128539420Y-102960460D01*
X128537414Y-102958232D01*
X128488068Y-102988634D01*
X128417084Y-102987283D01*
X128380818Y-102969021D01*
X128256752Y-102878882D01*
X128250724Y-102876198D01*
X128250722Y-102876197D01*
X128088319Y-102803891D01*
X128088318Y-102803891D01*
X128082288Y-102801206D01*
X127987857Y-102781134D01*
X127901944Y-102762872D01*
X127901939Y-102762872D01*
X127895487Y-102761500D01*
X127704513Y-102761500D01*
X127698061Y-102762872D01*
X127698056Y-102762872D01*
X127612143Y-102781134D01*
X127517712Y-102801206D01*
X127511682Y-102803891D01*
X127511681Y-102803891D01*
X127349278Y-102876197D01*
X127349276Y-102876198D01*
X127343248Y-102878882D01*
X127337907Y-102882762D01*
X127337906Y-102882763D01*
X127290607Y-102917128D01*
X127188747Y-102991134D01*
X127184326Y-102996044D01*
X127184325Y-102996045D01*
X127091828Y-103098774D01*
X127060960Y-103133056D01*
X126965473Y-103298444D01*
X126906458Y-103480072D01*
X126886496Y-103670000D01*
X125863504Y-103670000D01*
X125843542Y-103480072D01*
X125784527Y-103298444D01*
X125689040Y-103133056D01*
X125658173Y-103098774D01*
X125565675Y-102996045D01*
X125565674Y-102996044D01*
X125561253Y-102991134D01*
X125459393Y-102917128D01*
X125412094Y-102882763D01*
X125412093Y-102882762D01*
X125406752Y-102878882D01*
X125400724Y-102876198D01*
X125400722Y-102876197D01*
X125238319Y-102803891D01*
X125238318Y-102803891D01*
X125232288Y-102801206D01*
X125137857Y-102781134D01*
X125051944Y-102762872D01*
X125051939Y-102762872D01*
X125045487Y-102761500D01*
X124854513Y-102761500D01*
X124848061Y-102762872D01*
X124848056Y-102762872D01*
X124762143Y-102781134D01*
X124667712Y-102801206D01*
X124661682Y-102803891D01*
X124661681Y-102803891D01*
X124583090Y-102838882D01*
X124499477Y-102876109D01*
X124496249Y-102877546D01*
X124425882Y-102886980D01*
X124393751Y-102877546D01*
X124390524Y-102876109D01*
X124306910Y-102838882D01*
X124228319Y-102803891D01*
X124228318Y-102803891D01*
X124222288Y-102801206D01*
X124127857Y-102781134D01*
X124041944Y-102762872D01*
X124041939Y-102762872D01*
X124035487Y-102761500D01*
X123844513Y-102761500D01*
X123838061Y-102762872D01*
X123838056Y-102762872D01*
X123752143Y-102781134D01*
X123657712Y-102801206D01*
X123651682Y-102803891D01*
X123651681Y-102803891D01*
X123489278Y-102876197D01*
X123489276Y-102876198D01*
X123483248Y-102878882D01*
X123477907Y-102882762D01*
X123477906Y-102882763D01*
X123430607Y-102917128D01*
X123328747Y-102991134D01*
X123324326Y-102996044D01*
X123324325Y-102996045D01*
X123231828Y-103098774D01*
X123200960Y-103133056D01*
X123105473Y-103298444D01*
X123046458Y-103480072D01*
X123026496Y-103670000D01*
X122148500Y-103670000D01*
X122148500Y-101890500D01*
X125441246Y-101890500D01*
X125441936Y-101897065D01*
X125458364Y-102053365D01*
X125461208Y-102080428D01*
X125520223Y-102262056D01*
X125615710Y-102427444D01*
X125620128Y-102432351D01*
X125620129Y-102432352D01*
X125739075Y-102564455D01*
X125743497Y-102569366D01*
X125811124Y-102618500D01*
X125864441Y-102657237D01*
X125897998Y-102681618D01*
X125904026Y-102684302D01*
X125904028Y-102684303D01*
X126050918Y-102749702D01*
X126072462Y-102759294D01*
X126156364Y-102777128D01*
X126252806Y-102797628D01*
X126252811Y-102797628D01*
X126259263Y-102799000D01*
X126450237Y-102799000D01*
X126456689Y-102797628D01*
X126456694Y-102797628D01*
X126553136Y-102777128D01*
X126637038Y-102759294D01*
X126658582Y-102749702D01*
X126805472Y-102684303D01*
X126805474Y-102684302D01*
X126811502Y-102681618D01*
X126845060Y-102657237D01*
X126898376Y-102618500D01*
X126966003Y-102569366D01*
X126970425Y-102564455D01*
X127089371Y-102432352D01*
X127089372Y-102432351D01*
X127093790Y-102427444D01*
X127189277Y-102262056D01*
X127248292Y-102080428D01*
X127251137Y-102053365D01*
X127267564Y-101897065D01*
X127268254Y-101890500D01*
X127248292Y-101700572D01*
X127189277Y-101518944D01*
X127162784Y-101473056D01*
X127097091Y-101359274D01*
X127093790Y-101353556D01*
X127016852Y-101268107D01*
X126970425Y-101216545D01*
X126970424Y-101216544D01*
X126966003Y-101211634D01*
X126831472Y-101113891D01*
X126816844Y-101103263D01*
X126816843Y-101103262D01*
X126811502Y-101099382D01*
X126805474Y-101096698D01*
X126805472Y-101096697D01*
X126643069Y-101024391D01*
X126643068Y-101024391D01*
X126637038Y-101021706D01*
X126543638Y-101001853D01*
X126456694Y-100983372D01*
X126456689Y-100983372D01*
X126450237Y-100982000D01*
X126259263Y-100982000D01*
X126252811Y-100983372D01*
X126252806Y-100983372D01*
X126165862Y-101001853D01*
X126072462Y-101021706D01*
X126066432Y-101024391D01*
X126066431Y-101024391D01*
X125904028Y-101096697D01*
X125904026Y-101096698D01*
X125897998Y-101099382D01*
X125892657Y-101103262D01*
X125892656Y-101103263D01*
X125878028Y-101113891D01*
X125743497Y-101211634D01*
X125739076Y-101216544D01*
X125739075Y-101216545D01*
X125692649Y-101268107D01*
X125615710Y-101353556D01*
X125612409Y-101359274D01*
X125546717Y-101473056D01*
X125520223Y-101518944D01*
X125461208Y-101700572D01*
X125441246Y-101890500D01*
X122148500Y-101890500D01*
X122148500Y-99729670D01*
X138146166Y-99729670D01*
X138146856Y-99736235D01*
X138162628Y-99886294D01*
X138166128Y-99919598D01*
X138225143Y-100101226D01*
X138320630Y-100266614D01*
X138325048Y-100271521D01*
X138325049Y-100271522D01*
X138347446Y-100296396D01*
X138448417Y-100408536D01*
X138602918Y-100520788D01*
X138608946Y-100523472D01*
X138608948Y-100523473D01*
X138701562Y-100564707D01*
X138777382Y-100598464D01*
X138956841Y-100636609D01*
X139019313Y-100670337D01*
X139053635Y-100732487D01*
X139048907Y-100803326D01*
X139006631Y-100860364D01*
X138981892Y-100874963D01*
X138889278Y-100916197D01*
X138889276Y-100916198D01*
X138883248Y-100918882D01*
X138728747Y-101031134D01*
X138724326Y-101036044D01*
X138724325Y-101036045D01*
X138642758Y-101126635D01*
X138600960Y-101173056D01*
X138505473Y-101338444D01*
X138446458Y-101520072D01*
X138445768Y-101526633D01*
X138445768Y-101526635D01*
X138429486Y-101681556D01*
X138426496Y-101710000D01*
X138446458Y-101899928D01*
X138505473Y-102081556D01*
X138600960Y-102246944D01*
X138605378Y-102251851D01*
X138605379Y-102251852D01*
X138689494Y-102345271D01*
X138728747Y-102388866D01*
X138883248Y-102501118D01*
X138889276Y-102503802D01*
X138889278Y-102503803D01*
X139051681Y-102576109D01*
X139057712Y-102578794D01*
X139151112Y-102598647D01*
X139238056Y-102617128D01*
X139238061Y-102617128D01*
X139244513Y-102618500D01*
X139435487Y-102618500D01*
X139441939Y-102617128D01*
X139441944Y-102617128D01*
X139528888Y-102598647D01*
X139622288Y-102578794D01*
X139628319Y-102576109D01*
X139790722Y-102503803D01*
X139790724Y-102503802D01*
X139796752Y-102501118D01*
X139951253Y-102388866D01*
X139990506Y-102345271D01*
X140074621Y-102251852D01*
X140074622Y-102251851D01*
X140079040Y-102246944D01*
X140174527Y-102081556D01*
X140207525Y-101980000D01*
X146956496Y-101980000D01*
X146957186Y-101986565D01*
X146970132Y-102109736D01*
X146976458Y-102169928D01*
X147035473Y-102351556D01*
X147038776Y-102357278D01*
X147038777Y-102357279D01*
X147054179Y-102383955D01*
X147130960Y-102516944D01*
X147135378Y-102521851D01*
X147135379Y-102521852D01*
X147173739Y-102564455D01*
X147258747Y-102658866D01*
X147305383Y-102692749D01*
X147383772Y-102749702D01*
X147413248Y-102771118D01*
X147419276Y-102773802D01*
X147419278Y-102773803D01*
X147581681Y-102846109D01*
X147587712Y-102848794D01*
X147681113Y-102868647D01*
X147768056Y-102887128D01*
X147768061Y-102887128D01*
X147774513Y-102888500D01*
X147965487Y-102888500D01*
X147971939Y-102887128D01*
X147971944Y-102887128D01*
X148058888Y-102868647D01*
X148152288Y-102848794D01*
X148158319Y-102846109D01*
X148320722Y-102773803D01*
X148320724Y-102773802D01*
X148326752Y-102771118D01*
X148356229Y-102749702D01*
X148434617Y-102692749D01*
X148481253Y-102658866D01*
X148566261Y-102564455D01*
X148604621Y-102521852D01*
X148604622Y-102521851D01*
X148609040Y-102516944D01*
X148685821Y-102383955D01*
X148701223Y-102357279D01*
X148701224Y-102357278D01*
X148704527Y-102351556D01*
X148763542Y-102169928D01*
X148769869Y-102109736D01*
X148782814Y-101986565D01*
X148783504Y-101980000D01*
X148770035Y-101851852D01*
X148764232Y-101796635D01*
X148764232Y-101796633D01*
X148763542Y-101790072D01*
X148704527Y-101608444D01*
X148609040Y-101443056D01*
X148536162Y-101362116D01*
X148485675Y-101306045D01*
X148485674Y-101306044D01*
X148481253Y-101301134D01*
X148337810Y-101196916D01*
X148332094Y-101192763D01*
X148332093Y-101192762D01*
X148326752Y-101188882D01*
X148320724Y-101186198D01*
X148320722Y-101186197D01*
X148158319Y-101113891D01*
X148158318Y-101113891D01*
X148152288Y-101111206D01*
X148058887Y-101091353D01*
X147971944Y-101072872D01*
X147971939Y-101072872D01*
X147965487Y-101071500D01*
X147774513Y-101071500D01*
X147768061Y-101072872D01*
X147768056Y-101072872D01*
X147681113Y-101091353D01*
X147587712Y-101111206D01*
X147581682Y-101113891D01*
X147581681Y-101113891D01*
X147419278Y-101186197D01*
X147419276Y-101186198D01*
X147413248Y-101188882D01*
X147407907Y-101192762D01*
X147407906Y-101192763D01*
X147402190Y-101196916D01*
X147258747Y-101301134D01*
X147254326Y-101306044D01*
X147254325Y-101306045D01*
X147203839Y-101362116D01*
X147130960Y-101443056D01*
X147035473Y-101608444D01*
X146976458Y-101790072D01*
X146975768Y-101796633D01*
X146975768Y-101796635D01*
X146969965Y-101851852D01*
X146956496Y-101980000D01*
X140207525Y-101980000D01*
X140233542Y-101899928D01*
X140253504Y-101710000D01*
X140250514Y-101681556D01*
X140234232Y-101526635D01*
X140234232Y-101526633D01*
X140233542Y-101520072D01*
X140174527Y-101338444D01*
X140079040Y-101173056D01*
X140037243Y-101126635D01*
X139955675Y-101036045D01*
X139955674Y-101036044D01*
X139951253Y-101031134D01*
X139796752Y-100918882D01*
X139790724Y-100916198D01*
X139790722Y-100916197D01*
X139628319Y-100843891D01*
X139628318Y-100843891D01*
X139622288Y-100841206D01*
X139585281Y-100833340D01*
X152704434Y-100833340D01*
X152705124Y-100839905D01*
X152720160Y-100982960D01*
X152724396Y-101023268D01*
X152783411Y-101204896D01*
X152786714Y-101210618D01*
X152786715Y-101210619D01*
X152837809Y-101299116D01*
X152854547Y-101368111D01*
X152837809Y-101425116D01*
X152795473Y-101498444D01*
X152736458Y-101680072D01*
X152735768Y-101686633D01*
X152735768Y-101686635D01*
X152724897Y-101790072D01*
X152716496Y-101870000D01*
X152717186Y-101876565D01*
X152719642Y-101899928D01*
X152736458Y-102059928D01*
X152795473Y-102241556D01*
X152890960Y-102406944D01*
X152895378Y-102411851D01*
X152895379Y-102411852D01*
X152996313Y-102523951D01*
X153018747Y-102548866D01*
X153173248Y-102661118D01*
X153179276Y-102663802D01*
X153179278Y-102663803D01*
X153311950Y-102722872D01*
X153347712Y-102738794D01*
X153417298Y-102753585D01*
X153528056Y-102777128D01*
X153528061Y-102777128D01*
X153534513Y-102778500D01*
X153725487Y-102778500D01*
X153731939Y-102777128D01*
X153731944Y-102777128D01*
X153842702Y-102753585D01*
X153912288Y-102738794D01*
X153948050Y-102722872D01*
X154080722Y-102663803D01*
X154080724Y-102663802D01*
X154086752Y-102661118D01*
X154241253Y-102548866D01*
X154263687Y-102523951D01*
X154364621Y-102411852D01*
X154364622Y-102411851D01*
X154369040Y-102406944D01*
X154464527Y-102241556D01*
X154523542Y-102059928D01*
X154540359Y-101899928D01*
X154542814Y-101876565D01*
X154543504Y-101870000D01*
X154535103Y-101790072D01*
X154524232Y-101686635D01*
X154524232Y-101686633D01*
X154523542Y-101680072D01*
X154464527Y-101498444D01*
X154410129Y-101404224D01*
X154393391Y-101335229D01*
X154400799Y-101310000D01*
X157826496Y-101310000D01*
X157827186Y-101316565D01*
X157845701Y-101492721D01*
X157846458Y-101499928D01*
X157905473Y-101681556D01*
X158000960Y-101846944D01*
X158005378Y-101851851D01*
X158005379Y-101851852D01*
X158046089Y-101897065D01*
X158128747Y-101988866D01*
X158217522Y-102053365D01*
X158263412Y-102086706D01*
X158283248Y-102101118D01*
X158289276Y-102103802D01*
X158289278Y-102103803D01*
X158451681Y-102176109D01*
X158457712Y-102178794D01*
X158526263Y-102193365D01*
X158638056Y-102217128D01*
X158638061Y-102217128D01*
X158644513Y-102218500D01*
X158760949Y-102218500D01*
X158829070Y-102238502D01*
X158875563Y-102292158D01*
X158880779Y-102305557D01*
X158905473Y-102381556D01*
X158908776Y-102387278D01*
X158908777Y-102387279D01*
X158934800Y-102432352D01*
X159000960Y-102546944D01*
X159005378Y-102551851D01*
X159005379Y-102551852D01*
X159105231Y-102662749D01*
X159128747Y-102688866D01*
X159283248Y-102801118D01*
X159289276Y-102803802D01*
X159289278Y-102803803D01*
X159451681Y-102876109D01*
X159457712Y-102878794D01*
X159536340Y-102895507D01*
X159638056Y-102917128D01*
X159638061Y-102917128D01*
X159644513Y-102918500D01*
X159835487Y-102918500D01*
X159841939Y-102917128D01*
X159841944Y-102917128D01*
X159943660Y-102895507D01*
X160022288Y-102878794D01*
X160028319Y-102876109D01*
X160190722Y-102803803D01*
X160190724Y-102803802D01*
X160196752Y-102801118D01*
X160351253Y-102688866D01*
X160374769Y-102662749D01*
X160474621Y-102551852D01*
X160474622Y-102551851D01*
X160479040Y-102546944D01*
X160545200Y-102432352D01*
X160571223Y-102387279D01*
X160571224Y-102387278D01*
X160574527Y-102381556D01*
X160633542Y-102199928D01*
X160634858Y-102187412D01*
X160652814Y-102016565D01*
X160653504Y-102010000D01*
X160636882Y-101851852D01*
X160634232Y-101826635D01*
X160634232Y-101826633D01*
X160633542Y-101820072D01*
X160574527Y-101638444D01*
X160557207Y-101608444D01*
X160506185Y-101520072D01*
X160479040Y-101473056D01*
X160457177Y-101448774D01*
X160355675Y-101336045D01*
X160355674Y-101336044D01*
X160351253Y-101331134D01*
X160196752Y-101218882D01*
X160190724Y-101216198D01*
X160190722Y-101216197D01*
X160028319Y-101143891D01*
X160028318Y-101143891D01*
X160022288Y-101141206D01*
X159922861Y-101120072D01*
X159841944Y-101102872D01*
X159841939Y-101102872D01*
X159835487Y-101101500D01*
X159719051Y-101101500D01*
X159650930Y-101081498D01*
X159604437Y-101027842D01*
X159599218Y-101014436D01*
X159576569Y-100944728D01*
X159576568Y-100944726D01*
X159574527Y-100938444D01*
X159479040Y-100773056D01*
X159375551Y-100658119D01*
X159355675Y-100636045D01*
X159355674Y-100636044D01*
X159351253Y-100631134D01*
X159196752Y-100518882D01*
X159190724Y-100516198D01*
X159190722Y-100516197D01*
X159028319Y-100443891D01*
X159028318Y-100443891D01*
X159022288Y-100441206D01*
X158928887Y-100421353D01*
X158841944Y-100402872D01*
X158841939Y-100402872D01*
X158835487Y-100401500D01*
X158644513Y-100401500D01*
X158638061Y-100402872D01*
X158638056Y-100402872D01*
X158551112Y-100421353D01*
X158457712Y-100441206D01*
X158451682Y-100443891D01*
X158451681Y-100443891D01*
X158289278Y-100516197D01*
X158289276Y-100516198D01*
X158283248Y-100518882D01*
X158128747Y-100631134D01*
X158124326Y-100636044D01*
X158124325Y-100636045D01*
X158104450Y-100658119D01*
X158000960Y-100773056D01*
X157905473Y-100938444D01*
X157846458Y-101120072D01*
X157845768Y-101126633D01*
X157845768Y-101126635D01*
X157836355Y-101216197D01*
X157826496Y-101310000D01*
X154400799Y-101310000D01*
X154410129Y-101278224D01*
X154449161Y-101210619D01*
X154449162Y-101210618D01*
X154452465Y-101204896D01*
X154511480Y-101023268D01*
X154515717Y-100982960D01*
X154530752Y-100839905D01*
X154531442Y-100833340D01*
X154513026Y-100658119D01*
X154512170Y-100649975D01*
X154512170Y-100649973D01*
X154511480Y-100643412D01*
X154452465Y-100461784D01*
X154442135Y-100443891D01*
X154360279Y-100302114D01*
X154356978Y-100296396D01*
X154334582Y-100271522D01*
X154317837Y-100252925D01*
X167051645Y-100252925D01*
X167053491Y-100273204D01*
X167065807Y-100408536D01*
X167069570Y-100449888D01*
X167071308Y-100455794D01*
X167071309Y-100455798D01*
X167071852Y-100457642D01*
X167125410Y-100639619D01*
X167128263Y-100645077D01*
X167128265Y-100645081D01*
X167175720Y-100735853D01*
X167217040Y-100814890D01*
X167340968Y-100969025D01*
X167345692Y-100972989D01*
X167352933Y-100979065D01*
X167492474Y-101096154D01*
X167497872Y-101099121D01*
X167497877Y-101099125D01*
X167623431Y-101168148D01*
X167665787Y-101191433D01*
X167671654Y-101193294D01*
X167671656Y-101193295D01*
X167764551Y-101222763D01*
X167854306Y-101251235D01*
X168008227Y-101268500D01*
X168114769Y-101268500D01*
X168117825Y-101268200D01*
X168117832Y-101268200D01*
X168176340Y-101262463D01*
X168261833Y-101254080D01*
X168267734Y-101252298D01*
X168267736Y-101252298D01*
X168341053Y-101230162D01*
X168451169Y-101196916D01*
X168625796Y-101104066D01*
X168726779Y-101021706D01*
X168774287Y-100982960D01*
X168774290Y-100982957D01*
X168779062Y-100979065D01*
X168791344Y-100964219D01*
X168901201Y-100831425D01*
X168901203Y-100831421D01*
X168905130Y-100826675D01*
X168999198Y-100652701D01*
X169057682Y-100463768D01*
X169078355Y-100267075D01*
X169070847Y-100184576D01*
X169060989Y-100076251D01*
X169060988Y-100076248D01*
X169060430Y-100070112D01*
X169051432Y-100039537D01*
X169027751Y-99959076D01*
X169004590Y-99880381D01*
X168994919Y-99861881D01*
X168929232Y-99736235D01*
X168912960Y-99705110D01*
X168789032Y-99550975D01*
X168782727Y-99545684D01*
X168766334Y-99531929D01*
X168637526Y-99423846D01*
X168632128Y-99420879D01*
X168632123Y-99420875D01*
X168469608Y-99331533D01*
X168469609Y-99331533D01*
X168464213Y-99328567D01*
X168458346Y-99326706D01*
X168458344Y-99326705D01*
X168281564Y-99270627D01*
X168281563Y-99270627D01*
X168275694Y-99268765D01*
X168121773Y-99251500D01*
X168015231Y-99251500D01*
X168012175Y-99251800D01*
X168012168Y-99251800D01*
X167953660Y-99257537D01*
X167868167Y-99265920D01*
X167862266Y-99267702D01*
X167862264Y-99267702D01*
X167788947Y-99289838D01*
X167678831Y-99323084D01*
X167504204Y-99415934D01*
X167417938Y-99486291D01*
X167355713Y-99537040D01*
X167355710Y-99537043D01*
X167350938Y-99540935D01*
X167347011Y-99545682D01*
X167347009Y-99545684D01*
X167228799Y-99688575D01*
X167228797Y-99688579D01*
X167224870Y-99693325D01*
X167130802Y-99867299D01*
X167072318Y-100056232D01*
X167071674Y-100062357D01*
X167071674Y-100062358D01*
X167062401Y-100150591D01*
X167051645Y-100252925D01*
X154317837Y-100252925D01*
X154233613Y-100159385D01*
X154233612Y-100159384D01*
X154229191Y-100154474D01*
X154074690Y-100042222D01*
X154068662Y-100039538D01*
X154068660Y-100039537D01*
X153906257Y-99967231D01*
X153906256Y-99967231D01*
X153900226Y-99964546D01*
X153806825Y-99944693D01*
X153719882Y-99926212D01*
X153719877Y-99926212D01*
X153713425Y-99924840D01*
X153522451Y-99924840D01*
X153515999Y-99926212D01*
X153515994Y-99926212D01*
X153429050Y-99944693D01*
X153335650Y-99964546D01*
X153329620Y-99967231D01*
X153329619Y-99967231D01*
X153167216Y-100039537D01*
X153167214Y-100039538D01*
X153161186Y-100042222D01*
X153006685Y-100154474D01*
X153002264Y-100159384D01*
X153002263Y-100159385D01*
X152901295Y-100271522D01*
X152878898Y-100296396D01*
X152875597Y-100302114D01*
X152793742Y-100443891D01*
X152783411Y-100461784D01*
X152724396Y-100643412D01*
X152723706Y-100649973D01*
X152723706Y-100649975D01*
X152722850Y-100658119D01*
X152704434Y-100833340D01*
X139585281Y-100833340D01*
X139442829Y-100803061D01*
X139380357Y-100769333D01*
X139346035Y-100707183D01*
X139350763Y-100636344D01*
X139393039Y-100579306D01*
X139417778Y-100564707D01*
X139510392Y-100523473D01*
X139510394Y-100523472D01*
X139516422Y-100520788D01*
X139670923Y-100408536D01*
X139771894Y-100296396D01*
X139794291Y-100271522D01*
X139794292Y-100271521D01*
X139798710Y-100266614D01*
X139894197Y-100101226D01*
X139953212Y-99919598D01*
X139956713Y-99886294D01*
X139972484Y-99736235D01*
X139973174Y-99729670D01*
X139953212Y-99539742D01*
X139894197Y-99358114D01*
X139878851Y-99331533D01*
X139842215Y-99268079D01*
X139798710Y-99192726D01*
X139670923Y-99050804D01*
X139516422Y-98938552D01*
X139510394Y-98935868D01*
X139510392Y-98935867D01*
X139347989Y-98863561D01*
X139347988Y-98863561D01*
X139341958Y-98860876D01*
X139248557Y-98841023D01*
X139161614Y-98822542D01*
X139161609Y-98822542D01*
X139155157Y-98821170D01*
X138964183Y-98821170D01*
X138957731Y-98822542D01*
X138957726Y-98822542D01*
X138870783Y-98841023D01*
X138777382Y-98860876D01*
X138771352Y-98863561D01*
X138771351Y-98863561D01*
X138608948Y-98935867D01*
X138608946Y-98935868D01*
X138602918Y-98938552D01*
X138448417Y-99050804D01*
X138320630Y-99192726D01*
X138277125Y-99268079D01*
X138240490Y-99331533D01*
X138225143Y-99358114D01*
X138166128Y-99539742D01*
X138146166Y-99729670D01*
X122148500Y-99729670D01*
X122148500Y-97500000D01*
X126936996Y-97500000D01*
X126937686Y-97506565D01*
X126955960Y-97680428D01*
X126956958Y-97689928D01*
X127015973Y-97871556D01*
X127019276Y-97877278D01*
X127019277Y-97877279D01*
X127050361Y-97931118D01*
X127111460Y-98036944D01*
X127239247Y-98178866D01*
X127338343Y-98250864D01*
X127375331Y-98277737D01*
X127393748Y-98291118D01*
X127399776Y-98293802D01*
X127399778Y-98293803D01*
X127549956Y-98360666D01*
X127568212Y-98368794D01*
X127661613Y-98388647D01*
X127748556Y-98407128D01*
X127748561Y-98407128D01*
X127755013Y-98408500D01*
X127945987Y-98408500D01*
X127952439Y-98407128D01*
X127952444Y-98407128D01*
X128039387Y-98388647D01*
X128132788Y-98368794D01*
X128151044Y-98360666D01*
X128301222Y-98293803D01*
X128301224Y-98293802D01*
X128307252Y-98291118D01*
X128325670Y-98277737D01*
X128362657Y-98250864D01*
X128461753Y-98178866D01*
X128589540Y-98036944D01*
X128650639Y-97931118D01*
X128681723Y-97877279D01*
X128681724Y-97877278D01*
X128685027Y-97871556D01*
X128744042Y-97689928D01*
X128745041Y-97680428D01*
X128763314Y-97506565D01*
X128764004Y-97500000D01*
X128756286Y-97426569D01*
X128744732Y-97316635D01*
X128744732Y-97316633D01*
X128744042Y-97310072D01*
X128685027Y-97128444D01*
X128674738Y-97110622D01*
X128645779Y-97060464D01*
X128589540Y-96963056D01*
X128572197Y-96943794D01*
X128466175Y-96826045D01*
X128466174Y-96826044D01*
X128461753Y-96821134D01*
X128307252Y-96708882D01*
X128301224Y-96706198D01*
X128301222Y-96706197D01*
X128138819Y-96633891D01*
X128138818Y-96633891D01*
X128132788Y-96631206D01*
X128033022Y-96610000D01*
X142776496Y-96610000D01*
X142777186Y-96616565D01*
X142793810Y-96774729D01*
X142796458Y-96799928D01*
X142855473Y-96981556D01*
X142858776Y-96987278D01*
X142858777Y-96987279D01*
X142870131Y-97006944D01*
X142950960Y-97146944D01*
X142955378Y-97151851D01*
X142955379Y-97151852D01*
X143056180Y-97263803D01*
X143078747Y-97288866D01*
X143233248Y-97401118D01*
X143239276Y-97403802D01*
X143239278Y-97403803D01*
X143290412Y-97426569D01*
X143407712Y-97478794D01*
X143493670Y-97497065D01*
X143588056Y-97517128D01*
X143588061Y-97517128D01*
X143594513Y-97518500D01*
X143785487Y-97518500D01*
X143791939Y-97517128D01*
X143791944Y-97517128D01*
X143886330Y-97497065D01*
X143972288Y-97478794D01*
X144089588Y-97426569D01*
X144140722Y-97403803D01*
X144140724Y-97403802D01*
X144146752Y-97401118D01*
X144301253Y-97288866D01*
X144323820Y-97263803D01*
X144424621Y-97151852D01*
X144424622Y-97151851D01*
X144429040Y-97146944D01*
X144509869Y-97006944D01*
X144521223Y-96987279D01*
X144521224Y-96987278D01*
X144524527Y-96981556D01*
X144583542Y-96799928D01*
X144586191Y-96774729D01*
X144602814Y-96616565D01*
X144603504Y-96610000D01*
X144583542Y-96420072D01*
X144550668Y-96318898D01*
X146017598Y-96318898D01*
X146018288Y-96325463D01*
X146033064Y-96466045D01*
X146037560Y-96508826D01*
X146096575Y-96690454D01*
X146099878Y-96696176D01*
X146099879Y-96696177D01*
X146105524Y-96705954D01*
X146192062Y-96855842D01*
X146196480Y-96860749D01*
X146196481Y-96860750D01*
X146305255Y-96981556D01*
X146319849Y-96997764D01*
X146389152Y-97048116D01*
X146465298Y-97103439D01*
X146474350Y-97110016D01*
X146480378Y-97112700D01*
X146480380Y-97112701D01*
X146570330Y-97152749D01*
X146648814Y-97187692D01*
X146742214Y-97207545D01*
X146829158Y-97226026D01*
X146829163Y-97226026D01*
X146835615Y-97227398D01*
X147026589Y-97227398D01*
X147033041Y-97226026D01*
X147033046Y-97226026D01*
X147119990Y-97207545D01*
X147213390Y-97187692D01*
X147291874Y-97152749D01*
X147381826Y-97112700D01*
X147381827Y-97112699D01*
X147387854Y-97110016D01*
X147393193Y-97106137D01*
X147397866Y-97103439D01*
X147466861Y-97086701D01*
X147534927Y-97110622D01*
X147592910Y-97152749D01*
X147673248Y-97211118D01*
X147679276Y-97213802D01*
X147679278Y-97213803D01*
X147776833Y-97257237D01*
X147847712Y-97288794D01*
X147854168Y-97290166D01*
X147860452Y-97292208D01*
X147860072Y-97293376D01*
X147916572Y-97323877D01*
X147950896Y-97386026D01*
X147953215Y-97426569D01*
X147947726Y-97478794D01*
X147946496Y-97490500D01*
X147966458Y-97680428D01*
X148025473Y-97862056D01*
X148120960Y-98027444D01*
X148125378Y-98032351D01*
X148125379Y-98032352D01*
X148139919Y-98048500D01*
X148248747Y-98169366D01*
X148403248Y-98281618D01*
X148409276Y-98284302D01*
X148409278Y-98284303D01*
X148571681Y-98356609D01*
X148577712Y-98359294D01*
X148671113Y-98379147D01*
X148758056Y-98397628D01*
X148758061Y-98397628D01*
X148764513Y-98399000D01*
X148955487Y-98399000D01*
X148961939Y-98397628D01*
X148961944Y-98397628D01*
X149049930Y-98378926D01*
X149087804Y-98370875D01*
X149158594Y-98376277D01*
X149215226Y-98419094D01*
X149239720Y-98485731D01*
X149240000Y-98494122D01*
X149240000Y-100810000D01*
X152040000Y-100810000D01*
X152040000Y-98110000D01*
X149769615Y-98110000D01*
X149701494Y-98089998D01*
X149655001Y-98036342D01*
X149644897Y-97966068D01*
X149660496Y-97921000D01*
X149691223Y-97867779D01*
X149691224Y-97867778D01*
X149694527Y-97862056D01*
X149753542Y-97680428D01*
X149773504Y-97490500D01*
X149763702Y-97397237D01*
X149754232Y-97307135D01*
X149754232Y-97307133D01*
X149753542Y-97300572D01*
X149701369Y-97140000D01*
X155316496Y-97140000D01*
X155317186Y-97146565D01*
X155334757Y-97313740D01*
X155336458Y-97329928D01*
X155395473Y-97511556D01*
X155490960Y-97676944D01*
X155495378Y-97681851D01*
X155495379Y-97681852D01*
X155614325Y-97813955D01*
X155618747Y-97818866D01*
X155773248Y-97931118D01*
X155779276Y-97933802D01*
X155779278Y-97933803D01*
X155851747Y-97966068D01*
X155947712Y-98008794D01*
X156035453Y-98027444D01*
X156128056Y-98047128D01*
X156128061Y-98047128D01*
X156134513Y-98048500D01*
X156325487Y-98048500D01*
X156331939Y-98047128D01*
X156331944Y-98047128D01*
X156424547Y-98027444D01*
X156512288Y-98008794D01*
X156608253Y-97966068D01*
X156680722Y-97933803D01*
X156680724Y-97933802D01*
X156686752Y-97931118D01*
X156841253Y-97818866D01*
X156845675Y-97813955D01*
X156964621Y-97681852D01*
X156964622Y-97681851D01*
X156969040Y-97676944D01*
X157064527Y-97511556D01*
X157123542Y-97329928D01*
X157125244Y-97313740D01*
X157142814Y-97146565D01*
X157143504Y-97140000D01*
X157130035Y-97011852D01*
X157124232Y-96956635D01*
X157124232Y-96956633D01*
X157123542Y-96950072D01*
X157064527Y-96768444D01*
X157046341Y-96736944D01*
X156998086Y-96653365D01*
X156969040Y-96603056D01*
X156861780Y-96483931D01*
X156849236Y-96470000D01*
X157866496Y-96470000D01*
X157867186Y-96476565D01*
X157881082Y-96608774D01*
X157886458Y-96659928D01*
X157945473Y-96841556D01*
X158040960Y-97006944D01*
X158045378Y-97011851D01*
X158045379Y-97011852D01*
X158094232Y-97066109D01*
X158168747Y-97148866D01*
X158323248Y-97261118D01*
X158329276Y-97263802D01*
X158329278Y-97263803D01*
X158491681Y-97336109D01*
X158497712Y-97338794D01*
X158591112Y-97358647D01*
X158678056Y-97377128D01*
X158678061Y-97377128D01*
X158684513Y-97378500D01*
X158875487Y-97378500D01*
X158881939Y-97377128D01*
X158881944Y-97377128D01*
X158968887Y-97358647D01*
X159062288Y-97338794D01*
X159068319Y-97336109D01*
X159230722Y-97263803D01*
X159230724Y-97263802D01*
X159236752Y-97261118D01*
X159391253Y-97148866D01*
X159465768Y-97066109D01*
X159514621Y-97011852D01*
X159514622Y-97011851D01*
X159519040Y-97006944D01*
X159614527Y-96841556D01*
X159673542Y-96659928D01*
X159678919Y-96608774D01*
X159692814Y-96476565D01*
X159693504Y-96470000D01*
X159673542Y-96280072D01*
X159645392Y-96193435D01*
X159622688Y-96123559D01*
X159620661Y-96052591D01*
X159624538Y-96041559D01*
X159624527Y-96041556D01*
X159658810Y-95936045D01*
X159683542Y-95859928D01*
X159684888Y-95847128D01*
X159702814Y-95676565D01*
X159703504Y-95670000D01*
X159691301Y-95553891D01*
X159684232Y-95486635D01*
X159684232Y-95486633D01*
X159683542Y-95480072D01*
X159624527Y-95298444D01*
X159529040Y-95133056D01*
X159511697Y-95113794D01*
X159405675Y-94996045D01*
X159405674Y-94996044D01*
X159401253Y-94991134D01*
X159246752Y-94878882D01*
X159240724Y-94876198D01*
X159240722Y-94876197D01*
X159078319Y-94803891D01*
X159078318Y-94803891D01*
X159072288Y-94801206D01*
X158978887Y-94781353D01*
X158891944Y-94762872D01*
X158891939Y-94762872D01*
X158885487Y-94761500D01*
X158694513Y-94761500D01*
X158688061Y-94762872D01*
X158688056Y-94762872D01*
X158601113Y-94781353D01*
X158507712Y-94801206D01*
X158501682Y-94803891D01*
X158501681Y-94803891D01*
X158339278Y-94876197D01*
X158339276Y-94876198D01*
X158333248Y-94878882D01*
X158178747Y-94991134D01*
X158174326Y-94996044D01*
X158174325Y-94996045D01*
X158068304Y-95113794D01*
X158050960Y-95133056D01*
X157955473Y-95298444D01*
X157896458Y-95480072D01*
X157895768Y-95486633D01*
X157895768Y-95486635D01*
X157888699Y-95553891D01*
X157876496Y-95670000D01*
X157877186Y-95676565D01*
X157895113Y-95847128D01*
X157896458Y-95859928D01*
X157898498Y-95866206D01*
X157947312Y-96016441D01*
X157949339Y-96087409D01*
X157945462Y-96098441D01*
X157945473Y-96098444D01*
X157886458Y-96280072D01*
X157866496Y-96470000D01*
X156849236Y-96470000D01*
X156845675Y-96466045D01*
X156845674Y-96466044D01*
X156841253Y-96461134D01*
X156686752Y-96348882D01*
X156680724Y-96346198D01*
X156680722Y-96346197D01*
X156518319Y-96273891D01*
X156518318Y-96273891D01*
X156512288Y-96271206D01*
X156418887Y-96251353D01*
X156331944Y-96232872D01*
X156331939Y-96232872D01*
X156325487Y-96231500D01*
X156134513Y-96231500D01*
X156128061Y-96232872D01*
X156128056Y-96232872D01*
X156041113Y-96251353D01*
X155947712Y-96271206D01*
X155941682Y-96273891D01*
X155941681Y-96273891D01*
X155779278Y-96346197D01*
X155779276Y-96346198D01*
X155773248Y-96348882D01*
X155618747Y-96461134D01*
X155614326Y-96466044D01*
X155614325Y-96466045D01*
X155598221Y-96483931D01*
X155490960Y-96603056D01*
X155461914Y-96653365D01*
X155413660Y-96736944D01*
X155395473Y-96768444D01*
X155336458Y-96950072D01*
X155335768Y-96956633D01*
X155335768Y-96956635D01*
X155329965Y-97011852D01*
X155316496Y-97140000D01*
X149701369Y-97140000D01*
X149698584Y-97131430D01*
X149696556Y-97060464D01*
X149733219Y-96999666D01*
X149796931Y-96968341D01*
X149867465Y-96976433D01*
X149881837Y-96984546D01*
X149882189Y-96983936D01*
X149887907Y-96987237D01*
X149893248Y-96991118D01*
X149899276Y-96993802D01*
X149899278Y-96993803D01*
X150021268Y-97048116D01*
X150067712Y-97068794D01*
X150161113Y-97088647D01*
X150248056Y-97107128D01*
X150248061Y-97107128D01*
X150254513Y-97108500D01*
X150445487Y-97108500D01*
X150451939Y-97107128D01*
X150451944Y-97107128D01*
X150538887Y-97088647D01*
X150632288Y-97068794D01*
X150678732Y-97048116D01*
X150800722Y-96993803D01*
X150800724Y-96993802D01*
X150806752Y-96991118D01*
X150828564Y-96975271D01*
X150871888Y-96943794D01*
X150961253Y-96878866D01*
X150981984Y-96855842D01*
X151084621Y-96741852D01*
X151084622Y-96741851D01*
X151089040Y-96736944D01*
X151150088Y-96631206D01*
X151181223Y-96577279D01*
X151181224Y-96577278D01*
X151184527Y-96571556D01*
X151243542Y-96389928D01*
X151250318Y-96325463D01*
X151262814Y-96206565D01*
X151263504Y-96200000D01*
X151255379Y-96122692D01*
X151244232Y-96016635D01*
X151244232Y-96016633D01*
X151243542Y-96010072D01*
X151184527Y-95828444D01*
X151179007Y-95818882D01*
X151111236Y-95701500D01*
X151089040Y-95663056D01*
X151052748Y-95622749D01*
X150965675Y-95526045D01*
X150965674Y-95526044D01*
X150961253Y-95521134D01*
X150806752Y-95408882D01*
X150800724Y-95406198D01*
X150800722Y-95406197D01*
X150638319Y-95333891D01*
X150638318Y-95333891D01*
X150632288Y-95331206D01*
X150532522Y-95310000D01*
X150451944Y-95292872D01*
X150451939Y-95292872D01*
X150445487Y-95291500D01*
X150254513Y-95291500D01*
X150248061Y-95292872D01*
X150248056Y-95292872D01*
X150167478Y-95310000D01*
X150067712Y-95331206D01*
X150061682Y-95333891D01*
X150061681Y-95333891D01*
X149899278Y-95406197D01*
X149899276Y-95406198D01*
X149893248Y-95408882D01*
X149738747Y-95521134D01*
X149734326Y-95526044D01*
X149734325Y-95526045D01*
X149647253Y-95622749D01*
X149610960Y-95663056D01*
X149588764Y-95701500D01*
X149520994Y-95818882D01*
X149515473Y-95828444D01*
X149456458Y-96010072D01*
X149455768Y-96016633D01*
X149455768Y-96016635D01*
X149444621Y-96122692D01*
X149436496Y-96200000D01*
X149437186Y-96206565D01*
X149449683Y-96325463D01*
X149456458Y-96389928D01*
X149511416Y-96559070D01*
X149513444Y-96630036D01*
X149476781Y-96690834D01*
X149413069Y-96722159D01*
X149342535Y-96714067D01*
X149328163Y-96705954D01*
X149327811Y-96706564D01*
X149322093Y-96703263D01*
X149316752Y-96699382D01*
X149310724Y-96696698D01*
X149310722Y-96696697D01*
X149148319Y-96624391D01*
X149148318Y-96624391D01*
X149142288Y-96621706D01*
X149135832Y-96620334D01*
X149129548Y-96618292D01*
X149129928Y-96617124D01*
X149073428Y-96586623D01*
X149039104Y-96524474D01*
X149036785Y-96483931D01*
X149042814Y-96426565D01*
X149043504Y-96420000D01*
X149027721Y-96269834D01*
X149024232Y-96236635D01*
X149024232Y-96236633D01*
X149023542Y-96230072D01*
X148964527Y-96048444D01*
X148869040Y-95883056D01*
X148848216Y-95859928D01*
X148745675Y-95746045D01*
X148745674Y-95746044D01*
X148741253Y-95741134D01*
X148596754Y-95636149D01*
X148592094Y-95632763D01*
X148592093Y-95632762D01*
X148586752Y-95628882D01*
X148580724Y-95626198D01*
X148580722Y-95626197D01*
X148418319Y-95553891D01*
X148418318Y-95553891D01*
X148412288Y-95551206D01*
X148302078Y-95527780D01*
X148231944Y-95512872D01*
X148231939Y-95512872D01*
X148225487Y-95511500D01*
X148034513Y-95511500D01*
X148028061Y-95512872D01*
X148028056Y-95512872D01*
X147957922Y-95527780D01*
X147847712Y-95551206D01*
X147841682Y-95553891D01*
X147841681Y-95553891D01*
X147679279Y-95626197D01*
X147673248Y-95628882D01*
X147667909Y-95632761D01*
X147663236Y-95635459D01*
X147594241Y-95652197D01*
X147526175Y-95628276D01*
X147393196Y-95531661D01*
X147393195Y-95531660D01*
X147387854Y-95527780D01*
X147381826Y-95525096D01*
X147381824Y-95525095D01*
X147219421Y-95452789D01*
X147219420Y-95452789D01*
X147213390Y-95450104D01*
X147119989Y-95430251D01*
X147033046Y-95411770D01*
X147033041Y-95411770D01*
X147026589Y-95410398D01*
X146835615Y-95410398D01*
X146829163Y-95411770D01*
X146829158Y-95411770D01*
X146742215Y-95430251D01*
X146648814Y-95450104D01*
X146642784Y-95452789D01*
X146642783Y-95452789D01*
X146480380Y-95525095D01*
X146480378Y-95525096D01*
X146474350Y-95527780D01*
X146319849Y-95640032D01*
X146315428Y-95644942D01*
X146315427Y-95644943D01*
X146224395Y-95746045D01*
X146192062Y-95781954D01*
X146188761Y-95787672D01*
X146108175Y-95927251D01*
X146096575Y-95947342D01*
X146037560Y-96128970D01*
X146036870Y-96135531D01*
X146036870Y-96135533D01*
X146026244Y-96236635D01*
X146017598Y-96318898D01*
X144550668Y-96318898D01*
X144524527Y-96238444D01*
X144519694Y-96230072D01*
X144446792Y-96103803D01*
X144429040Y-96073056D01*
X144378239Y-96016635D01*
X144305675Y-95936045D01*
X144305674Y-95936044D01*
X144301253Y-95931134D01*
X144177506Y-95841226D01*
X144152094Y-95822763D01*
X144152093Y-95822762D01*
X144146752Y-95818882D01*
X144140724Y-95816198D01*
X144140722Y-95816197D01*
X143978319Y-95743891D01*
X143978318Y-95743891D01*
X143972288Y-95741206D01*
X143878887Y-95721353D01*
X143791944Y-95702872D01*
X143791939Y-95702872D01*
X143785487Y-95701500D01*
X143594513Y-95701500D01*
X143588061Y-95702872D01*
X143588056Y-95702872D01*
X143501113Y-95721353D01*
X143407712Y-95741206D01*
X143401682Y-95743891D01*
X143401681Y-95743891D01*
X143239278Y-95816197D01*
X143239276Y-95816198D01*
X143233248Y-95818882D01*
X143227907Y-95822762D01*
X143227906Y-95822763D01*
X143202494Y-95841226D01*
X143078747Y-95931134D01*
X143074326Y-95936044D01*
X143074325Y-95936045D01*
X143001762Y-96016635D01*
X142950960Y-96073056D01*
X142933208Y-96103803D01*
X142860307Y-96230072D01*
X142855473Y-96238444D01*
X142796458Y-96420072D01*
X142776496Y-96610000D01*
X128033022Y-96610000D01*
X127952444Y-96592872D01*
X127952439Y-96592872D01*
X127945987Y-96591500D01*
X127755013Y-96591500D01*
X127748561Y-96592872D01*
X127748556Y-96592872D01*
X127667978Y-96610000D01*
X127568212Y-96631206D01*
X127562182Y-96633891D01*
X127562181Y-96633891D01*
X127399778Y-96706197D01*
X127399776Y-96706198D01*
X127393748Y-96708882D01*
X127239247Y-96821134D01*
X127234826Y-96826044D01*
X127234825Y-96826045D01*
X127128804Y-96943794D01*
X127111460Y-96963056D01*
X127055221Y-97060464D01*
X127026263Y-97110622D01*
X127015973Y-97128444D01*
X126956958Y-97310072D01*
X126956268Y-97316633D01*
X126956268Y-97316635D01*
X126944714Y-97426569D01*
X126936996Y-97500000D01*
X122148500Y-97500000D01*
X122148500Y-95310000D01*
X132526496Y-95310000D01*
X132527186Y-95316565D01*
X132541504Y-95452789D01*
X132546458Y-95499928D01*
X132605473Y-95681556D01*
X132608776Y-95687278D01*
X132608777Y-95687279D01*
X132616988Y-95701500D01*
X132700960Y-95846944D01*
X132705378Y-95851851D01*
X132705379Y-95851852D01*
X132729056Y-95878148D01*
X132828747Y-95988866D01*
X132902872Y-96042721D01*
X132928499Y-96061340D01*
X132983248Y-96101118D01*
X132989276Y-96103802D01*
X132989278Y-96103803D01*
X133151681Y-96176109D01*
X133157712Y-96178794D01*
X133251113Y-96198647D01*
X133338056Y-96217128D01*
X133338061Y-96217128D01*
X133344513Y-96218500D01*
X133535487Y-96218500D01*
X133541939Y-96217128D01*
X133541944Y-96217128D01*
X133628887Y-96198647D01*
X133722288Y-96178794D01*
X133728319Y-96176109D01*
X133890722Y-96103803D01*
X133890724Y-96103802D01*
X133896752Y-96101118D01*
X133951502Y-96061340D01*
X133977128Y-96042721D01*
X134051253Y-95988866D01*
X134150944Y-95878148D01*
X134174621Y-95851852D01*
X134174622Y-95851851D01*
X134179040Y-95846944D01*
X134263012Y-95701500D01*
X134271223Y-95687279D01*
X134271224Y-95687278D01*
X134274527Y-95681556D01*
X134333542Y-95499928D01*
X134338497Y-95452789D01*
X134352814Y-95316565D01*
X134353504Y-95310000D01*
X134333542Y-95120072D01*
X134274527Y-94938444D01*
X134242380Y-94882763D01*
X134211262Y-94828866D01*
X134179040Y-94773056D01*
X134164255Y-94756635D01*
X134055675Y-94636045D01*
X134055674Y-94636044D01*
X134051253Y-94631134D01*
X133934901Y-94546599D01*
X133902094Y-94522763D01*
X133902093Y-94522762D01*
X133896752Y-94518882D01*
X133890724Y-94516198D01*
X133890722Y-94516197D01*
X133728319Y-94443891D01*
X133728318Y-94443891D01*
X133722288Y-94441206D01*
X133628887Y-94421353D01*
X133541944Y-94402872D01*
X133541939Y-94402872D01*
X133535487Y-94401500D01*
X133344513Y-94401500D01*
X133338061Y-94402872D01*
X133338056Y-94402872D01*
X133251113Y-94421353D01*
X133157712Y-94441206D01*
X133151682Y-94443891D01*
X133151681Y-94443891D01*
X132989278Y-94516197D01*
X132989276Y-94516198D01*
X132983248Y-94518882D01*
X132977907Y-94522762D01*
X132977906Y-94522763D01*
X132945099Y-94546599D01*
X132828747Y-94631134D01*
X132824326Y-94636044D01*
X132824325Y-94636045D01*
X132715746Y-94756635D01*
X132700960Y-94773056D01*
X132668738Y-94828866D01*
X132637621Y-94882763D01*
X132605473Y-94938444D01*
X132546458Y-95120072D01*
X132526496Y-95310000D01*
X122148500Y-95310000D01*
X122148500Y-93180500D01*
X132526496Y-93180500D01*
X132527186Y-93187065D01*
X132537931Y-93289294D01*
X132546458Y-93370428D01*
X132605473Y-93552056D01*
X132700960Y-93717444D01*
X132705378Y-93722351D01*
X132705379Y-93722352D01*
X132780334Y-93805598D01*
X132828747Y-93859366D01*
X132840126Y-93867633D01*
X132976390Y-93966635D01*
X132983248Y-93971618D01*
X132989276Y-93974302D01*
X132989278Y-93974303D01*
X133128320Y-94036208D01*
X133157712Y-94049294D01*
X133251112Y-94069147D01*
X133338056Y-94087628D01*
X133338061Y-94087628D01*
X133344513Y-94089000D01*
X133535487Y-94089000D01*
X133541939Y-94087628D01*
X133541944Y-94087628D01*
X133628888Y-94069147D01*
X133722288Y-94049294D01*
X133751680Y-94036208D01*
X133890722Y-93974303D01*
X133890724Y-93974302D01*
X133896752Y-93971618D01*
X133903611Y-93966635D01*
X134039874Y-93867633D01*
X134051253Y-93859366D01*
X134099666Y-93805598D01*
X134174621Y-93722352D01*
X134174622Y-93722351D01*
X134179040Y-93717444D01*
X134274527Y-93552056D01*
X134305880Y-93455563D01*
X134345952Y-93396958D01*
X134411349Y-93369321D01*
X134425712Y-93368500D01*
X134505987Y-93368500D01*
X134512439Y-93367128D01*
X134512444Y-93367128D01*
X134599387Y-93348647D01*
X134692788Y-93328794D01*
X134698819Y-93326109D01*
X134861222Y-93253803D01*
X134861224Y-93253802D01*
X134867252Y-93251118D01*
X135021753Y-93138866D01*
X135090020Y-93063048D01*
X135145121Y-93001852D01*
X135145122Y-93001851D01*
X135149540Y-92996944D01*
X135232400Y-92853427D01*
X135241723Y-92837279D01*
X135241724Y-92837278D01*
X135245027Y-92831556D01*
X135304042Y-92649928D01*
X135307069Y-92621134D01*
X135323314Y-92466565D01*
X135324004Y-92460000D01*
X135316949Y-92392872D01*
X135304732Y-92276635D01*
X135304732Y-92276633D01*
X135304042Y-92270072D01*
X135251950Y-92109750D01*
X137063008Y-92109750D01*
X137063698Y-92116315D01*
X137080188Y-92273204D01*
X137082970Y-92299678D01*
X137141985Y-92481306D01*
X137145288Y-92487028D01*
X137145289Y-92487029D01*
X137153721Y-92501634D01*
X137237472Y-92646694D01*
X137241890Y-92651601D01*
X137241891Y-92651602D01*
X137342245Y-92763056D01*
X137365259Y-92788616D01*
X137424361Y-92831556D01*
X137500242Y-92886687D01*
X137519760Y-92900868D01*
X137525788Y-92903552D01*
X137525790Y-92903553D01*
X137644891Y-92956580D01*
X137698987Y-93002560D01*
X137718952Y-93058516D01*
X137725768Y-93123364D01*
X137726458Y-93129928D01*
X137728498Y-93136205D01*
X137728498Y-93136207D01*
X137738193Y-93166045D01*
X137785473Y-93311556D01*
X137788776Y-93317278D01*
X137788777Y-93317279D01*
X137799821Y-93336407D01*
X137880960Y-93476944D01*
X137886169Y-93482729D01*
X137886466Y-93483348D01*
X137889259Y-93487192D01*
X137888556Y-93487703D01*
X137916888Y-93546734D01*
X137908126Y-93617188D01*
X137901656Y-93630037D01*
X137874381Y-93677279D01*
X137826991Y-93759361D01*
X137815973Y-93778444D01*
X137756958Y-93960072D01*
X137756268Y-93966633D01*
X137756268Y-93966635D01*
X137747436Y-94050666D01*
X137736996Y-94150000D01*
X137737686Y-94156565D01*
X137751823Y-94291067D01*
X137756958Y-94339928D01*
X137815973Y-94521556D01*
X137819276Y-94527278D01*
X137819277Y-94527279D01*
X137853186Y-94586010D01*
X137911460Y-94686944D01*
X137915878Y-94691851D01*
X137915879Y-94691852D01*
X137994144Y-94778774D01*
X138039247Y-94828866D01*
X138104392Y-94876197D01*
X138182191Y-94932721D01*
X138193748Y-94941118D01*
X138199776Y-94943802D01*
X138199778Y-94943803D01*
X138362181Y-95016109D01*
X138368212Y-95018794D01*
X138461612Y-95038647D01*
X138548556Y-95057128D01*
X138548561Y-95057128D01*
X138555013Y-95058500D01*
X138745987Y-95058500D01*
X138752439Y-95057128D01*
X138752444Y-95057128D01*
X138839388Y-95038647D01*
X138932788Y-95018794D01*
X138938819Y-95016109D01*
X139101222Y-94943803D01*
X139101224Y-94943802D01*
X139107252Y-94941118D01*
X139118810Y-94932721D01*
X139196608Y-94876197D01*
X139261753Y-94828866D01*
X139306856Y-94778774D01*
X139385121Y-94691852D01*
X139385122Y-94691851D01*
X139389540Y-94686944D01*
X139447814Y-94586010D01*
X139481723Y-94527279D01*
X139481724Y-94527278D01*
X139485027Y-94521556D01*
X139544042Y-94339928D01*
X139549178Y-94291067D01*
X139563314Y-94156565D01*
X139564004Y-94150000D01*
X139553564Y-94050666D01*
X139544732Y-93966635D01*
X139544732Y-93966633D01*
X139544042Y-93960072D01*
X139485027Y-93778444D01*
X139474010Y-93759361D01*
X139426619Y-93677279D01*
X139389540Y-93613056D01*
X139384331Y-93607271D01*
X139384034Y-93606652D01*
X139381241Y-93602808D01*
X139381944Y-93602297D01*
X139353612Y-93543266D01*
X139362374Y-93472812D01*
X139368846Y-93459959D01*
X139371384Y-93455564D01*
X139380181Y-93440327D01*
X143699819Y-93440327D01*
X143700509Y-93446892D01*
X143718408Y-93617188D01*
X143719781Y-93630255D01*
X143778796Y-93811883D01*
X143874283Y-93977271D01*
X143878701Y-93982178D01*
X143878702Y-93982179D01*
X143927348Y-94036206D01*
X144002070Y-94119193D01*
X144156571Y-94231445D01*
X144162599Y-94234129D01*
X144162601Y-94234130D01*
X144298528Y-94294648D01*
X144331035Y-94309121D01*
X144424435Y-94328974D01*
X144511379Y-94347455D01*
X144511384Y-94347455D01*
X144517836Y-94348827D01*
X144708810Y-94348827D01*
X144715262Y-94347455D01*
X144715267Y-94347455D01*
X144802210Y-94328974D01*
X144895611Y-94309121D01*
X145041441Y-94244194D01*
X145111806Y-94234760D01*
X145166747Y-94257364D01*
X145193248Y-94276618D01*
X145199276Y-94279302D01*
X145199278Y-94279303D01*
X145361681Y-94351609D01*
X145367712Y-94354294D01*
X145461112Y-94374147D01*
X145548056Y-94392628D01*
X145548061Y-94392628D01*
X145554513Y-94394000D01*
X145745487Y-94394000D01*
X145751939Y-94392628D01*
X145751944Y-94392628D01*
X145838888Y-94374147D01*
X145932288Y-94354294D01*
X145938319Y-94351609D01*
X146100722Y-94279303D01*
X146100724Y-94279302D01*
X146106752Y-94276618D01*
X146121305Y-94266045D01*
X146204952Y-94205271D01*
X146261253Y-94164366D01*
X146376649Y-94036206D01*
X146384621Y-94027352D01*
X146384622Y-94027351D01*
X146389040Y-94022444D01*
X146447314Y-93921510D01*
X146481223Y-93862779D01*
X146481224Y-93862778D01*
X146484527Y-93857056D01*
X146518403Y-93752796D01*
X148001496Y-93752796D01*
X148002186Y-93759361D01*
X148014683Y-93878259D01*
X148021458Y-93942724D01*
X148080473Y-94124352D01*
X148083776Y-94130074D01*
X148083777Y-94130075D01*
X148095281Y-94150000D01*
X148175960Y-94289740D01*
X148180378Y-94294647D01*
X148180379Y-94294648D01*
X148299325Y-94426751D01*
X148303747Y-94431662D01*
X148320579Y-94443891D01*
X148423795Y-94518882D01*
X148458248Y-94543914D01*
X148464276Y-94546598D01*
X148464278Y-94546599D01*
X148626681Y-94618905D01*
X148632712Y-94621590D01*
X148726112Y-94641443D01*
X148813056Y-94659924D01*
X148813061Y-94659924D01*
X148819513Y-94661296D01*
X149010487Y-94661296D01*
X149016939Y-94659924D01*
X149016944Y-94659924D01*
X149103887Y-94641443D01*
X149197288Y-94621590D01*
X149203319Y-94618905D01*
X149365722Y-94546599D01*
X149365724Y-94546598D01*
X149371752Y-94543914D01*
X149406206Y-94518882D01*
X149509421Y-94443891D01*
X149526253Y-94431662D01*
X149546862Y-94408774D01*
X149654040Y-94289740D01*
X149655514Y-94291067D01*
X149704258Y-94253488D01*
X149749960Y-94244907D01*
X149919126Y-94244907D01*
X149925578Y-94243535D01*
X149925583Y-94243535D01*
X150012527Y-94225054D01*
X150105927Y-94205201D01*
X150161088Y-94180642D01*
X150274361Y-94130210D01*
X150274363Y-94130209D01*
X150280391Y-94127525D01*
X150286515Y-94123076D01*
X150391762Y-94046609D01*
X150434892Y-94015273D01*
X150562679Y-93873351D01*
X150636072Y-93746231D01*
X150654862Y-93713686D01*
X150654863Y-93713685D01*
X150658166Y-93707963D01*
X150682902Y-93631835D01*
X150722974Y-93573230D01*
X150788371Y-93545593D01*
X150858328Y-93557700D01*
X150910634Y-93605706D01*
X150922566Y-93631833D01*
X150935473Y-93671556D01*
X150938776Y-93677278D01*
X150938777Y-93677279D01*
X150964800Y-93722352D01*
X151030960Y-93836944D01*
X151035378Y-93841851D01*
X151035379Y-93841852D01*
X151131857Y-93949002D01*
X151158747Y-93978866D01*
X151313248Y-94091118D01*
X151319276Y-94093802D01*
X151319278Y-94093803D01*
X151481681Y-94166109D01*
X151487712Y-94168794D01*
X151581112Y-94188647D01*
X151668056Y-94207128D01*
X151668061Y-94207128D01*
X151674513Y-94208500D01*
X151865487Y-94208500D01*
X151871939Y-94207128D01*
X151871944Y-94207128D01*
X151958887Y-94188647D01*
X152052288Y-94168794D01*
X152058319Y-94166109D01*
X152220722Y-94093803D01*
X152220724Y-94093802D01*
X152226752Y-94091118D01*
X152381253Y-93978866D01*
X152408143Y-93949002D01*
X152504621Y-93841852D01*
X152504622Y-93841851D01*
X152506289Y-93840000D01*
X155136496Y-93840000D01*
X155137186Y-93846565D01*
X155154402Y-94010362D01*
X155156458Y-94029928D01*
X155215473Y-94211556D01*
X155218776Y-94217278D01*
X155218777Y-94217279D01*
X155241855Y-94257251D01*
X155310960Y-94376944D01*
X155315378Y-94381851D01*
X155315379Y-94381852D01*
X155367586Y-94439834D01*
X155438747Y-94518866D01*
X155444089Y-94522747D01*
X155444091Y-94522749D01*
X155472152Y-94543136D01*
X155515506Y-94599358D01*
X155521581Y-94670094D01*
X155517927Y-94683999D01*
X155496458Y-94750072D01*
X155495768Y-94756635D01*
X155495767Y-94756642D01*
X155487768Y-94832749D01*
X155476496Y-94940000D01*
X155477186Y-94946565D01*
X155488807Y-95057128D01*
X155496458Y-95129928D01*
X155555473Y-95311556D01*
X155650960Y-95476944D01*
X155655378Y-95481851D01*
X155655379Y-95481852D01*
X155690749Y-95521134D01*
X155778747Y-95618866D01*
X155933248Y-95731118D01*
X155939276Y-95733802D01*
X155939278Y-95733803D01*
X156036404Y-95777046D01*
X156107712Y-95808794D01*
X156173431Y-95822763D01*
X156288056Y-95847128D01*
X156288061Y-95847128D01*
X156294513Y-95848500D01*
X156485487Y-95848500D01*
X156491939Y-95847128D01*
X156491944Y-95847128D01*
X156606569Y-95822763D01*
X156672288Y-95808794D01*
X156743596Y-95777046D01*
X156840722Y-95733803D01*
X156840724Y-95733802D01*
X156846752Y-95731118D01*
X157001253Y-95618866D01*
X157089251Y-95521134D01*
X157124621Y-95481852D01*
X157124622Y-95481851D01*
X157129040Y-95476944D01*
X157224527Y-95311556D01*
X157283542Y-95129928D01*
X157291194Y-95057128D01*
X157302814Y-94946565D01*
X157303504Y-94940000D01*
X157292232Y-94832749D01*
X157284232Y-94756635D01*
X157284232Y-94756633D01*
X157283542Y-94750072D01*
X157224527Y-94568444D01*
X157209916Y-94543136D01*
X157150274Y-94439834D01*
X157129040Y-94403056D01*
X157072200Y-94339928D01*
X157005675Y-94266045D01*
X157005674Y-94266044D01*
X157001253Y-94261134D01*
X156990730Y-94253488D01*
X156967848Y-94236864D01*
X156924494Y-94180642D01*
X156918419Y-94109906D01*
X156922073Y-94096001D01*
X156943542Y-94029928D01*
X156944675Y-94019156D01*
X156962814Y-93846565D01*
X156963504Y-93840000D01*
X156945140Y-93665274D01*
X156944232Y-93656635D01*
X156944232Y-93656633D01*
X156943542Y-93650072D01*
X156884527Y-93468444D01*
X156789040Y-93303056D01*
X156782302Y-93295572D01*
X156665675Y-93166045D01*
X156665674Y-93166044D01*
X156661253Y-93161134D01*
X156542777Y-93075056D01*
X156512094Y-93052763D01*
X156512093Y-93052762D01*
X156506752Y-93048882D01*
X156500724Y-93046198D01*
X156500722Y-93046197D01*
X156338319Y-92973891D01*
X156338318Y-92973891D01*
X156332288Y-92971206D01*
X156202639Y-92943648D01*
X156151944Y-92932872D01*
X156151939Y-92932872D01*
X156145487Y-92931500D01*
X155954513Y-92931500D01*
X155948061Y-92932872D01*
X155948056Y-92932872D01*
X155897361Y-92943648D01*
X155767712Y-92971206D01*
X155761682Y-92973891D01*
X155761681Y-92973891D01*
X155599278Y-93046197D01*
X155599276Y-93046198D01*
X155593248Y-93048882D01*
X155587907Y-93052762D01*
X155587906Y-93052763D01*
X155557223Y-93075056D01*
X155438747Y-93161134D01*
X155434326Y-93166044D01*
X155434325Y-93166045D01*
X155317699Y-93295572D01*
X155310960Y-93303056D01*
X155215473Y-93468444D01*
X155156458Y-93650072D01*
X155155768Y-93656633D01*
X155155768Y-93656635D01*
X155154860Y-93665274D01*
X155136496Y-93840000D01*
X152506289Y-93840000D01*
X152509040Y-93836944D01*
X152575200Y-93722352D01*
X152601223Y-93677279D01*
X152601224Y-93677278D01*
X152604527Y-93671556D01*
X152663542Y-93489928D01*
X152664392Y-93481847D01*
X152682814Y-93306565D01*
X152683504Y-93300000D01*
X152678183Y-93249373D01*
X152664232Y-93116635D01*
X152664232Y-93116633D01*
X152663542Y-93110072D01*
X152604527Y-92928444D01*
X152509040Y-92763056D01*
X152491697Y-92743794D01*
X152385675Y-92626045D01*
X152385674Y-92626044D01*
X152381253Y-92621134D01*
X152258333Y-92531827D01*
X152232094Y-92512763D01*
X152232093Y-92512762D01*
X152226752Y-92508882D01*
X152220724Y-92506198D01*
X152220722Y-92506197D01*
X152058319Y-92433891D01*
X152058318Y-92433891D01*
X152052288Y-92431206D01*
X151958887Y-92411353D01*
X151871944Y-92392872D01*
X151871939Y-92392872D01*
X151865487Y-92391500D01*
X151674513Y-92391500D01*
X151668061Y-92392872D01*
X151668056Y-92392872D01*
X151581113Y-92411353D01*
X151487712Y-92431206D01*
X151481682Y-92433891D01*
X151481681Y-92433891D01*
X151432477Y-92455798D01*
X151313248Y-92508882D01*
X151312185Y-92506494D01*
X151254543Y-92520486D01*
X151187448Y-92497274D01*
X151143554Y-92441473D01*
X151135212Y-92407799D01*
X151118934Y-92252925D01*
X167051645Y-92252925D01*
X167057239Y-92314391D01*
X167065740Y-92407799D01*
X167069570Y-92449888D01*
X167071308Y-92455794D01*
X167071309Y-92455798D01*
X167094089Y-92533199D01*
X167125410Y-92639619D01*
X167128263Y-92645077D01*
X167128265Y-92645081D01*
X167165624Y-92716541D01*
X167217040Y-92814890D01*
X167340968Y-92969025D01*
X167345692Y-92972989D01*
X167352312Y-92978544D01*
X167492474Y-93096154D01*
X167497872Y-93099121D01*
X167497877Y-93099125D01*
X167610673Y-93161134D01*
X167665787Y-93191433D01*
X167671654Y-93193294D01*
X167671656Y-93193295D01*
X167848436Y-93249373D01*
X167854306Y-93251235D01*
X168008227Y-93268500D01*
X168114769Y-93268500D01*
X168117825Y-93268200D01*
X168117832Y-93268200D01*
X168176340Y-93262463D01*
X168261833Y-93254080D01*
X168267734Y-93252298D01*
X168267736Y-93252298D01*
X168388450Y-93215852D01*
X168451169Y-93196916D01*
X168625796Y-93104066D01*
X168729532Y-93019461D01*
X168774287Y-92982960D01*
X168774290Y-92982957D01*
X168779062Y-92979065D01*
X168782991Y-92974316D01*
X168901201Y-92831425D01*
X168901203Y-92831421D01*
X168905130Y-92826675D01*
X168999198Y-92652701D01*
X169057682Y-92463768D01*
X169060822Y-92433891D01*
X169077711Y-92273204D01*
X169077711Y-92273202D01*
X169078355Y-92267075D01*
X169064635Y-92116315D01*
X169060989Y-92076251D01*
X169060988Y-92076248D01*
X169060430Y-92070112D01*
X169055950Y-92054888D01*
X169018130Y-91926386D01*
X169004590Y-91880381D01*
X168994919Y-91861881D01*
X168950675Y-91777251D01*
X168912960Y-91705110D01*
X168789032Y-91550975D01*
X168782727Y-91545684D01*
X168651766Y-91435795D01*
X168637526Y-91423846D01*
X168632128Y-91420879D01*
X168632123Y-91420875D01*
X168469608Y-91331533D01*
X168469609Y-91331533D01*
X168464213Y-91328567D01*
X168458346Y-91326706D01*
X168458344Y-91326705D01*
X168281564Y-91270627D01*
X168281563Y-91270627D01*
X168275694Y-91268765D01*
X168121773Y-91251500D01*
X168015231Y-91251500D01*
X168012175Y-91251800D01*
X168012168Y-91251800D01*
X167953660Y-91257537D01*
X167868167Y-91265920D01*
X167862266Y-91267702D01*
X167862264Y-91267702D01*
X167821644Y-91279966D01*
X167678831Y-91323084D01*
X167504204Y-91415934D01*
X167445656Y-91463685D01*
X167355713Y-91537040D01*
X167355710Y-91537043D01*
X167350938Y-91540935D01*
X167347011Y-91545682D01*
X167347009Y-91545684D01*
X167228799Y-91688575D01*
X167228797Y-91688579D01*
X167224870Y-91693325D01*
X167130802Y-91867299D01*
X167072318Y-92056232D01*
X167071674Y-92062357D01*
X167071674Y-92062358D01*
X167053341Y-92236793D01*
X167051645Y-92252925D01*
X151118934Y-92252925D01*
X151117239Y-92236793D01*
X151117238Y-92236790D01*
X151116549Y-92230231D01*
X151057534Y-92048603D01*
X150962047Y-91883215D01*
X150834260Y-91741293D01*
X150679759Y-91629041D01*
X150673731Y-91626357D01*
X150673729Y-91626356D01*
X150511326Y-91554050D01*
X150511325Y-91554050D01*
X150505295Y-91551365D01*
X150411895Y-91531512D01*
X150324951Y-91513031D01*
X150324946Y-91513031D01*
X150318494Y-91511659D01*
X150127520Y-91511659D01*
X150121068Y-91513031D01*
X150121063Y-91513031D01*
X150034119Y-91531512D01*
X149940719Y-91551365D01*
X149934689Y-91554050D01*
X149934688Y-91554050D01*
X149772285Y-91626356D01*
X149772283Y-91626357D01*
X149766255Y-91629041D01*
X149611754Y-91741293D01*
X149483967Y-91883215D01*
X149388480Y-92048603D01*
X149329465Y-92230231D01*
X149328775Y-92236792D01*
X149328775Y-92236794D01*
X149313020Y-92386697D01*
X149309503Y-92420159D01*
X149318067Y-92501634D01*
X149318189Y-92502798D01*
X149305417Y-92572636D01*
X149266940Y-92617905D01*
X149249488Y-92630585D01*
X149212386Y-92657541D01*
X149207965Y-92662451D01*
X149207964Y-92662452D01*
X149129071Y-92750072D01*
X149084599Y-92799463D01*
X149083125Y-92798136D01*
X149034381Y-92835715D01*
X148988679Y-92844296D01*
X148819513Y-92844296D01*
X148813061Y-92845668D01*
X148813056Y-92845668D01*
X148726112Y-92864149D01*
X148632712Y-92884002D01*
X148626682Y-92886687D01*
X148626681Y-92886687D01*
X148464278Y-92958993D01*
X148464276Y-92958994D01*
X148458248Y-92961678D01*
X148303747Y-93073930D01*
X148299326Y-93078840D01*
X148299325Y-93078841D01*
X148200618Y-93188467D01*
X148175960Y-93215852D01*
X148172659Y-93221570D01*
X148088621Y-93367128D01*
X148080473Y-93381240D01*
X148021458Y-93562868D01*
X148020768Y-93569429D01*
X148020768Y-93569431D01*
X148009628Y-93675428D01*
X148001496Y-93752796D01*
X146518403Y-93752796D01*
X146543542Y-93675428D01*
X146550098Y-93613056D01*
X146562814Y-93492065D01*
X146563504Y-93485500D01*
X146552546Y-93381240D01*
X146544232Y-93302135D01*
X146544232Y-93302133D01*
X146543542Y-93295572D01*
X146484527Y-93113944D01*
X146475914Y-93099025D01*
X146420219Y-93002560D01*
X146389040Y-92948556D01*
X146330916Y-92884002D01*
X146265675Y-92811545D01*
X146265674Y-92811544D01*
X146261253Y-92806634D01*
X146106752Y-92694382D01*
X146100724Y-92691698D01*
X146100722Y-92691697D01*
X145938319Y-92619391D01*
X145938318Y-92619391D01*
X145932288Y-92616706D01*
X145838887Y-92596853D01*
X145751944Y-92578372D01*
X145751939Y-92578372D01*
X145745487Y-92577000D01*
X145554513Y-92577000D01*
X145548061Y-92578372D01*
X145548056Y-92578372D01*
X145461113Y-92596853D01*
X145367712Y-92616706D01*
X145361682Y-92619391D01*
X145361681Y-92619391D01*
X145346736Y-92626045D01*
X145221882Y-92681633D01*
X145151517Y-92691067D01*
X145096576Y-92668463D01*
X145070075Y-92649209D01*
X145064047Y-92646525D01*
X145064045Y-92646524D01*
X144901642Y-92574218D01*
X144901641Y-92574218D01*
X144895611Y-92571533D01*
X144802211Y-92551680D01*
X144715267Y-92533199D01*
X144715262Y-92533199D01*
X144708810Y-92531827D01*
X144517836Y-92531827D01*
X144511384Y-92533199D01*
X144511379Y-92533199D01*
X144424435Y-92551680D01*
X144331035Y-92571533D01*
X144325005Y-92574218D01*
X144325004Y-92574218D01*
X144162601Y-92646524D01*
X144162599Y-92646525D01*
X144156571Y-92649209D01*
X144151230Y-92653089D01*
X144151229Y-92653090D01*
X144111943Y-92681633D01*
X144002070Y-92761461D01*
X143997649Y-92766371D01*
X143997648Y-92766372D01*
X143919264Y-92853427D01*
X143874283Y-92903383D01*
X143778796Y-93068771D01*
X143719781Y-93250399D01*
X143719091Y-93256960D01*
X143719091Y-93256962D01*
X143713353Y-93311556D01*
X143699819Y-93440327D01*
X139380181Y-93440327D01*
X139440179Y-93336407D01*
X139451223Y-93317279D01*
X139451224Y-93317278D01*
X139454527Y-93311556D01*
X139513542Y-93129928D01*
X139514562Y-93120229D01*
X139532814Y-92946565D01*
X139533504Y-92940000D01*
X139527901Y-92886687D01*
X139514232Y-92756635D01*
X139514232Y-92756633D01*
X139513542Y-92750072D01*
X139454527Y-92568444D01*
X139422380Y-92512763D01*
X139388126Y-92453435D01*
X139359040Y-92403056D01*
X139350223Y-92393263D01*
X139235675Y-92266045D01*
X139235674Y-92266044D01*
X139231253Y-92261134D01*
X139076752Y-92148882D01*
X139070724Y-92146198D01*
X139070722Y-92146197D01*
X138951621Y-92093170D01*
X138897525Y-92047190D01*
X138877560Y-91991234D01*
X138870744Y-91926386D01*
X138870744Y-91926385D01*
X138870054Y-91919822D01*
X138860018Y-91888933D01*
X138823729Y-91777251D01*
X138811039Y-91738194D01*
X138715552Y-91572806D01*
X138617297Y-91463682D01*
X138586581Y-91399677D01*
X138595345Y-91329223D01*
X138636872Y-91277438D01*
X138731253Y-91208866D01*
X138859040Y-91066944D01*
X138954527Y-90901556D01*
X139013542Y-90719928D01*
X139026305Y-90598500D01*
X139032814Y-90536565D01*
X139033504Y-90530000D01*
X139028366Y-90481118D01*
X139014232Y-90346635D01*
X139014232Y-90346633D01*
X139013542Y-90340072D01*
X138954527Y-90158444D01*
X138859040Y-89993056D01*
X138731253Y-89851134D01*
X138576752Y-89738882D01*
X138570724Y-89736198D01*
X138570722Y-89736197D01*
X138408319Y-89663891D01*
X138408318Y-89663891D01*
X138402288Y-89661206D01*
X138308887Y-89641353D01*
X138221944Y-89622872D01*
X138221939Y-89622872D01*
X138215487Y-89621500D01*
X138024513Y-89621500D01*
X138018061Y-89622872D01*
X138018056Y-89622872D01*
X137931113Y-89641353D01*
X137837712Y-89661206D01*
X137831682Y-89663891D01*
X137831681Y-89663891D01*
X137669278Y-89736197D01*
X137669276Y-89736198D01*
X137663248Y-89738882D01*
X137508747Y-89851134D01*
X137380960Y-89993056D01*
X137285473Y-90158444D01*
X137226458Y-90340072D01*
X137225768Y-90346633D01*
X137225768Y-90346635D01*
X137211634Y-90481118D01*
X137206496Y-90530000D01*
X137207186Y-90536565D01*
X137213696Y-90598500D01*
X137226458Y-90719928D01*
X137285473Y-90901556D01*
X137380960Y-91066944D01*
X137479215Y-91176068D01*
X137509931Y-91240073D01*
X137501167Y-91310527D01*
X137459640Y-91362312D01*
X137365259Y-91430884D01*
X137360838Y-91435794D01*
X137360837Y-91435795D01*
X137255421Y-91552872D01*
X137237472Y-91572806D01*
X137141985Y-91738194D01*
X137082970Y-91919822D01*
X137063008Y-92109750D01*
X135251950Y-92109750D01*
X135245027Y-92088444D01*
X135237988Y-92076251D01*
X135152841Y-91928774D01*
X135149540Y-91923056D01*
X135140976Y-91913544D01*
X135026175Y-91786045D01*
X135026174Y-91786044D01*
X135021753Y-91781134D01*
X134867252Y-91668882D01*
X134861224Y-91666198D01*
X134861222Y-91666197D01*
X134698819Y-91593891D01*
X134698818Y-91593891D01*
X134692788Y-91591206D01*
X134583157Y-91567903D01*
X134512444Y-91552872D01*
X134512439Y-91552872D01*
X134505987Y-91551500D01*
X134315013Y-91551500D01*
X134308561Y-91552872D01*
X134308556Y-91552872D01*
X134237843Y-91567903D01*
X134128212Y-91591206D01*
X134122182Y-91593891D01*
X134122181Y-91593891D01*
X133959778Y-91666197D01*
X133959776Y-91666198D01*
X133953748Y-91668882D01*
X133799247Y-91781134D01*
X133794826Y-91786044D01*
X133794825Y-91786045D01*
X133680025Y-91913544D01*
X133671460Y-91923056D01*
X133668159Y-91928774D01*
X133583013Y-92076251D01*
X133575973Y-92088444D01*
X133555075Y-92152763D01*
X133544621Y-92184936D01*
X133504548Y-92243542D01*
X133439151Y-92271179D01*
X133424788Y-92272000D01*
X133344513Y-92272000D01*
X133338061Y-92273372D01*
X133338056Y-92273372D01*
X133251113Y-92291853D01*
X133157712Y-92311706D01*
X133151682Y-92314391D01*
X133151681Y-92314391D01*
X132989278Y-92386697D01*
X132989276Y-92386698D01*
X132983248Y-92389382D01*
X132977907Y-92393262D01*
X132977906Y-92393263D01*
X132964427Y-92403056D01*
X132828747Y-92501634D01*
X132824326Y-92506544D01*
X132824325Y-92506545D01*
X132731096Y-92610087D01*
X132700960Y-92643556D01*
X132673166Y-92691697D01*
X132609049Y-92802751D01*
X132605473Y-92808944D01*
X132546458Y-92990572D01*
X132545768Y-92997133D01*
X132545768Y-92997135D01*
X132538239Y-93068771D01*
X132526496Y-93180500D01*
X122148500Y-93180500D01*
X122148500Y-88840000D01*
X123506496Y-88840000D01*
X123507186Y-88846565D01*
X123524483Y-89011134D01*
X123526458Y-89029928D01*
X123585473Y-89211556D01*
X123680960Y-89376944D01*
X123685378Y-89381851D01*
X123685379Y-89381852D01*
X123716976Y-89416944D01*
X123808747Y-89518866D01*
X123884361Y-89573803D01*
X123911889Y-89593803D01*
X123963248Y-89631118D01*
X123969276Y-89633802D01*
X123969278Y-89633803D01*
X124125675Y-89703435D01*
X124137712Y-89708794D01*
X124231113Y-89728647D01*
X124318056Y-89747128D01*
X124318061Y-89747128D01*
X124324513Y-89748500D01*
X124515487Y-89748500D01*
X124521939Y-89747128D01*
X124521944Y-89747128D01*
X124608887Y-89728647D01*
X124702288Y-89708794D01*
X124714325Y-89703435D01*
X124870722Y-89633803D01*
X124870724Y-89633802D01*
X124876752Y-89631118D01*
X124928112Y-89593803D01*
X124955639Y-89573803D01*
X125031253Y-89518866D01*
X125123024Y-89416944D01*
X125154621Y-89381852D01*
X125154622Y-89381851D01*
X125159040Y-89376944D01*
X125254527Y-89211556D01*
X125313542Y-89029928D01*
X125315518Y-89011134D01*
X125329300Y-88880000D01*
X126026496Y-88880000D01*
X126027186Y-88886565D01*
X126042381Y-89031134D01*
X126046458Y-89069928D01*
X126105473Y-89251556D01*
X126200960Y-89416944D01*
X126205378Y-89421851D01*
X126205379Y-89421852D01*
X126232474Y-89451944D01*
X126328747Y-89558866D01*
X126376920Y-89593866D01*
X126476354Y-89666109D01*
X126483248Y-89671118D01*
X126489276Y-89673802D01*
X126489278Y-89673803D01*
X126635449Y-89738882D01*
X126657712Y-89748794D01*
X126751113Y-89768647D01*
X126838056Y-89787128D01*
X126838061Y-89787128D01*
X126844513Y-89788500D01*
X127035487Y-89788500D01*
X127041939Y-89787128D01*
X127041944Y-89787128D01*
X127191327Y-89755375D01*
X127262118Y-89760777D01*
X127318750Y-89803594D01*
X127342834Y-89865450D01*
X127345016Y-89886206D01*
X127346458Y-89899928D01*
X127405473Y-90081556D01*
X127500960Y-90246944D01*
X127628747Y-90388866D01*
X127783248Y-90501118D01*
X127789276Y-90503802D01*
X127789278Y-90503803D01*
X127951681Y-90576109D01*
X127957712Y-90578794D01*
X128043966Y-90597128D01*
X128138056Y-90617128D01*
X128138061Y-90617128D01*
X128144513Y-90618500D01*
X128335487Y-90618500D01*
X128341939Y-90617128D01*
X128341944Y-90617128D01*
X128436034Y-90597128D01*
X128522288Y-90578794D01*
X128528319Y-90576109D01*
X128690722Y-90503803D01*
X128690724Y-90503802D01*
X128696752Y-90501118D01*
X128851253Y-90388866D01*
X128979040Y-90246944D01*
X129074527Y-90081556D01*
X129133542Y-89899928D01*
X129138204Y-89855577D01*
X129152814Y-89716565D01*
X129153504Y-89710000D01*
X129149173Y-89668794D01*
X129134232Y-89526635D01*
X129134232Y-89526633D01*
X129133542Y-89520072D01*
X129074527Y-89338444D01*
X128979040Y-89173056D01*
X128972031Y-89165271D01*
X128855675Y-89036045D01*
X128855674Y-89036044D01*
X128851253Y-89031134D01*
X128790209Y-88986783D01*
X129965799Y-88986783D01*
X129966489Y-88993348D01*
X129984559Y-89165271D01*
X129985761Y-89176711D01*
X130044776Y-89358339D01*
X130048079Y-89364061D01*
X130048080Y-89364062D01*
X130058351Y-89381852D01*
X130140263Y-89523727D01*
X130144681Y-89528634D01*
X130144682Y-89528635D01*
X130228298Y-89621500D01*
X130268050Y-89665649D01*
X130422551Y-89777901D01*
X130428579Y-89780585D01*
X130428581Y-89780586D01*
X130590984Y-89852892D01*
X130597015Y-89855577D01*
X130690415Y-89875430D01*
X130777359Y-89893911D01*
X130777364Y-89893911D01*
X130783816Y-89895283D01*
X130974790Y-89895283D01*
X130981242Y-89893911D01*
X130981247Y-89893911D01*
X131068191Y-89875430D01*
X131161591Y-89855577D01*
X131167622Y-89852892D01*
X131330025Y-89780586D01*
X131330027Y-89780585D01*
X131336055Y-89777901D01*
X131393456Y-89736197D01*
X131484339Y-89670166D01*
X131490556Y-89665649D01*
X131490755Y-89665428D01*
X131552657Y-89635724D01*
X131624203Y-89644971D01*
X131671677Y-89666108D01*
X131671685Y-89666111D01*
X131677712Y-89668794D01*
X131763966Y-89687128D01*
X131858056Y-89707128D01*
X131858061Y-89707128D01*
X131864513Y-89708500D01*
X132055487Y-89708500D01*
X132061939Y-89707128D01*
X132061944Y-89707128D01*
X132156034Y-89687128D01*
X132242288Y-89668794D01*
X132249352Y-89665649D01*
X132410722Y-89593803D01*
X132410724Y-89593802D01*
X132416752Y-89591118D01*
X132455799Y-89562749D01*
X132533032Y-89506635D01*
X132571253Y-89478866D01*
X132589261Y-89458866D01*
X132694621Y-89341852D01*
X132694622Y-89341851D01*
X132699040Y-89336944D01*
X132794527Y-89171556D01*
X132853542Y-88989928D01*
X132863394Y-88896197D01*
X132872814Y-88806565D01*
X132873504Y-88800000D01*
X132871402Y-88780000D01*
X134896496Y-88780000D01*
X134897186Y-88786565D01*
X134898268Y-88796855D01*
X134916458Y-88969928D01*
X134975473Y-89151556D01*
X135070960Y-89316944D01*
X135075378Y-89321851D01*
X135075379Y-89321852D01*
X135093387Y-89341852D01*
X135198747Y-89458866D01*
X135286674Y-89522749D01*
X135336385Y-89558866D01*
X135353248Y-89571118D01*
X135359276Y-89573802D01*
X135359278Y-89573803D01*
X135494041Y-89633803D01*
X135527712Y-89648794D01*
X135610725Y-89666439D01*
X135708056Y-89687128D01*
X135708061Y-89687128D01*
X135714513Y-89688500D01*
X135905487Y-89688500D01*
X135911939Y-89687128D01*
X135911944Y-89687128D01*
X136009275Y-89666439D01*
X136092288Y-89648794D01*
X136125959Y-89633803D01*
X136260722Y-89573803D01*
X136260724Y-89573802D01*
X136266752Y-89571118D01*
X136283616Y-89558866D01*
X136333326Y-89522749D01*
X136421253Y-89458866D01*
X136526613Y-89341852D01*
X136544621Y-89321852D01*
X136544622Y-89321851D01*
X136549040Y-89316944D01*
X136644527Y-89151556D01*
X136703542Y-88969928D01*
X136709315Y-88915000D01*
X138731496Y-88915000D01*
X138732186Y-88921565D01*
X138747090Y-89063365D01*
X138751458Y-89104928D01*
X138810473Y-89286556D01*
X138813776Y-89292278D01*
X138813777Y-89292279D01*
X138830851Y-89321852D01*
X138905960Y-89451944D01*
X138910378Y-89456851D01*
X138910379Y-89456852D01*
X138973212Y-89526635D01*
X139033747Y-89593866D01*
X139104087Y-89644971D01*
X139166064Y-89690000D01*
X139188248Y-89706118D01*
X139194276Y-89708802D01*
X139194278Y-89708803D01*
X139356681Y-89781109D01*
X139362712Y-89783794D01*
X139455863Y-89803594D01*
X139543056Y-89822128D01*
X139543061Y-89822128D01*
X139549513Y-89823500D01*
X139740487Y-89823500D01*
X139746939Y-89822128D01*
X139746944Y-89822128D01*
X139834137Y-89803594D01*
X139927288Y-89783794D01*
X139933319Y-89781109D01*
X140095722Y-89708803D01*
X140095724Y-89708802D01*
X140101752Y-89706118D01*
X140123937Y-89690000D01*
X152456496Y-89690000D01*
X152457186Y-89696565D01*
X152473899Y-89855577D01*
X152476458Y-89879928D01*
X152535473Y-90061556D01*
X152630960Y-90226944D01*
X152635378Y-90231851D01*
X152635379Y-90231852D01*
X152648968Y-90246944D01*
X152758747Y-90368866D01*
X152913248Y-90481118D01*
X152919276Y-90483802D01*
X152919278Y-90483803D01*
X153081681Y-90556109D01*
X153087712Y-90558794D01*
X153181112Y-90578647D01*
X153268056Y-90597128D01*
X153268061Y-90597128D01*
X153274513Y-90598500D01*
X153465487Y-90598500D01*
X153471939Y-90597128D01*
X153471944Y-90597128D01*
X153558888Y-90578647D01*
X153652288Y-90558794D01*
X153658319Y-90556109D01*
X153820722Y-90483803D01*
X153820724Y-90483802D01*
X153826752Y-90481118D01*
X153981253Y-90368866D01*
X154091032Y-90246944D01*
X154104621Y-90231852D01*
X154104622Y-90231851D01*
X154109040Y-90226944D01*
X154204527Y-90061556D01*
X154263542Y-89879928D01*
X154266102Y-89855577D01*
X154282814Y-89696565D01*
X154283504Y-89690000D01*
X154280478Y-89661206D01*
X154264232Y-89506635D01*
X154264232Y-89506633D01*
X154263542Y-89500072D01*
X154204527Y-89318444D01*
X154186117Y-89286556D01*
X154112341Y-89158774D01*
X154109040Y-89153056D01*
X154102031Y-89145271D01*
X153985675Y-89016045D01*
X153985674Y-89016044D01*
X153981253Y-89011134D01*
X153850584Y-88916197D01*
X153832094Y-88902763D01*
X153832093Y-88902762D01*
X153826752Y-88898882D01*
X153820724Y-88896198D01*
X153820722Y-88896197D01*
X153658319Y-88823891D01*
X153658318Y-88823891D01*
X153652288Y-88821206D01*
X153552522Y-88800000D01*
X153471944Y-88782872D01*
X153471939Y-88782872D01*
X153465487Y-88781500D01*
X153274513Y-88781500D01*
X153268061Y-88782872D01*
X153268056Y-88782872D01*
X153187478Y-88800000D01*
X153087712Y-88821206D01*
X153081682Y-88823891D01*
X153081681Y-88823891D01*
X152919278Y-88896197D01*
X152919276Y-88896198D01*
X152913248Y-88898882D01*
X152907907Y-88902762D01*
X152907906Y-88902763D01*
X152889416Y-88916197D01*
X152758747Y-89011134D01*
X152754326Y-89016044D01*
X152754325Y-89016045D01*
X152637970Y-89145271D01*
X152630960Y-89153056D01*
X152627659Y-89158774D01*
X152553884Y-89286556D01*
X152535473Y-89318444D01*
X152476458Y-89500072D01*
X152475768Y-89506633D01*
X152475768Y-89506635D01*
X152459522Y-89661206D01*
X152456496Y-89690000D01*
X140123937Y-89690000D01*
X140185913Y-89644971D01*
X140256253Y-89593866D01*
X140316788Y-89526635D01*
X140379621Y-89456852D01*
X140379622Y-89456851D01*
X140384040Y-89451944D01*
X140459149Y-89321852D01*
X140476223Y-89292279D01*
X140476224Y-89292278D01*
X140479527Y-89286556D01*
X140538542Y-89104928D01*
X140542911Y-89063365D01*
X140557814Y-88921565D01*
X140558504Y-88915000D01*
X140547107Y-88806565D01*
X140539232Y-88731635D01*
X140539232Y-88731633D01*
X140538542Y-88725072D01*
X140479527Y-88543444D01*
X140384040Y-88378056D01*
X140357675Y-88348774D01*
X140260675Y-88241045D01*
X140260674Y-88241044D01*
X140256253Y-88236134D01*
X140139158Y-88151059D01*
X140107094Y-88127763D01*
X140107093Y-88127762D01*
X140101752Y-88123882D01*
X140095724Y-88121198D01*
X140095722Y-88121197D01*
X139933319Y-88048891D01*
X139933318Y-88048891D01*
X139927288Y-88046206D01*
X139833887Y-88026353D01*
X139746944Y-88007872D01*
X139746939Y-88007872D01*
X139740487Y-88006500D01*
X139549513Y-88006500D01*
X139543061Y-88007872D01*
X139543056Y-88007872D01*
X139456113Y-88026353D01*
X139362712Y-88046206D01*
X139356682Y-88048891D01*
X139356681Y-88048891D01*
X139194278Y-88121197D01*
X139194276Y-88121198D01*
X139188248Y-88123882D01*
X139182907Y-88127762D01*
X139182906Y-88127763D01*
X139150842Y-88151059D01*
X139033747Y-88236134D01*
X139029326Y-88241044D01*
X139029325Y-88241045D01*
X138932326Y-88348774D01*
X138905960Y-88378056D01*
X138810473Y-88543444D01*
X138751458Y-88725072D01*
X138750768Y-88731633D01*
X138750768Y-88731635D01*
X138742893Y-88806565D01*
X138731496Y-88915000D01*
X136709315Y-88915000D01*
X136721733Y-88796855D01*
X136722814Y-88786565D01*
X136723504Y-88780000D01*
X136714052Y-88690072D01*
X136704232Y-88596635D01*
X136704232Y-88596633D01*
X136703542Y-88590072D01*
X136644527Y-88408444D01*
X136626983Y-88378056D01*
X136606775Y-88343056D01*
X136549040Y-88243056D01*
X136542808Y-88236134D01*
X136425675Y-88106045D01*
X136425674Y-88106044D01*
X136421253Y-88101134D01*
X136294280Y-88008882D01*
X136272094Y-87992763D01*
X136272093Y-87992762D01*
X136266752Y-87988882D01*
X136260724Y-87986198D01*
X136260722Y-87986197D01*
X136098319Y-87913891D01*
X136098318Y-87913891D01*
X136092288Y-87911206D01*
X135998887Y-87891353D01*
X135911944Y-87872872D01*
X135911939Y-87872872D01*
X135905487Y-87871500D01*
X135714513Y-87871500D01*
X135708061Y-87872872D01*
X135708056Y-87872872D01*
X135621113Y-87891353D01*
X135527712Y-87911206D01*
X135521682Y-87913891D01*
X135521681Y-87913891D01*
X135359278Y-87986197D01*
X135359276Y-87986198D01*
X135353248Y-87988882D01*
X135347907Y-87992762D01*
X135347906Y-87992763D01*
X135325720Y-88008882D01*
X135198747Y-88101134D01*
X135194326Y-88106044D01*
X135194325Y-88106045D01*
X135077193Y-88236134D01*
X135070960Y-88243056D01*
X135013225Y-88343056D01*
X134993018Y-88378056D01*
X134975473Y-88408444D01*
X134916458Y-88590072D01*
X134915768Y-88596633D01*
X134915768Y-88596635D01*
X134905948Y-88690072D01*
X134896496Y-88780000D01*
X132871402Y-88780000D01*
X132861950Y-88690072D01*
X132854232Y-88616635D01*
X132854232Y-88616633D01*
X132853542Y-88610072D01*
X132794527Y-88428444D01*
X132699040Y-88263056D01*
X132686181Y-88248774D01*
X132575675Y-88126045D01*
X132575674Y-88126044D01*
X132571253Y-88121134D01*
X132468124Y-88046206D01*
X132422094Y-88012763D01*
X132422093Y-88012762D01*
X132416752Y-88008882D01*
X132410724Y-88006198D01*
X132410722Y-88006197D01*
X132248319Y-87933891D01*
X132248318Y-87933891D01*
X132242288Y-87931206D01*
X132141741Y-87909834D01*
X132061944Y-87892872D01*
X132061939Y-87892872D01*
X132055487Y-87891500D01*
X131864513Y-87891500D01*
X131858061Y-87892872D01*
X131858056Y-87892872D01*
X131778259Y-87909834D01*
X131677712Y-87931206D01*
X131671682Y-87933891D01*
X131671681Y-87933891D01*
X131509278Y-88006197D01*
X131509276Y-88006198D01*
X131503248Y-88008882D01*
X131497907Y-88012762D01*
X131497906Y-88012763D01*
X131442851Y-88052763D01*
X131348747Y-88121134D01*
X131348548Y-88121355D01*
X131286646Y-88151059D01*
X131215100Y-88141812D01*
X131167626Y-88120675D01*
X131167618Y-88120672D01*
X131161591Y-88117989D01*
X131042913Y-88092763D01*
X130981247Y-88079655D01*
X130981242Y-88079655D01*
X130974790Y-88078283D01*
X130783816Y-88078283D01*
X130777364Y-88079655D01*
X130777359Y-88079655D01*
X130715693Y-88092763D01*
X130597015Y-88117989D01*
X130590985Y-88120674D01*
X130590984Y-88120674D01*
X130428581Y-88192980D01*
X130428579Y-88192981D01*
X130422551Y-88195665D01*
X130417210Y-88199545D01*
X130417209Y-88199546D01*
X130408264Y-88206045D01*
X130268050Y-88307917D01*
X130263629Y-88312827D01*
X130263628Y-88312828D01*
X130204897Y-88378056D01*
X130140263Y-88449839D01*
X130044776Y-88615227D01*
X129985761Y-88796855D01*
X129985071Y-88803416D01*
X129985071Y-88803418D01*
X129966911Y-88976206D01*
X129965799Y-88986783D01*
X128790209Y-88986783D01*
X128696752Y-88918882D01*
X128690724Y-88916198D01*
X128690722Y-88916197D01*
X128528319Y-88843891D01*
X128528318Y-88843891D01*
X128522288Y-88841206D01*
X128421741Y-88819834D01*
X128341944Y-88802872D01*
X128341939Y-88802872D01*
X128335487Y-88801500D01*
X128144513Y-88801500D01*
X128138061Y-88802872D01*
X128138056Y-88802872D01*
X127988673Y-88834625D01*
X127917882Y-88829223D01*
X127861250Y-88786406D01*
X127837166Y-88724550D01*
X127834232Y-88696634D01*
X127834231Y-88696631D01*
X127833542Y-88690072D01*
X127774527Y-88508444D01*
X127679040Y-88343056D01*
X127648173Y-88308774D01*
X127555675Y-88206045D01*
X127555674Y-88206044D01*
X127551253Y-88201134D01*
X127435804Y-88117255D01*
X127402094Y-88092763D01*
X127402093Y-88092762D01*
X127396752Y-88088882D01*
X127390724Y-88086198D01*
X127390722Y-88086197D01*
X127228319Y-88013891D01*
X127228318Y-88013891D01*
X127222288Y-88011206D01*
X127128888Y-87991353D01*
X127041944Y-87972872D01*
X127041939Y-87972872D01*
X127035487Y-87971500D01*
X126844513Y-87971500D01*
X126838061Y-87972872D01*
X126838056Y-87972872D01*
X126751112Y-87991353D01*
X126657712Y-88011206D01*
X126651682Y-88013891D01*
X126651681Y-88013891D01*
X126489278Y-88086197D01*
X126489276Y-88086198D01*
X126483248Y-88088882D01*
X126477907Y-88092762D01*
X126477906Y-88092763D01*
X126444196Y-88117255D01*
X126328747Y-88201134D01*
X126324326Y-88206044D01*
X126324325Y-88206045D01*
X126231828Y-88308774D01*
X126200960Y-88343056D01*
X126105473Y-88508444D01*
X126046458Y-88690072D01*
X126045768Y-88696633D01*
X126045768Y-88696635D01*
X126034602Y-88802872D01*
X126026496Y-88880000D01*
X125329300Y-88880000D01*
X125332814Y-88846565D01*
X125333504Y-88840000D01*
X125331529Y-88821206D01*
X125314232Y-88656635D01*
X125314232Y-88656633D01*
X125313542Y-88650072D01*
X125254527Y-88468444D01*
X125243786Y-88449839D01*
X125162341Y-88308774D01*
X125159040Y-88303056D01*
X125128173Y-88268774D01*
X125035675Y-88166045D01*
X125035674Y-88166044D01*
X125031253Y-88161134D01*
X124931807Y-88088882D01*
X124882094Y-88052763D01*
X124882093Y-88052762D01*
X124876752Y-88048882D01*
X124870724Y-88046198D01*
X124870722Y-88046197D01*
X124708319Y-87973891D01*
X124708318Y-87973891D01*
X124702288Y-87971206D01*
X124608888Y-87951353D01*
X124521944Y-87932872D01*
X124521939Y-87932872D01*
X124515487Y-87931500D01*
X124324513Y-87931500D01*
X124318061Y-87932872D01*
X124318056Y-87932872D01*
X124231112Y-87951353D01*
X124137712Y-87971206D01*
X124131682Y-87973891D01*
X124131681Y-87973891D01*
X123969278Y-88046197D01*
X123969276Y-88046198D01*
X123963248Y-88048882D01*
X123957907Y-88052762D01*
X123957906Y-88052763D01*
X123908193Y-88088882D01*
X123808747Y-88161134D01*
X123804326Y-88166044D01*
X123804325Y-88166045D01*
X123711828Y-88268774D01*
X123680960Y-88303056D01*
X123677659Y-88308774D01*
X123596215Y-88449839D01*
X123585473Y-88468444D01*
X123526458Y-88650072D01*
X123525768Y-88656633D01*
X123525768Y-88656635D01*
X123508471Y-88821206D01*
X123506496Y-88840000D01*
X122148500Y-88840000D01*
X122148500Y-86192998D01*
X129626496Y-86192998D01*
X129646458Y-86382926D01*
X129705473Y-86564554D01*
X129800960Y-86729942D01*
X129928747Y-86871864D01*
X130083248Y-86984116D01*
X130089276Y-86986800D01*
X130089278Y-86986801D01*
X130251681Y-87059107D01*
X130257712Y-87061792D01*
X130351112Y-87081645D01*
X130438056Y-87100126D01*
X130438061Y-87100126D01*
X130444513Y-87101498D01*
X130635487Y-87101498D01*
X130641939Y-87100126D01*
X130641944Y-87100126D01*
X130728888Y-87081645D01*
X130822288Y-87061792D01*
X130828319Y-87059107D01*
X130990722Y-86986801D01*
X130990724Y-86986800D01*
X130996752Y-86984116D01*
X131151253Y-86871864D01*
X131279040Y-86729942D01*
X131374527Y-86564554D01*
X131433542Y-86382926D01*
X131453504Y-86192998D01*
X131433542Y-86003070D01*
X131374527Y-85821442D01*
X131279040Y-85656054D01*
X131151253Y-85514132D01*
X130996752Y-85401880D01*
X130990724Y-85399196D01*
X130990722Y-85399195D01*
X130828319Y-85326889D01*
X130828318Y-85326889D01*
X130822288Y-85324204D01*
X130728887Y-85304351D01*
X130641944Y-85285870D01*
X130641939Y-85285870D01*
X130635487Y-85284498D01*
X130444513Y-85284498D01*
X130438061Y-85285870D01*
X130438056Y-85285870D01*
X130351113Y-85304351D01*
X130257712Y-85324204D01*
X130251682Y-85326889D01*
X130251681Y-85326889D01*
X130089278Y-85399195D01*
X130089276Y-85399196D01*
X130083248Y-85401880D01*
X129928747Y-85514132D01*
X129800960Y-85656054D01*
X129705473Y-85821442D01*
X129646458Y-86003070D01*
X129626496Y-86192998D01*
X122148500Y-86192998D01*
X122148500Y-84910000D01*
X124126496Y-84910000D01*
X124146458Y-85099928D01*
X124205473Y-85281556D01*
X124300960Y-85446944D01*
X124428747Y-85588866D01*
X124583248Y-85701118D01*
X124589276Y-85703802D01*
X124589278Y-85703803D01*
X124751681Y-85776109D01*
X124757712Y-85778794D01*
X124851112Y-85798647D01*
X124938056Y-85817128D01*
X124938061Y-85817128D01*
X124944513Y-85818500D01*
X125135487Y-85818500D01*
X125141939Y-85817128D01*
X125141944Y-85817128D01*
X125228888Y-85798647D01*
X125322288Y-85778794D01*
X125328319Y-85776109D01*
X125490722Y-85703803D01*
X125490724Y-85703802D01*
X125496752Y-85701118D01*
X125651253Y-85588866D01*
X125779040Y-85446944D01*
X125874527Y-85281556D01*
X125933542Y-85099928D01*
X125953504Y-84910000D01*
X125933542Y-84720072D01*
X125874527Y-84538444D01*
X125779040Y-84373056D01*
X125651253Y-84231134D01*
X125496752Y-84118882D01*
X125490724Y-84116198D01*
X125490722Y-84116197D01*
X125328319Y-84043891D01*
X125328318Y-84043891D01*
X125322288Y-84041206D01*
X125228887Y-84021353D01*
X125141944Y-84002872D01*
X125141939Y-84002872D01*
X125135487Y-84001500D01*
X124944513Y-84001500D01*
X124938061Y-84002872D01*
X124938056Y-84002872D01*
X124851113Y-84021353D01*
X124757712Y-84041206D01*
X124751682Y-84043891D01*
X124751681Y-84043891D01*
X124589278Y-84116197D01*
X124589276Y-84116198D01*
X124583248Y-84118882D01*
X124428747Y-84231134D01*
X124300960Y-84373056D01*
X124205473Y-84538444D01*
X124146458Y-84720072D01*
X124126496Y-84910000D01*
X122148500Y-84910000D01*
X122148500Y-83140000D01*
X132716496Y-83140000D01*
X132717186Y-83146565D01*
X132735054Y-83316565D01*
X132736458Y-83329928D01*
X132795473Y-83511556D01*
X132890960Y-83676944D01*
X132895378Y-83681851D01*
X132895379Y-83681852D01*
X132935980Y-83726944D01*
X133018747Y-83818866D01*
X133173248Y-83931118D01*
X133179276Y-83933802D01*
X133179278Y-83933803D01*
X133311674Y-83992749D01*
X133347712Y-84008794D01*
X133441113Y-84028647D01*
X133528056Y-84047128D01*
X133528061Y-84047128D01*
X133534513Y-84048500D01*
X133725487Y-84048500D01*
X133731939Y-84047128D01*
X133731944Y-84047128D01*
X133818887Y-84028647D01*
X133912288Y-84008794D01*
X133948326Y-83992749D01*
X134080722Y-83933803D01*
X134080724Y-83933802D01*
X134086752Y-83931118D01*
X134241253Y-83818866D01*
X134324020Y-83726944D01*
X134364621Y-83681852D01*
X134364622Y-83681851D01*
X134369040Y-83676944D01*
X134464527Y-83511556D01*
X134523542Y-83329928D01*
X134524947Y-83316565D01*
X134538249Y-83190000D01*
X141726496Y-83190000D01*
X141727186Y-83196565D01*
X141738710Y-83306206D01*
X141746458Y-83379928D01*
X141805473Y-83561556D01*
X141900960Y-83726944D01*
X141905378Y-83731851D01*
X141905379Y-83731852D01*
X142024325Y-83863955D01*
X142028747Y-83868866D01*
X142114429Y-83931118D01*
X142176354Y-83976109D01*
X142183248Y-83981118D01*
X142189276Y-83983802D01*
X142189278Y-83983803D01*
X142334591Y-84048500D01*
X142357712Y-84058794D01*
X142451112Y-84078647D01*
X142538056Y-84097128D01*
X142538061Y-84097128D01*
X142544513Y-84098500D01*
X142735487Y-84098500D01*
X142741939Y-84097128D01*
X142741944Y-84097128D01*
X142828888Y-84078647D01*
X142922288Y-84058794D01*
X142945409Y-84048500D01*
X143090722Y-83983803D01*
X143090724Y-83983802D01*
X143096752Y-83981118D01*
X143103647Y-83976109D01*
X143165571Y-83931118D01*
X143251253Y-83868866D01*
X143255675Y-83863955D01*
X143374621Y-83731852D01*
X143374622Y-83731851D01*
X143379040Y-83726944D01*
X143474527Y-83561556D01*
X143533542Y-83379928D01*
X143540892Y-83310000D01*
X151026496Y-83310000D01*
X151027186Y-83316565D01*
X151045129Y-83487279D01*
X151046458Y-83499928D01*
X151105473Y-83681556D01*
X151108776Y-83687278D01*
X151108777Y-83687279D01*
X151131678Y-83726944D01*
X151200960Y-83846944D01*
X151205378Y-83851851D01*
X151205379Y-83851852D01*
X151318276Y-83977237D01*
X151328747Y-83988866D01*
X151483248Y-84101118D01*
X151489276Y-84103802D01*
X151489278Y-84103803D01*
X151651681Y-84176109D01*
X151657712Y-84178794D01*
X151751112Y-84198647D01*
X151838056Y-84217128D01*
X151838061Y-84217128D01*
X151844513Y-84218500D01*
X152035487Y-84218500D01*
X152041939Y-84217128D01*
X152041944Y-84217128D01*
X152128888Y-84198647D01*
X152222288Y-84178794D01*
X152228319Y-84176109D01*
X152390722Y-84103803D01*
X152390724Y-84103802D01*
X152396752Y-84101118D01*
X152551253Y-83988866D01*
X152561724Y-83977237D01*
X152674621Y-83851852D01*
X152674622Y-83851851D01*
X152679040Y-83846944D01*
X152748322Y-83726944D01*
X152771223Y-83687279D01*
X152771224Y-83687278D01*
X152774527Y-83681556D01*
X152833542Y-83499928D01*
X152834872Y-83487279D01*
X152852814Y-83316565D01*
X152853504Y-83310000D01*
X152840202Y-83183435D01*
X152834232Y-83126635D01*
X152834232Y-83126633D01*
X152833542Y-83120072D01*
X152830269Y-83110000D01*
X159926496Y-83110000D01*
X159946458Y-83299928D01*
X160005473Y-83481556D01*
X160008776Y-83487278D01*
X160008777Y-83487279D01*
X160026098Y-83517279D01*
X160100960Y-83646944D01*
X160105378Y-83651851D01*
X160105379Y-83651852D01*
X160126466Y-83675271D01*
X160228747Y-83788866D01*
X160327843Y-83860864D01*
X160344202Y-83872749D01*
X160383248Y-83901118D01*
X160389276Y-83903802D01*
X160389278Y-83903803D01*
X160450629Y-83931118D01*
X160557712Y-83978794D01*
X160623365Y-83992749D01*
X160738056Y-84017128D01*
X160738061Y-84017128D01*
X160744513Y-84018500D01*
X160935487Y-84018500D01*
X160941939Y-84017128D01*
X160941944Y-84017128D01*
X161056635Y-83992749D01*
X161122288Y-83978794D01*
X161229371Y-83931118D01*
X161290722Y-83903803D01*
X161290724Y-83903802D01*
X161296752Y-83901118D01*
X161335799Y-83872749D01*
X161352157Y-83860864D01*
X161451253Y-83788866D01*
X161553534Y-83675271D01*
X161574621Y-83651852D01*
X161574622Y-83651851D01*
X161579040Y-83646944D01*
X161653902Y-83517279D01*
X161671223Y-83487279D01*
X161671224Y-83487278D01*
X161674527Y-83481556D01*
X161733542Y-83299928D01*
X161753504Y-83110000D01*
X169226496Y-83110000D01*
X169246458Y-83299928D01*
X169305473Y-83481556D01*
X169308776Y-83487278D01*
X169308777Y-83487279D01*
X169326098Y-83517279D01*
X169400960Y-83646944D01*
X169405378Y-83651851D01*
X169405379Y-83651852D01*
X169426466Y-83675271D01*
X169528747Y-83788866D01*
X169627843Y-83860864D01*
X169644202Y-83872749D01*
X169683248Y-83901118D01*
X169689276Y-83903802D01*
X169689278Y-83903803D01*
X169750629Y-83931118D01*
X169857712Y-83978794D01*
X169923365Y-83992749D01*
X170038056Y-84017128D01*
X170038061Y-84017128D01*
X170044513Y-84018500D01*
X170235487Y-84018500D01*
X170241939Y-84017128D01*
X170241944Y-84017128D01*
X170356635Y-83992749D01*
X170422288Y-83978794D01*
X170529371Y-83931118D01*
X170590722Y-83903803D01*
X170590724Y-83903802D01*
X170596752Y-83901118D01*
X170635799Y-83872749D01*
X170652157Y-83860864D01*
X170751253Y-83788866D01*
X170853534Y-83675271D01*
X170874621Y-83651852D01*
X170874622Y-83651851D01*
X170879040Y-83646944D01*
X170953902Y-83517279D01*
X170971223Y-83487279D01*
X170971224Y-83487278D01*
X170974527Y-83481556D01*
X171033542Y-83299928D01*
X171053504Y-83110000D01*
X171041950Y-83000072D01*
X171034232Y-82926635D01*
X171034232Y-82926633D01*
X171033542Y-82920072D01*
X170974527Y-82738444D01*
X170879040Y-82573056D01*
X170762740Y-82443891D01*
X170755675Y-82436045D01*
X170755674Y-82436044D01*
X170751253Y-82431134D01*
X170634348Y-82346197D01*
X170602094Y-82322763D01*
X170602093Y-82322762D01*
X170596752Y-82318882D01*
X170590724Y-82316198D01*
X170590722Y-82316197D01*
X170428319Y-82243891D01*
X170428318Y-82243891D01*
X170422288Y-82241206D01*
X170328887Y-82221353D01*
X170241944Y-82202872D01*
X170241939Y-82202872D01*
X170235487Y-82201500D01*
X170044513Y-82201500D01*
X170038061Y-82202872D01*
X170038056Y-82202872D01*
X169951113Y-82221353D01*
X169857712Y-82241206D01*
X169851682Y-82243891D01*
X169851681Y-82243891D01*
X169689278Y-82316197D01*
X169689276Y-82316198D01*
X169683248Y-82318882D01*
X169677907Y-82322762D01*
X169677906Y-82322763D01*
X169645652Y-82346197D01*
X169528747Y-82431134D01*
X169524326Y-82436044D01*
X169524325Y-82436045D01*
X169517261Y-82443891D01*
X169400960Y-82573056D01*
X169305473Y-82738444D01*
X169246458Y-82920072D01*
X169245768Y-82926633D01*
X169245768Y-82926635D01*
X169238050Y-83000072D01*
X169226496Y-83110000D01*
X161753504Y-83110000D01*
X161741950Y-83000072D01*
X161734232Y-82926635D01*
X161734232Y-82926633D01*
X161733542Y-82920072D01*
X161674527Y-82738444D01*
X161579040Y-82573056D01*
X161462740Y-82443891D01*
X161455675Y-82436045D01*
X161455674Y-82436044D01*
X161451253Y-82431134D01*
X161334348Y-82346197D01*
X161302094Y-82322763D01*
X161302093Y-82322762D01*
X161296752Y-82318882D01*
X161290724Y-82316198D01*
X161290722Y-82316197D01*
X161128319Y-82243891D01*
X161128318Y-82243891D01*
X161122288Y-82241206D01*
X161028887Y-82221353D01*
X160941944Y-82202872D01*
X160941939Y-82202872D01*
X160935487Y-82201500D01*
X160744513Y-82201500D01*
X160738061Y-82202872D01*
X160738056Y-82202872D01*
X160651113Y-82221353D01*
X160557712Y-82241206D01*
X160551682Y-82243891D01*
X160551681Y-82243891D01*
X160389278Y-82316197D01*
X160389276Y-82316198D01*
X160383248Y-82318882D01*
X160377907Y-82322762D01*
X160377906Y-82322763D01*
X160345652Y-82346197D01*
X160228747Y-82431134D01*
X160224326Y-82436044D01*
X160224325Y-82436045D01*
X160217261Y-82443891D01*
X160100960Y-82573056D01*
X160005473Y-82738444D01*
X159946458Y-82920072D01*
X159945768Y-82926633D01*
X159945768Y-82926635D01*
X159938050Y-83000072D01*
X159926496Y-83110000D01*
X152830269Y-83110000D01*
X152774527Y-82938444D01*
X152679040Y-82773056D01*
X152669735Y-82762721D01*
X152555675Y-82636045D01*
X152555674Y-82636044D01*
X152551253Y-82631134D01*
X152396752Y-82518882D01*
X152390724Y-82516198D01*
X152390722Y-82516197D01*
X152228319Y-82443891D01*
X152228318Y-82443891D01*
X152222288Y-82441206D01*
X152128887Y-82421353D01*
X152041944Y-82402872D01*
X152041939Y-82402872D01*
X152035487Y-82401500D01*
X151844513Y-82401500D01*
X151838061Y-82402872D01*
X151838056Y-82402872D01*
X151751113Y-82421353D01*
X151657712Y-82441206D01*
X151651682Y-82443891D01*
X151651681Y-82443891D01*
X151489278Y-82516197D01*
X151489276Y-82516198D01*
X151483248Y-82518882D01*
X151328747Y-82631134D01*
X151324326Y-82636044D01*
X151324325Y-82636045D01*
X151210266Y-82762721D01*
X151200960Y-82773056D01*
X151105473Y-82938444D01*
X151046458Y-83120072D01*
X151045768Y-83126633D01*
X151045768Y-83126635D01*
X151039798Y-83183435D01*
X151026496Y-83310000D01*
X143540892Y-83310000D01*
X143541291Y-83306206D01*
X143552814Y-83196565D01*
X143553504Y-83190000D01*
X143533542Y-83000072D01*
X143474527Y-82818444D01*
X143451624Y-82778774D01*
X143382341Y-82658774D01*
X143379040Y-82653056D01*
X143359302Y-82631134D01*
X143255675Y-82516045D01*
X143255674Y-82516044D01*
X143251253Y-82511134D01*
X143141143Y-82431134D01*
X143102094Y-82402763D01*
X143102093Y-82402762D01*
X143096752Y-82398882D01*
X143090724Y-82396198D01*
X143090722Y-82396197D01*
X142928319Y-82323891D01*
X142928318Y-82323891D01*
X142922288Y-82321206D01*
X142828887Y-82301353D01*
X142741944Y-82282872D01*
X142741939Y-82282872D01*
X142735487Y-82281500D01*
X142544513Y-82281500D01*
X142538061Y-82282872D01*
X142538056Y-82282872D01*
X142451113Y-82301353D01*
X142357712Y-82321206D01*
X142351682Y-82323891D01*
X142351681Y-82323891D01*
X142189278Y-82396197D01*
X142189276Y-82396198D01*
X142183248Y-82398882D01*
X142177907Y-82402762D01*
X142177906Y-82402763D01*
X142138857Y-82431134D01*
X142028747Y-82511134D01*
X142024326Y-82516044D01*
X142024325Y-82516045D01*
X141920699Y-82631134D01*
X141900960Y-82653056D01*
X141897659Y-82658774D01*
X141828377Y-82778774D01*
X141805473Y-82818444D01*
X141746458Y-83000072D01*
X141726496Y-83190000D01*
X134538249Y-83190000D01*
X134542814Y-83146565D01*
X134543504Y-83140000D01*
X134523542Y-82950072D01*
X134464527Y-82768444D01*
X134447207Y-82738444D01*
X134401209Y-82658774D01*
X134369040Y-82603056D01*
X134347177Y-82578774D01*
X134245675Y-82466045D01*
X134245674Y-82466044D01*
X134241253Y-82461134D01*
X134086752Y-82348882D01*
X134080724Y-82346198D01*
X134080722Y-82346197D01*
X133918319Y-82273891D01*
X133918318Y-82273891D01*
X133912288Y-82271206D01*
X133818888Y-82251353D01*
X133731944Y-82232872D01*
X133731939Y-82232872D01*
X133725487Y-82231500D01*
X133534513Y-82231500D01*
X133528061Y-82232872D01*
X133528056Y-82232872D01*
X133441112Y-82251353D01*
X133347712Y-82271206D01*
X133341682Y-82273891D01*
X133341681Y-82273891D01*
X133179278Y-82346197D01*
X133179276Y-82346198D01*
X133173248Y-82348882D01*
X133018747Y-82461134D01*
X133014326Y-82466044D01*
X133014325Y-82466045D01*
X132912824Y-82578774D01*
X132890960Y-82603056D01*
X132858791Y-82658774D01*
X132812794Y-82738444D01*
X132795473Y-82768444D01*
X132736458Y-82950072D01*
X132716496Y-83140000D01*
X122148500Y-83140000D01*
X122148500Y-81763250D01*
X122150246Y-81742345D01*
X122152770Y-81727344D01*
X122152770Y-81727341D01*
X122153576Y-81722552D01*
X122153729Y-81710000D01*
X122153040Y-81705186D01*
X122153039Y-81705177D01*
X122151869Y-81697006D01*
X122150827Y-81671540D01*
X122166206Y-81417290D01*
X122168040Y-81402186D01*
X122201701Y-81218500D01*
X122219525Y-81121240D01*
X122223164Y-81106473D01*
X122261342Y-80983955D01*
X122308142Y-80833769D01*
X122313534Y-80819555D01*
X122430758Y-80559092D01*
X122437828Y-80545621D01*
X122585595Y-80301187D01*
X122594238Y-80288666D01*
X122770385Y-80063829D01*
X122780475Y-80052440D01*
X122982440Y-79850475D01*
X122993829Y-79840385D01*
X123218666Y-79664238D01*
X123231187Y-79655595D01*
X123475621Y-79507828D01*
X123489094Y-79500757D01*
X123531777Y-79481547D01*
X123749555Y-79383534D01*
X123763769Y-79378142D01*
X124036474Y-79293164D01*
X124051240Y-79289525D01*
X124260214Y-79251229D01*
X124332186Y-79238040D01*
X124347290Y-79236206D01*
X124597904Y-79221047D01*
X124624716Y-79222308D01*
X124624852Y-79222310D01*
X124633724Y-79223691D01*
X124642626Y-79222527D01*
X124642628Y-79222527D01*
X124657677Y-79220559D01*
X124665286Y-79219564D01*
X124681621Y-79218500D01*
X127065133Y-79218500D01*
X127133254Y-79238502D01*
G37*
%TD.AperFunction*%
%TD*%
M02*
