%TF.GenerationSoftware,KiCad,Pcbnew,6.0.10-2.fc37*%
%TF.CreationDate,2023-04-26T13:00:43+02:00*%
%TF.ProjectId,motherboard,6d6f7468-6572-4626-9f61-72642e6b6963,rev?*%
%TF.SameCoordinates,Original*%
%TF.FileFunction,Legend,Top*%
%TF.FilePolarity,Positive*%
%FSLAX46Y46*%
G04 Gerber Fmt 4.6, Leading zero omitted, Abs format (unit mm)*
G04 Created by KiCad (PCBNEW 6.0.10-2.fc37) date 2023-04-26 13:00:43*
%MOMM*%
%LPD*%
G01*
G04 APERTURE LIST*
%ADD10C,0.150000*%
%ADD11C,0.100000*%
%ADD12C,0.120000*%
%ADD13C,0.127000*%
%ADD14C,0.300000*%
%ADD15C,0.200000*%
G04 APERTURE END LIST*
D10*
X149450000Y-104080000D02*
X149100000Y-104330000D01*
X146650000Y-101580000D02*
X146650000Y-104080000D01*
X149100000Y-103780000D02*
X149450000Y-104080000D01*
X146650000Y-104080000D02*
X149150000Y-104080000D01*
X146350000Y-101580000D02*
X146650000Y-101230000D01*
X146650000Y-101230000D02*
X146900000Y-101580000D01*
X162080952Y-113871428D02*
X161319047Y-113871428D01*
X161700000Y-114252380D02*
X161700000Y-113490476D01*
X147011904Y-101115714D02*
X147250000Y-101782380D01*
X147488095Y-101115714D02*
X147250000Y-101782380D01*
X147154761Y-102020476D01*
X147107142Y-102068095D01*
X147011904Y-102115714D01*
X149248095Y-105202380D02*
X149771904Y-104535714D01*
X149248095Y-104535714D02*
X149771904Y-105202380D01*
%TO.C,J3*%
X168915876Y-86642637D02*
X168344123Y-86642637D01*
X168630000Y-86642637D02*
X168630000Y-85642070D01*
X168534707Y-85785008D01*
X168439415Y-85880300D01*
X168344123Y-85927946D01*
%TO.C,J4*%
X159054123Y-85827362D02*
X159101769Y-85779716D01*
X159197061Y-85732070D01*
X159435292Y-85732070D01*
X159530584Y-85779716D01*
X159578230Y-85827362D01*
X159625876Y-85922654D01*
X159625876Y-86017946D01*
X159578230Y-86160884D01*
X159006477Y-86732637D01*
X159625876Y-86732637D01*
%TO.C,J6*%
X141340584Y-86155592D02*
X141340584Y-86822637D01*
X141102353Y-85774424D02*
X140864123Y-86489115D01*
X141483522Y-86489115D01*
%TO.C,J7*%
X129658230Y-84672070D02*
X129181769Y-84672070D01*
X129134123Y-85148530D01*
X129181769Y-85100884D01*
X129277061Y-85053238D01*
X129515292Y-85053238D01*
X129610584Y-85100884D01*
X129658230Y-85148530D01*
X129705876Y-85243823D01*
X129705876Y-85482053D01*
X129658230Y-85577345D01*
X129610584Y-85624991D01*
X129515292Y-85672637D01*
X129277061Y-85672637D01*
X129181769Y-85624991D01*
X129134123Y-85577345D01*
%TO.C,J5*%
X150096477Y-85762070D02*
X150715876Y-85762070D01*
X150382353Y-86143238D01*
X150525292Y-86143238D01*
X150620584Y-86190884D01*
X150668230Y-86238530D01*
X150715876Y-86333823D01*
X150715876Y-86572053D01*
X150668230Y-86667345D01*
X150620584Y-86714991D01*
X150525292Y-86762637D01*
X150239415Y-86762637D01*
X150144123Y-86714991D01*
X150096477Y-86667345D01*
D11*
%TO.C,J1*%
X143470000Y-110000000D02*
X143470000Y-117450000D01*
X153120000Y-110000000D02*
X153120000Y-117450000D01*
D12*
%TO.C,R9*%
X159047258Y-115832500D02*
X158572742Y-115832500D01*
X159047258Y-114787500D02*
X158572742Y-114787500D01*
%TO.C,R2*%
X151192500Y-106537258D02*
X151192500Y-106062742D01*
X150147500Y-106537258D02*
X150147500Y-106062742D01*
%TO.C,R10*%
X126877258Y-80837500D02*
X126402742Y-80837500D01*
X126877258Y-81882500D02*
X126402742Y-81882500D01*
%TO.C,R13*%
X147372500Y-105857258D02*
X147372500Y-105382742D01*
X146327500Y-105857258D02*
X146327500Y-105382742D01*
D13*
%TO.C,J3*%
X170840000Y-84135000D02*
X171640000Y-84135000D01*
X171640000Y-84135000D02*
X171640000Y-81860000D01*
X165640000Y-84135000D02*
X165640000Y-81860000D01*
X166440000Y-84135000D02*
X165640000Y-84135000D01*
X170440000Y-79885000D02*
X166840000Y-79885000D01*
D14*
X171190000Y-84845000D02*
G75*
G03*
X171190000Y-84845000I-100000J0D01*
G01*
D12*
%TO.C,R12*%
X126377742Y-84337500D02*
X126852258Y-84337500D01*
X126377742Y-85382500D02*
X126852258Y-85382500D01*
%TO.C,Q1*%
X155800000Y-112470000D02*
X155800000Y-111820000D01*
X155800000Y-112470000D02*
X155800000Y-113120000D01*
X158920000Y-112470000D02*
X158920000Y-110795000D01*
X158920000Y-112470000D02*
X158920000Y-113120000D01*
%TO.C,R5*%
X154992500Y-107247258D02*
X154992500Y-106772742D01*
X153947500Y-107247258D02*
X153947500Y-106772742D01*
%TO.C,U2*%
X158470000Y-105160000D02*
X159270000Y-105160000D01*
X158470000Y-108280000D02*
X159270000Y-108280000D01*
X158470000Y-108280000D02*
X157670000Y-108280000D01*
X158470000Y-105160000D02*
X156670000Y-105160000D01*
%TO.C,R11*%
X123747258Y-84327500D02*
X123272742Y-84327500D01*
X123747258Y-85372500D02*
X123272742Y-85372500D01*
%TO.C,C4*%
X161290000Y-106394420D02*
X161290000Y-106675580D01*
X162310000Y-106394420D02*
X162310000Y-106675580D01*
%TO.C,C5*%
X122745000Y-112239420D02*
X122745000Y-112520580D01*
X123765000Y-112239420D02*
X123765000Y-112520580D01*
%TO.C,C14*%
X152364420Y-95480000D02*
X152645580Y-95480000D01*
X152364420Y-96500000D02*
X152645580Y-96500000D01*
D13*
%TO.C,J4*%
X161140000Y-79885000D02*
X157540000Y-79885000D01*
X157140000Y-84135000D02*
X156340000Y-84135000D01*
X162340000Y-84135000D02*
X162340000Y-81860000D01*
X156340000Y-84135000D02*
X156340000Y-81860000D01*
X161540000Y-84135000D02*
X162340000Y-84135000D01*
D14*
X161890000Y-84845000D02*
G75*
G03*
X161890000Y-84845000I-100000J0D01*
G01*
D12*
%TO.C,C9*%
X152404420Y-92960000D02*
X152685580Y-92960000D01*
X152404420Y-91940000D02*
X152685580Y-91940000D01*
%TO.C,R4*%
X145852500Y-101327742D02*
X145852500Y-101802258D01*
X144807500Y-101327742D02*
X144807500Y-101802258D01*
%TO.C,C7*%
X124380000Y-107569420D02*
X124380000Y-107850580D01*
X125400000Y-107569420D02*
X125400000Y-107850580D01*
%TO.C,Q3*%
X142820000Y-105210000D02*
X142820000Y-105860000D01*
X145940000Y-105210000D02*
X145940000Y-105860000D01*
X145940000Y-105210000D02*
X145940000Y-103535000D01*
X142820000Y-105210000D02*
X142820000Y-104560000D01*
%TO.C,R1*%
X128662500Y-107947258D02*
X128662500Y-107472742D01*
X127617500Y-107947258D02*
X127617500Y-107472742D01*
%TO.C,D3*%
X124410000Y-80615000D02*
X122125000Y-80615000D01*
X122125000Y-82085000D02*
X124410000Y-82085000D01*
X122125000Y-80615000D02*
X122125000Y-82085000D01*
D10*
%TO.C,U5*%
X152755000Y-97340000D02*
X152755000Y-97865000D01*
X148455000Y-97340000D02*
X148980000Y-97340000D01*
X152755000Y-101640000D02*
X152755000Y-101115000D01*
X152755000Y-97340000D02*
X152230000Y-97340000D01*
X152755000Y-101640000D02*
X152230000Y-101640000D01*
X148455000Y-101640000D02*
X148980000Y-101640000D01*
X148455000Y-101640000D02*
X148455000Y-101115000D01*
D11*
%TO.C,S1*%
X140240000Y-110585000D02*
X140240000Y-110585000D01*
X138040000Y-110585000D02*
X138040000Y-110585000D01*
X140240000Y-113085000D02*
X140240000Y-113085000D01*
X138040000Y-110585000D02*
X138040000Y-113085000D01*
D15*
X139240000Y-114435000D02*
X139240000Y-114435000D01*
D11*
X138040000Y-113085000D02*
X138040000Y-110585000D01*
D15*
X139240000Y-114435000D02*
X139240000Y-114435000D01*
D11*
X140240000Y-110585000D02*
X140240000Y-113085000D01*
X138040000Y-113085000D02*
X138040000Y-113085000D01*
D15*
X139340000Y-114435000D02*
X139340000Y-114435000D01*
D11*
X140240000Y-113085000D02*
X140240000Y-110585000D01*
D15*
X139240000Y-114435000D02*
G75*
G03*
X139340000Y-114435000I50000J0D01*
G01*
X139240000Y-114435000D02*
G75*
G03*
X139340000Y-114435000I50000J0D01*
G01*
X139340000Y-114435000D02*
G75*
G03*
X139240000Y-114435000I-50000J0D01*
G01*
D12*
%TO.C,D2*%
X122162500Y-82365000D02*
X122162500Y-83835000D01*
X122162500Y-83835000D02*
X124447500Y-83835000D01*
X124447500Y-82365000D02*
X122162500Y-82365000D01*
%TO.C,R6*%
X126877258Y-83632500D02*
X126402742Y-83632500D01*
X126877258Y-82587500D02*
X126402742Y-82587500D01*
D13*
%TO.C,U3*%
X134390000Y-114985000D02*
X134390000Y-111435000D01*
X134390000Y-114985000D02*
X134390000Y-111435000D01*
X124390000Y-114985000D02*
X124390000Y-111435000D01*
X124390000Y-114985000D02*
X124390000Y-111435000D01*
D15*
X123735000Y-115960000D02*
G75*
G03*
X123735000Y-115960000I-100000J0D01*
G01*
%TO.C,G\u002A\u002A\u002A*%
G36*
X156045987Y-86127423D02*
G01*
X156046280Y-86211729D01*
X156046359Y-86284104D01*
X156046217Y-86345113D01*
X156045846Y-86395323D01*
X156045237Y-86435301D01*
X156044381Y-86465613D01*
X156043272Y-86486827D01*
X156041900Y-86499508D01*
X156040535Y-86503986D01*
X156029049Y-86509550D01*
X156007280Y-86512283D01*
X155997272Y-86512500D01*
X155961075Y-86512500D01*
X155958975Y-86410937D01*
X155958098Y-86372852D01*
X155957026Y-86344719D01*
X155955372Y-86323989D01*
X155952751Y-86308117D01*
X155948776Y-86294554D01*
X155943062Y-86280754D01*
X155937418Y-86268750D01*
X155908481Y-86221460D01*
X155871232Y-86183385D01*
X155825285Y-86154183D01*
X155791250Y-86140033D01*
X155786175Y-86138391D01*
X155780490Y-86136906D01*
X155773568Y-86135572D01*
X155764783Y-86134381D01*
X155753510Y-86133323D01*
X155739123Y-86132392D01*
X155720997Y-86131579D01*
X155698506Y-86130876D01*
X155671025Y-86130275D01*
X155637927Y-86129768D01*
X155598587Y-86129348D01*
X155552380Y-86129006D01*
X155498680Y-86128734D01*
X155436862Y-86128524D01*
X155366299Y-86128369D01*
X155286366Y-86128260D01*
X155196437Y-86128188D01*
X155095888Y-86128148D01*
X154984091Y-86128129D01*
X154860423Y-86128125D01*
X154860000Y-86128125D01*
X154736291Y-86128129D01*
X154624457Y-86128148D01*
X154523872Y-86128188D01*
X154433910Y-86128259D01*
X154353946Y-86128368D01*
X154283353Y-86128524D01*
X154221507Y-86128733D01*
X154167781Y-86129005D01*
X154121551Y-86129347D01*
X154082190Y-86129767D01*
X154049073Y-86130273D01*
X154021574Y-86130874D01*
X153999068Y-86131576D01*
X153980928Y-86132389D01*
X153966530Y-86133320D01*
X153955248Y-86134377D01*
X153946457Y-86135568D01*
X153939529Y-86136902D01*
X153933841Y-86138386D01*
X153928766Y-86140028D01*
X153928750Y-86140033D01*
X153877330Y-86164070D01*
X153833652Y-86197542D01*
X153798623Y-86239641D01*
X153780629Y-86271875D01*
X153774041Y-86286665D01*
X153769286Y-86300059D01*
X153766008Y-86314580D01*
X153763851Y-86332754D01*
X153762460Y-86357104D01*
X153761477Y-86390154D01*
X153761024Y-86410937D01*
X153758924Y-86512500D01*
X153722727Y-86512500D01*
X153697729Y-86510884D01*
X153682302Y-86506298D01*
X153679464Y-86503986D01*
X153677865Y-86498055D01*
X153676535Y-86484068D01*
X153675466Y-86461460D01*
X153674650Y-86429664D01*
X153674079Y-86388113D01*
X153673744Y-86336241D01*
X153673638Y-86273481D01*
X153673751Y-86199266D01*
X153674012Y-86127423D01*
X153675625Y-85759375D01*
X156044375Y-85759375D01*
X156045987Y-86127423D01*
G37*
G36*
X154236624Y-86826562D02*
G01*
X154238258Y-86870390D01*
X154240725Y-86904344D01*
X154244666Y-86931045D01*
X154250720Y-86953117D01*
X154259525Y-86973184D01*
X154271720Y-86993869D01*
X154280660Y-87007272D01*
X154314235Y-87046875D01*
X154354870Y-87077082D01*
X154404213Y-87099110D01*
X154405739Y-87099621D01*
X154413739Y-87102201D01*
X154421732Y-87104417D01*
X154430674Y-87106291D01*
X154441518Y-87107849D01*
X154455222Y-87109112D01*
X154472739Y-87110106D01*
X154495026Y-87110852D01*
X154523038Y-87111375D01*
X154557729Y-87111699D01*
X154600055Y-87111845D01*
X154650972Y-87111839D01*
X154711435Y-87111704D01*
X154782399Y-87111462D01*
X154864819Y-87111138D01*
X154873036Y-87111105D01*
X155300625Y-87109375D01*
X155331875Y-87095020D01*
X155372619Y-87073358D01*
X155404510Y-87049069D01*
X155431194Y-87019281D01*
X155435636Y-87013238D01*
X155454900Y-86982656D01*
X155468793Y-86951040D01*
X155477987Y-86915686D01*
X155483156Y-86873888D01*
X155484974Y-86822941D01*
X155485000Y-86814966D01*
X155485000Y-86731250D01*
X155521250Y-86731250D01*
X155542272Y-86732475D01*
X155558602Y-86735638D01*
X155565000Y-86738750D01*
X155566363Y-86746243D01*
X155567602Y-86765143D01*
X155568716Y-86794356D01*
X155569705Y-86832790D01*
X155570570Y-86879351D01*
X155571310Y-86932947D01*
X155571925Y-86992485D01*
X155572416Y-87056872D01*
X155572782Y-87125014D01*
X155573024Y-87195820D01*
X155573140Y-87268195D01*
X155573133Y-87341047D01*
X155573000Y-87413284D01*
X155572743Y-87483812D01*
X155572361Y-87551538D01*
X155571854Y-87615369D01*
X155571223Y-87674213D01*
X155570467Y-87726976D01*
X155569586Y-87772565D01*
X155568581Y-87809888D01*
X155567451Y-87837852D01*
X155566197Y-87855363D01*
X155565000Y-87861249D01*
X155554980Y-87865345D01*
X155536968Y-87868070D01*
X155521250Y-87868750D01*
X155485000Y-87868750D01*
X155485000Y-87785033D01*
X155483595Y-87732598D01*
X155478933Y-87689687D01*
X155470340Y-87653598D01*
X155457142Y-87621623D01*
X155438666Y-87591059D01*
X155435636Y-87586761D01*
X155409494Y-87555705D01*
X155378786Y-87530655D01*
X155339869Y-87508738D01*
X155331875Y-87504979D01*
X155300625Y-87490625D01*
X154419375Y-87490625D01*
X154382353Y-87507948D01*
X154335825Y-87534646D01*
X154299259Y-87567026D01*
X154273648Y-87601830D01*
X154258571Y-87629970D01*
X154247785Y-87658274D01*
X154240686Y-87689620D01*
X154236672Y-87726885D01*
X154235139Y-87772946D01*
X154235074Y-87785937D01*
X154235000Y-87868750D01*
X154198750Y-87868750D01*
X154177727Y-87867524D01*
X154161397Y-87864361D01*
X154155000Y-87861250D01*
X154153636Y-87853756D01*
X154152397Y-87834856D01*
X154151283Y-87805643D01*
X154150294Y-87767209D01*
X154149429Y-87720648D01*
X154148689Y-87667052D01*
X154148074Y-87607514D01*
X154147583Y-87543127D01*
X154147217Y-87474985D01*
X154146975Y-87404179D01*
X154146859Y-87331804D01*
X154146866Y-87258952D01*
X154146999Y-87186715D01*
X154147256Y-87116187D01*
X154147638Y-87048461D01*
X154148145Y-86984630D01*
X154148776Y-86925786D01*
X154149532Y-86873023D01*
X154150413Y-86827434D01*
X154151418Y-86790111D01*
X154152548Y-86762147D01*
X154153802Y-86744636D01*
X154155000Y-86738749D01*
X154165047Y-86734625D01*
X154183035Y-86731901D01*
X154198189Y-86731250D01*
X154233878Y-86731250D01*
X154236624Y-86826562D01*
G37*
G36*
X153761024Y-88189062D02*
G01*
X153761935Y-88227462D01*
X153763076Y-88255887D01*
X153764802Y-88276862D01*
X153767470Y-88292911D01*
X153771435Y-88306558D01*
X153777053Y-88320328D01*
X153780629Y-88328125D01*
X153809431Y-88375492D01*
X153847483Y-88414768D01*
X153893878Y-88445144D01*
X153928750Y-88459966D01*
X153933824Y-88461608D01*
X153939509Y-88463093D01*
X153946431Y-88464427D01*
X153955216Y-88465618D01*
X153966489Y-88466676D01*
X153980876Y-88467607D01*
X153999002Y-88468420D01*
X154021493Y-88469123D01*
X154048974Y-88469724D01*
X154082072Y-88470231D01*
X154121412Y-88470651D01*
X154167619Y-88470993D01*
X154221319Y-88471265D01*
X154283137Y-88471475D01*
X154353700Y-88471630D01*
X154433633Y-88471739D01*
X154523562Y-88471811D01*
X154624111Y-88471851D01*
X154735908Y-88471870D01*
X154859576Y-88471874D01*
X154860000Y-88471875D01*
X154983708Y-88471870D01*
X155095542Y-88471851D01*
X155196127Y-88471811D01*
X155286089Y-88471740D01*
X155366053Y-88471631D01*
X155436646Y-88471475D01*
X155498492Y-88471266D01*
X155552218Y-88470994D01*
X155598448Y-88470652D01*
X155637809Y-88470232D01*
X155670926Y-88469726D01*
X155698425Y-88469125D01*
X155720931Y-88468423D01*
X155739071Y-88467610D01*
X155753469Y-88466679D01*
X155764751Y-88465622D01*
X155773542Y-88464431D01*
X155780470Y-88463097D01*
X155786158Y-88461613D01*
X155791233Y-88459971D01*
X155791250Y-88459966D01*
X155842949Y-88436247D01*
X155885702Y-88403872D01*
X155919897Y-88362500D01*
X155937418Y-88331250D01*
X155944686Y-88315606D01*
X155949926Y-88302106D01*
X155953524Y-88288202D01*
X155955865Y-88271346D01*
X155957335Y-88248991D01*
X155958322Y-88218591D01*
X155958975Y-88189062D01*
X155961075Y-88087500D01*
X155997272Y-88087500D01*
X156022270Y-88089115D01*
X156037697Y-88093701D01*
X156040535Y-88096013D01*
X156042134Y-88101944D01*
X156043464Y-88115931D01*
X156044533Y-88138539D01*
X156045349Y-88170335D01*
X156045920Y-88211886D01*
X156046255Y-88263758D01*
X156046361Y-88326518D01*
X156046248Y-88400733D01*
X156045987Y-88472576D01*
X156044375Y-88840625D01*
X154862620Y-88842203D01*
X154741996Y-88842342D01*
X154624720Y-88842435D01*
X154511402Y-88842483D01*
X154402654Y-88842486D01*
X154299088Y-88842447D01*
X154201314Y-88842366D01*
X154109944Y-88842246D01*
X154025589Y-88842087D01*
X153948861Y-88841890D01*
X153880372Y-88841658D01*
X153820732Y-88841392D01*
X153770553Y-88841092D01*
X153730446Y-88840760D01*
X153701024Y-88840397D01*
X153682896Y-88840006D01*
X153676682Y-88839599D01*
X153675924Y-88832757D01*
X153675209Y-88814525D01*
X153674552Y-88786012D01*
X153673963Y-88748327D01*
X153673457Y-88702579D01*
X153673045Y-88649880D01*
X153672740Y-88591336D01*
X153672554Y-88528060D01*
X153672500Y-88468958D01*
X153672564Y-88387025D01*
X153672767Y-88316881D01*
X153673122Y-88257816D01*
X153673644Y-88209120D01*
X153674347Y-88170082D01*
X153675246Y-88139991D01*
X153676354Y-88118138D01*
X153677686Y-88103811D01*
X153679255Y-88096302D01*
X153679999Y-88095000D01*
X153690046Y-88090876D01*
X153708035Y-88088152D01*
X153723212Y-88087500D01*
X153758924Y-88087500D01*
X153761024Y-88189062D01*
G37*
D12*
%TO.C,R8*%
X162177258Y-114757500D02*
X161702742Y-114757500D01*
X162177258Y-115802500D02*
X161702742Y-115802500D01*
%TO.C,C11*%
X154140000Y-99600580D02*
X154140000Y-99319420D01*
X155160000Y-99600580D02*
X155160000Y-99319420D01*
D13*
%TO.C,J6*%
X143340000Y-84235000D02*
X144140000Y-84235000D01*
X138940000Y-84235000D02*
X138140000Y-84235000D01*
X138140000Y-84235000D02*
X138140000Y-81960000D01*
X144140000Y-84235000D02*
X144140000Y-81960000D01*
X142940000Y-79985000D02*
X139340000Y-79985000D01*
D14*
X143690000Y-84945000D02*
G75*
G03*
X143690000Y-84945000I-100000J0D01*
G01*
D12*
%TO.C,Q2*%
X142830000Y-97960000D02*
X142830000Y-97310000D01*
X145950000Y-97960000D02*
X145950000Y-98610000D01*
X142830000Y-97960000D02*
X142830000Y-99635000D01*
X145950000Y-97960000D02*
X145950000Y-97310000D01*
%TO.C,C8*%
X122720000Y-107554420D02*
X122720000Y-107835580D01*
X123740000Y-107554420D02*
X123740000Y-107835580D01*
%TO.C,U4*%
X150675000Y-91960000D02*
X150675000Y-88360000D01*
X142605000Y-91960000D02*
X142605000Y-94160000D01*
X150675000Y-91960000D02*
X150675000Y-94160000D01*
X142605000Y-91960000D02*
X142605000Y-89760000D01*
%TO.C,C2*%
X126950000Y-107569420D02*
X126950000Y-107850580D01*
X125930000Y-107569420D02*
X125930000Y-107850580D01*
%TO.C,C1*%
X140060580Y-108580000D02*
X139779420Y-108580000D01*
X140060580Y-107560000D02*
X139779420Y-107560000D01*
%TO.C,C10*%
X152404420Y-94710000D02*
X152685580Y-94710000D01*
X152404420Y-93690000D02*
X152685580Y-93690000D01*
%TO.C,C13*%
X152109420Y-102530000D02*
X152390580Y-102530000D01*
X152109420Y-103550000D02*
X152390580Y-103550000D01*
%TO.C,R7*%
X152787258Y-90317500D02*
X152312742Y-90317500D01*
X152787258Y-91362500D02*
X152312742Y-91362500D01*
%TO.C,D1*%
X151550000Y-104700000D02*
X151550000Y-108550000D01*
X153550000Y-104700000D02*
X153550000Y-108550000D01*
X153550000Y-104700000D02*
X151550000Y-104700000D01*
D13*
%TO.C,U1*%
X141140000Y-89742500D02*
X141140000Y-87292500D01*
X141140000Y-87292500D02*
X140490000Y-87292500D01*
X141140000Y-105292500D02*
X141140000Y-102842500D01*
X140490000Y-105292500D02*
X141140000Y-105292500D01*
D15*
X122090000Y-106042500D02*
G75*
G03*
X122090000Y-106042500I-100000J0D01*
G01*
D12*
%TO.C,R3*%
X143962500Y-101802258D02*
X143962500Y-101327742D01*
X142917500Y-101802258D02*
X142917500Y-101327742D01*
%TO.C,C12*%
X148689420Y-103550000D02*
X148970580Y-103550000D01*
X148689420Y-102530000D02*
X148970580Y-102530000D01*
%TO.C,C3*%
X154980000Y-104180580D02*
X154980000Y-103899420D01*
X153960000Y-104180580D02*
X153960000Y-103899420D01*
D11*
%TO.C,111*%
X169765000Y-102710000D02*
X172015000Y-102710000D01*
D15*
X156265000Y-92710000D02*
X156265000Y-92710000D01*
D11*
X172015000Y-87910000D02*
X170265000Y-87910000D01*
X159765000Y-102710000D02*
X166265000Y-102710000D01*
D15*
X156465000Y-92710000D02*
X156465000Y-92710000D01*
D11*
X166265000Y-87910000D02*
X159765000Y-87910000D01*
X157515000Y-91810000D02*
X157515000Y-88810000D01*
X172015000Y-102710000D02*
X172015000Y-87910000D01*
D15*
X156465000Y-92710000D02*
G75*
G03*
X156265000Y-92710000I-100000J0D01*
G01*
X156265000Y-92710000D02*
G75*
G03*
X156465000Y-92710000I100000J0D01*
G01*
D13*
%TO.C,J7*%
X129940000Y-84235000D02*
X129140000Y-84235000D01*
X135140000Y-84235000D02*
X135140000Y-81960000D01*
X133940000Y-79985000D02*
X130340000Y-79985000D01*
X134340000Y-84235000D02*
X135140000Y-84235000D01*
X129140000Y-84235000D02*
X129140000Y-81960000D01*
D14*
X134690000Y-84945000D02*
G75*
G03*
X134690000Y-84945000I-100000J0D01*
G01*
D12*
%TO.C,R14*%
X148842500Y-105857258D02*
X148842500Y-105382742D01*
X147797500Y-105857258D02*
X147797500Y-105382742D01*
D13*
%TO.C,J5*%
X148240000Y-84235000D02*
X147440000Y-84235000D01*
X147440000Y-84235000D02*
X147440000Y-81960000D01*
X152240000Y-79985000D02*
X148640000Y-79985000D01*
X152640000Y-84235000D02*
X153440000Y-84235000D01*
X153440000Y-84235000D02*
X153440000Y-81960000D01*
D14*
X152990000Y-84945000D02*
G75*
G03*
X152990000Y-84945000I-100000J0D01*
G01*
%TD*%
M02*
