%TF.GenerationSoftware,KiCad,Pcbnew,6.0.10-2.fc37*%
%TF.CreationDate,2023-04-26T13:00:43+02:00*%
%TF.ProjectId,motherboard,6d6f7468-6572-4626-9f61-72642e6b6963,rev?*%
%TF.SameCoordinates,Original*%
%TF.FileFunction,Legend,Bot*%
%TF.FilePolarity,Positive*%
%FSLAX46Y46*%
G04 Gerber Fmt 4.6, Leading zero omitted, Abs format (unit mm)*
G04 Created by KiCad (PCBNEW 6.0.10-2.fc37) date 2023-04-26 13:00:43*
%MOMM*%
%LPD*%
G01*
G04 APERTURE LIST*
%ADD10C,0.150000*%
%ADD11C,0.275000*%
G04 APERTURE END LIST*
D10*
X170480000Y-83850000D02*
X170480000Y-82890000D01*
X166700000Y-83870000D02*
X166700000Y-82910000D01*
X169320000Y-83850000D02*
X169320000Y-82890000D01*
D11*
X171537500Y-82700000D02*
G75*
G03*
X171537500Y-82700000I-137500J0D01*
G01*
D10*
X168060000Y-83860000D02*
X168060000Y-82900000D01*
X166308000Y-84630476D02*
X166269904Y-84554285D01*
X166269904Y-84440000D01*
X166308000Y-84325714D01*
X166384190Y-84249523D01*
X166460380Y-84211428D01*
X166612761Y-84173333D01*
X166727047Y-84173333D01*
X166879428Y-84211428D01*
X166955619Y-84249523D01*
X167031809Y-84325714D01*
X167069904Y-84440000D01*
X167069904Y-84516190D01*
X167031809Y-84630476D01*
X166993714Y-84668571D01*
X166727047Y-84668571D01*
X166727047Y-84516190D01*
X167069904Y-85011428D02*
X166269904Y-85011428D01*
X167069904Y-85468571D01*
X166269904Y-85468571D01*
X167069904Y-85849523D02*
X166269904Y-85849523D01*
X166269904Y-86040000D01*
X166308000Y-86154285D01*
X166384190Y-86230476D01*
X166460380Y-86268571D01*
X166612761Y-86306666D01*
X166727047Y-86306666D01*
X166879428Y-86268571D01*
X166955619Y-86230476D01*
X167031809Y-86154285D01*
X167069904Y-86040000D01*
X167069904Y-85849523D01*
X168319809Y-84287619D02*
X168357904Y-84401904D01*
X168357904Y-84592380D01*
X168319809Y-84668571D01*
X168281714Y-84706666D01*
X168205523Y-84744761D01*
X168129333Y-84744761D01*
X168053142Y-84706666D01*
X168015047Y-84668571D01*
X167976952Y-84592380D01*
X167938857Y-84440000D01*
X167900761Y-84363809D01*
X167862666Y-84325714D01*
X167786476Y-84287619D01*
X167710285Y-84287619D01*
X167634095Y-84325714D01*
X167596000Y-84363809D01*
X167557904Y-84440000D01*
X167557904Y-84630476D01*
X167596000Y-84744761D01*
X168281714Y-85544761D02*
X168319809Y-85506666D01*
X168357904Y-85392380D01*
X168357904Y-85316190D01*
X168319809Y-85201904D01*
X168243619Y-85125714D01*
X168167428Y-85087619D01*
X168015047Y-85049523D01*
X167900761Y-85049523D01*
X167748380Y-85087619D01*
X167672190Y-85125714D01*
X167596000Y-85201904D01*
X167557904Y-85316190D01*
X167557904Y-85392380D01*
X167596000Y-85506666D01*
X167634095Y-85544761D01*
X168357904Y-86268571D02*
X168357904Y-85887619D01*
X167557904Y-85887619D01*
X169607809Y-84268571D02*
X169645904Y-84382857D01*
X169645904Y-84573333D01*
X169607809Y-84649523D01*
X169569714Y-84687619D01*
X169493523Y-84725714D01*
X169417333Y-84725714D01*
X169341142Y-84687619D01*
X169303047Y-84649523D01*
X169264952Y-84573333D01*
X169226857Y-84420952D01*
X169188761Y-84344761D01*
X169150666Y-84306666D01*
X169074476Y-84268571D01*
X168998285Y-84268571D01*
X168922095Y-84306666D01*
X168884000Y-84344761D01*
X168845904Y-84420952D01*
X168845904Y-84611428D01*
X168884000Y-84725714D01*
X169645904Y-85068571D02*
X168845904Y-85068571D01*
X168845904Y-85259047D01*
X168884000Y-85373333D01*
X168960190Y-85449523D01*
X169036380Y-85487619D01*
X169188761Y-85525714D01*
X169303047Y-85525714D01*
X169455428Y-85487619D01*
X169531619Y-85449523D01*
X169607809Y-85373333D01*
X169645904Y-85259047D01*
X169645904Y-85068571D01*
X169417333Y-85830476D02*
X169417333Y-86211428D01*
X169645904Y-85754285D02*
X168845904Y-86020952D01*
X169645904Y-86287619D01*
X170133904Y-84249523D02*
X170133904Y-84744761D01*
X170438666Y-84478095D01*
X170438666Y-84592380D01*
X170476761Y-84668571D01*
X170514857Y-84706666D01*
X170591047Y-84744761D01*
X170781523Y-84744761D01*
X170857714Y-84706666D01*
X170895809Y-84668571D01*
X170933904Y-84592380D01*
X170933904Y-84363809D01*
X170895809Y-84287619D01*
X170857714Y-84249523D01*
X170133904Y-84973333D02*
X170933904Y-85240000D01*
X170133904Y-85506666D01*
X170133904Y-85697142D02*
X170133904Y-86192380D01*
X170438666Y-85925714D01*
X170438666Y-86040000D01*
X170476761Y-86116190D01*
X170514857Y-86154285D01*
X170591047Y-86192380D01*
X170781523Y-86192380D01*
X170857714Y-86154285D01*
X170895809Y-86116190D01*
X170933904Y-86040000D01*
X170933904Y-85811428D01*
X170895809Y-85735238D01*
X170857714Y-85697142D01*
X166112380Y-108460476D02*
X166112380Y-107984285D01*
X165112380Y-107984285D01*
X166112380Y-109222380D02*
X165588571Y-109222380D01*
X165493333Y-109174761D01*
X165445714Y-109079523D01*
X165445714Y-108889047D01*
X165493333Y-108793809D01*
X166064761Y-109222380D02*
X166112380Y-109127142D01*
X166112380Y-108889047D01*
X166064761Y-108793809D01*
X165969523Y-108746190D01*
X165874285Y-108746190D01*
X165779047Y-108793809D01*
X165731428Y-108889047D01*
X165731428Y-109127142D01*
X165683809Y-109222380D01*
X165445714Y-109698571D02*
X166445714Y-109698571D01*
X165493333Y-109698571D02*
X165445714Y-109793809D01*
X165445714Y-109984285D01*
X165493333Y-110079523D01*
X165540952Y-110127142D01*
X165636190Y-110174761D01*
X165921904Y-110174761D01*
X166017142Y-110127142D01*
X166064761Y-110079523D01*
X166112380Y-109984285D01*
X166112380Y-109793809D01*
X166064761Y-109698571D01*
X166017142Y-111174761D02*
X166064761Y-111127142D01*
X166112380Y-110984285D01*
X166112380Y-110889047D01*
X166064761Y-110746190D01*
X165969523Y-110650952D01*
X165874285Y-110603333D01*
X165683809Y-110555714D01*
X165540952Y-110555714D01*
X165350476Y-110603333D01*
X165255238Y-110650952D01*
X165160000Y-110746190D01*
X165112380Y-110889047D01*
X165112380Y-110984285D01*
X165160000Y-111127142D01*
X165207619Y-111174761D01*
X166112380Y-112031904D02*
X165588571Y-112031904D01*
X165493333Y-111984285D01*
X165445714Y-111889047D01*
X165445714Y-111698571D01*
X165493333Y-111603333D01*
X166064761Y-112031904D02*
X166112380Y-111936666D01*
X166112380Y-111698571D01*
X166064761Y-111603333D01*
X165969523Y-111555714D01*
X165874285Y-111555714D01*
X165779047Y-111603333D01*
X165731428Y-111698571D01*
X165731428Y-111936666D01*
X165683809Y-112031904D01*
X166112380Y-112650952D02*
X166064761Y-112555714D01*
X165969523Y-112508095D01*
X165112380Y-112508095D01*
X167722380Y-105889047D02*
X166722380Y-105889047D01*
X167436666Y-106222380D01*
X166722380Y-106555714D01*
X167722380Y-106555714D01*
X167722380Y-107174761D02*
X167674761Y-107079523D01*
X167627142Y-107031904D01*
X167531904Y-106984285D01*
X167246190Y-106984285D01*
X167150952Y-107031904D01*
X167103333Y-107079523D01*
X167055714Y-107174761D01*
X167055714Y-107317619D01*
X167103333Y-107412857D01*
X167150952Y-107460476D01*
X167246190Y-107508095D01*
X167531904Y-107508095D01*
X167627142Y-107460476D01*
X167674761Y-107412857D01*
X167722380Y-107317619D01*
X167722380Y-107174761D01*
X167055714Y-107793809D02*
X167055714Y-108174761D01*
X166722380Y-107936666D02*
X167579523Y-107936666D01*
X167674761Y-107984285D01*
X167722380Y-108079523D01*
X167722380Y-108174761D01*
X167722380Y-108508095D02*
X166722380Y-108508095D01*
X167722380Y-108936666D02*
X167198571Y-108936666D01*
X167103333Y-108889047D01*
X167055714Y-108793809D01*
X167055714Y-108650952D01*
X167103333Y-108555714D01*
X167150952Y-108508095D01*
X167674761Y-109793809D02*
X167722380Y-109698571D01*
X167722380Y-109508095D01*
X167674761Y-109412857D01*
X167579523Y-109365238D01*
X167198571Y-109365238D01*
X167103333Y-109412857D01*
X167055714Y-109508095D01*
X167055714Y-109698571D01*
X167103333Y-109793809D01*
X167198571Y-109841428D01*
X167293809Y-109841428D01*
X167389047Y-109365238D01*
X167722380Y-110270000D02*
X167055714Y-110270000D01*
X167246190Y-110270000D02*
X167150952Y-110317619D01*
X167103333Y-110365238D01*
X167055714Y-110460476D01*
X167055714Y-110555714D01*
X167722380Y-110889047D02*
X166722380Y-110889047D01*
X167103333Y-110889047D02*
X167055714Y-110984285D01*
X167055714Y-111174761D01*
X167103333Y-111270000D01*
X167150952Y-111317619D01*
X167246190Y-111365238D01*
X167531904Y-111365238D01*
X167627142Y-111317619D01*
X167674761Y-111270000D01*
X167722380Y-111174761D01*
X167722380Y-110984285D01*
X167674761Y-110889047D01*
X167722380Y-111936666D02*
X167674761Y-111841428D01*
X167627142Y-111793809D01*
X167531904Y-111746190D01*
X167246190Y-111746190D01*
X167150952Y-111793809D01*
X167103333Y-111841428D01*
X167055714Y-111936666D01*
X167055714Y-112079523D01*
X167103333Y-112174761D01*
X167150952Y-112222380D01*
X167246190Y-112270000D01*
X167531904Y-112270000D01*
X167627142Y-112222380D01*
X167674761Y-112174761D01*
X167722380Y-112079523D01*
X167722380Y-111936666D01*
X167722380Y-113127142D02*
X167198571Y-113127142D01*
X167103333Y-113079523D01*
X167055714Y-112984285D01*
X167055714Y-112793809D01*
X167103333Y-112698571D01*
X167674761Y-113127142D02*
X167722380Y-113031904D01*
X167722380Y-112793809D01*
X167674761Y-112698571D01*
X167579523Y-112650952D01*
X167484285Y-112650952D01*
X167389047Y-112698571D01*
X167341428Y-112793809D01*
X167341428Y-113031904D01*
X167293809Y-113127142D01*
X167722380Y-113603333D02*
X167055714Y-113603333D01*
X167246190Y-113603333D02*
X167150952Y-113650952D01*
X167103333Y-113698571D01*
X167055714Y-113793809D01*
X167055714Y-113889047D01*
X167722380Y-114650952D02*
X166722380Y-114650952D01*
X167674761Y-114650952D02*
X167722380Y-114555714D01*
X167722380Y-114365238D01*
X167674761Y-114270000D01*
X167627142Y-114222380D01*
X167531904Y-114174761D01*
X167246190Y-114174761D01*
X167150952Y-114222380D01*
X167103333Y-114270000D01*
X167055714Y-114365238D01*
X167055714Y-114555714D01*
X167103333Y-114650952D01*
X169332380Y-108912857D02*
X168856190Y-108579523D01*
X169332380Y-108341428D02*
X168332380Y-108341428D01*
X168332380Y-108722380D01*
X168380000Y-108817619D01*
X168427619Y-108865238D01*
X168522857Y-108912857D01*
X168665714Y-108912857D01*
X168760952Y-108865238D01*
X168808571Y-108817619D01*
X168856190Y-108722380D01*
X168856190Y-108341428D01*
X169284761Y-109722380D02*
X169332380Y-109627142D01*
X169332380Y-109436666D01*
X169284761Y-109341428D01*
X169189523Y-109293809D01*
X168808571Y-109293809D01*
X168713333Y-109341428D01*
X168665714Y-109436666D01*
X168665714Y-109627142D01*
X168713333Y-109722380D01*
X168808571Y-109770000D01*
X168903809Y-109770000D01*
X168999047Y-109293809D01*
X168665714Y-110103333D02*
X169332380Y-110341428D01*
X168665714Y-110579523D01*
X169332380Y-112246190D02*
X169332380Y-111674761D01*
X169332380Y-111960476D02*
X168332380Y-111960476D01*
X168475238Y-111865238D01*
X168570476Y-111770000D01*
X168618095Y-111674761D01*
%TO.C,TP1*%
X127252380Y-111961904D02*
X127252380Y-112580952D01*
X127633333Y-112247619D01*
X127633333Y-112390476D01*
X127680952Y-112485714D01*
X127728571Y-112533333D01*
X127823809Y-112580952D01*
X128061904Y-112580952D01*
X128157142Y-112533333D01*
X128204761Y-112485714D01*
X128252380Y-112390476D01*
X128252380Y-112104761D01*
X128204761Y-112009523D01*
X128157142Y-111961904D01*
X127252380Y-112866666D02*
X128252380Y-113200000D01*
X127252380Y-113533333D01*
X127252380Y-113771428D02*
X127252380Y-114390476D01*
X127633333Y-114057142D01*
X127633333Y-114200000D01*
X127680952Y-114295238D01*
X127728571Y-114342857D01*
X127823809Y-114390476D01*
X128061904Y-114390476D01*
X128157142Y-114342857D01*
X128204761Y-114295238D01*
X128252380Y-114200000D01*
X128252380Y-113914285D01*
X128204761Y-113819047D01*
X128157142Y-113771428D01*
%TO.C,TP8*%
X124016666Y-94562380D02*
X124350000Y-94086190D01*
X124588095Y-94562380D02*
X124588095Y-93562380D01*
X124207142Y-93562380D01*
X124111904Y-93610000D01*
X124064285Y-93657619D01*
X124016666Y-93752857D01*
X124016666Y-93895714D01*
X124064285Y-93990952D01*
X124111904Y-94038571D01*
X124207142Y-94086190D01*
X124588095Y-94086190D01*
X123683333Y-93562380D02*
X123016666Y-94562380D01*
X123016666Y-93562380D02*
X123683333Y-94562380D01*
%TO.C,TP10*%
X123977619Y-100692380D02*
X124310952Y-100216190D01*
X124549047Y-100692380D02*
X124549047Y-99692380D01*
X124168095Y-99692380D01*
X124072857Y-99740000D01*
X124025238Y-99787619D01*
X123977619Y-99882857D01*
X123977619Y-100025714D01*
X124025238Y-100120952D01*
X124072857Y-100168571D01*
X124168095Y-100216190D01*
X124549047Y-100216190D01*
X123691904Y-99692380D02*
X123120476Y-99692380D01*
X123406190Y-100692380D02*
X123406190Y-99692380D01*
X122834761Y-100644761D02*
X122691904Y-100692380D01*
X122453809Y-100692380D01*
X122358571Y-100644761D01*
X122310952Y-100597142D01*
X122263333Y-100501904D01*
X122263333Y-100406666D01*
X122310952Y-100311428D01*
X122358571Y-100263809D01*
X122453809Y-100216190D01*
X122644285Y-100168571D01*
X122739523Y-100120952D01*
X122787142Y-100073333D01*
X122834761Y-99978095D01*
X122834761Y-99882857D01*
X122787142Y-99787619D01*
X122739523Y-99740000D01*
X122644285Y-99692380D01*
X122406190Y-99692380D01*
X122263333Y-99740000D01*
%TO.C,TP9*%
X124572857Y-97592380D02*
X124572857Y-96592380D01*
X124334761Y-96592380D01*
X124191904Y-96640000D01*
X124096666Y-96735238D01*
X124049047Y-96830476D01*
X124001428Y-97020952D01*
X124001428Y-97163809D01*
X124049047Y-97354285D01*
X124096666Y-97449523D01*
X124191904Y-97544761D01*
X124334761Y-97592380D01*
X124572857Y-97592380D01*
X123715714Y-96592380D02*
X123144285Y-96592380D01*
X123430000Y-97592380D02*
X123430000Y-96592380D01*
X122239523Y-97592380D02*
X122572857Y-97116190D01*
X122810952Y-97592380D02*
X122810952Y-96592380D01*
X122430000Y-96592380D01*
X122334761Y-96640000D01*
X122287142Y-96687619D01*
X122239523Y-96782857D01*
X122239523Y-96925714D01*
X122287142Y-97020952D01*
X122334761Y-97068571D01*
X122430000Y-97116190D01*
X122810952Y-97116190D01*
%TO.C,TP5*%
X131252380Y-111423809D02*
X130252380Y-111423809D01*
X130252380Y-112090476D02*
X130252380Y-112280952D01*
X130300000Y-112376190D01*
X130395238Y-112471428D01*
X130585714Y-112519047D01*
X130919047Y-112519047D01*
X131109523Y-112471428D01*
X131204761Y-112376190D01*
X131252380Y-112280952D01*
X131252380Y-112090476D01*
X131204761Y-111995238D01*
X131109523Y-111900000D01*
X130919047Y-111852380D01*
X130585714Y-111852380D01*
X130395238Y-111900000D01*
X130300000Y-111995238D01*
X130252380Y-112090476D01*
X130252380Y-112852380D02*
X130252380Y-113471428D01*
X130633333Y-113138095D01*
X130633333Y-113280952D01*
X130680952Y-113376190D01*
X130728571Y-113423809D01*
X130823809Y-113471428D01*
X131061904Y-113471428D01*
X131157142Y-113423809D01*
X131204761Y-113376190D01*
X131252380Y-113280952D01*
X131252380Y-112995238D01*
X131204761Y-112900000D01*
X131157142Y-112852380D01*
X130347619Y-113852380D02*
X130300000Y-113900000D01*
X130252380Y-113995238D01*
X130252380Y-114233333D01*
X130300000Y-114328571D01*
X130347619Y-114376190D01*
X130442857Y-114423809D01*
X130538095Y-114423809D01*
X130680952Y-114376190D01*
X131252380Y-113804761D01*
X131252380Y-114423809D01*
%TO.C,TP3*%
X137352380Y-111423809D02*
X136352380Y-111423809D01*
X136352380Y-112090476D02*
X136352380Y-112280952D01*
X136400000Y-112376190D01*
X136495238Y-112471428D01*
X136685714Y-112519047D01*
X137019047Y-112519047D01*
X137209523Y-112471428D01*
X137304761Y-112376190D01*
X137352380Y-112280952D01*
X137352380Y-112090476D01*
X137304761Y-111995238D01*
X137209523Y-111900000D01*
X137019047Y-111852380D01*
X136685714Y-111852380D01*
X136495238Y-111900000D01*
X136400000Y-111995238D01*
X136352380Y-112090476D01*
X136447619Y-112900000D02*
X136400000Y-112947619D01*
X136352380Y-113042857D01*
X136352380Y-113280952D01*
X136400000Y-113376190D01*
X136447619Y-113423809D01*
X136542857Y-113471428D01*
X136638095Y-113471428D01*
X136780952Y-113423809D01*
X137352380Y-112852380D01*
X137352380Y-113471428D01*
X136352380Y-114328571D02*
X136352380Y-114138095D01*
X136400000Y-114042857D01*
X136447619Y-113995238D01*
X136590476Y-113900000D01*
X136780952Y-113852380D01*
X137161904Y-113852380D01*
X137257142Y-113900000D01*
X137304761Y-113947619D01*
X137352380Y-114042857D01*
X137352380Y-114233333D01*
X137304761Y-114328571D01*
X137257142Y-114376190D01*
X137161904Y-114423809D01*
X136923809Y-114423809D01*
X136828571Y-114376190D01*
X136780952Y-114328571D01*
X136733333Y-114233333D01*
X136733333Y-114042857D01*
X136780952Y-113947619D01*
X136828571Y-113900000D01*
X136923809Y-113852380D01*
%TO.C,TP7*%
X124621904Y-90502380D02*
X124050476Y-90502380D01*
X124336190Y-91502380D02*
X124336190Y-90502380D01*
X123812380Y-90502380D02*
X123145714Y-91502380D01*
X123145714Y-90502380D02*
X123812380Y-91502380D01*
%TO.C,TP4*%
X140352380Y-111423809D02*
X139352380Y-111423809D01*
X139352380Y-112090476D02*
X139352380Y-112280952D01*
X139400000Y-112376190D01*
X139495238Y-112471428D01*
X139685714Y-112519047D01*
X140019047Y-112519047D01*
X140209523Y-112471428D01*
X140304761Y-112376190D01*
X140352380Y-112280952D01*
X140352380Y-112090476D01*
X140304761Y-111995238D01*
X140209523Y-111900000D01*
X140019047Y-111852380D01*
X139685714Y-111852380D01*
X139495238Y-111900000D01*
X139400000Y-111995238D01*
X139352380Y-112090476D01*
X139447619Y-112900000D02*
X139400000Y-112947619D01*
X139352380Y-113042857D01*
X139352380Y-113280952D01*
X139400000Y-113376190D01*
X139447619Y-113423809D01*
X139542857Y-113471428D01*
X139638095Y-113471428D01*
X139780952Y-113423809D01*
X140352380Y-112852380D01*
X140352380Y-113471428D01*
X139352380Y-113804761D02*
X139352380Y-114471428D01*
X140352380Y-114042857D01*
%TO.C,TP2*%
X134252380Y-111423809D02*
X133252380Y-111423809D01*
X133252380Y-112090476D02*
X133252380Y-112280952D01*
X133300000Y-112376190D01*
X133395238Y-112471428D01*
X133585714Y-112519047D01*
X133919047Y-112519047D01*
X134109523Y-112471428D01*
X134204761Y-112376190D01*
X134252380Y-112280952D01*
X134252380Y-112090476D01*
X134204761Y-111995238D01*
X134109523Y-111900000D01*
X133919047Y-111852380D01*
X133585714Y-111852380D01*
X133395238Y-111900000D01*
X133300000Y-111995238D01*
X133252380Y-112090476D01*
X133347619Y-112900000D02*
X133300000Y-112947619D01*
X133252380Y-113042857D01*
X133252380Y-113280952D01*
X133300000Y-113376190D01*
X133347619Y-113423809D01*
X133442857Y-113471428D01*
X133538095Y-113471428D01*
X133680952Y-113423809D01*
X134252380Y-112852380D01*
X134252380Y-113471428D01*
X133252380Y-114376190D02*
X133252380Y-113900000D01*
X133728571Y-113852380D01*
X133680952Y-113900000D01*
X133633333Y-113995238D01*
X133633333Y-114233333D01*
X133680952Y-114328571D01*
X133728571Y-114376190D01*
X133823809Y-114423809D01*
X134061904Y-114423809D01*
X134157142Y-114376190D01*
X134204761Y-114328571D01*
X134252380Y-114233333D01*
X134252380Y-113995238D01*
X134204761Y-113900000D01*
X134157142Y-113852380D01*
%TO.C,TP6*%
X124300000Y-112438095D02*
X124252380Y-112342857D01*
X124252380Y-112200000D01*
X124300000Y-112057142D01*
X124395238Y-111961904D01*
X124490476Y-111914285D01*
X124680952Y-111866666D01*
X124823809Y-111866666D01*
X125014285Y-111914285D01*
X125109523Y-111961904D01*
X125204761Y-112057142D01*
X125252380Y-112200000D01*
X125252380Y-112295238D01*
X125204761Y-112438095D01*
X125157142Y-112485714D01*
X124823809Y-112485714D01*
X124823809Y-112295238D01*
X125252380Y-112914285D02*
X124252380Y-112914285D01*
X125252380Y-113485714D01*
X124252380Y-113485714D01*
X125252380Y-113961904D02*
X124252380Y-113961904D01*
X124252380Y-114200000D01*
X124300000Y-114342857D01*
X124395238Y-114438095D01*
X124490476Y-114485714D01*
X124680952Y-114533333D01*
X124823809Y-114533333D01*
X125014285Y-114485714D01*
X125109523Y-114438095D01*
X125204761Y-114342857D01*
X125252380Y-114200000D01*
X125252380Y-113961904D01*
%TD*%
M02*
