M48
; DRILL file {KiCad 6.0.9-8da3e8f707~116~ubuntu20.04.1} date Do 17 Nov 2022 11:36:59 CET
; FORMAT={-:-/ absolute / metric / decimal}
; #@! TF.CreationDate,2022-11-17T11:36:59+01:00
; #@! TF.GenerationSoftware,Kicad,Pcbnew,6.0.9-8da3e8f707~116~ubuntu20.04.1
; #@! TF.FileFunction,MixedPlating,1,4
FMAT,2
METRIC
; #@! TA.AperFunction,Plated,PTH,ViaDrill
T1C0.400
; #@! TA.AperFunction,NonPlated,NPTH,ComponentDrill
T2C0.500
; #@! TA.AperFunction,NonPlated,NPTH,ComponentDrill
T3C2.100
%
G90
G05
T1
X24.31Y-17.5
X24.31Y-21.23
X24.34Y-25.96
X24.36Y-50.17
X24.36Y-53.89
X24.725Y-32.625
X26.575Y-40.125
X26.646Y-38.576
X27.0Y-43.47
X27.245Y-25.945
X27.41Y-33.6
X27.45Y-21.31
X27.5Y-50.1
X28.3Y-25.95
X28.7Y-21.5
X28.75Y-49.9
X28.9Y-48.0
X29.55Y-23.4
X29.7Y-21.5
X29.75Y-49.9
X30.15Y-45.45
X30.95Y-21.3
X31.0Y-50.09
X31.04Y-37.8
X31.205Y-45.455
X31.45Y-27.93
X31.804Y-32.824
X31.875Y-31.275
X33.725Y-38.775
X34.09Y-17.51
X34.09Y-21.23
X34.11Y-45.44
X34.14Y-50.17
X34.14Y-53.9
X38.76Y-17.5
X38.76Y-21.23
X38.79Y-25.96
X38.81Y-50.17
X38.81Y-53.89
X39.175Y-32.625
X41.025Y-40.125
X41.096Y-38.576
X41.45Y-43.47
X41.695Y-25.945
X41.86Y-33.6
X41.9Y-21.31
X41.95Y-50.1
X42.75Y-25.95
X43.15Y-21.5
X43.2Y-49.9
X43.35Y-48.0
X44.0Y-23.4
X44.15Y-21.5
X44.2Y-49.9
X44.6Y-45.45
X45.4Y-21.3
X45.45Y-50.09
X45.49Y-37.8
X45.655Y-45.455
X45.9Y-27.93
X46.254Y-32.824
X46.325Y-31.275
X48.175Y-38.775
X48.54Y-17.51
X48.54Y-21.23
X48.56Y-45.44
X48.59Y-50.17
X48.59Y-53.9
X53.21Y-17.5
X53.21Y-21.23
X53.24Y-25.96
X53.26Y-50.17
X53.26Y-53.89
X53.625Y-32.625
X55.475Y-40.125
X55.546Y-38.576
X55.9Y-43.47
X56.145Y-25.945
X56.31Y-33.6
X56.35Y-21.31
X56.4Y-50.1
X57.2Y-25.95
X57.6Y-21.5
X57.65Y-49.9
X57.8Y-48.0
X58.45Y-23.4
X58.6Y-21.5
X58.65Y-49.9
X59.05Y-45.45
X59.85Y-21.3
X59.9Y-50.09
X59.94Y-37.8
X60.105Y-45.455
X60.35Y-27.93
X60.704Y-32.824
X60.775Y-31.275
X62.625Y-38.775
X62.99Y-17.51
X62.99Y-21.23
X63.01Y-45.44
X63.04Y-50.17
X63.04Y-53.9
T2
X23.2Y-22.55
X23.2Y-23.7
X23.2Y-24.85
X23.2Y-26.0
X23.2Y-27.15
X23.2Y-44.25
X23.2Y-45.4
X23.2Y-46.55
X23.2Y-47.7
X23.2Y-48.85
X26.925Y-34.5
X26.925Y-36.9
X28.075Y-34.5
X28.075Y-36.9
X29.225Y-34.5
X29.225Y-36.9
X30.375Y-34.5
X30.375Y-36.9
X31.525Y-34.5
X31.525Y-36.9
X35.25Y-22.55
X35.25Y-23.7
X35.25Y-24.85
X35.25Y-26.0
X35.25Y-27.15
X35.25Y-44.25
X35.25Y-45.4
X35.25Y-46.55
X35.25Y-47.7
X35.25Y-48.85
X37.65Y-22.55
X37.65Y-23.7
X37.65Y-24.85
X37.65Y-26.0
X37.65Y-27.15
X37.65Y-44.25
X37.65Y-45.4
X37.65Y-46.55
X37.65Y-47.7
X37.65Y-48.85
X41.375Y-34.5
X41.375Y-36.9
X42.525Y-34.5
X42.525Y-36.9
X43.675Y-34.5
X43.675Y-36.9
X44.825Y-34.5
X44.825Y-36.9
X45.975Y-34.5
X45.975Y-36.9
X49.7Y-22.55
X49.7Y-23.7
X49.7Y-24.85
X49.7Y-26.0
X49.7Y-27.15
X49.7Y-44.25
X49.7Y-45.4
X49.7Y-46.55
X49.7Y-47.7
X49.7Y-48.85
X52.1Y-22.55
X52.1Y-23.7
X52.1Y-24.85
X52.1Y-26.0
X52.1Y-27.15
X52.1Y-44.25
X52.1Y-45.4
X52.1Y-46.55
X52.1Y-47.7
X52.1Y-48.85
X55.825Y-34.5
X55.825Y-36.9
X56.975Y-34.5
X56.975Y-36.9
X58.125Y-34.5
X58.125Y-36.9
X59.275Y-34.5
X59.275Y-36.9
X60.425Y-34.5
X60.425Y-36.9
X64.15Y-22.55
X64.15Y-23.7
X64.15Y-24.85
X64.15Y-26.0
X64.15Y-27.15
X64.15Y-44.25
X64.15Y-45.4
X64.15Y-46.55
X64.15Y-47.7
X64.15Y-48.85
T3
X25.55Y-23.8
X25.55Y-47.6
X32.9Y-23.8
X32.9Y-47.6
X40.0Y-23.8
X40.0Y-47.6
X47.35Y-23.8
X47.35Y-47.6
X54.45Y-23.8
X54.45Y-47.6
X61.8Y-23.8
X61.8Y-47.6
T0
M30
