<svg version="1.1" xmlns="http://www.w3.org/2000/svg" viewBox="0 0 1038.4336651558865 423.4339435760887" width="1038.4336651558865" height="423.4339435760887" filter="invert(93%) hue-rotate(180deg)">
  <!-- svg-source:excalidraw -->
  
  <defs>
    <style class="style-fonts">
      @font-face {
        font-family: "Virgil";
        src: url("https://excalidraw.com/Virgil.woff2");
      }
      @font-face {
        font-family: "Cascadia";
        src: url("https://excalidraw.com/Cascadia.woff2");
      }
      @font-face {
        font-family: "Assistant";
        src: url("https://excalidraw.com/Assistant-Regular.woff2");
      }
    </style>
    
  </defs>
  <g transform="translate(18.180472293111507 139.43394357608875) rotate(0 79.66666412353516 12.5)"><text x="0" y="17.52" font-family="Virgil, Segoe UI Emoji" font-size="20px" fill="#1971c2" text-anchor="start" style="white-space: pre;" direction="ltr" dominant-baseline="alphabetic">virtual keyboard</text></g><g transform="translate(18.180472293111507 262.4339435760887) rotate(0 71.10832977294922 12.5)"><text x="0" y="17.52" font-family="Virgil, Segoe UI Emoji" font-size="20px" fill="#1971c2" text-anchor="start" style="white-space: pre;" direction="ltr" dominant-baseline="alphabetic">keylogger input</text></g><g transform="translate(313.1804722931115 203.43394357608875) rotate(0 112.9749984741211 12.5)"><text x="0" y="17.52" font-family="Virgil, Segoe UI Emoji" font-size="20px" fill="#e03131" text-anchor="start" style="white-space: pre;" direction="ltr" dominant-baseline="alphabetic">merge/prepare-dataset</text></g><g transform="translate(878.1804722931115 193.43394357608875) rotate(0 53.31666564941406 12.5)"><text x="0" y="17.52" font-family="Virgil, Segoe UI Emoji" font-size="20px" fill="#2f9e44" text-anchor="start" style="white-space: pre;" direction="ltr" dominant-baseline="alphabetic">live-preview</text></g><g transform="translate(872.1804722931115 388.4339435760887) rotate(0 60.46666717529297 12.5)"><text x="0" y="17.52" font-family="Virgil, Segoe UI Emoji" font-size="20px" fill="#2f9e44" text-anchor="start" style="white-space: pre;" direction="ltr" dominant-baseline="alphabetic">visualization</text></g><g transform="translate(630.1804722931115 100.43394357608875) rotate(0 70.06666564941406 12.5)"><text x="0" y="17.52" font-family="Virgil, Segoe UI Emoji" font-size="20px" fill="#f08c00" text-anchor="start" style="white-space: pre;" direction="ltr" dominant-baseline="alphabetic">click detection</text></g><g transform="translate(623.1804722931115 259.4339435760887) rotate(0 79.20833587646484 12.5)"><text x="0" y="17.52" font-family="Virgil, Segoe UI Emoji" font-size="20px" fill="#f08c00" text-anchor="start" style="white-space: pre;" direction="ltr" dominant-baseline="alphabetic">state detection</text></g><g stroke-linecap="round"><g transform="translate(186.1804722931115 152.43394357608875) rotate(0 58.5 24)"><path d="M0.95 0.71 C20.83 8.49, 98.87 39.9, 118.15 47.58 M-0.01 0.04 C19.92 7.9, 98.53 40.99, 117.8 48.9" stroke="#1e1e1e" stroke-width="1" fill="none"></path></g><g transform="translate(186.1804722931115 152.43394357608875) rotate(0 58.5 24)"><path d="M92.83 47.77 C99.1 49.71, 102.28 47.35, 117.8 48.9 M92.83 47.77 C97.42 47.81, 102.24 48.08, 117.8 48.9" stroke="#1e1e1e" stroke-width="1" fill="none"></path></g><g transform="translate(186.1804722931115 152.43394357608875) rotate(0 58.5 24)"><path d="M99.4 31.98 C104.46 37.18, 106.31 38.03, 117.8 48.9 M99.4 31.98 C102.54 35.23, 106.02 38.68, 117.8 48.9" stroke="#1e1e1e" stroke-width="1" fill="none"></path></g></g><mask></mask><g stroke-linecap="round"><g transform="translate(169.1804722931115 270.4339435760887) rotate(0 68 -22)"><path d="M0.02 -0.88 C22.69 -8.16, 113.68 -36.41, 136.33 -43.7 M-1.44 1.28 C21.09 -6.39, 112.8 -38.19, 135.55 -45.66" stroke="#1e1e1e" stroke-width="1" fill="none"></path></g><g transform="translate(169.1804722931115 270.4339435760887) rotate(0 68 -22)"><path d="M116.04 -30.02 C120.88 -34.53, 129.14 -40.31, 135.55 -45.66 M116.04 -30.02 C121.78 -33.56, 125.49 -37.75, 135.55 -45.66" stroke="#1e1e1e" stroke-width="1" fill="none"></path></g><g transform="translate(169.1804722931115 270.4339435760887) rotate(0 68 -22)"><path d="M110.55 -46.22 C117.17 -45.5, 127.2 -46.05, 135.55 -45.66 M110.55 -46.22 C117.58 -45.71, 122.68 -45.82, 135.55 -45.66" stroke="#1e1e1e" stroke-width="1" fill="none"></path></g></g><mask></mask><g stroke-linecap="round"><g transform="translate(549.1804722931115 225.89093784507682) rotate(0 33 20.867479771694093)"><path d="M0.58 0.37 C11.46 7.21, 55.2 34.88, 65.93 41.71 M-0.57 -0.48 C10.09 6.51, 53.63 36.07, 64.95 43.24" stroke="#1e1e1e" stroke-width="1" fill="none"></path></g><g transform="translate(549.1804722931115 225.89093784507682) rotate(0 33 20.867479771694093)"><path d="M40.63 37.46 C49.9 39.28, 57.88 39.76, 64.95 43.24 M40.63 37.46 C46.46 38.88, 53.88 40.32, 64.95 43.24" stroke="#1e1e1e" stroke-width="1" fill="none"></path></g><g transform="translate(549.1804722931115 225.89093784507682) rotate(0 33 20.867479771694093)"><path d="M50.03 23.17 C56.05 30.11, 60.69 35.66, 64.95 43.24 M50.03 23.17 C53.2 28.41, 58.06 33.73, 64.95 43.24" stroke="#1e1e1e" stroke-width="1" fill="none"></path></g></g><mask></mask><g transform="translate(340.1804722931115 103.43394357608875) rotate(0 98.5999984741211 12.5)"><text x="0" y="17.52" font-family="Virgil, Segoe UI Emoji" font-size="20px" fill="#e03131" text-anchor="start" style="white-space: pre;" direction="ltr" dominant-baseline="alphabetic">state2click (TODO)</text></g><g stroke-linecap="round"><g transform="translate(426.1804722931115 188.43394357608875) rotate(0 0 -26.5)"><path d="M-1.16 0.9 C-1.04 -7.72, 1.01 -43.2, 1.05 -52.25 M0.44 0.33 C0.46 -8.58, 0.48 -45.21, 0.65 -53.97" stroke="#1e1e1e" stroke-width="1" fill="none"></path></g><g transform="translate(426.1804722931115 188.43394357608875) rotate(0 0 -26.5)"><path d="M9 -30.41 C7.87 -36.46, 4.89 -47.49, 0.65 -53.97 M9 -30.41 C6.31 -36.23, 4.96 -43.87, 0.65 -53.97" stroke="#1e1e1e" stroke-width="1" fill="none"></path></g><g transform="translate(426.1804722931115 188.43394357608875) rotate(0 0 -26.5)"><path d="M-8.1 -30.55 C-3.63 -36.39, -1.01 -47.38, 0.65 -53.97 M-8.1 -30.55 C-6.18 -36.49, -2.91 -44.1, 0.65 -53.97" stroke="#1e1e1e" stroke-width="1" fill="none"></path></g></g><mask></mask><g stroke-linecap="round"><g transform="translate(548.1804722931117 115.27585164031737) rotate(0 37.999999999999886 -0.13350727833670817)"><path d="M-0.42 0.31 C12.56 0.18, 64.23 0.31, 76.8 0.25 M1.56 -0.57 C14.54 -0.54, 63.64 -1.93, 76.27 -1.6" stroke="#1e1e1e" stroke-width="1" fill="none"></path></g><g transform="translate(548.1804722931117 115.27585164031737) rotate(0 37.999999999999886 -0.13350727833670817)"><path d="M52.81 7.05 C58.19 6.64, 63.47 1.76, 76.27 -1.6 M52.81 7.05 C60.57 3.45, 66.96 0.72, 76.27 -1.6" stroke="#1e1e1e" stroke-width="1" fill="none"></path></g><g transform="translate(548.1804722931117 115.27585164031737) rotate(0 37.999999999999886 -0.13350727833670817)"><path d="M52.74 -10.05 C58.28 -6.86, 63.58 -8.14, 76.27 -1.6 M52.74 -10.05 C60.39 -8.16, 66.8 -5.4, 76.27 -1.6" stroke="#1e1e1e" stroke-width="1" fill="none"></path></g></g><mask></mask><g stroke-linecap="round"><g transform="translate(780.2258824493615 128.51280099796375) rotate(0 45 31.5)"><path d="M0.46 1 C15.65 11.45, 75.64 53.31, 90.73 63.66 M-0.76 0.49 C14.38 11.1, 74.92 51.21, 90.16 61.88" stroke="#1e1e1e" stroke-width="1" fill="none"></path></g><g transform="translate(780.2258824493615 128.51280099796375) rotate(0 45 31.5)"><path d="M65.92 55.75 C74.02 58.48, 79.81 60.49, 90.16 61.88 M65.92 55.75 C73.13 57.54, 80.47 59.93, 90.16 61.88" stroke="#1e1e1e" stroke-width="1" fill="none"></path></g><g transform="translate(780.2258824493615 128.51280099796375) rotate(0 45 31.5)"><path d="M75.53 41.61 C81.22 48.09, 84.48 53.82, 90.16 61.88 M75.53 41.61 C79.75 47.79, 84.13 54.54, 90.16 61.88" stroke="#1e1e1e" stroke-width="1" fill="none"></path></g></g><mask></mask><g stroke-linecap="round"><g transform="translate(792.2258824493615 261.5128009979637) rotate(0 38.5 -20.5)"><path d="M-0.4 -0.59 C12.18 -7.44, 63.58 -34.79, 76.63 -41.42 M1.6 1.71 C13.88 -4.94, 62.81 -32.76, 75.49 -40.1" stroke="#1e1e1e" stroke-width="1" fill="none"></path></g><g transform="translate(792.2258824493615 261.5128009979637) rotate(0 38.5 -20.5)"><path d="M59.35 -21.01 C64.85 -29.17, 71.58 -34.58, 75.49 -40.1 M59.35 -21.01 C65.77 -27.02, 71.75 -35.4, 75.49 -40.1" stroke="#1e1e1e" stroke-width="1" fill="none"></path></g><g transform="translate(792.2258824493615 261.5128009979637) rotate(0 38.5 -20.5)"><path d="M50.86 -35.85 C59.71 -38.07, 69.82 -37.56, 75.49 -40.1 M50.86 -35.85 C60.27 -36.52, 69.27 -39.61, 75.49 -40.1" stroke="#1e1e1e" stroke-width="1" fill="none"></path></g></g><mask></mask><g stroke-linecap="round"><g transform="translate(792.2258824493615 289.5128009979637) rotate(0 45.5 45)"><path d="M-0.16 -0.5 C14.99 14.27, 75.79 73.93, 91 89.18 M-1.71 -1.81 C13.27 13.04, 74.7 75.13, 90.05 90.29" stroke="#1e1e1e" stroke-width="1" fill="none"></path></g><g transform="translate(792.2258824493615 289.5128009979637) rotate(0 45.5 45)"><path d="M67.39 79.72 C73.58 83, 80.03 86.39, 90.05 90.29 M67.39 79.72 C75.89 84.4, 85.01 87.1, 90.05 90.29" stroke="#1e1e1e" stroke-width="1" fill="none"></path></g><g transform="translate(792.2258824493615 289.5128009979637) rotate(0 45.5 45)"><path d="M79.49 67.63 C82.01 74.61, 84.73 81.73, 90.05 90.29 M79.49 67.63 C83.27 76.85, 87.74 84.18, 90.05 90.29" stroke="#1e1e1e" stroke-width="1" fill="none"></path></g></g><mask></mask><g stroke-linecap="round"><g transform="translate(167.2258824493615 289.5128009979637) rotate(0 348 54)"><path d="M0.56 -0.01 C116.49 18.02, 579.55 89.89, 695.54 107.93 M-0.6 -1.05 C115.12 17.18, 578.24 90.98, 694.36 109.42" stroke="#1e1e1e" stroke-width="1" fill="none"></path></g><g transform="translate(167.2258824493615 289.5128009979637) rotate(0 348 54)"><path d="M669.81 114.18 C677.2 111.87, 684.47 112.11, 694.36 109.42 M669.81 114.18 C676.55 111.81, 685.39 110.64, 694.36 109.42" stroke="#1e1e1e" stroke-width="1" fill="none"></path></g><g transform="translate(167.2258824493615 289.5128009979637) rotate(0 348 54)"><path d="M672.5 97.29 C679.05 100.08, 685.51 105.4, 694.36 109.42 M672.5 97.29 C678.49 100.24, 686.48 104.4, 694.36 109.42" stroke="#1e1e1e" stroke-width="1" fill="none"></path></g></g><mask></mask><g stroke-linecap="round" transform="translate(10 13.319536066349087) rotate(0 94.60677789094802 17.500000000000014)"><path d="M8.75 0 C68.66 -0.68, 130.26 -0.17, 180.46 0 M8.75 0 C51.38 -1.1, 93.3 -0.39, 180.46 0 M180.46 0 C187.66 -0.23, 190.24 1.43, 189.21 8.75 M180.46 0 C187.69 1.92, 187.28 3.92, 189.21 8.75 M189.21 8.75 C188.1 15.2, 188.57 21.59, 189.21 26.25 M189.21 8.75 C188.79 14.82, 189.01 19.2, 189.21 26.25 M189.21 26.25 C191.07 32.06, 184.54 33.38, 180.46 35 M189.21 26.25 C189.57 32.52, 184.43 35.52, 180.46 35 M180.46 35 C120.96 32.87, 59.8 32.14, 8.75 35 M180.46 35 C122.47 35.83, 63.77 36.52, 8.75 35 M8.75 35 C3.05 36.66, 0.19 33.97, 0 26.25 M8.75 35 C4.9 33.3, 0.56 33.64, 0 26.25 M0 26.25 C0.48 18.55, -1.66 13.36, 0 8.75 M0 26.25 C-0.71 19.72, 0.12 13.64, 0 8.75 M0 8.75 C-0.64 2.61, 2.51 1.11, 8.75 0 M0 8.75 C-2.03 1.6, 2.88 -1.69, 8.75 0" stroke="#1e1e1e" stroke-width="1" fill="none"></path></g><g transform="translate(78.22344468477127 18.319536066349087) rotate(0 26.383333206176758 12.500000000000014)"><text x="26.383333206176758" y="17.52" font-family="Virgil, Segoe UI Emoji" font-size="20px" fill="#1e1e1e" text-anchor="middle" style="white-space: pre;" direction="ltr" dominant-baseline="alphabetic">Input</text></g><g stroke-linecap="round" transform="translate(843.2035526536097 10.663907213269852) rotate(0 92.61505625113841 17.499999999999986)"><path d="M8.75 0 C56.68 -0.75, 102.67 -2.63, 176.48 0 M8.75 0 C55.88 -1.17, 103.79 -0.71, 176.48 0 M176.48 0 C180.43 -1.68, 186.59 1.48, 185.23 8.75 M176.48 0 C184.29 -0.19, 184.43 2.46, 185.23 8.75 M185.23 8.75 C186.56 15.54, 183.99 20.99, 185.23 26.25 M185.23 8.75 C185.53 13.29, 185.29 17, 185.23 26.25 M185.23 26.25 C184.66 30.46, 181.52 35.89, 176.48 35 M185.23 26.25 C185.37 34.32, 180.73 37.2, 176.48 35 M176.48 35 C131.02 34.36, 80.74 36.93, 8.75 35 M176.48 35 C125.91 34.01, 74.16 34.98, 8.75 35 M8.75 35 C3.86 36.19, -0.95 31.79, 0 26.25 M8.75 35 C3.38 34.9, -1.95 32.76, 0 26.25 M0 26.25 C0.74 21.73, -1.01 16.54, 0 8.75 M0 26.25 C0.87 19.26, 0.56 14.48, 0 8.75 M0 8.75 C0.75 4.45, 4.56 0.33, 8.75 0 M0 8.75 C-0.53 3.03, 4.12 1.78, 8.75 0" stroke="#1e1e1e" stroke-width="1" fill="none"></path></g><g transform="translate(857.68527760592 15.663907213269852) rotate(0 78.13333129882812 12.499999999999986)"><text x="78.13333129882812" y="17.52" font-family="Virgil, Segoe UI Emoji" font-size="20px" fill="#1e1e1e" text-anchor="middle" style="white-space: pre;" direction="ltr" dominant-baseline="alphabetic">Analysis/Output</text></g><g stroke-linecap="round" transform="translate(338.3021169619201 10) rotate(0 93.94287067767812 17.500000000000014)"><path d="M8.75 0 C54.15 -0.41, 100.22 -0.48, 179.14 0 M8.75 0 C52.23 -0.15, 96.48 -1.17, 179.14 0 M179.14 0 C185.61 -1.69, 187.1 2.89, 187.89 8.75 M179.14 0 C187.21 -0.57, 187 3.02, 187.89 8.75 M187.89 8.75 C186.59 15.95, 186.66 20.14, 187.89 26.25 M187.89 8.75 C188 12.54, 187.67 18.31, 187.89 26.25 M187.89 26.25 C189.69 32.02, 183.23 36.15, 179.14 35 M187.89 26.25 C187.5 33.2, 185.77 36.76, 179.14 35 M179.14 35 C122.39 33.45, 68.11 33.27, 8.75 35 M179.14 35 C133.88 32.96, 90.18 33.1, 8.75 35 M8.75 35 C2.21 36.08, -0.33 31.4, 0 26.25 M8.75 35 C2.76 33.35, -0.69 31.35, 0 26.25 M0 26.25 C-1.5 19.59, 1.85 17.52, 0 8.75 M0 26.25 C0.61 21.91, 0.42 18.34, 0 8.75 M0 8.75 C1.92 4.67, 1.86 1.05, 8.75 0 M0 8.75 C-1.98 2.78, 3.81 0.83, 8.75 0" stroke="#1e1e1e" stroke-width="1" fill="none"></path></g><g transform="translate(382.5783197013657 15) rotate(0 49.66666793823242 12.500000000000014)"><text x="49.66666793823242" y="17.52" font-family="Virgil, Segoe UI Emoji" font-size="20px" fill="#1e1e1e" text-anchor="middle" style="white-space: pre;" direction="ltr" dominant-baseline="alphabetic">Processing</text></g><g stroke-linecap="round" transform="translate(599.9229507911773 10.705299014222703) rotate(0 92.28310264450374 17.499999999999986)"><path d="M8.75 0 C44.67 0.8, 78.43 1.4, 175.82 0 M8.75 0 C48.76 0.9, 90.6 1.01, 175.82 0 M175.82 0 C182.5 -1.82, 186.34 1.44, 184.57 8.75 M175.82 0 C180.52 -0.42, 186.67 2.72, 184.57 8.75 M184.57 8.75 C184.67 12.67, 185.14 17.28, 184.57 26.25 M184.57 8.75 C184.98 14.69, 184.34 20.13, 184.57 26.25 M184.57 26.25 C183.58 32.65, 183.35 35.26, 175.82 35 M184.57 26.25 C185.85 31.91, 180.31 35.66, 175.82 35 M175.82 35 C118.32 33.49, 62.34 33.37, 8.75 35 M175.82 35 C114.48 35.45, 51.07 36.83, 8.75 35 M8.75 35 C2.54 33.9, 1.99 33.63, 0 26.25 M8.75 35 C2.44 35.99, -1.36 32.66, 0 26.25 M0 26.25 C1.52 20.19, -0.45 15.76, 0 8.75 M0 26.25 C0.26 21.02, 0.15 14.06, 0 8.75 M0 8.75 C-1.87 3.5, 3.7 0.34, 8.75 0 M0 8.75 C0.9 4.83, 5.05 -2.14, 8.75 0" stroke="#1e1e1e" stroke-width="1" fill="none"></path></g><g transform="translate(659.7810541986205 15.705299014222703) rotate(0 32.42499923706055 12.499999999999986)"><text x="32.42499923706055" y="17.52" font-family="Virgil, Segoe UI Emoji" font-size="20px" fill="#1e1e1e" text-anchor="middle" style="white-space: pre;" direction="ltr" dominant-baseline="alphabetic">Models</text></g></svg>