<svg version="1.1" xmlns="http://www.w3.org/2000/svg" viewBox="0 0 1107.2427181948322 400.2023393151143" width="1107.2427181948322" height="400.2023393151143">
  <!-- svg-source:excalidraw -->
  
  <defs>
    <style class="style-fonts">
      @font-face {
        font-family: "Virgil";
        src: url("https://excalidraw.com/Virgil.woff2");
      }
      @font-face {
        font-family: "Cascadia";
        src: url("https://excalidraw.com/Cascadia.woff2");
      }
      @font-face {
        font-family: "Assistant";
        src: url("https://excalidraw.com/Assistant-Regular.woff2");
      }
    </style>
    
  </defs>
  <rect x="0" y="0" width="1107.2427181948322" height="400.2023393151143" fill="#ffffff"></rect><g transform="translate(148.0989317754952 113.34914051592025) rotate(0 79.66666412353516 12.5)"><text x="0" y="17.52" font-family="Virgil, Segoe UI Emoji" font-size="20px" fill="#1971c2" text-anchor="start" style="white-space: pre;" direction="ltr" dominant-baseline="alphabetic">virtual keyboard</text></g><g transform="translate(155.19184023518028 314.9120185590931) rotate(0 71.10832977294922 12.5)"><text x="0" y="17.52" font-family="Virgil, Segoe UI Emoji" font-size="20px" fill="#1971c2" text-anchor="start" style="white-space: pre;" direction="ltr" dominant-baseline="alphabetic">keylogger input</text></g><g transform="translate(424.8485393306985 222.99480501358332) rotate(0 81.4000015258789 12.5)"><text x="0" y="17.52" font-family="Virgil, Segoe UI Emoji" font-size="20px" fill="#e03131" text-anchor="start" style="white-space: pre;" direction="ltr" dominant-baseline="alphabetic">prepare-dataset</text></g><g transform="translate(951.3109962942797 99.66756257108247) rotate(0 53.31666564941406 12.5)"><text x="0" y="17.52" font-family="Virgil, Segoe UI Emoji" font-size="20px" fill="#2f9e44" text-anchor="start" style="white-space: pre;" direction="ltr" dominant-baseline="alphabetic">live-preview</text></g><g transform="translate(944.1609947684005 225.30407040176934) rotate(0 60.46666717529308 12.5)"><text x="0" y="17.52" font-family="Virgil, Segoe UI Emoji" font-size="20px" fill="#2f9e44" text-anchor="start" style="white-space: pre;" direction="ltr" dominant-baseline="alphabetic">visualization</text></g><g transform="translate(686.0636878555426 98.98939369784435) rotate(0 70.06666564941406 12.5)"><text x="0" y="17.52" font-family="Virgil, Segoe UI Emoji" font-size="20px" fill="#f08c00" text-anchor="start" style="white-space: pre;" direction="ltr" dominant-baseline="alphabetic">click detection</text></g><g transform="translate(678.8759188163597 202.79168514057412) rotate(0 79.20833587646484 12.5)"><text x="0" y="17.52" font-family="Virgil, Segoe UI Emoji" font-size="20px" fill="#f08c00" text-anchor="start" style="white-space: pre;" direction="ltr" dominant-baseline="alphabetic">state detection</text></g><g stroke-linecap="round"><g transform="translate(316.0989317754952 135.35539206746589) rotate(0 51.98156956920934 39.42966888508971)"><path d="M0.95 0.71 C18.66 13.63, 88.01 65.61, 105.11 78.44 M-0.01 0.04 C17.74 13.05, 87.67 66.7, 104.76 79.76" stroke="#1e1e1e" stroke-width="1" fill="none"></path></g><g transform="translate(316.0989317754952 135.35539206746589) rotate(0 51.98156956920934 39.42966888508971)"><path d="M80.91 72.27 C87.01 75.52, 89.96 74.45, 104.76 79.76 M80.91 72.27 C85.23 73.6, 89.82 75.16, 104.76 79.76" stroke="#1e1e1e" stroke-width="1" fill="none"></path></g><g transform="translate(316.0989317754952 135.35539206746589) rotate(0 51.98156956920934 39.42966888508971)"><path d="M91.3 58.69 C95.39 64.78, 96.24 66.47, 104.76 79.76 M91.3 58.69 C93.41 62.78, 95.9 67.08, 104.76 79.76" stroke="#1e1e1e" stroke-width="1" fill="none"></path></g></g><mask></mask><g stroke-linecap="round"><g transform="translate(598.9970969774276 233.41383836061877) rotate(0 37.64907445885058 -7.32729234544496)"><path d="M0.58 0.37 C13.01 -2.19, 62.95 -12.12, 75.23 -14.68 M-0.57 -0.48 C11.64 -2.89, 61.38 -10.92, 74.25 -13.15" stroke="#1e1e1e" stroke-width="1" fill="none"></path></g><g transform="translate(598.9970969774276 233.41383836061877) rotate(0 37.64907445885058 -7.32729234544496)"><path d="M52.49 -0.84 C60.76 -5.43, 67.83 -11.37, 74.25 -13.15 M52.49 -0.84 C57.78 -4.35, 64.51 -7.81, 74.25 -13.15" stroke="#1e1e1e" stroke-width="1" fill="none"></path></g><g transform="translate(598.9970969774276 233.41383836061877) rotate(0 37.64907445885058 -7.32729234544496)"><path d="M49.67 -17.71 C59.03 -16.33, 67.1 -16.27, 74.25 -13.15 M49.67 -17.71 C55.58 -16.62, 63.07 -15.51, 74.25 -13.15" stroke="#1e1e1e" stroke-width="1" fill="none"></path></g></g><mask></mask><g transform="translate(407.6485423824563 103.94329488571233) rotate(0 98.5999984741211 12.5)"><text x="0" y="17.52" font-family="Virgil, Segoe UI Emoji" font-size="20px" fill="#e03131" text-anchor="start" style="white-space: pre;" direction="ltr" dominant-baseline="alphabetic">state2click (TODO)</text></g><g stroke-linecap="round"><g transform="translate(504.8762000465324 207.99480501358337) rotate(0 -1.026723324713771 -33.80257910888392)"><path d="M-1.16 0.9 C-1.38 -10.15, -0.7 -55.37, -1.01 -66.85 M0.44 0.33 C0.12 -11.02, -1.23 -57.38, -1.41 -68.58" stroke="#6741d9" stroke-width="1" fill="none"></path></g><g transform="translate(504.8762000465324 207.99480501358337) rotate(0 -1.026723324713771 -33.80257910888392)"><path d="M7.69 -45.29 C6.32 -51.26, 3.09 -62.2, -1.41 -68.58 M7.69 -45.29 C4.8 -51.03, 3.25 -58.6, -1.41 -68.58" stroke="#6741d9" stroke-width="1" fill="none"></path></g><g transform="translate(504.8762000465324 207.99480501358337) rotate(0 -1.026723324713771 -33.80257910888392)"><path d="M-9.4 -44.89 C-5.18 -50.82, -2.81 -61.9, -1.41 -68.58 M-9.4 -44.89 C-7.69 -50.9, -4.62 -58.58, -1.41 -68.58" stroke="#6741d9" stroke-width="1" fill="none"></path></g></g><mask></mask><g stroke-linecap="round"><g transform="translate(614.9246111185528 114.90656021666129) rotate(0 32.56953836849493 -0.35435715070849483)"><path d="M-0.42 0.31 C10.75 0.11, 55.18 -0.06, 65.94 -0.19 M1.56 -0.57 C12.73 -0.61, 54.59 -2.3, 65.41 -2.04" stroke="#1e1e1e" stroke-width="1" fill="none"></path></g><g transform="translate(614.9246111185528 114.90656021666129) rotate(0 32.56953836849493 -0.35435715070849483)"><path d="M42.02 6.79 C47.38 6.34, 52.65 1.42, 65.41 -2.04 M42.02 6.79 C49.76 3.13, 56.12 0.34, 65.41 -2.04" stroke="#1e1e1e" stroke-width="1" fill="none"></path></g><g transform="translate(614.9246111185528 114.90656021666129) rotate(0 32.56953836849493 -0.35435715070849483)"><path d="M41.82 -10.31 C47.37 -7.16, 52.68 -8.48, 65.41 -2.04 M41.82 -10.31 C49.49 -8.47, 55.92 -5.78, 65.41 -2.04" stroke="#1e1e1e" stroke-width="1" fill="none"></path></g></g><mask></mask><g stroke-linecap="round"><g transform="translate(834.6436721208916 103.997769985855) rotate(0 54.6380081685428 -8.523196231490004)"><path d="M0.46 1 C11.14 -1.9, 45.35 -14.98, 63.65 -16.39 C81.95 -17.8, 102.67 -9.03, 110.24 -7.48 M-0.76 0.49 C9.87 -2.24, 44.63 -17.07, 63.09 -18.17 C81.54 -19.27, 102.3 -7.57, 109.99 -6.11" stroke="#1e1e1e" stroke-width="1" fill="none"></path></g><g transform="translate(834.6436721208916 103.997769985855) rotate(0 54.6380081685428 -8.523196231490004)"><path d="M86.33 -5.7 C94.22 -4.69, 99.86 -4.4, 109.99 -6.11 M86.33 -5.7 C93.37 -5.93, 100.53 -5.55, 109.99 -6.11" stroke="#1e1e1e" stroke-width="1" fill="none"></path></g><g transform="translate(834.6436721208916 103.997769985855) rotate(0 54.6380081685428 -8.523196231490004)"><path d="M91.61 -21 C98.24 -15.95, 102.49 -11.63, 109.99 -6.11 M91.61 -21 C96.99 -16.49, 102.53 -11.4, 109.99 -6.11" stroke="#1e1e1e" stroke-width="1" fill="none"></path></g></g><mask></mask><g stroke-linecap="round"><g transform="translate(843.9666242222784 200.06535309085243) rotate(0 50.66506197485921 -35.23732734504546)"><path d="M-0.4 -0.59 C16.23 -12.36, 83.85 -59.35, 100.96 -70.89 M1.6 1.71 C17.93 -9.86, 83.09 -57.32, 99.82 -69.57" stroke="#1e1e1e" stroke-width="1" fill="none"></path></g><g transform="translate(843.9666242222784 200.06535309085243) rotate(0 50.66506197485921 -35.23732734504546)"><path d="M85.89 -48.82 C90.51 -57.66, 96.36 -63.73, 99.82 -69.57 M85.89 -48.82 C91.53 -55.44, 96.72 -64.41, 99.82 -69.57" stroke="#1e1e1e" stroke-width="1" fill="none"></path></g><g transform="translate(843.9666242222784 200.06535309085243) rotate(0 50.66506197485921 -35.23732734504546)"><path d="M75.81 -62.63 C84.42 -65.93, 94.28 -66.49, 99.82 -69.57 M75.81 -62.63 C85.01 -64.26, 93.79 -68.32, 99.82 -69.57" stroke="#1e1e1e" stroke-width="1" fill="none"></path></g></g><mask></mask><g stroke-linecap="round"><g transform="translate(846.9443783786758 220.20388238437815) rotate(0 42.68231101489937 4.995408872538604)"><path d="M-0.16 -0.5 C14.05 0.93, 71.09 7.26, 85.36 9.17 M-1.71 -1.81 C12.34 -0.29, 70.01 8.45, 84.41 10.28" stroke="#1e1e1e" stroke-width="1" fill="none"></path></g><g transform="translate(846.9443783786758 220.20388238437815) rotate(0 42.68231101489937 4.995408872538604)"><path d="M59.96 15.48 C66.62 13.91, 73.63 12.45, 84.41 10.28 M59.96 15.48 C69.27 14.14, 79.07 10.79, 84.41 10.28" stroke="#1e1e1e" stroke-width="1" fill="none"></path></g><g transform="translate(846.9443783786758 220.20388238437815) rotate(0 42.68231101489937 4.995408872538604)"><path d="M62.34 -1.45 C68.35 2.18, 74.62 5.94, 84.41 10.28 M62.34 -1.45 C70.61 3.67, 79.5 6.81, 84.41 10.28" stroke="#1e1e1e" stroke-width="1" fill="none"></path></g></g><mask></mask><g stroke-linecap="round" transform="translate(133.15881800808233 10) rotate(0 94.60677789094802 17.499999999999986)"><path d="M2.33 2.02 C2.33 2.02, 2.33 2.02, 2.33 2.02 M2.33 2.02 C2.33 2.02, 2.33 2.02, 2.33 2.02 M0.1 10.69 C3.28 7.78, 7.06 3.78, 9.28 0.12 M0.1 10.69 C4.01 6.66, 6.84 2.98, 9.28 0.12 M0.49 16.33 C2.78 11.71, 8.66 8.26, 14.27 0.48 M0.49 16.33 C5.75 12.16, 8.55 6.14, 14.27 0.48 M0.89 21.97 C9.42 13.55, 13.1 6.25, 19.91 0.09 M0.89 21.97 C4.97 15.54, 10.4 10.5, 19.91 0.09 M0.63 28.37 C8.56 16.25, 18.22 8.47, 24.9 0.45 M0.63 28.37 C9.5 16.26, 20.46 6.52, 24.9 0.45 M2.99 31.75 C13.97 21.95, 24.56 10.08, 30.54 0.05 M2.99 31.75 C11.21 21.75, 20.9 10.89, 30.54 0.05 M5.35 35.13 C11.56 26.48, 21.27 19.8, 35.53 0.41 M5.35 35.13 C12.27 28.03, 19.87 19.19, 35.53 0.41 M11 34.73 C20.89 25.56, 29.42 14.43, 40.52 0.77 M11 34.73 C19.78 24.92, 28.23 14.76, 40.52 0.77 M15.98 35.09 C28.5 22, 42.1 6.35, 46.16 0.38 M15.98 35.09 C26.6 22.54, 37.81 9.46, 46.16 0.38 M21.63 34.7 C34.11 21.69, 41.21 11.98, 51.15 0.74 M21.63 34.7 C31.13 24.22, 41.88 12.44, 51.15 0.74 M26.61 35.06 C35.87 24.55, 46.07 13.09, 56.79 0.34 M26.61 35.06 C37.88 21.76, 48.42 9.2, 56.79 0.34 M32.26 34.66 C42.4 26.43, 49.16 17.36, 61.78 0.7 M32.26 34.66 C37.95 28.54, 43.93 21.31, 61.78 0.7 M37.24 35.02 C49.27 22.3, 61.29 7.66, 67.42 0.31 M37.24 35.02 C44.86 27.4, 51.3 18.34, 67.42 0.31 M42.23 35.38 C46.94 29.5, 53.72 22.32, 72.41 0.67 M42.23 35.38 C51.78 24.35, 59.03 16.03, 72.41 0.67 M47.87 34.99 C56.68 22.85, 67.69 13.31, 78.05 0.27 M47.87 34.99 C57.88 22.31, 68.11 11.66, 78.05 0.27 M52.86 35.35 C63.68 24.57, 69.43 15.41, 83.04 0.63 M52.86 35.35 C65.53 21.85, 77.27 7.57, 83.04 0.63 M58.5 34.96 C69.92 25.17, 78.82 12.27, 88.68 0.24 M58.5 34.96 C66.2 25.36, 75.66 15.31, 88.68 0.24 M63.49 35.32 C70.2 26.94, 80.48 16.55, 93.67 0.6 M63.49 35.32 C73.37 25.41, 82.72 14.25, 93.67 0.6 M69.13 34.92 C80.45 23.06, 93.18 9.3, 98.66 0.96 M69.13 34.92 C77.91 24.48, 85.89 15.42, 98.66 0.96 M74.12 35.28 C85.79 23.34, 98.3 8.94, 104.3 0.56 M74.12 35.28 C82.46 25.95, 90.79 14.76, 104.3 0.56 M79.76 34.89 C89.62 25.82, 97.53 15.07, 109.29 0.92 M79.76 34.89 C91.21 23.01, 101.66 9.46, 109.29 0.92 M84.75 35.25 C90.81 30.09, 98.89 21.53, 114.93 0.53 M84.75 35.25 C93.47 24.82, 104.67 12.74, 114.93 0.53 M90.39 34.85 C101.8 24.26, 108.49 13.37, 119.92 0.89 M90.39 34.85 C102.16 22.52, 111.68 10.14, 119.92 0.89 M95.38 35.21 C108.28 23.87, 116.76 10.45, 125.56 0.5 M95.38 35.21 C104.68 25.53, 113.56 14.51, 125.56 0.5 M100.37 35.57 C110.41 22.84, 121.9 8.27, 130.55 0.86 M100.37 35.57 C110.08 23.18, 120.58 13.04, 130.55 0.86 M106.01 35.18 C118.21 23.27, 126.8 11.79, 136.19 0.46 M106.01 35.18 C112.04 27.53, 118.7 18.93, 136.19 0.46 M111 35.54 C118 29.3, 123.63 19.36, 141.18 0.82 M111 35.54 C121.9 22.69, 132.32 11.6, 141.18 0.82 M116.64 35.14 C121.18 29.04, 130.19 19.43, 146.82 0.43 M116.64 35.14 C122.45 27.09, 128.72 19.29, 146.82 0.43 M121.63 35.5 C129.68 25.52, 136.48 19.18, 151.81 0.79 M121.63 35.5 C128.91 25.98, 138.25 16.22, 151.81 0.79 M127.27 35.11 C133.56 28.58, 141.44 19.56, 156.79 1.15 M127.27 35.11 C136.92 24.03, 146.45 12.18, 156.79 1.15 M132.26 35.47 C144.12 22.36, 152.14 11.85, 162.44 0.75 M132.26 35.47 C139.12 29.03, 144.65 21.2, 162.44 0.75 M137.9 35.07 C147.76 22.88, 161.01 10.94, 167.42 1.11 M137.9 35.07 C145.31 25.26, 154.6 16, 167.42 1.11 M142.89 35.43 C149.11 26.44, 161.04 16.61, 173.07 0.72 M142.89 35.43 C149.46 27.25, 157.09 19.87, 173.07 0.72 M148.53 35.04 C157.25 23.74, 165.88 13.57, 178.05 1.08 M148.53 35.04 C159.79 23.7, 169.86 10.8, 178.05 1.08 M153.52 35.4 C162.36 23.19, 173.22 11.12, 183.7 0.68 M153.52 35.4 C161.89 24.88, 170.5 14.86, 183.7 0.68 M158.5 35.76 C163.57 28.32, 170.28 21.03, 186.72 3.31 M158.5 35.76 C167.49 25.95, 176.27 16.57, 186.72 3.31 M164.15 35.37 C170.83 29.05, 176.33 22.68, 189.08 6.69 M164.15 35.37 C170.43 26.71, 178.75 18.68, 189.08 6.69 M169.14 35.73 C176.63 28.38, 182.31 20.4, 188.82 13.08 M169.14 35.73 C174.81 29.94, 178.59 25.45, 188.82 13.08 M174.78 35.33 C179.69 29.81, 182.74 26.6, 189.21 18.73 M174.78 35.33 C179.48 29.41, 184.69 22.13, 189.21 18.73 M179.77 35.69 C181.48 32.36, 182.71 31.34, 188.95 25.13 M179.77 35.69 C183.16 32.41, 185.81 29.12, 188.95 25.13" stroke="#a5d8ff" stroke-width="0.5" fill="none"></path><path d="M8.75 0 C68.66 -0.68, 130.26 -0.17, 180.46 0 M8.75 0 C51.38 -1.1, 93.3 -0.39, 180.46 0 M180.46 0 C187.66 -0.23, 190.24 1.43, 189.21 8.75 M180.46 0 C187.69 1.92, 187.28 3.92, 189.21 8.75 M189.21 8.75 C188.1 15.2, 188.57 21.59, 189.21 26.25 M189.21 8.75 C188.79 14.82, 189.01 19.2, 189.21 26.25 M189.21 26.25 C191.07 32.06, 184.54 33.38, 180.46 35 M189.21 26.25 C189.57 32.52, 184.43 35.52, 180.46 35 M180.46 35 C120.96 32.87, 59.8 32.14, 8.75 35 M180.46 35 C122.47 35.83, 63.77 36.52, 8.75 35 M8.75 35 C3.05 36.66, 0.19 33.97, 0 26.25 M8.75 35 C4.9 33.3, 0.56 33.64, 0 26.25 M0 26.25 C0.48 18.55, -1.66 13.36, 0 8.75 M0 26.25 C-0.71 19.72, 0.12 13.64, 0 8.75 M0 8.75 C-0.64 2.61, 2.51 1.11, 8.75 0 M0 8.75 C-2.03 1.6, 2.88 -1.69, 8.75 0" stroke="#1e1e1e" stroke-width="1" fill="none"></path></g><g transform="translate(201.3822626928536 15) rotate(0 26.383333206176758 12.499999999999986)"><text x="26.383333206176758" y="17.52" font-family="Virgil, Segoe UI Emoji" font-size="20px" fill="#1e1e1e" text-anchor="middle" style="white-space: pre;" direction="ltr" dominant-baseline="alphabetic">Input</text></g><g stroke-linecap="round" transform="translate(912.0126056925553 10) rotate(0 92.61505625113841 17.499999999999986)"><path d="M2.33 2.02 C2.33 2.02, 2.33 2.02, 2.33 2.02 M2.33 2.02 C2.33 2.02, 2.33 2.02, 2.33 2.02 M0.1 10.69 C2.49 8.6, 4.76 3.73, 9.28 0.12 M0.1 10.69 C3.18 7.93, 5.58 4.6, 9.28 0.12 M0.49 16.33 C7.32 11.68, 11.8 3.49, 14.27 0.48 M0.49 16.33 C3.25 14.06, 7.02 10.09, 14.27 0.48 M0.89 21.97 C5.03 16.29, 14 7.57, 19.91 0.09 M0.89 21.97 C8.02 15.03, 12.77 7.97, 19.91 0.09 M0.63 28.37 C11.33 18.44, 17.73 8.23, 24.9 0.45 M0.63 28.37 C10.44 18.74, 18.07 8.13, 24.9 0.45 M2.99 31.75 C12.24 23.02, 20.6 11.77, 30.54 0.05 M2.99 31.75 C12.58 19.99, 23.02 7.3, 30.54 0.05 M5.35 35.13 C14.65 21.95, 25.47 13.37, 35.53 0.41 M5.35 35.13 C16.86 22.95, 26.51 11.05, 35.53 0.41 M11 34.73 C16.3 27.74, 22.66 18.56, 40.52 0.77 M11 34.73 C17.72 27.84, 23.84 19.06, 40.52 0.77 M15.98 35.09 C27.44 21.46, 37.75 11.38, 46.16 0.38 M15.98 35.09 C21.47 28.02, 29.35 19.33, 46.16 0.38 M21.63 34.7 C26.89 26.19, 32.8 18.2, 51.15 0.74 M21.63 34.7 C28.95 25.82, 35.78 18.71, 51.15 0.74 M26.61 35.06 C33 25.36, 43.43 15.32, 56.79 0.34 M26.61 35.06 C33.09 27.86, 40.42 19.45, 56.79 0.34 M32.26 34.66 C41.36 24.1, 50.51 11.79, 61.78 0.7 M32.26 34.66 C43.07 22.42, 52.01 11.5, 61.78 0.7 M37.24 35.02 C44.55 29.39, 49.53 20.72, 67.42 0.31 M37.24 35.02 C47.87 22.22, 60.28 9.59, 67.42 0.31 M42.23 35.38 C48.98 25.06, 59.36 15.96, 72.41 0.67 M42.23 35.38 C49.41 26.21, 59.4 16.66, 72.41 0.67 M47.87 34.99 C54.09 26.86, 62.27 20.23, 78.05 0.27 M47.87 34.99 C56.97 23.68, 66.09 13.07, 78.05 0.27 M52.86 35.35 C65.07 24.63, 74.59 11.04, 83.04 0.63 M52.86 35.35 C62.22 23.44, 72.6 11.71, 83.04 0.63 M58.5 34.96 C66.53 24.02, 75.09 13.95, 88.68 0.24 M58.5 34.96 C64.69 26.96, 71.83 18.96, 88.68 0.24 M63.49 35.32 C73.11 24.99, 82.59 15.52, 93.67 0.6 M63.49 35.32 C70.82 27.54, 77.56 19.75, 93.67 0.6 M69.13 34.92 C76.01 24.3, 86.84 14.93, 98.66 0.96 M69.13 34.92 C79.49 23.55, 89.06 11.81, 98.66 0.96 M74.12 35.28 C83.21 26.29, 88.58 19.83, 104.3 0.56 M74.12 35.28 C82.06 25.76, 89.31 17.56, 104.3 0.56 M79.76 34.89 C89.42 22.77, 100.08 7.93, 109.29 0.92 M79.76 34.89 C86.15 27.06, 91.95 20.67, 109.29 0.92 M84.75 35.25 C95.68 24.48, 104.43 13.72, 114.93 0.53 M84.75 35.25 C93.82 25.38, 101.43 16.28, 114.93 0.53 M90.39 34.85 C99.38 24.6, 107.03 13.63, 119.92 0.89 M90.39 34.85 C97.06 26.97, 103.09 20.18, 119.92 0.89 M95.38 35.21 C101.58 24.56, 109 17.49, 125.56 0.5 M95.38 35.21 C105.66 22.69, 116.82 9.53, 125.56 0.5 M100.37 35.57 C107.49 26.68, 113.4 22.07, 130.55 0.86 M100.37 35.57 C110.24 25.36, 120.9 13.19, 130.55 0.86 M106.01 35.18 C114.28 26.04, 123.93 15.58, 136.19 0.46 M106.01 35.18 C116.84 23.06, 129.72 9.43, 136.19 0.46 M111 35.54 C121.16 26.71, 130.73 16.04, 141.18 0.82 M111 35.54 C119.44 27.59, 126.58 17.8, 141.18 0.82 M116.64 35.14 C127.21 22.53, 137.26 13.08, 146.82 0.43 M116.64 35.14 C126.33 22.67, 137.7 12.35, 146.82 0.43 M121.63 35.5 C133.73 21.04, 145.32 9.9, 151.81 0.79 M121.63 35.5 C133.39 22.89, 144.48 9.1, 151.81 0.79 M127.27 35.11 C135.75 26.55, 141.16 16.68, 156.79 1.15 M127.27 35.11 C135.37 26.26, 144.04 15.9, 156.79 1.15 M132.26 35.47 C139.21 27.73, 144.32 19.44, 162.44 0.75 M132.26 35.47 C143.63 21.68, 155.13 8.77, 162.44 0.75 M137.9 35.07 C144.76 29.15, 150.27 20.65, 167.42 1.11 M137.9 35.07 C145.4 27.64, 152.46 18.5, 167.42 1.11 M142.89 35.43 C149.86 25.94, 155.62 20.33, 173.07 0.72 M142.89 35.43 C154.08 22.82, 165.14 9.52, 173.07 0.72 M148.53 35.04 C156.64 28.13, 162.46 17.25, 178.05 1.08 M148.53 35.04 C158.9 22.09, 170.59 10.4, 178.05 1.08 M153.52 35.4 C160.34 28.47, 167.43 18.65, 182.38 2.19 M153.52 35.4 C160.66 25.69, 168.35 18.32, 182.38 2.19 M158.5 35.76 C167.64 26.41, 176.92 12.51, 184.75 5.57 M158.5 35.76 C166.92 26.6, 173.8 17.27, 184.75 5.57 M164.15 35.37 C172.35 26.45, 179.63 17.47, 185.14 11.21 M164.15 35.37 C171.34 27.78, 178.64 18.78, 185.14 11.21 M169.14 35.73 C174.96 33.36, 175.74 26.44, 184.88 17.61 M169.14 35.73 C176.27 27.64, 180.96 21.2, 184.88 17.61 M174.78 35.33 C178.74 30.49, 181.87 28.57, 185.28 23.26 M174.78 35.33 C177.23 31.66, 179.87 28.7, 185.28 23.26 M180.42 34.94 C182.18 33.36, 182.89 32.01, 185.01 29.65 M180.42 34.94 C181.55 33.9, 182.09 32.5, 185.01 29.65" stroke="#b2f2bb" stroke-width="0.5" fill="none"></path><path d="M8.75 0 C56.68 -0.75, 102.67 -2.63, 176.48 0 M8.75 0 C55.88 -1.17, 103.79 -0.71, 176.48 0 M176.48 0 C180.43 -1.68, 186.59 1.48, 185.23 8.75 M176.48 0 C184.29 -0.19, 184.43 2.46, 185.23 8.75 M185.23 8.75 C186.56 15.54, 183.99 20.99, 185.23 26.25 M185.23 8.75 C185.53 13.29, 185.29 17, 185.23 26.25 M185.23 26.25 C184.66 30.46, 181.52 35.89, 176.48 35 M185.23 26.25 C185.37 34.32, 180.73 37.2, 176.48 35 M176.48 35 C131.02 34.36, 80.74 36.93, 8.75 35 M176.48 35 C125.91 34.01, 74.16 34.98, 8.75 35 M8.75 35 C3.86 36.19, -0.95 31.79, 0 26.25 M8.75 35 C3.38 34.9, -1.95 32.76, 0 26.25 M0 26.25 C0.74 21.73, -1.01 16.54, 0 8.75 M0 26.25 C0.87 19.26, 0.56 14.48, 0 8.75 M0 8.75 C0.75 4.45, 4.56 0.33, 8.75 0 M0 8.75 C-0.53 3.03, 4.12 1.78, 8.75 0" stroke="#1e1e1e" stroke-width="1" fill="none"></path></g><g transform="translate(926.4943306448656 15) rotate(0 78.13333129882812 12.499999999999986)"><text x="78.13333129882812" y="17.52" font-family="Virgil, Segoe UI Emoji" font-size="20px" fill="#1e1e1e" text-anchor="middle" style="white-space: pre;" direction="ltr" dominant-baseline="alphabetic">Analysis/Output</text></g><g stroke-linecap="round" transform="translate(412.30567017889916 10.000000000000057) rotate(0 93.94287067767812 17.500000000000014)"><path d="M2.33 2.02 C2.33 2.02, 2.33 2.02, 2.33 2.02 M2.33 2.02 C2.33 2.02, 2.33 2.02, 2.33 2.02 M0.1 10.69 C2.51 8.43, 5.11 5.35, 9.28 0.12 M0.1 10.69 C3.25 7.59, 5.46 4.43, 9.28 0.12 M0.49 16.33 C3.01 10.39, 8.14 7.83, 14.27 0.48 M0.49 16.33 C5.54 11.4, 10.18 5.72, 14.27 0.48 M0.89 21.97 C9.81 13.81, 16.61 4.4, 19.91 0.09 M0.89 21.97 C7.24 13.7, 13.58 7.86, 19.91 0.09 M0.63 28.37 C7.38 19.16, 15.34 11.95, 24.9 0.45 M0.63 28.37 C6.54 21.63, 10.88 17.15, 24.9 0.45 M2.99 31.75 C11.98 19.54, 25.01 6.81, 30.54 0.05 M2.99 31.75 C14.27 18.76, 23.52 6.94, 30.54 0.05 M5.35 35.13 C14.14 24.34, 26.31 8.95, 35.53 0.41 M5.35 35.13 C12.75 26.04, 20.75 17.39, 35.53 0.41 M11 34.73 C18.84 28.07, 22.34 19.52, 40.52 0.77 M11 34.73 C20.51 23.89, 30.64 13.27, 40.52 0.77 M15.98 35.09 C28.03 20.95, 38.93 7.04, 46.16 0.38 M15.98 35.09 C22.98 26.61, 28.36 20.5, 46.16 0.38 M21.63 34.7 C31.92 24.3, 41.86 11.78, 51.15 0.74 M21.63 34.7 C27.92 27.19, 33.12 21.32, 51.15 0.74 M26.61 35.06 C35.94 22.81, 48.37 9.56, 56.79 0.34 M26.61 35.06 C33.35 26.59, 40.89 18.78, 56.79 0.34 M32.26 34.66 C38.95 27.39, 46.84 18.96, 61.78 0.7 M32.26 34.66 C39.52 26.24, 49.22 17.22, 61.78 0.7 M37.24 35.02 C46.41 24.63, 53.98 18.49, 67.42 0.31 M37.24 35.02 C45.03 25.88, 52.92 16.08, 67.42 0.31 M42.23 35.38 C52.98 21.01, 65.37 9.91, 72.41 0.67 M42.23 35.38 C51.63 24.88, 61.82 12.03, 72.41 0.67 M47.87 34.99 C57.51 24.75, 67.04 12.02, 78.05 0.27 M47.87 34.99 C58.93 21.62, 72.43 6.9, 78.05 0.27 M52.86 35.35 C62.08 24.24, 76.56 8.48, 83.04 0.63 M52.86 35.35 C59.56 27.25, 67.63 18.36, 83.04 0.63 M58.5 34.96 C68.11 23.19, 79.93 11.51, 88.68 0.24 M58.5 34.96 C69.59 23.36, 80.56 10.52, 88.68 0.24 M63.49 35.32 C73.05 23.65, 85.14 8.3, 93.67 0.6 M63.49 35.32 C74.34 24.44, 85.43 10.74, 93.67 0.6 M69.13 34.92 C77.64 22.24, 87.8 13.44, 98.66 0.96 M69.13 34.92 C75.17 26.5, 83.64 18.76, 98.66 0.96 M74.12 35.28 C83.36 27.53, 90.65 18.3, 104.3 0.56 M74.12 35.28 C82.37 26.1, 90.63 16.64, 104.3 0.56 M79.76 34.89 C91.77 22.63, 101.06 11.57, 109.29 0.92 M79.76 34.89 C90.01 24.18, 98.2 14.25, 109.29 0.92 M84.75 35.25 C93.31 26.63, 99.95 15.63, 114.93 0.53 M84.75 35.25 C95.97 21.46, 108.36 7.79, 114.93 0.53 M90.39 34.85 C96.37 23.86, 104.1 17.56, 119.92 0.89 M90.39 34.85 C97.73 26.81, 105.35 16.39, 119.92 0.89 M95.38 35.21 C104.02 24.2, 112.98 15.3, 125.56 0.5 M95.38 35.21 C102.93 25.46, 110.68 17.84, 125.56 0.5 M100.37 35.57 C110.39 25.08, 119 16.22, 130.55 0.86 M100.37 35.57 C111.2 23.2, 121.24 12.58, 130.55 0.86 M106.01 35.18 C114.09 24.91, 125.61 14.41, 136.19 0.46 M106.01 35.18 C113.59 27.43, 119.97 19.47, 136.19 0.46 M111 35.54 C121.21 24.61, 132.26 9.36, 141.18 0.82 M111 35.54 C123.22 21.14, 135.09 7.9, 141.18 0.82 M116.64 35.14 C124.98 24.14, 134.89 15.31, 146.82 0.43 M116.64 35.14 C124.61 27.1, 130.49 18.11, 146.82 0.43 M121.63 35.5 C132.21 25.69, 143.22 10.74, 151.81 0.79 M121.63 35.5 C130.1 26.49, 137.8 17.38, 151.81 0.79 M127.27 35.11 C134.07 22.96, 143.99 14.83, 156.79 1.15 M127.27 35.11 C133.54 27.94, 140.85 21.5, 156.79 1.15 M132.26 35.47 C140.1 25.63, 150.78 13, 162.44 0.75 M132.26 35.47 C143.17 24.07, 152.78 10.81, 162.44 0.75 M137.9 35.07 C144.94 27.81, 153.29 16.99, 167.42 1.11 M137.9 35.07 C146.02 26.38, 153.83 17.4, 167.42 1.11 M142.89 35.43 C153.73 23.12, 166.38 5.76, 173.07 0.72 M142.89 35.43 C151.9 26.79, 159.13 16.31, 173.07 0.72 M148.53 35.04 C155.95 26.79, 163.64 16.89, 178.05 1.08 M148.53 35.04 C157.76 23.3, 167.48 13.8, 178.05 1.08 M153.52 35.4 C163.48 21.53, 175.26 12.74, 183.7 0.68 M153.52 35.4 C160.98 26.52, 166.84 18.51, 183.7 0.68 M158.5 35.76 C167.39 28.32, 171.95 16.72, 186.06 4.06 M158.5 35.76 C164.5 28.26, 171.25 20.12, 186.06 4.06 M164.15 35.37 C168.74 29.77, 178.33 18.96, 187.77 8.2 M164.15 35.37 C172.29 25.62, 182.19 13.97, 187.77 8.2 M169.14 35.73 C173.57 29.93, 177.28 27.58, 187.5 14.59 M169.14 35.73 C175.25 28.51, 179.74 22.08, 187.5 14.59 M174.78 35.33 C178.44 31.79, 183.7 26.62, 187.9 20.24 M174.78 35.33 C179.6 31.1, 183.31 25.97, 187.9 20.24 M179.77 35.69 C181.85 32.37, 183.25 31.02, 187.64 26.63 M179.77 35.69 C183.28 32.61, 186.18 28.4, 187.64 26.63" stroke="#ffc9c9" stroke-width="0.5" fill="none"></path><path d="M8.75 0 C54.15 -0.41, 100.22 -0.48, 179.14 0 M8.75 0 C52.23 -0.15, 96.48 -1.17, 179.14 0 M179.14 0 C185.61 -1.69, 187.1 2.89, 187.89 8.75 M179.14 0 C187.21 -0.57, 187 3.02, 187.89 8.75 M187.89 8.75 C186.59 15.95, 186.66 20.14, 187.89 26.25 M187.89 8.75 C188 12.54, 187.67 18.31, 187.89 26.25 M187.89 26.25 C189.69 32.02, 183.23 36.15, 179.14 35 M187.89 26.25 C187.5 33.2, 185.77 36.76, 179.14 35 M179.14 35 C122.39 33.45, 68.11 33.27, 8.75 35 M179.14 35 C133.88 32.96, 90.18 33.1, 8.75 35 M8.75 35 C2.21 36.08, -0.33 31.4, 0 26.25 M8.75 35 C2.76 33.35, -0.69 31.35, 0 26.25 M0 26.25 C-1.5 19.59, 1.85 17.52, 0 8.75 M0 26.25 C0.61 21.91, 0.42 18.34, 0 8.75 M0 8.75 C1.92 4.67, 1.86 1.05, 8.75 0 M0 8.75 C-1.98 2.78, 3.81 0.83, 8.75 0" stroke="#1e1e1e" stroke-width="1" fill="none"></path></g><g transform="translate(456.58187291834474 15.000000000000057) rotate(0 49.66666793823242 12.500000000000014)"><text x="49.66666793823242" y="17.52" font-family="Virgil, Segoe UI Emoji" font-size="20px" fill="#1e1e1e" text-anchor="middle" style="white-space: pre;" direction="ltr" dominant-baseline="alphabetic">Processing</text></g><g stroke-linecap="round" transform="translate(663.847250860453 10.000000000000057) rotate(0 92.28310264450374 17.500000000000014)"><path d="M2.33 2.02 C2.33 2.02, 2.33 2.02, 2.33 2.02 M2.33 2.02 C2.33 2.02, 2.33 2.02, 2.33 2.02 M0.1 10.69 C2.32 9.55, 5.4 5.98, 9.28 0.12 M0.1 10.69 C3.02 7.74, 4.96 4.92, 9.28 0.12 M0.49 16.33 C5.54 10.79, 6.77 7.55, 14.27 0.48 M0.49 16.33 C6.26 10.77, 10.25 4.5, 14.27 0.48 M0.89 21.97 C6.92 15.56, 12.56 12.38, 19.91 0.09 M0.89 21.97 C9.03 13.38, 14.7 4.68, 19.91 0.09 M0.63 28.37 C8.91 19.91, 13.5 12.44, 24.9 0.45 M0.63 28.37 C9.19 18.62, 17.05 9.57, 24.9 0.45 M2.99 31.75 C8.93 23.01, 19.35 14.88, 30.54 0.05 M2.99 31.75 C11.96 20.95, 23.47 8.16, 30.54 0.05 M5.35 35.13 C14.02 22.47, 24.2 10.2, 35.53 0.41 M5.35 35.13 C16.31 22.22, 25.24 10.21, 35.53 0.41 M11 34.73 C22.42 21.65, 32.5 8.34, 40.52 0.77 M11 34.73 C21.42 24.84, 29.12 14.44, 40.52 0.77 M15.98 35.09 C29.66 21.28, 39.5 6.31, 46.16 0.38 M15.98 35.09 C27.19 21.76, 39.99 7.96, 46.16 0.38 M21.63 34.7 C28.69 23.43, 37.32 15.8, 51.15 0.74 M21.63 34.7 C33.05 22.54, 43.7 10.84, 51.15 0.74 M26.61 35.06 C38.53 22.67, 48.62 10.67, 56.79 0.34 M26.61 35.06 C33.78 25.46, 42.54 17.41, 56.79 0.34 M32.26 34.66 C43.65 24.21, 51.21 12.02, 61.78 0.7 M32.26 34.66 C43.17 22.5, 54.4 8.35, 61.78 0.7 M37.24 35.02 C45.84 23.91, 56.08 14.59, 67.42 0.31 M37.24 35.02 C48.51 23.16, 58.28 10.69, 67.42 0.31 M42.23 35.38 C49.18 26.16, 59.86 18.5, 72.41 0.67 M42.23 35.38 C49.19 27.28, 56.57 17.08, 72.41 0.67 M47.87 34.99 C55.62 26.55, 63.59 16.17, 78.05 0.27 M47.87 34.99 C55.36 26.25, 61.68 19.65, 78.05 0.27 M52.86 35.35 C59.32 26.85, 68.7 18.75, 83.04 0.63 M52.86 35.35 C59.55 27.08, 67.56 20.25, 83.04 0.63 M58.5 34.96 C69.43 21.61, 80.79 7.61, 88.68 0.24 M58.5 34.96 C65.48 27.26, 74.11 17.98, 88.68 0.24 M63.49 35.32 C70.87 25.22, 77.02 19.34, 93.67 0.6 M63.49 35.32 C75.1 21.02, 87.44 8.44, 93.67 0.6 M69.13 34.92 C75.42 26.68, 82.04 20.23, 98.66 0.96 M69.13 34.92 C80.78 22.64, 91.01 9.89, 98.66 0.96 M74.12 35.28 C81.97 28.08, 85.54 18.57, 104.3 0.56 M74.12 35.28 C83.48 22.36, 94.4 11.03, 104.3 0.56 M79.76 34.89 C91.76 21.02, 102.6 7.49, 109.29 0.92 M79.76 34.89 C87.54 23.87, 96.58 15.08, 109.29 0.92 M84.75 35.25 C96.24 21.3, 106.93 6.36, 114.93 0.53 M84.75 35.25 C94.09 24.08, 106.09 10.69, 114.93 0.53 M90.39 34.85 C97.19 23.78, 106.43 16.02, 119.92 0.89 M90.39 34.85 C101.7 22.95, 111.45 10.44, 119.92 0.89 M95.38 35.21 C104.77 20.53, 115.56 10.88, 125.56 0.5 M95.38 35.21 C105.97 21.05, 117.43 9.4, 125.56 0.5 M100.37 35.57 C110.56 23.59, 115.92 15.04, 130.55 0.86 M100.37 35.57 C108.16 25.78, 117.53 15.13, 130.55 0.86 M106.01 35.18 C115.52 20.99, 129.18 10.55, 136.19 0.46 M106.01 35.18 C113.23 25.45, 121.95 17.75, 136.19 0.46 M111 35.54 C119.92 27.65, 124.73 16.97, 141.18 0.82 M111 35.54 C120.75 23.71, 132.46 10.46, 141.18 0.82 M116.64 35.14 C121.26 26.36, 130.64 21.72, 146.82 0.43 M116.64 35.14 C129.09 22.33, 140.07 8.9, 146.82 0.43 M121.63 35.5 C128.64 29.14, 136.73 20.29, 151.81 0.79 M121.63 35.5 C128.99 26.69, 135.87 18.66, 151.81 0.79 M127.27 35.11 C136.11 24.11, 146.4 11.56, 156.79 1.15 M127.27 35.11 C136.12 23.75, 146.78 13.4, 156.79 1.15 M132.26 35.47 C138.82 25.05, 146.69 19.06, 162.44 0.75 M132.26 35.47 C138.67 27.88, 145.13 19.07, 162.44 0.75 M137.9 35.07 C145.63 27.39, 153.31 18.27, 167.42 1.11 M137.9 35.07 C144.74 26.47, 151.36 19.33, 167.42 1.11 M142.89 35.43 C153.95 20.77, 167.19 7.32, 173.07 0.72 M142.89 35.43 C153.2 22.15, 164.83 10.13, 173.07 0.72 M148.53 35.04 C160.06 23.47, 170.5 8.19, 178.05 1.08 M148.53 35.04 C156.24 26.54, 164.78 15.47, 178.05 1.08 M153.52 35.4 C162.38 23.45, 171.3 15.06, 181.73 2.95 M153.52 35.4 C161.75 24.87, 170.26 15.8, 181.73 2.95 M158.5 35.76 C163.06 26.86, 168.73 21.13, 184.75 5.57 M158.5 35.76 C168.07 23.87, 178.82 12.81, 184.75 5.57 M164.15 35.37 C170.69 27.49, 176.08 19.07, 184.49 11.97 M164.15 35.37 C169.68 28.2, 174.34 22.74, 184.49 11.97 M169.14 35.73 C174.26 29.08, 179.87 24.41, 184.88 17.61 M169.14 35.73 C174.33 31.22, 178.78 25.17, 184.88 17.61 M174.78 35.33 C178.63 31.27, 182.5 26.82, 184.62 24.01 M174.78 35.33 C177.13 32.7, 181.14 28.41, 184.62 24.01" stroke="#ffec99" stroke-width="0.5" fill="none"></path><path d="M8.75 0 C44.67 0.8, 78.43 1.4, 175.82 0 M8.75 0 C48.76 0.9, 90.6 1.01, 175.82 0 M175.82 0 C182.5 -1.82, 186.34 1.44, 184.57 8.75 M175.82 0 C180.52 -0.42, 186.67 2.72, 184.57 8.75 M184.57 8.75 C184.67 12.67, 185.14 17.28, 184.57 26.25 M184.57 8.75 C184.98 14.69, 184.34 20.13, 184.57 26.25 M184.57 26.25 C183.58 32.65, 183.35 35.26, 175.82 35 M184.57 26.25 C185.85 31.91, 180.31 35.66, 175.82 35 M175.82 35 C118.32 33.49, 62.34 33.37, 8.75 35 M175.82 35 C114.48 35.45, 51.07 36.83, 8.75 35 M8.75 35 C2.54 33.9, 1.99 33.63, 0 26.25 M8.75 35 C2.44 35.99, -1.36 32.66, 0 26.25 M0 26.25 C1.52 20.19, -0.45 15.76, 0 8.75 M0 26.25 C0.26 21.02, 0.15 14.06, 0 8.75 M0 8.75 C-1.87 3.5, 3.7 0.34, 8.75 0 M0 8.75 C0.9 4.83, 5.05 -2.14, 8.75 0" stroke="#1e1e1e" stroke-width="1" fill="none"></path></g><g transform="translate(723.7053542678962 15.000000000000057) rotate(0 32.42499923706055 12.500000000000014)"><text x="32.42499923706055" y="17.52" font-family="Virgil, Segoe UI Emoji" font-size="20px" fill="#1e1e1e" text-anchor="middle" style="white-space: pre;" direction="ltr" dominant-baseline="alphabetic">Models</text></g><g transform="translate(173.43740554658325 177.85208842993111) rotate(0 54.81666564941406 12.5)"><text x="0" y="17.52" font-family="Virgil, Segoe UI Emoji" font-size="20px" fill="#1971c2" text-anchor="start" style="white-space: pre;" direction="ltr" dominant-baseline="alphabetic">serial input</text></g><g transform="translate(150.3707398971692 211.1997277557048) rotate(0 77.88333129882812 12.5)"><text x="0" y="17.52" font-family="Virgil, Segoe UI Emoji" font-size="20px" fill="#1971c2" text-anchor="start" style="white-space: pre;" direction="ltr" dominant-baseline="alphabetic">bluetooth serial</text></g><g transform="translate(144.2707414230481 244.54736708147854) rotate(0 83.98332977294922 12.5)"><text x="0" y="17.52" font-family="Virgil, Segoe UI Emoji" font-size="20px" fill="#1971c2" text-anchor="start" style="white-space: pre;" direction="ltr" dominant-baseline="alphabetic">file from sd card</text></g><g stroke-linecap="round" transform="translate(129.04484420182075 173.67826876704422) rotate(0 99.20922699417656 50.02145898866053)"><path d="M25.01 0 C57.07 0.42, 91.92 0, 173.41 0 M173.41 0 C190.23 -1.17, 199.71 8.77, 198.42 25.01 M198.42 25.01 C198.81 37.34, 198.09 51.11, 198.42 75.03 M198.42 75.03 C197.56 90.7, 191.65 98.93, 173.41 100.04 M173.41 100.04 C137.42 101.22, 96.75 101.33, 25.01 100.04 M25.01 100.04 C9.1 100.49, -1.06 92.8, 0 75.03 M0 75.03 C1.08 63.19, 1.22 50.56, 0 25.01 M0 25.01 C-0.64 9.27, 8.24 -0.03, 25.01 0" stroke="#1971c2" stroke-width="1.5" fill="none" stroke-dasharray="1.5 7"></path></g><g stroke-linecap="round"><g transform="translate(341.3060701838792 230.14086868218462) rotate(0 36.904392617153235 3.2000437272675413)"><path d="M-0.82 0.31 C11.44 1.59, 61.23 5.37, 73.49 6.57 M0.94 -0.57 C13.04 1.03, 60.02 7.14, 72.37 8.19" stroke="#1e1e1e" stroke-width="1" fill="none"></path></g><g transform="translate(341.3060701838792 230.14086868218462) rotate(0 36.904392617153235 3.2000437272675413)"><path d="M48.08 14.11 C55.7 12.03, 62.5 9.02, 72.37 8.19 M48.08 14.11 C56.92 12.02, 68.07 8.66, 72.37 8.19" stroke="#1e1e1e" stroke-width="1" fill="none"></path></g><g transform="translate(341.3060701838792 230.14086868218462) rotate(0 36.904392617153235 3.2000437272675413)"><path d="M49.96 -2.89 C56.87 -0.06, 63.13 1.87, 72.37 8.19 M49.96 -2.89 C57.97 1.68, 68.39 4.98, 72.37 8.19" stroke="#1e1e1e" stroke-width="1" fill="none"></path></g></g><mask></mask><g transform="translate(10 211.19972775570474) rotate(0 43.983333587646484 12.5)"><text x="0" y="17.52" font-family="Virgil, Segoe UI Emoji" font-size="20px" fill="#868e96" text-anchor="start" style="white-space: pre;" direction="ltr" dominant-baseline="alphabetic">ble-serial</text></g><g stroke-linecap="round"><g transform="translate(106.13511560158531 224.7571096989271) rotate(0 18.37625029697017 0.33430650681773955)"><path d="M-0.09 -0.18 C6.02 -0.04, 30.02 0.63, 36.22 0.76 M-0.8 -0.74 C5.51 -0.78, 30.89 -0.48, 37.18 -0.16" stroke="#1e1e1e" stroke-width="1" fill="none"></path></g><g transform="translate(106.13511560158531 224.7571096989271) rotate(0 18.37625029697017 0.33430650681773955)"><path d="M19.74 5.64 C23.28 3.49, 27.56 3.7, 37.18 -0.16 M19.74 5.64 C25.05 3.98, 30.11 2.42, 37.18 -0.16" stroke="#1e1e1e" stroke-width="1" fill="none"></path></g><g transform="translate(106.13511560158531 224.7571096989271) rotate(0 18.37625029697017 0.33430650681773955)"><path d="M20.09 -6.93 C23.55 -6.31, 27.75 -3.35, 37.18 -0.16 M20.09 -6.93 C25.26 -4.97, 30.21 -2.9, 37.18 -0.16" stroke="#1e1e1e" stroke-width="1" fill="none"></path></g></g><mask></mask><g stroke-linecap="round" transform="translate(937.0503079653047 287.6225269520455) rotate(0 70.09620511476373 51.28990618153438)"><path d="M0 0 C33.66 -2.35, 68.71 -2.21, 140.19 0 M140.19 0 C140.44 29.76, 138.9 53.93, 140.19 102.58 M140.19 102.58 C103.72 101.26, 64.82 102.27, 0 102.58 M0 102.58 C1.13 83, -1.48 58.41, 0 0" stroke="#1e1e1e" stroke-width="1.5" fill="none" stroke-dasharray="8 9"></path></g><g stroke-linecap="round" transform="translate(953.6466825616183 331.7916542078334) rotate(0 5.557939887628891 6.113733876391791)"><path d="M7.5 1.75 C8.63 2.42, 8.46 4.06, 9.62 5.25 C10.99 5.06, 12.56 5.76, 9.62 8.75 C9.27 9.2, 8.19 9.75, 7.5 10.48 C3.58 11.99, 6.04 13.22, 4.5 10.48 C3.49 9.44, 1.91 9.5, 1.5 8.75 C0.43 7.71, -0.68 5.09, 1.5 5.25 C2.64 3.88, 3.55 3.61, 4.5 1.75 C6.5 1.63, 4.48 -0.76, 7.5 1.75" stroke="none" stroke-width="0" fill="#868e96"></path><path d="M7.5 1.75 C8.16 2.77, 8.51 3.69, 9.62 5.25 M9.62 5.25 C11.23 7.32, 11.49 6.32, 9.62 8.75 M9.62 8.75 C9.3 9.07, 8.59 9.38, 7.5 10.48 M7.5 10.48 C5.48 12.93, 6.36 11.41, 4.5 10.48 M4.5 10.48 C3.66 9.79, 2.52 9.42, 1.5 8.75 M1.5 8.75 C-0.79 6.84, 0.52 6.29, 1.5 5.25 M1.5 5.25 C2.26 4.56, 2.77 3.77, 4.5 1.75 M4.5 1.75 C6 -0.58, 6.02 0.84, 7.5 1.75" stroke="#868e96" stroke-width="1.5" fill="none" stroke-dasharray="8 9"></path></g><g stroke-linecap="round"><g transform="translate(953.0042651051035 369.6394998828122) rotate(0 6.046415184595958 -0.2778969943814218)"><path d="M0.13 -0.2 C2.09 -0.31, 9.78 -0.24, 11.7 -0.24 M-0.46 -0.78 C1.67 -1.09, 10.53 -0.99, 12.74 -1.05" stroke="#6741d9" stroke-width="2" fill="none"></path></g></g><mask></mask><g transform="translate(980.8203362297304 325.40538808422536) rotate(0 40.46666717529308 12.5)"><text x="0" y="17.52" font-family="Virgil, Segoe UI Emoji" font-size="20px" fill="#1e1e1e" text-anchor="start" style="white-space: pre;" direction="ltr" dominant-baseline="alphabetic">external</text></g><g transform="translate(980.8203362297304 356.5158546467902) rotate(0 34.72499847412121 12.5)"><text x="0" y="17.52" font-family="Virgil, Segoe UI Emoji" font-size="20px" fill="#1e1e1e" text-anchor="start" style="white-space: pre;" direction="ltr" dominant-baseline="alphabetic">planned</text></g><g transform="translate(953.1356566333523 296.30901162036946) rotate(0 32.29166793823242 12.5)"><text x="0" y="17.52" font-family="Virgil, Segoe UI Emoji" font-size="20px" fill="#1e1e1e" text-anchor="start" style="white-space: pre;" direction="ltr" dominant-baseline="alphabetic">Legend</text></g><g stroke-linecap="round"><g transform="translate(336.7985207237134 205.16239938888756) rotate(0 302.6104464710528 -44.695489672479965)"><path d="M-0.3 -0.86 C100.59 -15.71, 503.26 -74.43, 604.13 -89.05 M1.75 1.3 C103.09 -13.93, 505.89 -75.69, 606.26 -90.99" stroke="#1e1e1e" stroke-width="1" fill="none"></path></g><g transform="translate(336.7985207237134 205.16239938888756) rotate(0 302.6104464710528 -44.695489672479965)"><path d="M584.33 -78.99 C587.31 -83.18, 593.74 -84.28, 606.26 -90.99 M584.33 -78.99 C592.47 -84.43, 599.63 -88.71, 606.26 -90.99" stroke="#1e1e1e" stroke-width="1" fill="none"></path></g><g transform="translate(336.7985207237134 205.16239938888756) rotate(0 302.6104464710528 -44.695489672479965)"><path d="M581.75 -95.89 C585.26 -96.67, 592.2 -94.36, 606.26 -90.99 M581.75 -95.89 C590.72 -95.13, 598.82 -93.2, 606.26 -90.99" stroke="#1e1e1e" stroke-width="1" fill="none"></path></g></g><mask></mask><g transform="translate(410.20687673304224 313.3108301373801) rotate(0 96.04166412353516 12.5)"><text x="0" y="17.52" font-family="Virgil, Segoe UI Emoji" font-size="20px" fill="#e03131" text-anchor="start" style="white-space: pre;" direction="ltr" dominant-baseline="alphabetic">keylogger conversion</text></g><g stroke-linecap="round"><g transform="translate(305.04762642085893 327.8773675560965) rotate(0 48.91606042883927 -1.0146183999872846)"><path d="M-1.03 -0.53 C15.09 -0.84, 81.21 -2.12, 97.71 -2.22 M0.63 1.8 C16.49 1.71, 80.59 0.03, 96.7 -0.79" stroke="#1e1e1e" stroke-width="1" fill="none"></path></g><g transform="translate(305.04762642085893 327.8773675560965) rotate(0 48.91606042883927 -1.0146183999872846)"><path d="M73.54 8.61 C81.61 4.99, 91.12 1.82, 96.7 -0.79 M73.54 8.61 C82.13 6.26, 91.2 2.52, 96.7 -0.79" stroke="#1e1e1e" stroke-width="1" fill="none"></path></g><g transform="translate(305.04762642085893 327.8773675560965) rotate(0 48.91606042883927 -1.0146183999872846)"><path d="M72.92 -8.48 C81.18 -5.51, 90.93 -2.08, 96.7 -0.79 M72.92 -8.48 C81.57 -4.47, 90.87 -1.87, 96.7 -0.79" stroke="#1e1e1e" stroke-width="1" fill="none"></path></g></g><mask></mask><g stroke-linecap="round"><g transform="translate(503.27370401233725 305.49522538590816) rotate(0 0.28576031567661175 -24.783249527163264)"><path d="M0.37 0.02 C0.35 -8.25, 0.06 -41.09, 0.04 -49.39 M-0.1 -0.44 C0.02 -8.9, 1.03 -42.13, 1 -50.26" stroke="#1e1e1e" stroke-width="1" fill="none"></path></g><g transform="translate(503.27370401233725 305.49522538590816) rotate(0 0.28576031567661175 -24.783249527163264)"><path d="M9.1 -26.84 C6.36 -35.68, 3.9 -43.2, 1 -50.26 M9.1 -26.84 C7.02 -33.09, 5.11 -39.02, 1 -50.26" stroke="#1e1e1e" stroke-width="1" fill="none"></path></g><g transform="translate(503.27370401233725 305.49522538590816) rotate(0 0.28576031567661175 -24.783249527163264)"><path d="M-7.85 -27.11 C-4.87 -35.92, -1.6 -43.35, 1 -50.26 M-7.85 -27.11 C-5.43 -33.34, -2.85 -39.2, 1 -50.26" stroke="#1e1e1e" stroke-width="1" fill="none"></path></g></g><mask></mask><g stroke-linecap="round"><g transform="translate(610.8331623221973 320.63795959188496) rotate(0 162.66227389000892 -35.41445903010708)"><path d="M-0.29 1.14 C54.04 -10.67, 271.28 -58.63, 325.55 -70.53 M1.77 0.69 C55.98 -11.52, 270.92 -60.33, 324.72 -72.49" stroke="#1e1e1e" stroke-width="1" fill="none"></path></g><g transform="translate(610.8331623221973 320.63795959188496) rotate(0 162.66227389000892 -35.41445903010708)"><path d="M303.7 -58.96 C311.19 -62.16, 315.42 -66.18, 324.72 -72.49 M303.7 -58.96 C311.07 -63.81, 318.67 -67.8, 324.72 -72.49" stroke="#1e1e1e" stroke-width="1" fill="none"></path></g><g transform="translate(610.8331623221973 320.63795959188496) rotate(0 162.66227389000892 -35.41445903010708)"><path d="M299.92 -75.64 C308.46 -74.36, 313.71 -73.92, 324.72 -72.49 M299.92 -75.64 C308.44 -74.69, 317.35 -72.87, 324.72 -72.49" stroke="#1e1e1e" stroke-width="1" fill="none"></path></g></g><mask></mask></svg>