%TF.GenerationSoftware,KiCad,Pcbnew,6.0.9-8da3e8f707~116~ubuntu20.04.1*%
%TF.CreationDate,2022-11-14T20:56:13+01:00*%
%TF.ProjectId,sensor,73656e73-6f72-42e6-9b69-6361645f7063,rev?*%
%TF.SameCoordinates,Original*%
%TF.FileFunction,Soldermask,Top*%
%TF.FilePolarity,Negative*%
%FSLAX46Y46*%
G04 Gerber Fmt 4.6, Leading zero omitted, Abs format (unit mm)*
G04 Created by KiCad (PCBNEW 6.0.9-8da3e8f707~116~ubuntu20.04.1) date 2022-11-14 20:56:13*
%MOMM*%
%LPD*%
G01*
G04 APERTURE LIST*
G04 Aperture macros list*
%AMRoundRect*
0 Rectangle with rounded corners*
0 $1 Rounding radius*
0 $2 $3 $4 $5 $6 $7 $8 $9 X,Y pos of 4 corners*
0 Add a 4 corners polygon primitive as box body*
4,1,4,$2,$3,$4,$5,$6,$7,$8,$9,$2,$3,0*
0 Add four circle primitives for the rounded corners*
1,1,$1+$1,$2,$3*
1,1,$1+$1,$4,$5*
1,1,$1+$1,$6,$7*
1,1,$1+$1,$8,$9*
0 Add four rect primitives between the rounded corners*
20,1,$1+$1,$2,$3,$4,$5,0*
20,1,$1+$1,$4,$5,$6,$7,0*
20,1,$1+$1,$6,$7,$8,$9,0*
20,1,$1+$1,$8,$9,$2,$3,0*%
G04 Aperture macros list end*
%ADD10RoundRect,0.225000X0.225000X0.250000X-0.225000X0.250000X-0.225000X-0.250000X0.225000X-0.250000X0*%
%ADD11RoundRect,0.075000X0.350000X0.075000X-0.350000X0.075000X-0.350000X-0.075000X0.350000X-0.075000X0*%
%ADD12RoundRect,0.075000X-0.075000X0.350000X-0.075000X-0.350000X0.075000X-0.350000X0.075000X0.350000X0*%
%ADD13C,2.100000*%
%ADD14RoundRect,0.225000X-0.225000X-0.250000X0.225000X-0.250000X0.225000X0.250000X-0.225000X0.250000X0*%
%ADD15RoundRect,0.225000X-0.250000X0.225000X-0.250000X-0.225000X0.250000X-0.225000X0.250000X0.225000X0*%
%ADD16RoundRect,0.150000X-0.150000X-0.625000X0.150000X-0.625000X0.150000X0.625000X-0.150000X0.625000X0*%
%ADD17RoundRect,0.250000X-0.350000X-0.650000X0.350000X-0.650000X0.350000X0.650000X-0.350000X0.650000X0*%
G04 APERTURE END LIST*
D10*
%TO.C,C1*%
X153074000Y-109990000D03*
X151524000Y-109990000D03*
%TD*%
D11*
%TO.C,U1*%
X155594000Y-114770000D03*
X155594000Y-114270000D03*
X155594000Y-113770000D03*
X155594000Y-113270000D03*
X155594000Y-112770000D03*
X155594000Y-112270000D03*
D12*
X154894000Y-111570000D03*
X154394000Y-111570000D03*
X153894000Y-111570000D03*
X153394000Y-111570000D03*
X152894000Y-111570000D03*
X152394000Y-111570000D03*
D11*
X151694000Y-112270000D03*
X151694000Y-112770000D03*
X151694000Y-113270000D03*
X151694000Y-113770000D03*
X151694000Y-114270000D03*
X151694000Y-114770000D03*
D12*
X152394000Y-115470000D03*
X152894000Y-115470000D03*
X153394000Y-115470000D03*
X153894000Y-115470000D03*
X154394000Y-115470000D03*
X154894000Y-115470000D03*
%TD*%
D10*
%TO.C,C2*%
X150075000Y-111900000D03*
X148525000Y-111900000D03*
%TD*%
D13*
%TO.C,H1*%
X156550000Y-118900000D03*
%TD*%
D14*
%TO.C,C4*%
X154574000Y-109990000D03*
X156124000Y-109990000D03*
%TD*%
D15*
%TO.C,C3*%
X152550000Y-116925000D03*
X152550000Y-118475000D03*
%TD*%
D13*
%TO.C,H2*%
X149200000Y-118900000D03*
%TD*%
D16*
%TO.C,J1*%
X151400000Y-122600000D03*
X152400000Y-122600000D03*
X153400000Y-122600000D03*
X154400000Y-122600000D03*
D17*
X155700000Y-126475000D03*
X150100000Y-126475000D03*
%TD*%
M02*
