%TF.GenerationSoftware,KiCad,Pcbnew,6.0.10-2.fc37*%
%TF.CreationDate,2023-04-26T13:00:43+02:00*%
%TF.ProjectId,motherboard,6d6f7468-6572-4626-9f61-72642e6b6963,rev?*%
%TF.SameCoordinates,Original*%
%TF.FileFunction,Copper,L4,Bot*%
%TF.FilePolarity,Positive*%
%FSLAX46Y46*%
G04 Gerber Fmt 4.6, Leading zero omitted, Abs format (unit mm)*
G04 Created by KiCad (PCBNEW 6.0.10-2.fc37) date 2023-04-26 13:00:43*
%MOMM*%
%LPD*%
G01*
G04 APERTURE LIST*
G04 Aperture macros list*
%AMRoundRect*
0 Rectangle with rounded corners*
0 $1 Rounding radius*
0 $2 $3 $4 $5 $6 $7 $8 $9 X,Y pos of 4 corners*
0 Add a 4 corners polygon primitive as box body*
4,1,4,$2,$3,$4,$5,$6,$7,$8,$9,$2,$3,0*
0 Add four circle primitives for the rounded corners*
1,1,$1+$1,$2,$3*
1,1,$1+$1,$4,$5*
1,1,$1+$1,$6,$7*
1,1,$1+$1,$8,$9*
0 Add four rect primitives between the rounded corners*
20,1,$1+$1,$2,$3,$4,$5,0*
20,1,$1+$1,$4,$5,$6,$7,0*
20,1,$1+$1,$6,$7,$8,$9,0*
20,1,$1+$1,$8,$9,$2,$3,0*%
G04 Aperture macros list end*
%TA.AperFunction,ComponentPad*%
%ADD10RoundRect,0.500000X0.000000X-0.600000X0.000000X-0.600000X0.000000X0.600000X0.000000X0.600000X0*%
%TD*%
%TA.AperFunction,SMDPad,CuDef*%
%ADD11C,2.000000*%
%TD*%
%TA.AperFunction,ViaPad*%
%ADD12C,0.800000*%
%TD*%
%TA.AperFunction,ViaPad*%
%ADD13C,1.000000*%
%TD*%
%TA.AperFunction,Conductor*%
%ADD14C,0.300000*%
%TD*%
%TA.AperFunction,Conductor*%
%ADD15C,0.750000*%
%TD*%
%TA.AperFunction,Conductor*%
%ADD16C,0.500000*%
%TD*%
%TA.AperFunction,Conductor*%
%ADD17C,0.250000*%
%TD*%
G04 APERTURE END LIST*
D10*
%TO.P,J1,S1,SHIELD*%
%TO.N,GND*%
X142740000Y-111360000D03*
X153900000Y-116040000D03*
X142740000Y-116030000D03*
X153900000Y-111360000D03*
%TD*%
D11*
%TO.P,TP1,1,1*%
%TO.N,+3V3*%
X127820000Y-116070000D03*
%TD*%
%TO.P,TP8,1,1*%
%TO.N,PROG_TX*%
X126150000Y-94110000D03*
%TD*%
%TO.P,TP10,1,1*%
%TO.N,RTS*%
X126130000Y-100240000D03*
%TD*%
%TO.P,TP9,1,1*%
%TO.N,DTR*%
X126130000Y-97140000D03*
%TD*%
%TO.P,TP5,1,1*%
%TO.N,IO32*%
X130840000Y-116090000D03*
%TD*%
%TO.P,TP3,1,1*%
%TO.N,IO26*%
X136850000Y-116110000D03*
%TD*%
%TO.P,TP7,1,1*%
%TO.N,PROG_RX*%
X126160000Y-91050000D03*
%TD*%
%TO.P,TP4,1,1*%
%TO.N,IO27*%
X139860000Y-116120000D03*
%TD*%
%TO.P,TP2,1,1*%
%TO.N,IO25*%
X133850000Y-116070000D03*
%TD*%
%TO.P,TP6,1,1*%
%TO.N,GND*%
X124820000Y-116070000D03*
%TD*%
D12*
%TO.N,GND*%
X144100000Y-90420000D03*
%TO.N,+3V3*%
X150223007Y-92420159D03*
X150350000Y-96200000D03*
%TO.N,GND*%
X131530000Y-100040000D03*
X144370000Y-109470000D03*
X130460000Y-81080000D03*
X142740000Y-114410000D03*
X161240000Y-109010000D03*
X153640000Y-98010000D03*
X157790000Y-80950000D03*
X133650000Y-81050000D03*
X152270000Y-109480000D03*
X122300000Y-87100000D03*
X142630000Y-81020000D03*
X148100000Y-84790000D03*
X168100000Y-88830000D03*
X144370000Y-110280000D03*
X139620000Y-83260000D03*
X122340000Y-109010000D03*
X158780000Y-98680000D03*
X122300000Y-87920000D03*
X157830000Y-83190000D03*
X152250000Y-110300000D03*
X153910000Y-113040000D03*
X154240000Y-92420000D03*
X170210000Y-80770000D03*
X122240000Y-104610000D03*
X131590000Y-95510000D03*
X161800000Y-108110000D03*
X158780000Y-97870000D03*
X167980000Y-102000000D03*
X162940000Y-109010000D03*
X123900000Y-114740000D03*
X167130000Y-83210000D03*
X159600000Y-87334500D03*
X130140000Y-100010000D03*
X160920000Y-80910000D03*
X123285000Y-114040000D03*
X155344951Y-102439549D03*
X151220000Y-88730000D03*
X148900000Y-81060000D03*
X150340000Y-102890500D03*
X157090000Y-115320000D03*
X149496401Y-105486476D03*
X153900000Y-114380000D03*
X151210000Y-89540000D03*
X147565087Y-93485500D03*
X154200000Y-95950000D03*
X143264500Y-90420000D03*
X123440000Y-80010000D03*
X130660000Y-83120000D03*
X142140000Y-102010000D03*
X147789500Y-98171422D03*
X122340000Y-108110000D03*
X140740000Y-109010000D03*
X122940000Y-103910000D03*
X139550000Y-81030000D03*
X142740000Y-113010000D03*
X152030000Y-81090000D03*
D13*
X155749528Y-106709500D03*
D12*
X167020000Y-80810000D03*
X139150000Y-112500000D03*
X154195023Y-94254977D03*
X130130000Y-95550000D03*
%TO.N,VBUS*%
X157641938Y-111501938D03*
X150258205Y-108158945D03*
X151200000Y-108200000D03*
X156695562Y-110045562D03*
X145910000Y-108520000D03*
X145070000Y-108510000D03*
%TO.N,CS*%
X138120000Y-90530000D03*
X156050000Y-93840000D03*
%TO.N,MOSI*%
X124420000Y-88840000D03*
X134410500Y-92460000D03*
X156390000Y-94940000D03*
X137976512Y-92109750D03*
%TO.N,+3V3*%
X160840000Y-83110000D03*
X149410000Y-107010000D03*
X129698019Y-114225404D03*
X124950000Y-103670000D03*
X151940000Y-83310000D03*
X142640000Y-83190000D03*
X153617938Y-100833340D03*
X123940000Y-103670000D03*
X151770000Y-93300000D03*
X158780000Y-96470000D03*
X158790000Y-95670000D03*
X162920000Y-105750000D03*
X129391496Y-107734500D03*
X147870000Y-101980000D03*
X122350000Y-106920000D03*
X170140000Y-83110000D03*
X124940000Y-111510000D03*
X125040000Y-84910000D03*
X133630000Y-83140000D03*
X153370000Y-89690000D03*
%TO.N,SCLK*%
X156230000Y-97140000D03*
X139059670Y-99729670D03*
%TO.N,MISO*%
X159740000Y-102010000D03*
X131960000Y-88800000D03*
%TO.N,SD_DETECT*%
X158740000Y-101310000D03*
X135810000Y-88780000D03*
%TO.N,DTR*%
X127850500Y-97500000D03*
X129160000Y-103630000D03*
X138060000Y-107370000D03*
X144380000Y-104729500D03*
X129427045Y-111619826D03*
%TO.N,GPIO0*%
X143690000Y-96610000D03*
X139645000Y-88915000D03*
%TO.N,RTS*%
X127800000Y-103670000D03*
X126354750Y-101890500D03*
X126800000Y-111700000D03*
%TO.N,EN*%
X132080000Y-108840000D03*
X130170000Y-106880000D03*
%TO.N,IO35*%
X139340000Y-101710000D03*
X153630000Y-101870000D03*
%TO.N,IO33*%
X133151470Y-102978530D03*
X127440000Y-80310000D03*
%TO.N,IO25*%
X135375273Y-103432451D03*
%TO.N,IO26*%
X136440000Y-103710000D03*
%TO.N,IO13*%
X130879303Y-88986783D03*
X133440000Y-95310000D03*
X130540000Y-86192998D03*
X133440000Y-93180500D03*
%TO.N,I2C1_SDA*%
X138620000Y-92940000D03*
X149823639Y-93336407D03*
%TO.N,PROG_TX*%
X126530477Y-114530477D03*
X128240000Y-89710000D03*
%TO.N,PROG_RX*%
X126940000Y-88880000D03*
X128680477Y-112600000D03*
%TO.N,I2C1_SCL*%
X138650500Y-94150000D03*
X148915000Y-93752796D03*
%TO.N,Onboard_SDA*%
X144613323Y-93440327D03*
X146931102Y-96318898D03*
X148860000Y-97490500D03*
%TO.N,Onboard_SCL*%
X148130000Y-96420000D03*
X145650000Y-93485500D03*
%TO.N,IO27*%
X137670380Y-103747440D03*
%TO.N,IO32*%
X132050000Y-103460000D03*
X133040000Y-107880000D03*
X135480000Y-107940000D03*
%TD*%
D14*
%TO.N,PROG_TX*%
X126150000Y-94110000D02*
X128550000Y-94110000D01*
X128550000Y-94110000D02*
X128570000Y-94130000D01*
%TO.N,PROG_RX*%
X123400000Y-91300000D02*
X123400000Y-101120000D01*
X123650000Y-91050000D02*
X126160000Y-91050000D01*
X123400000Y-90920661D02*
X123400000Y-91300000D01*
X123400000Y-91300000D02*
X123650000Y-91050000D01*
X127360500Y-102209500D02*
X133443101Y-102209500D01*
X133901470Y-103318530D02*
X132620000Y-104600000D01*
X133830000Y-107609339D02*
X133830000Y-108325656D01*
X125837767Y-102790000D02*
X126780000Y-102790000D01*
X125220661Y-89100000D02*
X123400000Y-90920661D01*
X133901470Y-102667869D02*
X133901470Y-103318530D01*
X125467767Y-102420000D02*
X125837767Y-102790000D01*
X124700000Y-102420000D02*
X125467767Y-102420000D01*
X133443101Y-102209500D02*
X133901470Y-102667869D01*
X123400000Y-101120000D02*
X124700000Y-102420000D01*
X126940000Y-88880000D02*
X126720000Y-89100000D01*
X126720000Y-89100000D02*
X125220661Y-89100000D01*
X126780000Y-102790000D02*
X127360500Y-102209500D01*
X132620000Y-104600000D02*
X132620000Y-106399339D01*
X132620000Y-106399339D02*
X133830000Y-107609339D01*
X133830000Y-108325656D02*
X129555656Y-112600000D01*
X129555656Y-112600000D02*
X128680477Y-112600000D01*
%TO.N,IO33*%
X133151470Y-102978530D02*
X132882440Y-102709500D01*
X124420000Y-102920000D02*
X122800000Y-101300000D01*
X132882440Y-102709500D02*
X127680500Y-102709500D01*
X127680500Y-102709500D02*
X126980000Y-103410000D01*
X126980000Y-103410000D02*
X125750661Y-103410000D01*
X125750661Y-103410000D02*
X125260661Y-102920000D01*
X125260661Y-102920000D02*
X124420000Y-102920000D01*
X122800000Y-101300000D02*
X122800000Y-89150000D01*
X125240000Y-87510000D02*
X127440000Y-85310000D01*
X122800000Y-89150000D02*
X124440000Y-87510000D01*
X124440000Y-87510000D02*
X125240000Y-87510000D01*
X127440000Y-85310000D02*
X127440000Y-80310000D01*
%TO.N,RTS*%
X127800000Y-103670000D02*
X126800000Y-104670000D01*
X126800000Y-104670000D02*
X126800000Y-111700000D01*
%TO.N,DTR*%
X129160000Y-103630000D02*
X128400000Y-104390000D01*
X128400000Y-104390000D02*
X128400000Y-107803665D01*
X128400000Y-107803665D02*
X129500000Y-108903665D01*
X129500000Y-108903665D02*
X129500000Y-111546871D01*
X129500000Y-111546871D02*
X129427045Y-111619826D01*
%TO.N,MOSI*%
X124420000Y-88840000D02*
X125250000Y-88010000D01*
X125250000Y-88010000D02*
X125447106Y-88010000D01*
X125447106Y-88010000D02*
X125997106Y-87460000D01*
X125997106Y-87460000D02*
X128490000Y-87460000D01*
X131340000Y-92210000D02*
X134160500Y-92210000D01*
X134160500Y-92210000D02*
X134410500Y-92460000D01*
X128490000Y-87460000D02*
X130140000Y-89110000D01*
X130140000Y-89110000D02*
X130140000Y-91010000D01*
X130140000Y-91010000D02*
X131340000Y-92210000D01*
%TO.N,CS*%
X156050000Y-93840000D02*
X156050000Y-92730000D01*
X156050000Y-92730000D02*
X154470000Y-91150000D01*
X154470000Y-91150000D02*
X148440000Y-91150000D01*
X148440000Y-91150000D02*
X146460000Y-89170000D01*
X140670000Y-89170000D02*
X139310000Y-90530000D01*
X139310000Y-90530000D02*
X138120000Y-90530000D01*
X146460000Y-89170000D02*
X140670000Y-89170000D01*
D15*
%TO.N,GND*%
X123900000Y-114740000D02*
X123900000Y-115150000D01*
X123900000Y-115150000D02*
X124820000Y-116070000D01*
D16*
%TO.N,VBUS*%
X145162082Y-109060000D02*
X145070000Y-108967918D01*
X146687788Y-108672212D02*
X145232212Y-108672212D01*
X150172212Y-108672212D02*
X150360000Y-108860000D01*
X150360000Y-109040000D02*
X146430000Y-109040000D01*
X150360000Y-108860000D02*
X150360000Y-108260740D01*
X149847788Y-108672212D02*
X150172212Y-108672212D01*
X150360000Y-108260740D02*
X150258205Y-108158945D01*
X145232212Y-108672212D02*
X145070000Y-108510000D01*
X146062212Y-108672212D02*
X145910000Y-108520000D01*
X146410000Y-109060000D02*
X145162082Y-109060000D01*
X149847788Y-108672212D02*
X149847788Y-108569362D01*
X157641938Y-110991938D02*
X156695562Y-110045562D01*
X149847788Y-108569362D02*
X150258205Y-108158945D01*
X145070000Y-108967918D02*
X145070000Y-108510000D01*
X150258205Y-108158945D02*
X151158945Y-108158945D01*
X150360000Y-109040000D02*
X150360000Y-108860000D01*
X146687788Y-108672212D02*
X146062212Y-108672212D01*
X146430000Y-109040000D02*
X145910000Y-108520000D01*
X157641938Y-111501938D02*
X157641938Y-110991938D01*
X146687788Y-108672212D02*
X149847788Y-108672212D01*
X150360000Y-109040000D02*
X151200000Y-108200000D01*
X151158945Y-108158945D02*
X151200000Y-108200000D01*
X146430000Y-109040000D02*
X146410000Y-109060000D01*
D14*
%TO.N,MOSI*%
X154170000Y-93170000D02*
X155940000Y-94940000D01*
X153929339Y-93170000D02*
X154170000Y-93170000D01*
X152409339Y-91650000D02*
X153929339Y-93170000D01*
X138850411Y-92109750D02*
X139050661Y-92310000D01*
X137976512Y-92109750D02*
X138850411Y-92109750D01*
X143268777Y-92310000D02*
X143928777Y-91650000D01*
X139050661Y-92310000D02*
X143268777Y-92310000D01*
X155940000Y-94940000D02*
X156390000Y-94940000D01*
X143928777Y-91650000D02*
X152409339Y-91650000D01*
D15*
%TO.N,+3V3*%
X129698019Y-114225404D02*
X129664596Y-114225404D01*
X129664596Y-114225404D02*
X127820000Y-116070000D01*
D14*
%TO.N,SCLK*%
X138590000Y-102160000D02*
X139400000Y-102970000D01*
X145899339Y-102970000D02*
X146069339Y-102800000D01*
X156590000Y-103060000D02*
X156590000Y-97500000D01*
X154800000Y-103200000D02*
X154801161Y-103201161D01*
X138590000Y-100199339D02*
X138590000Y-102160000D01*
X151090000Y-103201161D02*
X153701161Y-103201161D01*
X139400000Y-102970000D02*
X145899339Y-102970000D01*
X154801161Y-103201161D02*
X156448839Y-103201161D01*
X156590000Y-97500000D02*
X156230000Y-97140000D01*
X149188839Y-102800000D02*
X150029339Y-103640500D01*
X153702322Y-103200000D02*
X154800000Y-103200000D01*
X150029339Y-103640500D02*
X150650661Y-103640500D01*
X156448839Y-103201161D02*
X156590000Y-103060000D01*
X150650661Y-103640500D02*
X151090000Y-103201161D01*
X139059670Y-99729670D02*
X138590000Y-100199339D01*
X146069339Y-102800000D02*
X149188839Y-102800000D01*
X153701161Y-103201161D02*
X153702322Y-103200000D01*
%TO.N,MISO*%
X153385788Y-104300000D02*
X151405373Y-104300000D01*
X135160500Y-92000500D02*
X131960000Y-88800000D01*
X138962894Y-103980000D02*
X135160500Y-100177606D01*
X149615127Y-104640500D02*
X148954627Y-103980000D01*
X148954627Y-103980000D02*
X138962894Y-103980000D01*
X151405373Y-104300000D02*
X151064873Y-104640500D01*
X154210000Y-104710000D02*
X153795788Y-104710000D01*
X151064873Y-104640500D02*
X149615127Y-104640500D01*
X153795788Y-104710000D02*
X153385788Y-104300000D01*
D17*
X159740000Y-102010000D02*
X157040000Y-104710000D01*
X157040000Y-104710000D02*
X154210000Y-104710000D01*
D14*
X135160500Y-100177606D02*
X135160500Y-92000500D01*
%TO.N,SD_DETECT*%
X139160000Y-103470000D02*
X135800000Y-100110000D01*
X153494055Y-103701161D02*
X151297106Y-103701161D01*
X135800000Y-88790000D02*
X135810000Y-88780000D01*
D17*
X158740000Y-101310000D02*
X158740000Y-102373604D01*
D14*
X149822233Y-104140500D02*
X148981733Y-103300000D01*
X146276446Y-103300000D02*
X146106446Y-103470000D01*
X135800000Y-100110000D02*
X135800000Y-88790000D01*
X154002894Y-104210000D02*
X153494055Y-103701161D01*
D17*
X156903604Y-104210000D02*
X154002894Y-104210000D01*
D14*
X146106446Y-103470000D02*
X139160000Y-103470000D01*
X148981733Y-103300000D02*
X146276446Y-103300000D01*
X151297106Y-103701161D02*
X150857767Y-104140500D01*
X150857767Y-104140500D02*
X149822233Y-104140500D01*
D17*
X158740000Y-102373604D02*
X156903604Y-104210000D01*
D14*
%TO.N,DTR*%
X126800000Y-97500000D02*
X126300000Y-97000000D01*
X127850500Y-97500000D02*
X126800000Y-97500000D01*
X138650000Y-106780000D02*
X142329500Y-106780000D01*
X138060000Y-107370000D02*
X138650000Y-106780000D01*
X142329500Y-106780000D02*
X144380000Y-104729500D01*
D16*
%TO.N,GPIO0*%
X137830000Y-96610000D02*
X143690000Y-96610000D01*
X136940000Y-95720000D02*
X137830000Y-96610000D01*
X137755000Y-88915000D02*
X136940000Y-89730000D01*
X139645000Y-88915000D02*
X137755000Y-88915000D01*
X136940000Y-89730000D02*
X136940000Y-95720000D01*
D14*
%TO.N,RTS*%
X126354750Y-101890500D02*
X126130000Y-101665750D01*
X126130000Y-101665750D02*
X126130000Y-100140000D01*
D16*
%TO.N,EN*%
X132080000Y-108840000D02*
X130170000Y-106930000D01*
X130170000Y-106930000D02*
X130170000Y-106880000D01*
D17*
%TO.N,IO35*%
X152970000Y-101210000D02*
X139840000Y-101210000D01*
X139840000Y-101210000D02*
X139340000Y-101710000D01*
X153630000Y-101870000D02*
X152970000Y-101210000D01*
D14*
%TO.N,IO25*%
X135790661Y-107190000D02*
X136230000Y-107629339D01*
X134900000Y-106920661D02*
X135169339Y-107190000D01*
X134900000Y-103907724D02*
X134900000Y-106920661D01*
X135960000Y-109520000D02*
X133850000Y-111630000D01*
X135169339Y-107190000D02*
X135790661Y-107190000D01*
X133850000Y-111630000D02*
X133850000Y-116070000D01*
X135960000Y-108520661D02*
X135960000Y-109520000D01*
X136230000Y-108250661D02*
X135960000Y-108520661D01*
X135375273Y-103432451D02*
X134900000Y-103907724D01*
X136230000Y-107629339D02*
X136230000Y-108250661D01*
%TO.N,IO26*%
X134978553Y-114238553D02*
X136850000Y-116110000D01*
X136350000Y-107042233D02*
X136730000Y-107422233D01*
X136730000Y-107422233D02*
X136730000Y-110100000D01*
X136730000Y-110100000D02*
X134978553Y-111851447D01*
X136350000Y-103800000D02*
X136350000Y-107042233D01*
X136440000Y-103710000D02*
X136350000Y-103800000D01*
X134978553Y-111851447D02*
X134978553Y-114238553D01*
%TO.N,IO13*%
X133440000Y-95310000D02*
X133440000Y-93180500D01*
X130879303Y-88986783D02*
X130879303Y-86532301D01*
X130879303Y-86532301D02*
X130540000Y-86192998D01*
%TO.N,I2C1_SDA*%
X143385883Y-92900000D02*
X144135883Y-92150000D01*
X144135883Y-92150000D02*
X148637232Y-92150000D01*
X138660000Y-92900000D02*
X143385883Y-92900000D01*
X138620000Y-92940000D02*
X138660000Y-92900000D01*
X148637232Y-92150000D02*
X149823639Y-93336407D01*
%TO.N,PROG_TX*%
X134480000Y-108690000D02*
X134480000Y-107552233D01*
X126530477Y-114530477D02*
X128029523Y-114530477D01*
X133120000Y-106192233D02*
X133120000Y-104807106D01*
X134480000Y-107552233D02*
X133120000Y-106192233D01*
X128600000Y-101070000D02*
X128600000Y-94500000D01*
X128029523Y-114530477D02*
X129230000Y-113330000D01*
X128600000Y-90070000D02*
X128240000Y-89710000D01*
X129840000Y-113330000D02*
X134480000Y-108690000D01*
X134000000Y-101500000D02*
X129030000Y-101500000D01*
X133120000Y-104807106D02*
X134640000Y-103287106D01*
X134640000Y-103287106D02*
X134640000Y-102140000D01*
X129230000Y-113330000D02*
X129840000Y-113330000D01*
X128600000Y-94500000D02*
X128600000Y-90070000D01*
X129030000Y-101500000D02*
X128600000Y-101070000D01*
X134640000Y-102140000D02*
X134000000Y-101500000D01*
%TO.N,I2C1_SCL*%
X138650500Y-94150000D02*
X138960500Y-94460000D01*
X138960500Y-94460000D02*
X142532989Y-94460000D01*
X144302662Y-92690327D02*
X147852531Y-92690327D01*
X142532989Y-94460000D02*
X144302662Y-92690327D01*
X147852531Y-92690327D02*
X148915000Y-93752796D01*
%TO.N,Onboard_SDA*%
X144613323Y-93440327D02*
X144613323Y-94001119D01*
X148102704Y-97490500D02*
X148860000Y-97490500D01*
X144613323Y-94001119D02*
X146931102Y-96318898D01*
X146931102Y-96318898D02*
X148102704Y-97490500D01*
%TO.N,Onboard_SCL*%
X148130000Y-96420000D02*
X148130000Y-95965500D01*
X148130000Y-95965500D02*
X145650000Y-93485500D01*
%TO.N,IO27*%
X137670380Y-103747440D02*
X137310000Y-104107820D01*
X137310000Y-113570000D02*
X139860000Y-116120000D01*
X137310000Y-104107820D02*
X137310000Y-113570000D01*
%TO.N,IO32*%
X133220000Y-111310000D02*
X133220000Y-113960000D01*
X135140000Y-109390000D02*
X133220000Y-111310000D01*
X135480000Y-107940000D02*
X135140000Y-108280000D01*
X135140000Y-108280000D02*
X135140000Y-109390000D01*
X132050000Y-103460000D02*
X132050000Y-106890000D01*
X133220000Y-113960000D02*
X130850000Y-116330000D01*
X132050000Y-106890000D02*
X133040000Y-107880000D01*
%TD*%
M02*
