%TF.GenerationSoftware,KiCad,Pcbnew,6.0.10-2.fc37*%
%TF.CreationDate,2023-04-26T13:00:43+02:00*%
%TF.ProjectId,motherboard,6d6f7468-6572-4626-9f61-72642e6b6963,rev?*%
%TF.SameCoordinates,Original*%
%TF.FileFunction,Copper,L1,Top*%
%TF.FilePolarity,Positive*%
%FSLAX46Y46*%
G04 Gerber Fmt 4.6, Leading zero omitted, Abs format (unit mm)*
G04 Created by KiCad (PCBNEW 6.0.10-2.fc37) date 2023-04-26 13:00:43*
%MOMM*%
%LPD*%
G01*
G04 APERTURE LIST*
G04 Aperture macros list*
%AMRoundRect*
0 Rectangle with rounded corners*
0 $1 Rounding radius*
0 $2 $3 $4 $5 $6 $7 $8 $9 X,Y pos of 4 corners*
0 Add a 4 corners polygon primitive as box body*
4,1,4,$2,$3,$4,$5,$6,$7,$8,$9,$2,$3,0*
0 Add four circle primitives for the rounded corners*
1,1,$1+$1,$2,$3*
1,1,$1+$1,$4,$5*
1,1,$1+$1,$6,$7*
1,1,$1+$1,$8,$9*
0 Add four rect primitives between the rounded corners*
20,1,$1+$1,$2,$3,$4,$5,0*
20,1,$1+$1,$4,$5,$6,$7,0*
20,1,$1+$1,$6,$7,$8,$9,0*
20,1,$1+$1,$8,$9,$2,$3,0*%
G04 Aperture macros list end*
%TA.AperFunction,SMDPad,CuDef*%
%ADD10R,0.250000X1.450000*%
%TD*%
%TA.AperFunction,SMDPad,CuDef*%
%ADD11R,0.300000X1.450000*%
%TD*%
%TA.AperFunction,ComponentPad*%
%ADD12RoundRect,0.500000X0.000000X-0.600000X0.000000X-0.600000X0.000000X0.600000X0.000000X0.600000X0*%
%TD*%
%TA.AperFunction,SMDPad,CuDef*%
%ADD13RoundRect,0.200000X0.200000X0.275000X-0.200000X0.275000X-0.200000X-0.275000X0.200000X-0.275000X0*%
%TD*%
%TA.AperFunction,SMDPad,CuDef*%
%ADD14RoundRect,0.200000X0.275000X-0.200000X0.275000X0.200000X-0.275000X0.200000X-0.275000X-0.200000X0*%
%TD*%
%TA.AperFunction,SMDPad,CuDef*%
%ADD15R,0.600000X1.550000*%
%TD*%
%TA.AperFunction,SMDPad,CuDef*%
%ADD16R,1.200000X1.800000*%
%TD*%
%TA.AperFunction,SMDPad,CuDef*%
%ADD17RoundRect,0.200000X-0.200000X-0.275000X0.200000X-0.275000X0.200000X0.275000X-0.200000X0.275000X0*%
%TD*%
%TA.AperFunction,SMDPad,CuDef*%
%ADD18RoundRect,0.150000X-0.150000X0.587500X-0.150000X-0.587500X0.150000X-0.587500X0.150000X0.587500X0*%
%TD*%
%TA.AperFunction,SMDPad,CuDef*%
%ADD19RoundRect,0.150000X-0.512500X-0.150000X0.512500X-0.150000X0.512500X0.150000X-0.512500X0.150000X0*%
%TD*%
%TA.AperFunction,SMDPad,CuDef*%
%ADD20RoundRect,0.225000X-0.250000X0.225000X-0.250000X-0.225000X0.250000X-0.225000X0.250000X0.225000X0*%
%TD*%
%TA.AperFunction,SMDPad,CuDef*%
%ADD21RoundRect,0.225000X-0.225000X-0.250000X0.225000X-0.250000X0.225000X0.250000X-0.225000X0.250000X0*%
%TD*%
%TA.AperFunction,SMDPad,CuDef*%
%ADD22R,4.000000X1.300000*%
%TD*%
%TA.AperFunction,SMDPad,CuDef*%
%ADD23R,3.900000X1.800000*%
%TD*%
%TA.AperFunction,SMDPad,CuDef*%
%ADD24RoundRect,0.200000X-0.275000X0.200000X-0.275000X-0.200000X0.275000X-0.200000X0.275000X0.200000X0*%
%TD*%
%TA.AperFunction,SMDPad,CuDef*%
%ADD25RoundRect,0.218750X-0.218750X-0.256250X0.218750X-0.256250X0.218750X0.256250X-0.218750X0.256250X0*%
%TD*%
%TA.AperFunction,SMDPad,CuDef*%
%ADD26RoundRect,0.075000X-0.350000X-0.075000X0.350000X-0.075000X0.350000X0.075000X-0.350000X0.075000X0*%
%TD*%
%TA.AperFunction,SMDPad,CuDef*%
%ADD27RoundRect,0.075000X0.075000X-0.350000X0.075000X0.350000X-0.075000X0.350000X-0.075000X-0.350000X0*%
%TD*%
%TA.AperFunction,SMDPad,CuDef*%
%ADD28R,1.500000X0.550000*%
%TD*%
%TA.AperFunction,SMDPad,CuDef*%
%ADD29RoundRect,0.049600X0.260400X-0.605400X0.260400X0.605400X-0.260400X0.605400X-0.260400X-0.605400X0*%
%TD*%
%TA.AperFunction,SMDPad,CuDef*%
%ADD30RoundRect,0.225000X0.250000X-0.225000X0.250000X0.225000X-0.250000X0.225000X-0.250000X-0.225000X0*%
%TD*%
%TA.AperFunction,SMDPad,CuDef*%
%ADD31RoundRect,0.150000X0.150000X-0.587500X0.150000X0.587500X-0.150000X0.587500X-0.150000X-0.587500X0*%
%TD*%
%TA.AperFunction,SMDPad,CuDef*%
%ADD32RoundRect,0.100000X-0.100000X0.637500X-0.100000X-0.637500X0.100000X-0.637500X0.100000X0.637500X0*%
%TD*%
%TA.AperFunction,SMDPad,CuDef*%
%ADD33RoundRect,0.225000X0.225000X0.250000X-0.225000X0.250000X-0.225000X-0.250000X0.225000X-0.250000X0*%
%TD*%
%TA.AperFunction,SMDPad,CuDef*%
%ADD34R,1.100000X1.100000*%
%TD*%
%TA.AperFunction,SMDPad,CuDef*%
%ADD35R,0.900000X1.500000*%
%TD*%
%TA.AperFunction,SMDPad,CuDef*%
%ADD36R,1.500000X0.900000*%
%TD*%
%TA.AperFunction,SMDPad,CuDef*%
%ADD37R,0.900000X0.900000*%
%TD*%
%TA.AperFunction,SMDPad,CuDef*%
%ADD38R,1.300000X0.700000*%
%TD*%
%TA.AperFunction,SMDPad,CuDef*%
%ADD39R,1.400000X1.200000*%
%TD*%
%TA.AperFunction,SMDPad,CuDef*%
%ADD40R,2.000000X1.200000*%
%TD*%
%TA.AperFunction,ViaPad*%
%ADD41C,0.800000*%
%TD*%
%TA.AperFunction,ViaPad*%
%ADD42C,1.000000*%
%TD*%
%TA.AperFunction,Conductor*%
%ADD43C,0.750000*%
%TD*%
%TA.AperFunction,Conductor*%
%ADD44C,0.500000*%
%TD*%
%TA.AperFunction,Conductor*%
%ADD45C,0.300000*%
%TD*%
%TA.AperFunction,Conductor*%
%ADD46C,0.250000*%
%TD*%
%TA.AperFunction,Conductor*%
%ADD47C,1.000000*%
%TD*%
G04 APERTURE END LIST*
D10*
%TO.P,J1,A1,GND*%
%TO.N,GND*%
X144945000Y-109900000D03*
%TO.P,J1,A4,VBUS*%
%TO.N,VBUS*%
X145745000Y-109900000D03*
%TO.P,J1,A5,CC1*%
%TO.N,unconnected-(J1-PadA5)*%
X147070000Y-109900000D03*
%TO.P,J1,A6,D+*%
%TO.N,D+*%
X148070000Y-109900000D03*
%TO.P,J1,A7,D-*%
%TO.N,D-*%
X148570000Y-109900000D03*
%TO.P,J1,A8,SBU1*%
%TO.N,unconnected-(J1-PadA8)*%
X149570000Y-109900000D03*
%TO.P,J1,A9,VBUS*%
%TO.N,VBUS*%
X150895000Y-109900000D03*
%TO.P,J1,A12,GND*%
%TO.N,GND*%
X151695000Y-109900000D03*
D11*
%TO.P,J1,B1,GND*%
X151420000Y-109900000D03*
%TO.P,J1,B4,VBUS*%
%TO.N,VBUS*%
X150620000Y-109900000D03*
D10*
%TO.P,J1,B5,CC2*%
%TO.N,unconnected-(J1-PadB5)*%
X150070000Y-109900000D03*
%TO.P,J1,B6,D+*%
%TO.N,D+*%
X149070000Y-109900000D03*
%TO.P,J1,B7,D-*%
%TO.N,D-*%
X147570000Y-109900000D03*
%TO.P,J1,B8,SBU2*%
%TO.N,unconnected-(J1-PadB8)*%
X146570000Y-109900000D03*
D11*
%TO.P,J1,B9,VBUS*%
%TO.N,VBUS*%
X146020000Y-109900000D03*
%TO.P,J1,B12,GND*%
%TO.N,GND*%
X145220000Y-109900000D03*
D12*
%TO.P,J1,S1,SHIELD*%
X142740000Y-111360000D03*
X153900000Y-116040000D03*
X142740000Y-116030000D03*
X153900000Y-111360000D03*
%TD*%
D13*
%TO.P,R9,1*%
%TO.N,IO35*%
X159635000Y-115310000D03*
%TO.P,R9,2*%
%TO.N,GND*%
X157985000Y-115310000D03*
%TD*%
D14*
%TO.P,R2,2*%
%TO.N,GND*%
X150670000Y-105475000D03*
%TO.P,R2,1*%
%TO.N,VBUS*%
X150670000Y-107125000D03*
%TD*%
D13*
%TO.P,R10,1*%
%TO.N,IO33*%
X127465000Y-81360000D03*
%TO.P,R10,2*%
%TO.N,Net-(D3-Pad2)*%
X125815000Y-81360000D03*
%TD*%
D14*
%TO.P,R13,1*%
%TO.N,+3V3*%
X146850000Y-106445000D03*
%TO.P,R13,2*%
%TO.N,Onboard_SDA*%
X146850000Y-104795000D03*
%TD*%
D15*
%TO.P,J3,1,1*%
%TO.N,+3V3*%
X170140000Y-84460000D03*
%TO.P,J3,2,2*%
%TO.N,Sense1_SDA*%
X169140000Y-84460000D03*
%TO.P,J3,3,3*%
%TO.N,Sense1_SCL*%
X168140000Y-84460000D03*
%TO.P,J3,4,4*%
%TO.N,GND*%
X167140000Y-84460000D03*
D16*
%TO.P,J3,S1,SHIELD*%
X171440000Y-80585000D03*
%TO.P,J3,S2,SHIELD*%
X165840000Y-80585000D03*
%TD*%
D17*
%TO.P,R12,1*%
%TO.N,+3V3*%
X125790000Y-84860000D03*
%TO.P,R12,2*%
%TO.N,I2C1_SDA*%
X127440000Y-84860000D03*
%TD*%
D18*
%TO.P,Q1,1,G*%
%TO.N,VBUS*%
X158310000Y-111532500D03*
%TO.P,Q1,2,S*%
%TO.N,Net-(C3-Pad1)*%
X156410000Y-111532500D03*
%TO.P,Q1,3,D*%
%TO.N,+3V8*%
X157360000Y-113407500D03*
%TD*%
D14*
%TO.P,R5,1*%
%TO.N,Net-(R5-Pad1)*%
X154470000Y-107835000D03*
%TO.P,R5,2*%
%TO.N,Net-(C3-Pad1)*%
X154470000Y-106185000D03*
%TD*%
D19*
%TO.P,U2,1,VIN*%
%TO.N,Net-(C3-Pad1)*%
X157332500Y-105770000D03*
%TO.P,U2,2,GND*%
%TO.N,GND*%
X157332500Y-106720000D03*
%TO.P,U2,3,EN*%
%TO.N,Net-(R5-Pad1)*%
X157332500Y-107670000D03*
%TO.P,U2,4,NC*%
%TO.N,unconnected-(U2-Pad4)*%
X159607500Y-107670000D03*
%TO.P,U2,5,VOUT*%
%TO.N,+3V3*%
X159607500Y-105770000D03*
%TD*%
D13*
%TO.P,R11,1*%
%TO.N,+3V3*%
X124335000Y-84850000D03*
%TO.P,R11,2*%
%TO.N,I2C1_SCL*%
X122685000Y-84850000D03*
%TD*%
D20*
%TO.P,C4,1*%
%TO.N,+3V3*%
X161800000Y-105760000D03*
%TO.P,C4,2*%
%TO.N,GND*%
X161800000Y-107310000D03*
%TD*%
%TO.P,C5,1*%
%TO.N,+3V3*%
X123255000Y-111605000D03*
%TO.P,C5,2*%
%TO.N,GND*%
X123255000Y-113155000D03*
%TD*%
D21*
%TO.P,C14,1*%
%TO.N,Net-(C14-Pad1)*%
X151730000Y-95990000D03*
%TO.P,C14,2*%
%TO.N,GND*%
X153280000Y-95990000D03*
%TD*%
D15*
%TO.P,J4,1,1*%
%TO.N,+3V3*%
X160840000Y-84460000D03*
%TO.P,J4,2,2*%
%TO.N,Sense2_SDA*%
X159840000Y-84460000D03*
%TO.P,J4,3,3*%
%TO.N,Sense2_SCL*%
X158840000Y-84460000D03*
%TO.P,J4,4,4*%
%TO.N,GND*%
X157840000Y-84460000D03*
D16*
%TO.P,J4,S1,SHIELD*%
X162140000Y-80585000D03*
%TO.P,J4,S2,SHIELD*%
X156540000Y-80585000D03*
%TD*%
D21*
%TO.P,C9,1*%
%TO.N,+3V3*%
X151770000Y-92450000D03*
%TO.P,C9,2*%
%TO.N,GND*%
X153320000Y-92450000D03*
%TD*%
D22*
%TO.P,J8,1,Pin_1*%
%TO.N,+3V8*%
X162240000Y-112460000D03*
%TO.P,J8,2,Pin_2*%
%TO.N,GND*%
X162240000Y-109960000D03*
D23*
%TO.P,J8,3*%
%TO.N,N/C*%
X169290000Y-115660000D03*
%TO.P,J8,4*%
X169290000Y-106760000D03*
%TD*%
D24*
%TO.P,R4,1*%
%TO.N,DTR*%
X145330000Y-100740000D03*
%TO.P,R4,2*%
%TO.N,Net-(Q3-Pad1)*%
X145330000Y-102390000D03*
%TD*%
D20*
%TO.P,C7,2*%
%TO.N,GND*%
X124890000Y-108485000D03*
%TO.P,C7,1*%
%TO.N,+3V3*%
X124890000Y-106935000D03*
%TD*%
D18*
%TO.P,Q3,1,B*%
%TO.N,Net-(Q3-Pad1)*%
X145330000Y-104272500D03*
%TO.P,Q3,2,E*%
%TO.N,RTS*%
X143430000Y-104272500D03*
%TO.P,Q3,3,C*%
%TO.N,EN*%
X144380000Y-106147500D03*
%TD*%
D14*
%TO.P,R1,1*%
%TO.N,+3V3*%
X128140000Y-108535000D03*
%TO.P,R1,2*%
%TO.N,EN*%
X128140000Y-106885000D03*
%TD*%
D25*
%TO.P,D3,1,K*%
%TO.N,GND*%
X122822500Y-81350000D03*
%TO.P,D3,2,A*%
%TO.N,Net-(D3-Pad2)*%
X124397500Y-81350000D03*
%TD*%
D26*
%TO.P,U5,1,CLKIN*%
%TO.N,GND*%
X148655000Y-98240000D03*
%TO.P,U5,2*%
%TO.N,N/C*%
X148655000Y-98740000D03*
%TO.P,U5,3*%
X148655000Y-99240000D03*
%TO.P,U5,4*%
X148655000Y-99740000D03*
%TO.P,U5,5*%
X148655000Y-100240000D03*
%TO.P,U5,6,AUX_SDA*%
%TO.N,unconnected-(U5-Pad6)*%
X148655000Y-100740000D03*
D27*
%TO.P,U5,7,AUX_SCL*%
%TO.N,unconnected-(U5-Pad7)*%
X149355000Y-101440000D03*
%TO.P,U5,8,VDDIO*%
%TO.N,+3V3*%
X149855000Y-101440000D03*
%TO.P,U5,9,AD0*%
%TO.N,GND*%
X150355000Y-101440000D03*
%TO.P,U5,10,REGOUT*%
%TO.N,Net-(C13-Pad1)*%
X150855000Y-101440000D03*
%TO.P,U5,11,FSYNC*%
%TO.N,GND*%
X151355000Y-101440000D03*
%TO.P,U5,12,INT*%
%TO.N,unconnected-(U5-Pad12)*%
X151855000Y-101440000D03*
D26*
%TO.P,U5,13,VDD*%
%TO.N,+3V3*%
X152555000Y-100740000D03*
%TO.P,U5,14*%
%TO.N,N/C*%
X152555000Y-100240000D03*
%TO.P,U5,15*%
X152555000Y-99740000D03*
%TO.P,U5,16*%
X152555000Y-99240000D03*
%TO.P,U5,17*%
X152555000Y-98740000D03*
%TO.P,U5,18,GND*%
%TO.N,GND*%
X152555000Y-98240000D03*
D27*
%TO.P,U5,19*%
%TO.N,N/C*%
X151855000Y-97540000D03*
%TO.P,U5,20,CPOUT*%
%TO.N,Net-(C14-Pad1)*%
X151355000Y-97540000D03*
%TO.P,U5,21*%
%TO.N,N/C*%
X150855000Y-97540000D03*
%TO.P,U5,22*%
X150355000Y-97540000D03*
%TO.P,U5,23,SCL*%
%TO.N,Onboard_SCL*%
X149855000Y-97540000D03*
%TO.P,U5,24,SDA*%
%TO.N,Onboard_SDA*%
X149355000Y-97540000D03*
%TD*%
D28*
%TO.P,S1,1*%
%TO.N,GND*%
X139140000Y-113460000D03*
%TO.P,S1,2*%
%TO.N,EN*%
X139140000Y-110210000D03*
%TD*%
D25*
%TO.P,D2,1,K*%
%TO.N,GND*%
X122860000Y-83100000D03*
%TO.P,D2,2,A*%
%TO.N,Net-(D2-Pad2)*%
X124435000Y-83100000D03*
%TD*%
D13*
%TO.P,R6,1*%
%TO.N,IO13*%
X127465000Y-83110000D03*
%TO.P,R6,2*%
%TO.N,Net-(D2-Pad2)*%
X125815000Y-83110000D03*
%TD*%
D29*
%TO.P,U3,1,GND*%
%TO.N,GND*%
X124945000Y-115960000D03*
%TO.P,U3,2,TXD*%
%TO.N,PROG_TX*%
X126215000Y-115960000D03*
%TO.P,U3,3,RXD*%
%TO.N,PROG_RX*%
X127485000Y-115960000D03*
%TO.P,U3,4,V3*%
%TO.N,+3V3*%
X128755000Y-115960000D03*
%TO.P,U3,5,UD+*%
%TO.N,D+*%
X130025000Y-115960000D03*
%TO.P,U3,6,UD-*%
%TO.N,D-*%
X131295000Y-115960000D03*
%TO.P,U3,7,NC.*%
%TO.N,unconnected-(U3-Pad7)*%
X132565000Y-115960000D03*
%TO.P,U3,8,~{OUT}*%
%TO.N,unconnected-(U3-Pad8)*%
X133835000Y-115960000D03*
%TO.P,U3,9,~{CTS}*%
%TO.N,unconnected-(U3-Pad9)*%
X133835000Y-110460000D03*
%TO.P,U3,10,~{DSR}*%
%TO.N,unconnected-(U3-Pad10)*%
X132565000Y-110460000D03*
%TO.P,U3,11,~{RI}*%
%TO.N,unconnected-(U3-Pad11)*%
X131295000Y-110460000D03*
%TO.P,U3,12,~{DCD}*%
%TO.N,unconnected-(U3-Pad12)*%
X130025000Y-110460000D03*
%TO.P,U3,13,~{DTR}*%
%TO.N,DTR*%
X128755000Y-110460000D03*
%TO.P,U3,14,~{RTS}*%
%TO.N,RTS*%
X127485000Y-110460000D03*
%TO.P,U3,15,R232*%
%TO.N,unconnected-(U3-Pad15)*%
X126215000Y-110460000D03*
%TO.P,U3,16,VCC*%
%TO.N,+3V3*%
X124945000Y-110460000D03*
%TD*%
D13*
%TO.P,R8,1*%
%TO.N,+3V8*%
X162765000Y-115280000D03*
%TO.P,R8,2*%
%TO.N,IO35*%
X161115000Y-115280000D03*
%TD*%
D30*
%TO.P,C11,1*%
%TO.N,+3V3*%
X154650000Y-100235000D03*
%TO.P,C11,2*%
%TO.N,GND*%
X154650000Y-98685000D03*
%TD*%
D15*
%TO.P,J6,1,1*%
%TO.N,+3V3*%
X142640000Y-84560000D03*
%TO.P,J6,2,2*%
%TO.N,Sense4_SDA*%
X141640000Y-84560000D03*
%TO.P,J6,3,3*%
%TO.N,Sense4_SCL*%
X140640000Y-84560000D03*
%TO.P,J6,4,4*%
%TO.N,GND*%
X139640000Y-84560000D03*
D16*
%TO.P,J6,S1,SHIELD*%
X143940000Y-80685000D03*
%TO.P,J6,S2,SHIELD*%
X138340000Y-80685000D03*
%TD*%
D31*
%TO.P,Q2,1,B*%
%TO.N,Net-(Q2-Pad1)*%
X143440000Y-98897500D03*
%TO.P,Q2,2,E*%
%TO.N,DTR*%
X145340000Y-98897500D03*
%TO.P,Q2,3,C*%
%TO.N,GPIO0*%
X144390000Y-97022500D03*
%TD*%
D20*
%TO.P,C8,2*%
%TO.N,GND*%
X123230000Y-108470000D03*
%TO.P,C8,1*%
%TO.N,+3V3*%
X123230000Y-106920000D03*
%TD*%
D32*
%TO.P,U4,1,A0*%
%TO.N,GND*%
X150215000Y-89097500D03*
%TO.P,U4,2,A1*%
X149565000Y-89097500D03*
%TO.P,U4,3,~{RESET}*%
%TO.N,Net-(R7-Pad2)*%
X148915000Y-89097500D03*
%TO.P,U4,4,SD0*%
%TO.N,Sense1_SDA*%
X148265000Y-89097500D03*
%TO.P,U4,5,SC0*%
%TO.N,Sense1_SCL*%
X147615000Y-89097500D03*
%TO.P,U4,6,SD1*%
%TO.N,Sense2_SDA*%
X146965000Y-89097500D03*
%TO.P,U4,7,SC1*%
%TO.N,Sense2_SCL*%
X146315000Y-89097500D03*
%TO.P,U4,8,SD2*%
%TO.N,Sense3_SDA*%
X145665000Y-89097500D03*
%TO.P,U4,9,SC2*%
%TO.N,Sense3_SCL*%
X145015000Y-89097500D03*
%TO.P,U4,10,SD3*%
%TO.N,Sense4_SDA*%
X144365000Y-89097500D03*
%TO.P,U4,11,SC3*%
%TO.N,Sense4_SCL*%
X143715000Y-89097500D03*
%TO.P,U4,12,GND*%
%TO.N,GND*%
X143065000Y-89097500D03*
%TO.P,U4,13,SD4*%
%TO.N,Sense5_SDA*%
X143065000Y-94822500D03*
%TO.P,U4,14,SC4*%
%TO.N,Sense5_SCL*%
X143715000Y-94822500D03*
%TO.P,U4,15,SD5*%
%TO.N,Onboard_SDA*%
X144365000Y-94822500D03*
%TO.P,U4,16,SC5*%
%TO.N,Onboard_SCL*%
X145015000Y-94822500D03*
%TO.P,U4,17,SD6*%
%TO.N,unconnected-(U4-Pad17)*%
X145665000Y-94822500D03*
%TO.P,U4,18,SC6*%
%TO.N,unconnected-(U4-Pad18)*%
X146315000Y-94822500D03*
%TO.P,U4,19,SD7*%
%TO.N,unconnected-(U4-Pad19)*%
X146965000Y-94822500D03*
%TO.P,U4,20,SC7*%
%TO.N,unconnected-(U4-Pad20)*%
X147615000Y-94822500D03*
%TO.P,U4,21,A2*%
%TO.N,GND*%
X148265000Y-94822500D03*
%TO.P,U4,22,SCL*%
%TO.N,I2C1_SCL*%
X148915000Y-94822500D03*
%TO.P,U4,23,SDA*%
%TO.N,I2C1_SDA*%
X149565000Y-94822500D03*
%TO.P,U4,24,VCC*%
%TO.N,+3V3*%
X150215000Y-94822500D03*
%TD*%
D20*
%TO.P,C2,1*%
%TO.N,EN*%
X126440000Y-106935000D03*
%TO.P,C2,2*%
%TO.N,GND*%
X126440000Y-108485000D03*
%TD*%
D33*
%TO.P,C1,1*%
%TO.N,GND*%
X140695000Y-108070000D03*
%TO.P,C1,2*%
%TO.N,EN*%
X139145000Y-108070000D03*
%TD*%
D21*
%TO.P,C10,1*%
%TO.N,+3V3*%
X151770000Y-94200000D03*
%TO.P,C10,2*%
%TO.N,GND*%
X153320000Y-94200000D03*
%TD*%
%TO.P,C13,1*%
%TO.N,Net-(C13-Pad1)*%
X151475000Y-103040000D03*
%TO.P,C13,2*%
%TO.N,GND*%
X153025000Y-103040000D03*
%TD*%
D13*
%TO.P,R7,2*%
%TO.N,Net-(R7-Pad2)*%
X151725000Y-90840000D03*
%TO.P,R7,1*%
%TO.N,+3V3*%
X153375000Y-90840000D03*
%TD*%
D34*
%TO.P,D1,2,A*%
%TO.N,VBUS*%
X152550000Y-108300000D03*
%TO.P,D1,1,K*%
%TO.N,Net-(C3-Pad1)*%
X152550000Y-105500000D03*
%TD*%
D35*
%TO.P,U1,1,GND*%
%TO.N,GND*%
X123130000Y-105042500D03*
%TO.P,U1,2,3V3*%
%TO.N,+3V3*%
X124400000Y-105042500D03*
%TO.P,U1,3,EN*%
%TO.N,EN*%
X125670000Y-105042500D03*
%TO.P,U1,4,SENSOR_VP*%
%TO.N,unconnected-(U1-Pad4)*%
X126940000Y-105042500D03*
%TO.P,U1,5,SENSOR_VN*%
%TO.N,unconnected-(U1-Pad5)*%
X128210000Y-105042500D03*
%TO.P,U1,6,IO34*%
%TO.N,unconnected-(U1-Pad6)*%
X129480000Y-105042500D03*
%TO.P,U1,7,IO35*%
%TO.N,IO35*%
X130750000Y-105042500D03*
%TO.P,U1,8,IO32*%
%TO.N,IO32*%
X132020000Y-105042500D03*
%TO.P,U1,9,IO33*%
%TO.N,IO33*%
X133290000Y-105042500D03*
%TO.P,U1,10,IO25*%
%TO.N,IO25*%
X134560000Y-105042500D03*
%TO.P,U1,11,IO26*%
%TO.N,IO26*%
X135830000Y-105042500D03*
%TO.P,U1,12,IO27*%
%TO.N,IO27*%
X137100000Y-105042500D03*
%TO.P,U1,13,IO14*%
%TO.N,unconnected-(U1-Pad13)*%
X138370000Y-105042500D03*
%TO.P,U1,14,IO12*%
%TO.N,unconnected-(U1-Pad14)*%
X139640000Y-105042500D03*
D36*
%TO.P,U1,15,GND*%
%TO.N,GND*%
X140890000Y-102007500D03*
%TO.P,U1,16,IO13*%
%TO.N,IO13*%
X140890000Y-100737500D03*
%TO.P,U1,17,NC*%
%TO.N,unconnected-(U1-Pad17)*%
X140890000Y-99467500D03*
%TO.P,U1,18,NC*%
%TO.N,unconnected-(U1-Pad18)*%
X140890000Y-98197500D03*
%TO.P,U1,19,NC*%
%TO.N,unconnected-(U1-Pad19)*%
X140890000Y-96927500D03*
%TO.P,U1,20,NC*%
%TO.N,unconnected-(U1-Pad20)*%
X140890000Y-95657500D03*
%TO.P,U1,21,NC*%
%TO.N,unconnected-(U1-Pad21)*%
X140890000Y-94387500D03*
%TO.P,U1,22,NC*%
%TO.N,unconnected-(U1-Pad22)*%
X140890000Y-93117500D03*
%TO.P,U1,23,IO15*%
%TO.N,unconnected-(U1-Pad23)*%
X140890000Y-91847500D03*
%TO.P,U1,24,IO2*%
%TO.N,unconnected-(U1-Pad24)*%
X140890000Y-90577500D03*
D35*
%TO.P,U1,25,IO0*%
%TO.N,GPIO0*%
X139640000Y-87542500D03*
%TO.P,U1,26,IO4*%
%TO.N,unconnected-(U1-Pad26)*%
X138370000Y-87542500D03*
%TO.P,U1,27,IO16*%
%TO.N,unconnected-(U1-Pad27)*%
X137100000Y-87542500D03*
%TO.P,U1,28,IO17*%
%TO.N,SD_DETECT*%
X135830000Y-87542500D03*
%TO.P,U1,29,IO5*%
%TO.N,CS*%
X134560000Y-87542500D03*
%TO.P,U1,30,IO18*%
%TO.N,SCLK*%
X133290000Y-87542500D03*
%TO.P,U1,31,IO19*%
%TO.N,MISO*%
X132020000Y-87542500D03*
%TO.P,U1,32,NC1*%
%TO.N,unconnected-(U1-Pad32)*%
X130750000Y-87542500D03*
%TO.P,U1,33,IO21*%
%TO.N,I2C1_SDA*%
X129480000Y-87542500D03*
%TO.P,U1,34,RXD0*%
%TO.N,PROG_TX*%
X128210000Y-87542500D03*
%TO.P,U1,35,TXD0*%
%TO.N,PROG_RX*%
X126940000Y-87542500D03*
%TO.P,U1,36,IO22*%
%TO.N,I2C1_SCL*%
X125670000Y-87542500D03*
%TO.P,U1,37,IO23*%
%TO.N,MOSI*%
X124400000Y-87542500D03*
%TO.P,U1,38,GND*%
%TO.N,GND*%
X123130000Y-87542500D03*
D37*
%TO.P,U1,39_1,GND*%
X129450000Y-99192500D03*
%TO.P,U1,39_2,GND*%
X129450000Y-97792500D03*
%TO.P,U1,39_3,GND*%
X129450000Y-96392500D03*
%TO.P,U1,39_4,GND*%
X130850000Y-99192500D03*
%TO.P,U1,39_5,GND*%
X130850000Y-97792500D03*
%TO.P,U1,39_6,GND*%
X130850000Y-96392500D03*
%TO.P,U1,39_7,GND*%
X132250000Y-99192500D03*
%TO.P,U1,39_8,GND*%
X132250000Y-97792500D03*
%TO.P,U1,39_9,GND*%
X132250000Y-96392500D03*
%TD*%
D14*
%TO.P,R3,1*%
%TO.N,RTS*%
X143440000Y-102390000D03*
%TO.P,R3,2*%
%TO.N,Net-(Q2-Pad1)*%
X143440000Y-100740000D03*
%TD*%
D21*
%TO.P,C12,1*%
%TO.N,+3V3*%
X148055000Y-103040000D03*
%TO.P,C12,2*%
%TO.N,GND*%
X149605000Y-103040000D03*
%TD*%
D30*
%TO.P,C3,1*%
%TO.N,Net-(C3-Pad1)*%
X154470000Y-104815000D03*
%TO.P,C3,2*%
%TO.N,GND*%
X154470000Y-103265000D03*
%TD*%
D38*
%TO.P,111,1,1*%
%TO.N,unconnected-(111-Pad1)*%
X157515000Y-92750000D03*
%TO.P,111,2,2*%
%TO.N,CS*%
X157515000Y-93850000D03*
%TO.P,111,3,3*%
%TO.N,MOSI*%
X157515000Y-94950000D03*
%TO.P,111,4,4*%
%TO.N,+3V3*%
X157515000Y-96050000D03*
%TO.P,111,5,5*%
%TO.N,SCLK*%
X157515000Y-97150000D03*
%TO.P,111,6,6*%
%TO.N,GND*%
X157515000Y-98250000D03*
%TO.P,111,7,7*%
%TO.N,MISO*%
X157515000Y-99350000D03*
%TO.P,111,8,8*%
%TO.N,unconnected-(111-Pad8)*%
X157515000Y-100450000D03*
%TO.P,111,CD1,CD1*%
%TO.N,SD_DETECT*%
X157515000Y-101550000D03*
D39*
%TO.P,111,MP1,MP1*%
%TO.N,unconnected-(111-PadMP1)*%
X158365000Y-102650000D03*
D40*
%TO.P,111,MP2,MP2*%
%TO.N,GND*%
X168065000Y-103070000D03*
%TO.P,111,MP3,MP3*%
X168065000Y-87550000D03*
D39*
%TO.P,111,MP4,MP4*%
X158365000Y-87970000D03*
%TD*%
D15*
%TO.P,J7,1,1*%
%TO.N,+3V3*%
X133640000Y-84560000D03*
%TO.P,J7,2,2*%
%TO.N,Sense5_SDA*%
X132640000Y-84560000D03*
%TO.P,J7,3,3*%
%TO.N,Sense5_SCL*%
X131640000Y-84560000D03*
%TO.P,J7,4,4*%
%TO.N,GND*%
X130640000Y-84560000D03*
D16*
%TO.P,J7,S1,SHIELD*%
X134940000Y-80685000D03*
%TO.P,J7,S2,SHIELD*%
X129340000Y-80685000D03*
%TD*%
D14*
%TO.P,R14,1*%
%TO.N,+3V3*%
X148320000Y-106445000D03*
%TO.P,R14,2*%
%TO.N,Onboard_SCL*%
X148320000Y-104795000D03*
%TD*%
D15*
%TO.P,J5,1,1*%
%TO.N,+3V3*%
X151940000Y-84560000D03*
%TO.P,J5,2,2*%
%TO.N,Sense3_SDA*%
X150940000Y-84560000D03*
%TO.P,J5,3,3*%
%TO.N,Sense3_SCL*%
X149940000Y-84560000D03*
%TO.P,J5,4,4*%
%TO.N,GND*%
X148940000Y-84560000D03*
D16*
%TO.P,J5,S1,SHIELD*%
X153240000Y-80685000D03*
%TO.P,J5,S2,SHIELD*%
X147640000Y-80685000D03*
%TD*%
D41*
%TO.N,GND*%
X144100000Y-90420000D03*
%TO.N,+3V3*%
X150223007Y-92420159D03*
X150350000Y-96200000D03*
%TO.N,GND*%
X131530000Y-100040000D03*
X144370000Y-109470000D03*
X130460000Y-81080000D03*
X142740000Y-114410000D03*
X161240000Y-109010000D03*
X153640000Y-98010000D03*
X157790000Y-80950000D03*
X133650000Y-81050000D03*
X152270000Y-109480000D03*
X122300000Y-87100000D03*
X142630000Y-81020000D03*
X148100000Y-84790000D03*
X168100000Y-88830000D03*
X144370000Y-110280000D03*
X139620000Y-83260000D03*
X122340000Y-109010000D03*
X158780000Y-98680000D03*
X122300000Y-87920000D03*
X157830000Y-83190000D03*
X152250000Y-110300000D03*
X153910000Y-113040000D03*
X154240000Y-92420000D03*
X170210000Y-80770000D03*
X122240000Y-104610000D03*
X131590000Y-95510000D03*
X161800000Y-108110000D03*
X158780000Y-97870000D03*
X167980000Y-102000000D03*
X162940000Y-109010000D03*
X123900000Y-114740000D03*
X167130000Y-83210000D03*
X159600000Y-87334500D03*
X130140000Y-100010000D03*
X160920000Y-80910000D03*
X123285000Y-114040000D03*
X155344951Y-102439549D03*
X151220000Y-88730000D03*
X148900000Y-81060000D03*
X150340000Y-102890500D03*
X157090000Y-115320000D03*
X149496401Y-105486476D03*
X153900000Y-114380000D03*
X151210000Y-89540000D03*
X147565087Y-93485500D03*
X154200000Y-95950000D03*
X143264500Y-90420000D03*
X123440000Y-80010000D03*
X130660000Y-83120000D03*
X142140000Y-102010000D03*
X147789500Y-98171422D03*
X122340000Y-108110000D03*
X140740000Y-109010000D03*
X122940000Y-103910000D03*
X139550000Y-81030000D03*
X142740000Y-113010000D03*
X152030000Y-81090000D03*
D42*
X155749528Y-106709500D03*
D41*
X167020000Y-80810000D03*
X139150000Y-112500000D03*
X154195023Y-94254977D03*
X130130000Y-95550000D03*
%TO.N,VBUS*%
X157641938Y-111501938D03*
X150258205Y-108158945D03*
X151200000Y-108200000D03*
X156695562Y-110045562D03*
X145910000Y-108520000D03*
X145070000Y-108510000D03*
%TO.N,CS*%
X138120000Y-90530000D03*
X156050000Y-93840000D03*
%TO.N,MOSI*%
X124420000Y-88840000D03*
X134410500Y-92460000D03*
X156390000Y-94940000D03*
X137976512Y-92109750D03*
%TO.N,+3V3*%
X160840000Y-83110000D03*
X149410000Y-107010000D03*
X129698019Y-114225404D03*
X124950000Y-103670000D03*
X151940000Y-83310000D03*
X142640000Y-83190000D03*
X153617938Y-100833340D03*
X123940000Y-103670000D03*
X151770000Y-93300000D03*
X158780000Y-96470000D03*
X158790000Y-95670000D03*
X162920000Y-105750000D03*
X129391496Y-107734500D03*
X147870000Y-101980000D03*
X122350000Y-106920000D03*
X170140000Y-83110000D03*
X124940000Y-111510000D03*
X125040000Y-84910000D03*
X133630000Y-83140000D03*
X153370000Y-89690000D03*
%TO.N,SCLK*%
X156230000Y-97140000D03*
X139059670Y-99729670D03*
%TO.N,MISO*%
X159740000Y-102010000D03*
X131960000Y-88800000D03*
%TO.N,SD_DETECT*%
X158740000Y-101310000D03*
X135810000Y-88780000D03*
%TO.N,DTR*%
X127850500Y-97500000D03*
X129160000Y-103630000D03*
X138060000Y-107370000D03*
X144380000Y-104729500D03*
X129427045Y-111619826D03*
%TO.N,GPIO0*%
X143690000Y-96610000D03*
X139645000Y-88915000D03*
%TO.N,RTS*%
X127800000Y-103670000D03*
X126354750Y-101890500D03*
X126800000Y-111700000D03*
%TO.N,EN*%
X132080000Y-108840000D03*
X130170000Y-106880000D03*
%TO.N,IO35*%
X139340000Y-101710000D03*
X153630000Y-101870000D03*
%TO.N,IO33*%
X133151470Y-102978530D03*
X127440000Y-80310000D03*
%TO.N,IO25*%
X135375273Y-103432451D03*
%TO.N,IO26*%
X136440000Y-103710000D03*
%TO.N,IO13*%
X130879303Y-88986783D03*
X133440000Y-95310000D03*
X130540000Y-86192998D03*
X133440000Y-93180500D03*
%TO.N,I2C1_SDA*%
X138620000Y-92940000D03*
X149823639Y-93336407D03*
%TO.N,PROG_TX*%
X126530477Y-114530477D03*
X128240000Y-89710000D03*
%TO.N,PROG_RX*%
X126940000Y-88880000D03*
X128680477Y-112600000D03*
%TO.N,I2C1_SCL*%
X138650500Y-94150000D03*
X148915000Y-93752796D03*
%TO.N,Onboard_SDA*%
X144613323Y-93440327D03*
X146931102Y-96318898D03*
X148860000Y-97490500D03*
%TO.N,Onboard_SCL*%
X148130000Y-96420000D03*
X145650000Y-93485500D03*
%TO.N,IO27*%
X137670380Y-103747440D03*
%TO.N,IO32*%
X132050000Y-103460000D03*
X133040000Y-107880000D03*
X135480000Y-107940000D03*
%TD*%
D43*
%TO.N,GND*%
X161240000Y-109010000D02*
X162110000Y-109010000D01*
X162110000Y-109010000D02*
X162940000Y-109010000D01*
X161800000Y-108110000D02*
X161800000Y-108700000D01*
X161800000Y-108700000D02*
X162110000Y-109010000D01*
X161800000Y-108110000D02*
X161800000Y-107310000D01*
%TO.N,+3V3*%
X162920000Y-105750000D02*
X161810000Y-105750000D01*
X161810000Y-105750000D02*
X161800000Y-105760000D01*
X161800000Y-105760000D02*
X159617500Y-105760000D01*
X159617500Y-105760000D02*
X159607500Y-105770000D01*
%TO.N,GND*%
X157332500Y-106720000D02*
X155760028Y-106720000D01*
X155760028Y-106720000D02*
X155749528Y-106709500D01*
%TO.N,Net-(R5-Pad1)*%
X154470000Y-107835000D02*
X157167500Y-107835000D01*
X157167500Y-107835000D02*
X157332500Y-107670000D01*
D44*
%TO.N,Net-(C3-Pad1)*%
X156702500Y-105760000D02*
X157883528Y-105760000D01*
X157883528Y-105760000D02*
X158470000Y-106346472D01*
X158470000Y-106346472D02*
X158470000Y-109472500D01*
X158470000Y-109472500D02*
X156410000Y-111532500D01*
D45*
%TO.N,RTS*%
X127800000Y-103670000D02*
X127800000Y-103335750D01*
X127800000Y-103335750D02*
X126354750Y-101890500D01*
%TO.N,PROG_RX*%
X126940000Y-88880000D02*
X126940000Y-87542500D01*
%TO.N,DTR*%
X129160000Y-103630000D02*
X128070000Y-102540000D01*
X128070000Y-102540000D02*
X128070000Y-97719500D01*
X128070000Y-97719500D02*
X127850500Y-97500000D01*
D43*
%TO.N,Net-(C3-Pad1)*%
X154470000Y-104815000D02*
X154470000Y-106185000D01*
%TO.N,+3V3*%
X146850000Y-106445000D02*
X148845000Y-106445000D01*
X148845000Y-106445000D02*
X149410000Y-107010000D01*
%TO.N,GND*%
X152250000Y-110300000D02*
X152250000Y-109500000D01*
D45*
%TO.N,Onboard_SCL*%
X148130000Y-96420000D02*
X149280000Y-96420000D01*
X149855000Y-96995000D02*
X149855000Y-97540000D01*
X149280000Y-96420000D02*
X149855000Y-96995000D01*
D44*
%TO.N,+3V3*%
X150223007Y-92420159D02*
X150252848Y-92450000D01*
X150252848Y-92450000D02*
X151770000Y-92450000D01*
D46*
%TO.N,GND*%
X143065000Y-89097500D02*
X143065000Y-90220500D01*
X143065000Y-90220500D02*
X143264500Y-90420000D01*
%TO.N,D-*%
X133183554Y-113911665D02*
X133183554Y-113840000D01*
X130910000Y-114913554D02*
X132283554Y-113540000D01*
X130910000Y-115575000D02*
X130910000Y-114913554D01*
X132583600Y-113840000D02*
G75*
G03*
X132283554Y-113540000I-300000J0D01*
G01*
X134683554Y-113539954D02*
G75*
G03*
X134383554Y-113840000I46J-300046D01*
G01*
X133183565Y-113911665D02*
G75*
G02*
X132883554Y-114211665I-299965J-35D01*
G01*
X134383565Y-113911665D02*
G75*
G02*
X134083554Y-114211665I-299965J-35D01*
G01*
X136313554Y-113540000D02*
X138183554Y-111670000D01*
X146756446Y-107760000D02*
X147570000Y-108573554D01*
X134083554Y-114211746D02*
G75*
G02*
X133783554Y-113911665I46J300046D01*
G01*
X132583554Y-113840000D02*
X132583554Y-113911665D01*
X134383554Y-113911665D02*
X134383554Y-113840000D01*
X134683554Y-113540000D02*
X134733554Y-113540000D01*
X133783600Y-113840000D02*
G75*
G03*
X133483554Y-113540000I-300000J0D01*
G01*
X132883554Y-114211746D02*
G75*
G02*
X132583554Y-113911665I46J300046D01*
G01*
X133483554Y-113539954D02*
G75*
G03*
X133183554Y-113840000I46J-300046D01*
G01*
X131295000Y-115960000D02*
X130910000Y-115575000D01*
X133783554Y-113840000D02*
X133783554Y-113911665D01*
X134733554Y-113540000D02*
X136313554Y-113540000D01*
X138183554Y-111670000D02*
X140133554Y-111670000D01*
X140133554Y-111670000D02*
X144043554Y-107760000D01*
X147570000Y-108573554D02*
X147570000Y-109900000D01*
X144043554Y-107760000D02*
X146756446Y-107760000D01*
%TO.N,D+*%
X130410000Y-115575000D02*
X130025000Y-115960000D01*
X130410000Y-114706446D02*
X130410000Y-115575000D01*
X132076446Y-113040000D02*
X130410000Y-114706446D01*
X136106446Y-113040000D02*
X132076446Y-113040000D01*
X137976446Y-111170000D02*
X136106446Y-113040000D01*
X143836446Y-107260000D02*
X139926446Y-111170000D01*
X146963554Y-107260000D02*
X143836446Y-107260000D01*
X148070000Y-109900000D02*
X148070000Y-108366446D01*
X139926446Y-111170000D02*
X137976446Y-111170000D01*
X148070000Y-108366446D02*
X146963554Y-107260000D01*
X149070000Y-109900000D02*
X149070000Y-109090000D01*
X149070000Y-109090000D02*
X148830000Y-108850000D01*
X148830000Y-108850000D02*
X148310000Y-108850000D01*
X148310000Y-108850000D02*
X148070000Y-109090000D01*
X148070000Y-109090000D02*
X148070000Y-109900000D01*
%TO.N,D-*%
X148570000Y-109900000D02*
X148570000Y-110710000D01*
X148570000Y-110710000D02*
X148320000Y-110960000D01*
X148320000Y-110960000D02*
X147820000Y-110960000D01*
X147820000Y-110960000D02*
X147570000Y-110710000D01*
X147570000Y-110710000D02*
X147570000Y-109900000D01*
D43*
%TO.N,GND*%
X144100000Y-90420000D02*
X143264500Y-90420000D01*
D44*
%TO.N,+3V3*%
X150350000Y-96200000D02*
X150265000Y-96115000D01*
X150265000Y-96115000D02*
X150265000Y-94822500D01*
X151770000Y-93300000D02*
X151770000Y-92450000D01*
X151770000Y-94200000D02*
X151770000Y-93300000D01*
D43*
%TO.N,GND*%
X130130000Y-95550000D02*
X130130000Y-96190000D01*
X151210000Y-89540000D02*
X150657500Y-89540000D01*
D44*
X153910000Y-114370000D02*
X153900000Y-114380000D01*
X155750028Y-106710000D02*
X155749528Y-106709500D01*
X153320000Y-94200000D02*
X154140046Y-94200000D01*
D43*
X122300000Y-87100000D02*
X122300000Y-87920000D01*
D44*
X153910000Y-113040000D02*
X153910000Y-114370000D01*
D43*
X161240000Y-109010000D02*
X161290000Y-109010000D01*
X151212500Y-89097500D02*
X151220000Y-89090000D01*
D44*
X153900000Y-116040000D02*
X153900000Y-114380000D01*
D43*
X158780000Y-98680000D02*
X158780000Y-98630000D01*
X151220000Y-89530000D02*
X151210000Y-89540000D01*
D45*
X147565087Y-93485500D02*
X147651896Y-93485500D01*
X152555000Y-98240000D02*
X153410000Y-98240000D01*
X147789500Y-98171422D02*
X147858578Y-98240500D01*
D43*
X144565000Y-110280000D02*
X144945000Y-109900000D01*
X150215000Y-89097500D02*
X149740000Y-89097500D01*
X139620000Y-84540000D02*
X139640000Y-84560000D01*
X153280000Y-94240000D02*
X153320000Y-94200000D01*
D44*
X154180000Y-103040000D02*
X154780451Y-102439549D01*
D43*
X130460000Y-81080000D02*
X129735000Y-81080000D01*
X122300000Y-87100000D02*
X122687500Y-87100000D01*
X161290000Y-109010000D02*
X162240000Y-109960000D01*
D44*
X139150000Y-113450000D02*
X139140000Y-113460000D01*
D43*
X122940000Y-103910000D02*
X122940000Y-104852500D01*
D45*
X151603958Y-102215000D02*
X152200000Y-102215000D01*
D43*
X122240000Y-104610000D02*
X122940000Y-103910000D01*
D45*
X151355000Y-101966042D02*
X151603958Y-102215000D01*
X148165000Y-94722500D02*
X148265000Y-94822500D01*
D43*
X129450000Y-96392500D02*
X132250000Y-99192500D01*
X122940000Y-104852500D02*
X123130000Y-105042500D01*
X134575000Y-81050000D02*
X134940000Y-80685000D01*
D44*
X123440000Y-80010000D02*
X122860000Y-80590000D01*
D43*
X139550000Y-81030000D02*
X138685000Y-81030000D01*
X132250000Y-99192500D02*
X132250000Y-96392500D01*
X148710000Y-84790000D02*
X148940000Y-84560000D01*
X151220000Y-88730000D02*
X151220000Y-89090000D01*
X152105000Y-109490000D02*
X151695000Y-109900000D01*
X167130000Y-84450000D02*
X167140000Y-84460000D01*
X122340000Y-109010000D02*
X122690000Y-109010000D01*
X153320000Y-92450000D02*
X153320000Y-94200000D01*
D45*
X150355000Y-102875500D02*
X150355000Y-101440000D01*
D43*
X157790000Y-80950000D02*
X156905000Y-80950000D01*
X154240000Y-92420000D02*
X153350000Y-92420000D01*
X131530000Y-99280000D02*
X131617500Y-99192500D01*
X130850000Y-96392500D02*
X130850000Y-99192500D01*
D44*
X150670000Y-105475000D02*
X149507877Y-105475000D01*
D43*
X122697500Y-104610000D02*
X123130000Y-105042500D01*
X150215000Y-89097500D02*
X151212500Y-89097500D01*
X140695000Y-108965000D02*
X140740000Y-109010000D01*
X138685000Y-81030000D02*
X138340000Y-80685000D01*
D45*
X159600000Y-87334500D02*
X159000500Y-87334500D01*
D43*
X124945000Y-115960000D02*
X124945000Y-115785000D01*
D44*
X154315000Y-98685000D02*
X153640000Y-98010000D01*
D43*
X122690000Y-109010000D02*
X123230000Y-108470000D01*
X148900000Y-81060000D02*
X148015000Y-81060000D01*
X129450000Y-97792500D02*
X132250000Y-97792500D01*
X171255000Y-80770000D02*
X171440000Y-80585000D01*
X131530000Y-100040000D02*
X131530000Y-99280000D01*
D45*
X151355000Y-101440000D02*
X151355000Y-101966042D01*
D44*
X153025000Y-103040000D02*
X154180000Y-103040000D01*
D43*
X130197500Y-99192500D02*
X131617500Y-99192500D01*
D44*
X139150000Y-112500000D02*
X139150000Y-113450000D01*
X153910000Y-111370000D02*
X153900000Y-111360000D01*
D43*
X129450000Y-96392500D02*
X129450000Y-99192500D01*
X123245000Y-108485000D02*
X123230000Y-108470000D01*
X139620000Y-83260000D02*
X139620000Y-84540000D01*
X150582500Y-88730000D02*
X150215000Y-89097500D01*
X152250000Y-109490000D02*
X152105000Y-109490000D01*
X130140000Y-100010000D02*
X130140000Y-99250000D01*
X153280000Y-95990000D02*
X153280000Y-94240000D01*
X157840000Y-84460000D02*
X157840000Y-83200000D01*
X130140000Y-99250000D02*
X130197500Y-99192500D01*
X144790000Y-109470000D02*
X145020000Y-109700000D01*
X152105000Y-110310000D02*
X151695000Y-109900000D01*
X130660000Y-83120000D02*
X130660000Y-84540000D01*
X153350000Y-92420000D02*
X153320000Y-92450000D01*
X157100000Y-115310000D02*
X157090000Y-115320000D01*
X158780000Y-97870000D02*
X158780000Y-98680000D01*
X152230000Y-109510000D02*
X152250000Y-109490000D01*
X158780000Y-98630000D02*
X158400000Y-98250000D01*
X123255000Y-113155000D02*
X123255000Y-114010000D01*
X143605000Y-81020000D02*
X143940000Y-80685000D01*
X151220000Y-88730000D02*
X150582500Y-88730000D01*
D44*
X154650000Y-98685000D02*
X154315000Y-98685000D01*
D43*
X129450000Y-99192500D02*
X130197500Y-99192500D01*
X148100000Y-84790000D02*
X148710000Y-84790000D01*
D44*
X154140046Y-94200000D02*
X154195023Y-94254977D01*
D43*
X152835000Y-81090000D02*
X153240000Y-80685000D01*
D44*
X142740000Y-113010000D02*
X142740000Y-111360000D01*
D43*
X130850000Y-99192500D02*
X129450000Y-97792500D01*
D44*
X154780451Y-102439549D02*
X155344951Y-102439549D01*
D43*
X131597500Y-96392500D02*
X132250000Y-96392500D01*
X122687500Y-87100000D02*
X123130000Y-87542500D01*
X129735000Y-81080000D02*
X129340000Y-80685000D01*
X140695000Y-108070000D02*
X140695000Y-108965000D01*
D44*
X153910000Y-113040000D02*
X153910000Y-111370000D01*
D43*
X152230000Y-110310000D02*
X152105000Y-110310000D01*
X122300000Y-87920000D02*
X122752500Y-87920000D01*
X145020000Y-109700000D02*
X145020000Y-109900000D01*
X142630000Y-81020000D02*
X143605000Y-81020000D01*
X129450000Y-96392500D02*
X130332500Y-96392500D01*
X123255000Y-114010000D02*
X123285000Y-114040000D01*
X156905000Y-80950000D02*
X156540000Y-80585000D01*
D44*
X150250500Y-102980000D02*
X150340000Y-102890500D01*
D43*
X122240000Y-104610000D02*
X122697500Y-104610000D01*
X130850000Y-96392500D02*
X132250000Y-97792500D01*
X148015000Y-81060000D02*
X147640000Y-80685000D01*
D45*
X147858578Y-98240500D02*
X148655000Y-98240500D01*
D43*
X133650000Y-81050000D02*
X134575000Y-81050000D01*
X170210000Y-80770000D02*
X171255000Y-80770000D01*
X131590000Y-96385000D02*
X131597500Y-96392500D01*
X162940000Y-109010000D02*
X162940000Y-109260000D01*
X157840000Y-83200000D02*
X157830000Y-83190000D01*
X158400000Y-98250000D02*
X158780000Y-97870000D01*
X157985000Y-115310000D02*
X157100000Y-115310000D01*
D45*
X152200000Y-102215000D02*
X153025000Y-103040000D01*
D43*
X123285000Y-114040000D02*
X123285000Y-114125000D01*
D44*
X153320000Y-95950000D02*
X153280000Y-95990000D01*
D43*
X131617500Y-99192500D02*
X132250000Y-99192500D01*
X124945000Y-115785000D02*
X123900000Y-114740000D01*
X129450000Y-97792500D02*
X130850000Y-96392500D01*
D45*
X147651896Y-93485500D02*
X148165000Y-93998604D01*
D44*
X142740000Y-114410000D02*
X142740000Y-113010000D01*
D43*
X131590000Y-95510000D02*
X131590000Y-96385000D01*
X129450000Y-99192500D02*
X132250000Y-96392500D01*
X167020000Y-80810000D02*
X166065000Y-80810000D01*
D45*
X148165000Y-93998604D02*
X148165000Y-94722500D01*
D43*
X152030000Y-81090000D02*
X152835000Y-81090000D01*
X123285000Y-114125000D02*
X123900000Y-114740000D01*
X142140000Y-102010000D02*
X140892500Y-102010000D01*
D45*
X159000500Y-87334500D02*
X158365000Y-87970000D01*
X168065000Y-88795000D02*
X168100000Y-88830000D01*
D43*
X122340000Y-108110000D02*
X122870000Y-108110000D01*
D44*
X154564500Y-103220000D02*
X153025000Y-103220000D01*
D43*
X130130000Y-96190000D02*
X130332500Y-96392500D01*
X122870000Y-108110000D02*
X123230000Y-108470000D01*
X140892500Y-102010000D02*
X140890000Y-102007500D01*
X144370000Y-109470000D02*
X144790000Y-109470000D01*
X144370000Y-110280000D02*
X144565000Y-110280000D01*
D45*
X167980000Y-102985000D02*
X168065000Y-103070000D01*
D44*
X155344951Y-102439549D02*
X154564500Y-103220000D01*
D43*
X167130000Y-83210000D02*
X167130000Y-84450000D01*
X157515000Y-98250000D02*
X158400000Y-98250000D01*
D45*
X167980000Y-102000000D02*
X167980000Y-102985000D01*
X153410000Y-98240000D02*
X153640000Y-98010000D01*
X168065000Y-87550000D02*
X168065000Y-88795000D01*
D43*
X166065000Y-80810000D02*
X165840000Y-80585000D01*
X130332500Y-96392500D02*
X131597500Y-96392500D01*
X161815000Y-80910000D02*
X162140000Y-80585000D01*
X132250000Y-97792500D02*
X130850000Y-99192500D01*
X162940000Y-109260000D02*
X162240000Y-109960000D01*
X151220000Y-89090000D02*
X151220000Y-89530000D01*
D44*
X122860000Y-80590000D02*
X122860000Y-83100000D01*
D43*
X122340000Y-108110000D02*
X122340000Y-109010000D01*
X122752500Y-87920000D02*
X123130000Y-87542500D01*
D44*
X142740000Y-114410000D02*
X142740000Y-116030000D01*
D43*
X126440000Y-108485000D02*
X123245000Y-108485000D01*
X144370000Y-109470000D02*
X144370000Y-110280000D01*
D44*
X154200000Y-95950000D02*
X153320000Y-95950000D01*
D43*
X160920000Y-80910000D02*
X161815000Y-80910000D01*
X150657500Y-89540000D02*
X150215000Y-89097500D01*
D44*
X149605000Y-102980000D02*
X150250500Y-102980000D01*
%TO.N,VBUS*%
X153590000Y-109390000D02*
X152500000Y-108300000D01*
X145845000Y-108750000D02*
X145845000Y-109900000D01*
X145995000Y-108605000D02*
X145995000Y-109900000D01*
X157672500Y-111532500D02*
X157641938Y-111501938D01*
X151200000Y-108200000D02*
X150820000Y-108580000D01*
X145820000Y-108725000D02*
X145845000Y-108750000D01*
X156040000Y-109390000D02*
X153590000Y-109390000D01*
X156695562Y-110045562D02*
X156040000Y-109390000D01*
X145070000Y-108530000D02*
X145265000Y-108725000D01*
X145070000Y-108510000D02*
X145605000Y-108510000D01*
X158310000Y-111532500D02*
X157672500Y-111532500D01*
X150700000Y-107700000D02*
X151200000Y-108200000D01*
X145520000Y-108725000D02*
X145820000Y-108725000D01*
X150645000Y-108365000D02*
X150645000Y-109900000D01*
X145070000Y-108510000D02*
X145070000Y-108530000D01*
D43*
X151300000Y-108300000D02*
X151200000Y-108200000D01*
X152500000Y-108300000D02*
X151300000Y-108300000D01*
D44*
X150820000Y-108580000D02*
X150820000Y-109900000D01*
X145910000Y-108520000D02*
X145995000Y-108605000D01*
X145845000Y-108750000D02*
X145845000Y-109855000D01*
X145605000Y-108510000D02*
X145845000Y-108750000D01*
X145265000Y-108725000D02*
X145520000Y-108725000D01*
X150700000Y-107125000D02*
X150700000Y-107700000D01*
X150645000Y-108710000D02*
X150645000Y-109875000D01*
D45*
%TO.N,CS*%
X138120000Y-90530000D02*
X136499339Y-90530000D01*
X156060000Y-93850000D02*
X156050000Y-93840000D01*
X136499339Y-90530000D02*
X134560000Y-88590661D01*
X157515000Y-93850000D02*
X156060000Y-93850000D01*
X134560000Y-88590661D02*
X134560000Y-87542500D01*
%TO.N,MOSI*%
X157515000Y-94950000D02*
X156400000Y-94950000D01*
X137626262Y-92460000D02*
X134410500Y-92460000D01*
X124420000Y-87562500D02*
X124400000Y-87542500D01*
X124420000Y-88840000D02*
X124420000Y-87562500D01*
X137626262Y-92460000D02*
X137976512Y-92109750D01*
X156400000Y-94950000D02*
X156390000Y-94940000D01*
D44*
%TO.N,+3V3*%
X123230000Y-106920000D02*
X123705000Y-106445000D01*
D45*
X149665000Y-102215000D02*
X148505000Y-102215000D01*
D43*
X124940000Y-111510000D02*
X124945000Y-111505000D01*
D45*
X149855000Y-101440000D02*
X149855000Y-101966041D01*
D44*
X123230000Y-106920000D02*
X122350000Y-106920000D01*
D43*
X129391496Y-107734500D02*
X128940500Y-107734500D01*
X151940000Y-83310000D02*
X151940000Y-84560000D01*
D44*
X124890000Y-106935000D02*
X123245000Y-106935000D01*
X124400000Y-105047500D02*
X124400000Y-106445000D01*
D43*
X129698019Y-114225404D02*
X128755000Y-115168423D01*
X160840000Y-83110000D02*
X160840000Y-84460000D01*
X157515000Y-96050000D02*
X158410000Y-96050000D01*
X133630000Y-83140000D02*
X133630000Y-84550000D01*
X125780000Y-84850000D02*
X125790000Y-84860000D01*
D44*
X124860000Y-103670000D02*
X124400000Y-104130000D01*
D45*
X148105000Y-102215000D02*
X147870000Y-101980000D01*
D43*
X158360000Y-96050000D02*
X157515000Y-96050000D01*
D45*
X149855000Y-102025000D02*
X149665000Y-102215000D01*
D44*
X124400000Y-106445000D02*
X124890000Y-106935000D01*
D45*
X148055000Y-102665000D02*
X148505000Y-102215000D01*
X148055000Y-102165000D02*
X147870000Y-101980000D01*
D43*
X142640000Y-83190000D02*
X142640000Y-84560000D01*
D45*
X149855000Y-101966041D02*
X149606041Y-102215000D01*
X148505000Y-102215000D02*
X148105000Y-102215000D01*
X148055000Y-103040000D02*
X148055000Y-102165000D01*
X150215000Y-94005000D02*
X151770000Y-92450000D01*
D43*
X128755000Y-115168423D02*
X128755000Y-115960000D01*
D44*
X147870000Y-102795000D02*
X148055000Y-102980000D01*
X154650000Y-100235000D02*
X154216278Y-100235000D01*
D45*
X149606041Y-102215000D02*
X148880000Y-102215000D01*
X153524598Y-100740000D02*
X153617938Y-100833340D01*
D44*
X123705000Y-106445000D02*
X124400000Y-106445000D01*
X124950000Y-103670000D02*
X124860000Y-103670000D01*
D45*
X150215000Y-94822500D02*
X150215000Y-94005000D01*
D43*
X124335000Y-84850000D02*
X125780000Y-84850000D01*
X158790000Y-96460000D02*
X158780000Y-96470000D01*
X133630000Y-84550000D02*
X133640000Y-84560000D01*
D44*
X153375000Y-89695000D02*
X153370000Y-89690000D01*
D43*
X128940500Y-107734500D02*
X128140000Y-108535000D01*
D44*
X153375000Y-90840000D02*
X153375000Y-89695000D01*
X124400000Y-104130000D02*
X124400000Y-105042500D01*
D43*
X124945000Y-111505000D02*
X124945000Y-110460000D01*
D44*
X123940000Y-103670000D02*
X124950000Y-103670000D01*
X154216278Y-100235000D02*
X153617938Y-100833340D01*
D43*
X158790000Y-95670000D02*
X158790000Y-96460000D01*
D44*
X124400000Y-105042500D02*
X124400000Y-105750000D01*
X147870000Y-101980000D02*
X147870000Y-102795000D01*
D43*
X158780000Y-96470000D02*
X158360000Y-96050000D01*
D45*
X148880000Y-102215000D02*
X148055000Y-103040000D01*
D43*
X123350000Y-111510000D02*
X123255000Y-111605000D01*
D45*
X148055000Y-103040000D02*
X148055000Y-102665000D01*
D43*
X124940000Y-111510000D02*
X123350000Y-111510000D01*
X158410000Y-96050000D02*
X158790000Y-95670000D01*
D44*
X124400000Y-105750000D02*
X123230000Y-106920000D01*
X123940000Y-103670000D02*
X124400000Y-104130000D01*
D45*
X149855000Y-101440000D02*
X149855000Y-102025000D01*
D43*
X170140000Y-83110000D02*
X170140000Y-84460000D01*
D45*
X152555000Y-100740000D02*
X153524598Y-100740000D01*
%TO.N,SCLK*%
X139040000Y-94821161D02*
X139400500Y-94460661D01*
X139400500Y-94460661D02*
X139400500Y-92249839D01*
X139040000Y-99710000D02*
X139040000Y-94821161D01*
X139400500Y-92249839D02*
X138430661Y-91280000D01*
X139059670Y-99729670D02*
X139040000Y-99710000D01*
X136180000Y-91280000D02*
X133290000Y-88390000D01*
X138430661Y-91280000D02*
X136180000Y-91280000D01*
X133290000Y-88390000D02*
X133290000Y-87542500D01*
X157515000Y-97150000D02*
X156240000Y-97150000D01*
X156240000Y-97150000D02*
X156230000Y-97140000D01*
%TO.N,MISO*%
X131960000Y-88800000D02*
X131960000Y-87602500D01*
D46*
X159740000Y-100675000D02*
X159740000Y-102010000D01*
X158415000Y-99350000D02*
X159740000Y-100675000D01*
D45*
X131960000Y-87602500D02*
X132020000Y-87542500D01*
D46*
X157515000Y-99350000D02*
X158415000Y-99350000D01*
%TO.N,SD_DETECT*%
X157515000Y-101550000D02*
X158500000Y-101550000D01*
D45*
X135810000Y-87562500D02*
X135830000Y-87542500D01*
X135810000Y-88780000D02*
X135810000Y-87562500D01*
D46*
X158500000Y-101550000D02*
X158740000Y-101310000D01*
D44*
%TO.N,Net-(D2-Pad2)*%
X124335000Y-83100000D02*
X125705000Y-83100000D01*
X125705000Y-83100000D02*
X125715000Y-83110000D01*
D43*
%TO.N,Net-(C3-Pad1)*%
X153185000Y-106185000D02*
X154470000Y-106185000D01*
D44*
X154960000Y-105610000D02*
X156552500Y-105610000D01*
X154470000Y-106100000D02*
X154960000Y-105610000D01*
X156652500Y-105710000D02*
X154860000Y-105710000D01*
X156702500Y-105760000D02*
X156652500Y-105710000D01*
D43*
X152500000Y-105500000D02*
X153185000Y-106185000D01*
D44*
X156552500Y-105610000D02*
X156702500Y-105760000D01*
%TO.N,Net-(D3-Pad2)*%
X125705000Y-81350000D02*
X125715000Y-81360000D01*
X124297500Y-81350000D02*
X125705000Y-81350000D01*
%TO.N,Net-(Q2-Pad1)*%
X143440000Y-98897500D02*
X143440000Y-100740000D01*
D45*
%TO.N,DTR*%
X128755000Y-110947781D02*
X128755000Y-110460000D01*
X132114080Y-106940000D02*
X128755000Y-110299080D01*
X144380000Y-101690000D02*
X144380000Y-104729500D01*
X145340000Y-100730000D02*
X145330000Y-100740000D01*
X137630000Y-106940000D02*
X132114080Y-106940000D01*
X145340000Y-98897500D02*
X145340000Y-100730000D01*
X145330000Y-100740000D02*
X144380000Y-101690000D01*
X129427045Y-111619826D02*
X128755000Y-110947781D01*
X138060000Y-107370000D02*
X137630000Y-106940000D01*
D44*
%TO.N,GPIO0*%
X139645000Y-87547500D02*
X139640000Y-87542500D01*
X139645000Y-88915000D02*
X139645000Y-87547500D01*
X144102500Y-97022500D02*
X143690000Y-96610000D01*
X144390000Y-97022500D02*
X144102500Y-97022500D01*
%TO.N,Net-(Q3-Pad1)*%
X145330000Y-102390000D02*
X145330000Y-104272500D01*
D45*
%TO.N,RTS*%
X143430000Y-104272500D02*
X142707500Y-104272500D01*
X142707500Y-104272500D02*
X140540000Y-106440000D01*
X143430000Y-102400000D02*
X143440000Y-102390000D01*
X127485000Y-111015000D02*
X127485000Y-110460000D01*
X129006974Y-109340000D02*
X128444080Y-109340000D01*
X143430000Y-104272500D02*
X143430000Y-102400000D01*
X131906974Y-106440000D02*
X129006974Y-109340000D01*
X126800000Y-111700000D02*
X127485000Y-111015000D01*
X140540000Y-106440000D02*
X131906974Y-106440000D01*
X127485000Y-110299080D02*
X127485000Y-110460000D01*
X128444080Y-109340000D02*
X127485000Y-110299080D01*
D44*
%TO.N,EN*%
X125670000Y-105872500D02*
X126040000Y-106242500D01*
X138185000Y-109030000D02*
X139145000Y-108070000D01*
X132270000Y-109030000D02*
X138185000Y-109030000D01*
X125670000Y-105047500D02*
X125670000Y-106165000D01*
X130165000Y-106885000D02*
X130170000Y-106880000D01*
X127497500Y-106242500D02*
X128140000Y-106885000D01*
X142342500Y-106147500D02*
X141450000Y-107040000D01*
X126795000Y-106580000D02*
X126440000Y-106935000D01*
X126040000Y-106242500D02*
X127497500Y-106242500D01*
X132080000Y-108840000D02*
X132270000Y-109030000D01*
X141450000Y-107040000D02*
X140175000Y-107040000D01*
X128140000Y-106885000D02*
X130165000Y-106885000D01*
X140175000Y-107040000D02*
X139145000Y-108070000D01*
X127835000Y-106580000D02*
X126795000Y-106580000D01*
X139145000Y-110205000D02*
X139140000Y-110210000D01*
X128140000Y-106885000D02*
X127835000Y-106580000D01*
X144380000Y-106147500D02*
X142342500Y-106147500D01*
X125670000Y-106165000D02*
X126440000Y-106935000D01*
X139145000Y-108070000D02*
X139145000Y-110205000D01*
X125670000Y-105042500D02*
X125670000Y-105872500D01*
D46*
%TO.N,IO35*%
X165340000Y-105610000D02*
X165340000Y-115710000D01*
X130750000Y-103220000D02*
X130750000Y-105042500D01*
X155640000Y-101710000D02*
X158340000Y-104410000D01*
D44*
X159635000Y-115310000D02*
X160340000Y-115310000D01*
X161085000Y-115310000D02*
X161115000Y-115280000D01*
D46*
X164540000Y-116510000D02*
X161540000Y-116510000D01*
X165340000Y-115710000D02*
X164540000Y-116510000D01*
X153790000Y-101710000D02*
X155640000Y-101710000D01*
X161540000Y-116510000D02*
X160340000Y-115310000D01*
D44*
X160340000Y-115310000D02*
X161085000Y-115310000D01*
D46*
X130740000Y-103210000D02*
X130750000Y-103220000D01*
X158340000Y-104410000D02*
X164140000Y-104410000D01*
X139340000Y-101710000D02*
X132240000Y-101710000D01*
X132240000Y-101710000D02*
X130740000Y-103210000D01*
X164140000Y-104410000D02*
X165340000Y-105610000D01*
X153630000Y-101870000D02*
X153790000Y-101710000D01*
D45*
%TO.N,IO33*%
X133151470Y-104903970D02*
X133290000Y-105042500D01*
X133151470Y-102978530D02*
X133151470Y-104903970D01*
X127465000Y-81360000D02*
X127465000Y-80335000D01*
X127465000Y-80335000D02*
X127440000Y-80310000D01*
%TO.N,IO25*%
X134560000Y-104247724D02*
X135375273Y-103432451D01*
X134560000Y-105042500D02*
X134560000Y-104247724D01*
%TO.N,IO26*%
X136440000Y-103710000D02*
X135830000Y-104320000D01*
X135830000Y-104320000D02*
X135830000Y-105042500D01*
%TO.N,IO13*%
X133440000Y-91547480D02*
X130879303Y-88986783D01*
X140890000Y-100737500D02*
X138867500Y-100737500D01*
X127840000Y-83110000D02*
X127365000Y-83110000D01*
X130540000Y-86192998D02*
X129822998Y-86192998D01*
X138867500Y-100737500D02*
X133440000Y-95310000D01*
X128540000Y-84910000D02*
X128540000Y-83810000D01*
X133440000Y-93180500D02*
X133440000Y-91547480D01*
X128540000Y-83810000D02*
X127840000Y-83110000D01*
X129822998Y-86192998D02*
X128540000Y-84910000D01*
%TO.N,I2C1_SDA*%
X127440000Y-84860000D02*
X129480000Y-86900000D01*
X149823639Y-93336407D02*
X149665000Y-93495046D01*
X149665000Y-93495046D02*
X149665000Y-94722500D01*
X129480000Y-92090000D02*
X129480000Y-87542500D01*
X131320000Y-93930000D02*
X129480000Y-92090000D01*
X137630000Y-93930000D02*
X138620000Y-92940000D01*
X129480000Y-86900000D02*
X129480000Y-87542500D01*
X149665000Y-94722500D02*
X149565000Y-94822500D01*
X131320000Y-93930000D02*
X137630000Y-93930000D01*
%TO.N,PROG_TX*%
X128240000Y-89710000D02*
X128240000Y-87572500D01*
X128240000Y-87572500D02*
X128210000Y-87542500D01*
X126530477Y-114530477D02*
X126215000Y-114845954D01*
X126215000Y-114845954D02*
X126215000Y-115960000D01*
%TO.N,PROG_RX*%
X128680477Y-113359523D02*
X127485000Y-114555000D01*
X127485000Y-114555000D02*
X127485000Y-115960000D01*
X128680477Y-112600000D02*
X128680477Y-113359523D01*
%TO.N,I2C1_SCL*%
X125200000Y-86442500D02*
X125670000Y-86912500D01*
X124277500Y-86442500D02*
X125200000Y-86442500D01*
X125670000Y-89670000D02*
X125670000Y-87542500D01*
X138250500Y-94550000D02*
X130550000Y-94550000D01*
X148915000Y-93752796D02*
X148915000Y-94822500D01*
X125670000Y-86912500D02*
X125670000Y-87542500D01*
X130550000Y-94550000D02*
X125670000Y-89670000D01*
X122685000Y-84850000D02*
X124277500Y-86442500D01*
X138650500Y-94150000D02*
X138250500Y-94550000D01*
D44*
%TO.N,Net-(R7-Pad2)*%
X149792183Y-90840000D02*
X148915000Y-89962817D01*
X148915000Y-89962817D02*
X148915000Y-89097500D01*
X151725000Y-90840000D02*
X149792183Y-90840000D01*
D45*
%TO.N,Sense1_SDA*%
X168160000Y-86600000D02*
X162247107Y-86600000D01*
X162247107Y-86600000D02*
X159747107Y-89100000D01*
X148265000Y-87867106D02*
X148265000Y-89097500D01*
X159747107Y-89100000D02*
X156260000Y-89100000D01*
X148440000Y-87692106D02*
X148265000Y-87867106D01*
X154852106Y-87692106D02*
X148440000Y-87692106D01*
X156260000Y-89100000D02*
X154852106Y-87692106D01*
X169140000Y-84460000D02*
X169140000Y-85620000D01*
X169140000Y-85620000D02*
X168160000Y-86600000D01*
%TO.N,Sense1_SCL*%
X168140000Y-85110000D02*
X167420000Y-85830000D01*
X162310000Y-85830000D02*
X161555000Y-86585000D01*
X161555000Y-86585000D02*
X157715000Y-86585000D01*
X167420000Y-85830000D02*
X162310000Y-85830000D01*
X157107894Y-87192106D02*
X147997894Y-87192106D01*
X147615000Y-87575000D02*
X147615000Y-89097500D01*
X168140000Y-84460000D02*
X168140000Y-85110000D01*
X157715000Y-86585000D02*
X157107894Y-87192106D01*
X147997894Y-87192106D02*
X147615000Y-87575000D01*
%TO.N,Sense2_SDA*%
X157082106Y-86085000D02*
X156475001Y-86692106D01*
X159840000Y-84460000D02*
X159950000Y-84570000D01*
X150168680Y-86685000D02*
X147359212Y-86685000D01*
X147359212Y-86685000D02*
X146965000Y-87079212D01*
X156475001Y-86692106D02*
X150175786Y-86692106D01*
X146965000Y-87079212D02*
X146965000Y-89097500D01*
X159950000Y-84570000D02*
X159950000Y-85380000D01*
X150175786Y-86692106D02*
X150168680Y-86685000D01*
X159950000Y-85380000D02*
X159245000Y-86085000D01*
X159245000Y-86085000D02*
X157082106Y-86085000D01*
%TO.N,Sense2_SCL*%
X158840000Y-85235000D02*
X158490000Y-85585000D01*
X147152106Y-86185000D02*
X146315000Y-87022106D01*
X156875000Y-85585000D02*
X156267894Y-86192106D01*
X158840000Y-84460000D02*
X158840000Y-85235000D01*
X146315000Y-87022106D02*
X146315000Y-89097500D01*
X158490000Y-85585000D02*
X156875000Y-85585000D01*
X156267894Y-86192106D02*
X150382893Y-86192106D01*
X150382893Y-86192106D02*
X150375787Y-86185000D01*
X150375787Y-86185000D02*
X147152106Y-86185000D01*
%TO.N,Sense3_SDA*%
X150940000Y-84560000D02*
X150590000Y-84910000D01*
X145665000Y-86315000D02*
X145665000Y-89097500D01*
X150582894Y-85685000D02*
X146295000Y-85685000D01*
X150590000Y-84910000D02*
X150590000Y-85692106D01*
X150590000Y-85692106D02*
X150582894Y-85685000D01*
X146295000Y-85685000D02*
X145665000Y-86315000D01*
%TO.N,Sense3_SCL*%
X149940000Y-83485000D02*
X149655000Y-83200000D01*
X149940000Y-84560000D02*
X149940000Y-83485000D01*
X145015000Y-84605000D02*
X145015000Y-89097500D01*
X149655000Y-83200000D02*
X146420000Y-83200000D01*
X146420000Y-83200000D02*
X145015000Y-84605000D01*
%TO.N,Sense4_SDA*%
X141640000Y-85335000D02*
X141990000Y-85685000D01*
X142665000Y-85685000D02*
X144365000Y-87385000D01*
X144365000Y-87385000D02*
X144365000Y-89097500D01*
X141640000Y-84560000D02*
X141640000Y-85335000D01*
X141990000Y-85685000D02*
X142665000Y-85685000D01*
%TO.N,Sense4_SCL*%
X140640000Y-85245000D02*
X143715000Y-88320000D01*
X143715000Y-88320000D02*
X143715000Y-89097500D01*
X140640000Y-84560000D02*
X140640000Y-85245000D01*
%TO.N,Sense5_SDA*%
X132705000Y-85700000D02*
X140387894Y-85700000D01*
X142515000Y-87827106D02*
X142515000Y-94272500D01*
X142515000Y-94272500D02*
X143065000Y-94822500D01*
X132640000Y-84560000D02*
X132640000Y-85635000D01*
X140387894Y-85700000D02*
X142515000Y-87827106D01*
X132640000Y-85635000D02*
X132705000Y-85700000D01*
%TO.N,Sense5_SCL*%
X142778604Y-95910000D02*
X143329339Y-95910000D01*
X143601396Y-95860000D02*
X143715000Y-95746396D01*
X142015000Y-88215000D02*
X142015000Y-95146396D01*
X131640000Y-85635000D02*
X132447500Y-86442500D01*
X143329339Y-95910000D02*
X143379339Y-95860000D01*
X143715000Y-95746396D02*
X143715000Y-94822500D01*
X132447500Y-86442500D02*
X140242500Y-86442500D01*
X142015000Y-95146396D02*
X142778604Y-95910000D01*
X131640000Y-84560000D02*
X131640000Y-85635000D01*
X143379339Y-95860000D02*
X143601396Y-95860000D01*
X140242500Y-86442500D02*
X142015000Y-88215000D01*
%TO.N,Net-(C13-Pad1)*%
X150855000Y-102173148D02*
X151475000Y-102793148D01*
X151475000Y-102793148D02*
X151475000Y-103220000D01*
X150855000Y-101440000D02*
X150855000Y-102173148D01*
%TO.N,Net-(C14-Pad1)*%
X151355000Y-97540000D02*
X151355000Y-96365000D01*
X151355000Y-96365000D02*
X151730000Y-95990000D01*
D47*
%TO.N,+3V8*%
X161292500Y-113407500D02*
X157360000Y-113407500D01*
X162765000Y-112985000D02*
X162240000Y-112460000D01*
X162240000Y-112460000D02*
X161292500Y-113407500D01*
X162765000Y-115010000D02*
X162765000Y-112985000D01*
D45*
%TO.N,Onboard_SDA*%
X146440000Y-104385000D02*
X146850000Y-104795000D01*
X146931102Y-96318898D02*
X146440000Y-96810000D01*
X144365000Y-93688650D02*
X144365000Y-94822500D01*
X144613323Y-93440327D02*
X144365000Y-93688650D01*
X148860000Y-97490500D02*
X149305500Y-97490500D01*
X146440000Y-96810000D02*
X146440000Y-104385000D01*
X149305500Y-97490500D02*
X149355000Y-97540000D01*
%TO.N,Onboard_SCL*%
X145115000Y-93998604D02*
X145115000Y-94722500D01*
X148130000Y-96420000D02*
X147040000Y-97510000D01*
X145628104Y-93485500D02*
X145115000Y-93998604D01*
X147040000Y-103515000D02*
X148320000Y-104795000D01*
X147040000Y-97510000D02*
X147040000Y-103515000D01*
X145115000Y-94722500D02*
X145015000Y-94822500D01*
X145650000Y-93485500D02*
X145628104Y-93485500D01*
%TO.N,IO27*%
X137100000Y-105042500D02*
X137100000Y-104317820D01*
X137100000Y-104317820D02*
X137670380Y-103747440D01*
%TO.N,IO32*%
X133040000Y-107880000D02*
X135420000Y-107880000D01*
X132020000Y-105042500D02*
X132020000Y-103490000D01*
X135420000Y-107880000D02*
X135480000Y-107940000D01*
%TD*%
M02*
