%TF.GenerationSoftware,KiCad,Pcbnew,6.0.9-8da3e8f707~116~ubuntu20.04.1*%
%TF.CreationDate,2022-11-17T11:37:03+01:00*%
%TF.ProjectId,panel_sensor,70616e65-6c5f-4736-956e-736f722e6b69,rev?*%
%TF.SameCoordinates,Original*%
%TF.FileFunction,Copper,L1,Top*%
%TF.FilePolarity,Positive*%
%FSLAX46Y46*%
G04 Gerber Fmt 4.6, Leading zero omitted, Abs format (unit mm)*
G04 Created by KiCad (PCBNEW 6.0.9-8da3e8f707~116~ubuntu20.04.1) date 2022-11-17 11:37:03*
%MOMM*%
%LPD*%
G01*
G04 APERTURE LIST*
G04 Aperture macros list*
%AMRoundRect*
0 Rectangle with rounded corners*
0 $1 Rounding radius*
0 $2 $3 $4 $5 $6 $7 $8 $9 X,Y pos of 4 corners*
0 Add a 4 corners polygon primitive as box body*
4,1,4,$2,$3,$4,$5,$6,$7,$8,$9,$2,$3,0*
0 Add four circle primitives for the rounded corners*
1,1,$1+$1,$2,$3*
1,1,$1+$1,$4,$5*
1,1,$1+$1,$6,$7*
1,1,$1+$1,$8,$9*
0 Add four rect primitives between the rounded corners*
20,1,$1+$1,$2,$3,$4,$5,0*
20,1,$1+$1,$4,$5,$6,$7,0*
20,1,$1+$1,$6,$7,$8,$9,0*
20,1,$1+$1,$8,$9,$2,$3,0*%
G04 Aperture macros list end*
%TA.AperFunction,SMDPad,CuDef*%
%ADD10RoundRect,0.218750X0.256250X-0.218750X0.256250X0.218750X-0.256250X0.218750X-0.256250X-0.218750X0*%
%TD*%
%TA.AperFunction,SMDPad,CuDef*%
%ADD11RoundRect,0.237500X0.237500X-0.250000X0.237500X0.250000X-0.237500X0.250000X-0.237500X-0.250000X0*%
%TD*%
%TA.AperFunction,SMDPad,CuDef*%
%ADD12RoundRect,0.225000X0.225000X0.250000X-0.225000X0.250000X-0.225000X-0.250000X0.225000X-0.250000X0*%
%TD*%
%TA.AperFunction,SMDPad,CuDef*%
%ADD13RoundRect,0.218750X-0.256250X0.218750X-0.256250X-0.218750X0.256250X-0.218750X0.256250X0.218750X0*%
%TD*%
%TA.AperFunction,SMDPad,CuDef*%
%ADD14RoundRect,0.225000X-0.225000X-0.250000X0.225000X-0.250000X0.225000X0.250000X-0.225000X0.250000X0*%
%TD*%
%TA.AperFunction,SMDPad,CuDef*%
%ADD15RoundRect,0.237500X-0.237500X0.250000X-0.237500X-0.250000X0.237500X-0.250000X0.237500X0.250000X0*%
%TD*%
%TA.AperFunction,SMDPad,CuDef*%
%ADD16RoundRect,0.225000X-0.250000X0.225000X-0.250000X-0.225000X0.250000X-0.225000X0.250000X0.225000X0*%
%TD*%
%TA.AperFunction,SMDPad,CuDef*%
%ADD17RoundRect,0.075000X-0.350000X-0.075000X0.350000X-0.075000X0.350000X0.075000X-0.350000X0.075000X0*%
%TD*%
%TA.AperFunction,SMDPad,CuDef*%
%ADD18RoundRect,0.075000X0.075000X-0.350000X0.075000X0.350000X-0.075000X0.350000X-0.075000X-0.350000X0*%
%TD*%
%TA.AperFunction,SMDPad,CuDef*%
%ADD19RoundRect,0.150000X-0.150000X-0.625000X0.150000X-0.625000X0.150000X0.625000X-0.150000X0.625000X0*%
%TD*%
%TA.AperFunction,SMDPad,CuDef*%
%ADD20RoundRect,0.250000X-0.350000X-0.650000X0.350000X-0.650000X0.350000X0.650000X-0.350000X0.650000X0*%
%TD*%
%TA.AperFunction,SMDPad,CuDef*%
%ADD21RoundRect,0.150000X0.150000X0.625000X-0.150000X0.625000X-0.150000X-0.625000X0.150000X-0.625000X0*%
%TD*%
%TA.AperFunction,SMDPad,CuDef*%
%ADD22RoundRect,0.250000X0.350000X0.650000X-0.350000X0.650000X-0.350000X-0.650000X0.350000X-0.650000X0*%
%TD*%
%TA.AperFunction,SMDPad,CuDef*%
%ADD23RoundRect,0.200000X-0.275000X0.200000X-0.275000X-0.200000X0.275000X-0.200000X0.275000X0.200000X0*%
%TD*%
%TA.AperFunction,SMDPad,CuDef*%
%ADD24RoundRect,0.225000X0.250000X-0.225000X0.250000X0.225000X-0.250000X0.225000X-0.250000X-0.225000X0*%
%TD*%
%TA.AperFunction,SMDPad,CuDef*%
%ADD25RoundRect,0.200000X0.275000X-0.200000X0.275000X0.200000X-0.275000X0.200000X-0.275000X-0.200000X0*%
%TD*%
%TA.AperFunction,SMDPad,CuDef*%
%ADD26RoundRect,0.075000X0.350000X0.075000X-0.350000X0.075000X-0.350000X-0.075000X0.350000X-0.075000X0*%
%TD*%
%TA.AperFunction,SMDPad,CuDef*%
%ADD27RoundRect,0.075000X-0.075000X0.350000X-0.075000X-0.350000X0.075000X-0.350000X0.075000X0.350000X0*%
%TD*%
%TA.AperFunction,ViaPad*%
%ADD28C,0.800000*%
%TD*%
%TA.AperFunction,Conductor*%
%ADD29C,0.300000*%
%TD*%
%TA.AperFunction,Conductor*%
%ADD30C,0.250000*%
%TD*%
%TA.AperFunction,Conductor*%
%ADD31C,0.500000*%
%TD*%
G04 APERTURE END LIST*
D10*
%TO.P,D1,1,K*%
%TO.N,Board_1-Net-(D1-Pad1)*%
X38800000Y-28437500D03*
%TO.P,D1,2,A*%
%TO.N,Board_1-+3V3*%
X38800000Y-26862500D03*
%TD*%
D11*
%TO.P,R3,1*%
%TO.N,Board_4-+3V3*%
X38810000Y-52945000D03*
%TO.P,R3,2*%
%TO.N,Board_4-SCL*%
X38810000Y-51120000D03*
%TD*%
D12*
%TO.P,C4,1*%
%TO.N,Board_0-+3V3*%
X27411000Y-32710000D03*
%TO.P,C4,2*%
%TO.N,Board_0-GND*%
X25861000Y-32710000D03*
%TD*%
D13*
%TO.P,D1,1,K*%
%TO.N,Board_5-Net-(D1-Pad1)*%
X63000000Y-42962500D03*
%TO.P,D1,2,A*%
%TO.N,Board_5-+3V3*%
X63000000Y-44537500D03*
%TD*%
D14*
%TO.P,C4,1*%
%TO.N,Board_3-+3V3*%
X31039000Y-38690000D03*
%TO.P,C4,2*%
%TO.N,Board_3-GND*%
X32589000Y-38690000D03*
%TD*%
D15*
%TO.P,R3,1*%
%TO.N,Board_1-+3V3*%
X48540000Y-18455000D03*
%TO.P,R3,2*%
%TO.N,Board_1-SCL*%
X48540000Y-20280000D03*
%TD*%
D12*
%TO.P,C4,1*%
%TO.N,Board_2-+3V3*%
X56311000Y-32710000D03*
%TO.P,C4,2*%
%TO.N,Board_2-GND*%
X54761000Y-32710000D03*
%TD*%
%TO.P,C1,1*%
%TO.N,Board_3-Net-(C1-Pad1)*%
X29020000Y-38566000D03*
%TO.P,C1,2*%
%TO.N,Board_3-GND*%
X27470000Y-38566000D03*
%TD*%
D11*
%TO.P,R2,1*%
%TO.N,Board_3-+3V3*%
X34140000Y-52945000D03*
%TO.P,R2,2*%
%TO.N,Board_3-SDA*%
X34140000Y-51120000D03*
%TD*%
D16*
%TO.P,C3,1*%
%TO.N,Board_4-Net-(C3-Pad1)*%
X43350000Y-45625000D03*
%TO.P,C3,2*%
%TO.N,Board_4-GND*%
X43350000Y-47175000D03*
%TD*%
D17*
%TO.P,U1,1,CLKIN*%
%TO.N,Board_1-unconnected-(U1-Pad1)*%
X40956000Y-27930000D03*
%TO.P,U1,2*%
%TO.N,N/C*%
X40956000Y-28430000D03*
%TO.P,U1,3*%
X40956000Y-28930000D03*
%TO.P,U1,4*%
X40956000Y-29430000D03*
%TO.P,U1,5*%
X40956000Y-29930000D03*
%TO.P,U1,6,AUX_SDA*%
%TO.N,Board_1-unconnected-(U1-Pad6)*%
X40956000Y-30430000D03*
D18*
%TO.P,U1,7,AUX_SCL*%
%TO.N,Board_1-unconnected-(U1-Pad7)*%
X41656000Y-31130000D03*
%TO.P,U1,8,VDDIO*%
%TO.N,Board_1-+3V3*%
X42156000Y-31130000D03*
%TO.P,U1,9,AD0*%
%TO.N,Board_1-GND*%
X42656000Y-31130000D03*
%TO.P,U1,10,REGOUT*%
%TO.N,Board_1-Net-(C1-Pad1)*%
X43156000Y-31130000D03*
%TO.P,U1,11,FSYNC*%
%TO.N,Board_1-unconnected-(U1-Pad11)*%
X43656000Y-31130000D03*
%TO.P,U1,12,INT*%
%TO.N,Board_1-unconnected-(U1-Pad12)*%
X44156000Y-31130000D03*
D17*
%TO.P,U1,13,VDD*%
%TO.N,Board_1-+3V3*%
X44856000Y-30430000D03*
%TO.P,U1,14*%
%TO.N,N/C*%
X44856000Y-29930000D03*
%TO.P,U1,15*%
X44856000Y-29430000D03*
%TO.P,U1,16*%
X44856000Y-28930000D03*
%TO.P,U1,17*%
X44856000Y-28430000D03*
%TO.P,U1,18,GND*%
%TO.N,Board_1-GND*%
X44856000Y-27930000D03*
D18*
%TO.P,U1,19*%
%TO.N,N/C*%
X44156000Y-27230000D03*
%TO.P,U1,20,CPOUT*%
%TO.N,Board_1-Net-(C3-Pad1)*%
X43656000Y-27230000D03*
%TO.P,U1,21*%
%TO.N,N/C*%
X43156000Y-27230000D03*
%TO.P,U1,22*%
X42656000Y-27230000D03*
%TO.P,U1,23,SCL*%
%TO.N,Board_1-SCL*%
X42156000Y-27230000D03*
%TO.P,U1,24,SDA*%
%TO.N,Board_1-SDA*%
X41656000Y-27230000D03*
%TD*%
D17*
%TO.P,U1,1,CLKIN*%
%TO.N,Board_2-unconnected-(U1-Pad1)*%
X55406000Y-27930000D03*
%TO.P,U1,2*%
%TO.N,N/C*%
X55406000Y-28430000D03*
%TO.P,U1,3*%
X55406000Y-28930000D03*
%TO.P,U1,4*%
X55406000Y-29430000D03*
%TO.P,U1,5*%
X55406000Y-29930000D03*
%TO.P,U1,6,AUX_SDA*%
%TO.N,Board_2-unconnected-(U1-Pad6)*%
X55406000Y-30430000D03*
D18*
%TO.P,U1,7,AUX_SCL*%
%TO.N,Board_2-unconnected-(U1-Pad7)*%
X56106000Y-31130000D03*
%TO.P,U1,8,VDDIO*%
%TO.N,Board_2-+3V3*%
X56606000Y-31130000D03*
%TO.P,U1,9,AD0*%
%TO.N,Board_2-GND*%
X57106000Y-31130000D03*
%TO.P,U1,10,REGOUT*%
%TO.N,Board_2-Net-(C1-Pad1)*%
X57606000Y-31130000D03*
%TO.P,U1,11,FSYNC*%
%TO.N,Board_2-unconnected-(U1-Pad11)*%
X58106000Y-31130000D03*
%TO.P,U1,12,INT*%
%TO.N,Board_2-unconnected-(U1-Pad12)*%
X58606000Y-31130000D03*
D17*
%TO.P,U1,13,VDD*%
%TO.N,Board_2-+3V3*%
X59306000Y-30430000D03*
%TO.P,U1,14*%
%TO.N,N/C*%
X59306000Y-29930000D03*
%TO.P,U1,15*%
X59306000Y-29430000D03*
%TO.P,U1,16*%
X59306000Y-28930000D03*
%TO.P,U1,17*%
X59306000Y-28430000D03*
%TO.P,U1,18,GND*%
%TO.N,Board_2-GND*%
X59306000Y-27930000D03*
D18*
%TO.P,U1,19*%
%TO.N,N/C*%
X58606000Y-27230000D03*
%TO.P,U1,20,CPOUT*%
%TO.N,Board_2-Net-(C3-Pad1)*%
X58106000Y-27230000D03*
%TO.P,U1,21*%
%TO.N,N/C*%
X57606000Y-27230000D03*
%TO.P,U1,22*%
X57106000Y-27230000D03*
%TO.P,U1,23,SCL*%
%TO.N,Board_2-SCL*%
X56606000Y-27230000D03*
%TO.P,U1,24,SDA*%
%TO.N,Board_2-SDA*%
X56106000Y-27230000D03*
%TD*%
D11*
%TO.P,R2,1*%
%TO.N,Board_5-+3V3*%
X63040000Y-52945000D03*
%TO.P,R2,2*%
%TO.N,Board_5-SDA*%
X63040000Y-51120000D03*
%TD*%
D19*
%TO.P,J1,1,1*%
%TO.N,Board_5-GND*%
X56650000Y-51300000D03*
%TO.P,J1,2,2*%
%TO.N,Board_5-SCL*%
X57650000Y-51300000D03*
%TO.P,J1,3,3*%
%TO.N,Board_5-SDA*%
X58650000Y-51300000D03*
%TO.P,J1,4,4*%
%TO.N,Board_5-+3V3*%
X59650000Y-51300000D03*
D20*
%TO.P,J1,MP*%
%TO.N,N/C*%
X55350000Y-55175000D03*
X60950000Y-55175000D03*
%TD*%
D21*
%TO.P,J1,1,1*%
%TO.N,Board_2-GND*%
X59600000Y-20100000D03*
%TO.P,J1,2,2*%
%TO.N,Board_2-SCL*%
X58600000Y-20100000D03*
%TO.P,J1,3,3*%
%TO.N,Board_2-SDA*%
X57600000Y-20100000D03*
%TO.P,J1,4,4*%
%TO.N,Board_2-+3V3*%
X56600000Y-20100000D03*
D22*
%TO.P,J1,MP*%
%TO.N,N/C*%
X60900000Y-16225000D03*
X55300000Y-16225000D03*
%TD*%
D16*
%TO.P,C2,1*%
%TO.N,Board_3-+3V3*%
X26575000Y-41000000D03*
%TO.P,C2,2*%
%TO.N,Board_3-GND*%
X26575000Y-42550000D03*
%TD*%
D23*
%TO.P,R1,1*%
%TO.N,Board_5-GND*%
X63000000Y-39850000D03*
%TO.P,R1,2*%
%TO.N,Board_5-Net-(D1-Pad1)*%
X63000000Y-41500000D03*
%TD*%
D19*
%TO.P,J1,1,1*%
%TO.N,Board_4-GND*%
X42200000Y-51300000D03*
%TO.P,J1,2,2*%
%TO.N,Board_4-SCL*%
X43200000Y-51300000D03*
%TO.P,J1,3,3*%
%TO.N,Board_4-SDA*%
X44200000Y-51300000D03*
%TO.P,J1,4,4*%
%TO.N,Board_4-+3V3*%
X45200000Y-51300000D03*
D20*
%TO.P,J1,MP*%
%TO.N,N/C*%
X40900000Y-55175000D03*
X46500000Y-55175000D03*
%TD*%
D19*
%TO.P,J1,1,1*%
%TO.N,Board_3-GND*%
X27750000Y-51300000D03*
%TO.P,J1,2,2*%
%TO.N,Board_3-SCL*%
X28750000Y-51300000D03*
%TO.P,J1,3,3*%
%TO.N,Board_3-SDA*%
X29750000Y-51300000D03*
%TO.P,J1,4,4*%
%TO.N,Board_3-+3V3*%
X30750000Y-51300000D03*
D20*
%TO.P,J1,MP*%
%TO.N,N/C*%
X32050000Y-55175000D03*
X26450000Y-55175000D03*
%TD*%
D17*
%TO.P,U1,1,CLKIN*%
%TO.N,Board_0-unconnected-(U1-Pad1)*%
X26506000Y-27930000D03*
%TO.P,U1,2*%
%TO.N,N/C*%
X26506000Y-28430000D03*
%TO.P,U1,3*%
X26506000Y-28930000D03*
%TO.P,U1,4*%
X26506000Y-29430000D03*
%TO.P,U1,5*%
X26506000Y-29930000D03*
%TO.P,U1,6,AUX_SDA*%
%TO.N,Board_0-unconnected-(U1-Pad6)*%
X26506000Y-30430000D03*
D18*
%TO.P,U1,7,AUX_SCL*%
%TO.N,Board_0-unconnected-(U1-Pad7)*%
X27206000Y-31130000D03*
%TO.P,U1,8,VDDIO*%
%TO.N,Board_0-+3V3*%
X27706000Y-31130000D03*
%TO.P,U1,9,AD0*%
%TO.N,Board_0-GND*%
X28206000Y-31130000D03*
%TO.P,U1,10,REGOUT*%
%TO.N,Board_0-Net-(C1-Pad1)*%
X28706000Y-31130000D03*
%TO.P,U1,11,FSYNC*%
%TO.N,Board_0-unconnected-(U1-Pad11)*%
X29206000Y-31130000D03*
%TO.P,U1,12,INT*%
%TO.N,Board_0-unconnected-(U1-Pad12)*%
X29706000Y-31130000D03*
D17*
%TO.P,U1,13,VDD*%
%TO.N,Board_0-+3V3*%
X30406000Y-30430000D03*
%TO.P,U1,14*%
%TO.N,N/C*%
X30406000Y-29930000D03*
%TO.P,U1,15*%
X30406000Y-29430000D03*
%TO.P,U1,16*%
X30406000Y-28930000D03*
%TO.P,U1,17*%
X30406000Y-28430000D03*
%TO.P,U1,18,GND*%
%TO.N,Board_0-GND*%
X30406000Y-27930000D03*
D18*
%TO.P,U1,19*%
%TO.N,N/C*%
X29706000Y-27230000D03*
%TO.P,U1,20,CPOUT*%
%TO.N,Board_0-Net-(C3-Pad1)*%
X29206000Y-27230000D03*
%TO.P,U1,21*%
%TO.N,N/C*%
X28706000Y-27230000D03*
%TO.P,U1,22*%
X28206000Y-27230000D03*
%TO.P,U1,23,SCL*%
%TO.N,Board_0-SCL*%
X27706000Y-27230000D03*
%TO.P,U1,24,SDA*%
%TO.N,Board_0-SDA*%
X27206000Y-27230000D03*
%TD*%
D23*
%TO.P,R1,1*%
%TO.N,Board_3-GND*%
X34100000Y-39850000D03*
%TO.P,R1,2*%
%TO.N,Board_3-Net-(D1-Pad1)*%
X34100000Y-41500000D03*
%TD*%
D15*
%TO.P,R3,1*%
%TO.N,Board_0-+3V3*%
X34090000Y-18455000D03*
%TO.P,R3,2*%
%TO.N,Board_0-SCL*%
X34090000Y-20280000D03*
%TD*%
D24*
%TO.P,C2,1*%
%TO.N,Board_1-+3V3*%
X46325000Y-30400000D03*
%TO.P,C2,2*%
%TO.N,Board_1-GND*%
X46325000Y-28850000D03*
%TD*%
D15*
%TO.P,R2,1*%
%TO.N,Board_0-+3V3*%
X24310000Y-18455000D03*
%TO.P,R2,2*%
%TO.N,Board_0-SDA*%
X24310000Y-20280000D03*
%TD*%
D24*
%TO.P,C3,1*%
%TO.N,Board_2-Net-(C3-Pad1)*%
X58450000Y-25775000D03*
%TO.P,C3,2*%
%TO.N,Board_2-GND*%
X58450000Y-24225000D03*
%TD*%
D25*
%TO.P,R1,1*%
%TO.N,Board_1-GND*%
X38800000Y-31550000D03*
%TO.P,R1,2*%
%TO.N,Board_1-Net-(D1-Pad1)*%
X38800000Y-29900000D03*
%TD*%
D26*
%TO.P,U1,1,CLKIN*%
%TO.N,Board_4-unconnected-(U1-Pad1)*%
X46394000Y-43470000D03*
%TO.P,U1,2*%
%TO.N,N/C*%
X46394000Y-42970000D03*
%TO.P,U1,3*%
X46394000Y-42470000D03*
%TO.P,U1,4*%
X46394000Y-41970000D03*
%TO.P,U1,5*%
X46394000Y-41470000D03*
%TO.P,U1,6,AUX_SDA*%
%TO.N,Board_4-unconnected-(U1-Pad6)*%
X46394000Y-40970000D03*
D27*
%TO.P,U1,7,AUX_SCL*%
%TO.N,Board_4-unconnected-(U1-Pad7)*%
X45694000Y-40270000D03*
%TO.P,U1,8,VDDIO*%
%TO.N,Board_4-+3V3*%
X45194000Y-40270000D03*
%TO.P,U1,9,AD0*%
%TO.N,Board_4-GND*%
X44694000Y-40270000D03*
%TO.P,U1,10,REGOUT*%
%TO.N,Board_4-Net-(C1-Pad1)*%
X44194000Y-40270000D03*
%TO.P,U1,11,FSYNC*%
%TO.N,Board_4-unconnected-(U1-Pad11)*%
X43694000Y-40270000D03*
%TO.P,U1,12,INT*%
%TO.N,Board_4-unconnected-(U1-Pad12)*%
X43194000Y-40270000D03*
D26*
%TO.P,U1,13,VDD*%
%TO.N,Board_4-+3V3*%
X42494000Y-40970000D03*
%TO.P,U1,14*%
%TO.N,N/C*%
X42494000Y-41470000D03*
%TO.P,U1,15*%
X42494000Y-41970000D03*
%TO.P,U1,16*%
X42494000Y-42470000D03*
%TO.P,U1,17*%
X42494000Y-42970000D03*
%TO.P,U1,18,GND*%
%TO.N,Board_4-GND*%
X42494000Y-43470000D03*
D27*
%TO.P,U1,19*%
%TO.N,N/C*%
X43194000Y-44170000D03*
%TO.P,U1,20,CPOUT*%
%TO.N,Board_4-Net-(C3-Pad1)*%
X43694000Y-44170000D03*
%TO.P,U1,21*%
%TO.N,N/C*%
X44194000Y-44170000D03*
%TO.P,U1,22*%
X44694000Y-44170000D03*
%TO.P,U1,23,SCL*%
%TO.N,Board_4-SCL*%
X45194000Y-44170000D03*
%TO.P,U1,24,SDA*%
%TO.N,Board_4-SDA*%
X45694000Y-44170000D03*
%TD*%
D11*
%TO.P,R3,1*%
%TO.N,Board_5-+3V3*%
X53260000Y-52945000D03*
%TO.P,R3,2*%
%TO.N,Board_5-SCL*%
X53260000Y-51120000D03*
%TD*%
D12*
%TO.P,C1,1*%
%TO.N,Board_4-Net-(C1-Pad1)*%
X43470000Y-38566000D03*
%TO.P,C1,2*%
%TO.N,Board_4-GND*%
X41920000Y-38566000D03*
%TD*%
D15*
%TO.P,R2,1*%
%TO.N,Board_1-+3V3*%
X38760000Y-18455000D03*
%TO.P,R2,2*%
%TO.N,Board_1-SDA*%
X38760000Y-20280000D03*
%TD*%
D14*
%TO.P,C4,1*%
%TO.N,Board_4-+3V3*%
X45489000Y-38690000D03*
%TO.P,C4,2*%
%TO.N,Board_4-GND*%
X47039000Y-38690000D03*
%TD*%
D16*
%TO.P,C3,1*%
%TO.N,Board_5-Net-(C3-Pad1)*%
X57800000Y-45625000D03*
%TO.P,C3,2*%
%TO.N,Board_5-GND*%
X57800000Y-47175000D03*
%TD*%
D15*
%TO.P,R2,1*%
%TO.N,Board_2-+3V3*%
X53210000Y-18455000D03*
%TO.P,R2,2*%
%TO.N,Board_2-SDA*%
X53210000Y-20280000D03*
%TD*%
D12*
%TO.P,C1,1*%
%TO.N,Board_5-Net-(C1-Pad1)*%
X57920000Y-38566000D03*
%TO.P,C1,2*%
%TO.N,Board_5-GND*%
X56370000Y-38566000D03*
%TD*%
D13*
%TO.P,D1,1,K*%
%TO.N,Board_4-Net-(D1-Pad1)*%
X48550000Y-42962500D03*
%TO.P,D1,2,A*%
%TO.N,Board_4-+3V3*%
X48550000Y-44537500D03*
%TD*%
D23*
%TO.P,R1,1*%
%TO.N,Board_4-GND*%
X48550000Y-39850000D03*
%TO.P,R1,2*%
%TO.N,Board_4-Net-(D1-Pad1)*%
X48550000Y-41500000D03*
%TD*%
D13*
%TO.P,D1,1,K*%
%TO.N,Board_3-Net-(D1-Pad1)*%
X34100000Y-42962500D03*
%TO.P,D1,2,A*%
%TO.N,Board_3-+3V3*%
X34100000Y-44537500D03*
%TD*%
D25*
%TO.P,R1,1*%
%TO.N,Board_2-GND*%
X53250000Y-31550000D03*
%TO.P,R1,2*%
%TO.N,Board_2-Net-(D1-Pad1)*%
X53250000Y-29900000D03*
%TD*%
D16*
%TO.P,C3,1*%
%TO.N,Board_3-Net-(C3-Pad1)*%
X28900000Y-45625000D03*
%TO.P,C3,2*%
%TO.N,Board_3-GND*%
X28900000Y-47175000D03*
%TD*%
%TO.P,C2,1*%
%TO.N,Board_5-+3V3*%
X55475000Y-41000000D03*
%TO.P,C2,2*%
%TO.N,Board_5-GND*%
X55475000Y-42550000D03*
%TD*%
D21*
%TO.P,J1,1,1*%
%TO.N,Board_1-GND*%
X45150000Y-20100000D03*
%TO.P,J1,2,2*%
%TO.N,Board_1-SCL*%
X44150000Y-20100000D03*
%TO.P,J1,3,3*%
%TO.N,Board_1-SDA*%
X43150000Y-20100000D03*
%TO.P,J1,4,4*%
%TO.N,Board_1-+3V3*%
X42150000Y-20100000D03*
D22*
%TO.P,J1,MP*%
%TO.N,N/C*%
X40850000Y-16225000D03*
X46450000Y-16225000D03*
%TD*%
D16*
%TO.P,C2,1*%
%TO.N,Board_4-+3V3*%
X41025000Y-41000000D03*
%TO.P,C2,2*%
%TO.N,Board_4-GND*%
X41025000Y-42550000D03*
%TD*%
D25*
%TO.P,R1,1*%
%TO.N,Board_0-GND*%
X24350000Y-31550000D03*
%TO.P,R1,2*%
%TO.N,Board_0-Net-(D1-Pad1)*%
X24350000Y-29900000D03*
%TD*%
D14*
%TO.P,C1,1*%
%TO.N,Board_1-Net-(C1-Pad1)*%
X43880000Y-32834000D03*
%TO.P,C1,2*%
%TO.N,Board_1-GND*%
X45430000Y-32834000D03*
%TD*%
D15*
%TO.P,R3,1*%
%TO.N,Board_2-+3V3*%
X62990000Y-18455000D03*
%TO.P,R3,2*%
%TO.N,Board_2-SCL*%
X62990000Y-20280000D03*
%TD*%
D14*
%TO.P,C1,1*%
%TO.N,Board_0-Net-(C1-Pad1)*%
X29430000Y-32834000D03*
%TO.P,C1,2*%
%TO.N,Board_0-GND*%
X30980000Y-32834000D03*
%TD*%
D24*
%TO.P,C2,1*%
%TO.N,Board_0-+3V3*%
X31875000Y-30400000D03*
%TO.P,C2,2*%
%TO.N,Board_0-GND*%
X31875000Y-28850000D03*
%TD*%
%TO.P,C2,1*%
%TO.N,Board_2-+3V3*%
X60775000Y-30400000D03*
%TO.P,C2,2*%
%TO.N,Board_2-GND*%
X60775000Y-28850000D03*
%TD*%
D11*
%TO.P,R3,1*%
%TO.N,Board_3-+3V3*%
X24360000Y-52945000D03*
%TO.P,R3,2*%
%TO.N,Board_3-SCL*%
X24360000Y-51120000D03*
%TD*%
D12*
%TO.P,C4,1*%
%TO.N,Board_1-+3V3*%
X41861000Y-32710000D03*
%TO.P,C4,2*%
%TO.N,Board_1-GND*%
X40311000Y-32710000D03*
%TD*%
D10*
%TO.P,D1,1,K*%
%TO.N,Board_0-Net-(D1-Pad1)*%
X24350000Y-28437500D03*
%TO.P,D1,2,A*%
%TO.N,Board_0-+3V3*%
X24350000Y-26862500D03*
%TD*%
D24*
%TO.P,C3,1*%
%TO.N,Board_1-Net-(C3-Pad1)*%
X44000000Y-25775000D03*
%TO.P,C3,2*%
%TO.N,Board_1-GND*%
X44000000Y-24225000D03*
%TD*%
D26*
%TO.P,U1,1,CLKIN*%
%TO.N,Board_3-unconnected-(U1-Pad1)*%
X31944000Y-43470000D03*
%TO.P,U1,2*%
%TO.N,N/C*%
X31944000Y-42970000D03*
%TO.P,U1,3*%
X31944000Y-42470000D03*
%TO.P,U1,4*%
X31944000Y-41970000D03*
%TO.P,U1,5*%
X31944000Y-41470000D03*
%TO.P,U1,6,AUX_SDA*%
%TO.N,Board_3-unconnected-(U1-Pad6)*%
X31944000Y-40970000D03*
D27*
%TO.P,U1,7,AUX_SCL*%
%TO.N,Board_3-unconnected-(U1-Pad7)*%
X31244000Y-40270000D03*
%TO.P,U1,8,VDDIO*%
%TO.N,Board_3-+3V3*%
X30744000Y-40270000D03*
%TO.P,U1,9,AD0*%
%TO.N,Board_3-GND*%
X30244000Y-40270000D03*
%TO.P,U1,10,REGOUT*%
%TO.N,Board_3-Net-(C1-Pad1)*%
X29744000Y-40270000D03*
%TO.P,U1,11,FSYNC*%
%TO.N,Board_3-unconnected-(U1-Pad11)*%
X29244000Y-40270000D03*
%TO.P,U1,12,INT*%
%TO.N,Board_3-unconnected-(U1-Pad12)*%
X28744000Y-40270000D03*
D26*
%TO.P,U1,13,VDD*%
%TO.N,Board_3-+3V3*%
X28044000Y-40970000D03*
%TO.P,U1,14*%
%TO.N,N/C*%
X28044000Y-41470000D03*
%TO.P,U1,15*%
X28044000Y-41970000D03*
%TO.P,U1,16*%
X28044000Y-42470000D03*
%TO.P,U1,17*%
X28044000Y-42970000D03*
%TO.P,U1,18,GND*%
%TO.N,Board_3-GND*%
X28044000Y-43470000D03*
D27*
%TO.P,U1,19*%
%TO.N,N/C*%
X28744000Y-44170000D03*
%TO.P,U1,20,CPOUT*%
%TO.N,Board_3-Net-(C3-Pad1)*%
X29244000Y-44170000D03*
%TO.P,U1,21*%
%TO.N,N/C*%
X29744000Y-44170000D03*
%TO.P,U1,22*%
X30244000Y-44170000D03*
%TO.P,U1,23,SCL*%
%TO.N,Board_3-SCL*%
X30744000Y-44170000D03*
%TO.P,U1,24,SDA*%
%TO.N,Board_3-SDA*%
X31244000Y-44170000D03*
%TD*%
D26*
%TO.P,U1,1,CLKIN*%
%TO.N,Board_5-unconnected-(U1-Pad1)*%
X60844000Y-43470000D03*
%TO.P,U1,2*%
%TO.N,N/C*%
X60844000Y-42970000D03*
%TO.P,U1,3*%
X60844000Y-42470000D03*
%TO.P,U1,4*%
X60844000Y-41970000D03*
%TO.P,U1,5*%
X60844000Y-41470000D03*
%TO.P,U1,6,AUX_SDA*%
%TO.N,Board_5-unconnected-(U1-Pad6)*%
X60844000Y-40970000D03*
D27*
%TO.P,U1,7,AUX_SCL*%
%TO.N,Board_5-unconnected-(U1-Pad7)*%
X60144000Y-40270000D03*
%TO.P,U1,8,VDDIO*%
%TO.N,Board_5-+3V3*%
X59644000Y-40270000D03*
%TO.P,U1,9,AD0*%
%TO.N,Board_5-GND*%
X59144000Y-40270000D03*
%TO.P,U1,10,REGOUT*%
%TO.N,Board_5-Net-(C1-Pad1)*%
X58644000Y-40270000D03*
%TO.P,U1,11,FSYNC*%
%TO.N,Board_5-unconnected-(U1-Pad11)*%
X58144000Y-40270000D03*
%TO.P,U1,12,INT*%
%TO.N,Board_5-unconnected-(U1-Pad12)*%
X57644000Y-40270000D03*
D26*
%TO.P,U1,13,VDD*%
%TO.N,Board_5-+3V3*%
X56944000Y-40970000D03*
%TO.P,U1,14*%
%TO.N,N/C*%
X56944000Y-41470000D03*
%TO.P,U1,15*%
X56944000Y-41970000D03*
%TO.P,U1,16*%
X56944000Y-42470000D03*
%TO.P,U1,17*%
X56944000Y-42970000D03*
%TO.P,U1,18,GND*%
%TO.N,Board_5-GND*%
X56944000Y-43470000D03*
D27*
%TO.P,U1,19*%
%TO.N,N/C*%
X57644000Y-44170000D03*
%TO.P,U1,20,CPOUT*%
%TO.N,Board_5-Net-(C3-Pad1)*%
X58144000Y-44170000D03*
%TO.P,U1,21*%
%TO.N,N/C*%
X58644000Y-44170000D03*
%TO.P,U1,22*%
X59144000Y-44170000D03*
%TO.P,U1,23,SCL*%
%TO.N,Board_5-SCL*%
X59644000Y-44170000D03*
%TO.P,U1,24,SDA*%
%TO.N,Board_5-SDA*%
X60144000Y-44170000D03*
%TD*%
D10*
%TO.P,D1,1,K*%
%TO.N,Board_2-Net-(D1-Pad1)*%
X53250000Y-28437500D03*
%TO.P,D1,2,A*%
%TO.N,Board_2-+3V3*%
X53250000Y-26862500D03*
%TD*%
D14*
%TO.P,C1,1*%
%TO.N,Board_2-Net-(C1-Pad1)*%
X58330000Y-32834000D03*
%TO.P,C1,2*%
%TO.N,Board_2-GND*%
X59880000Y-32834000D03*
%TD*%
D11*
%TO.P,R2,1*%
%TO.N,Board_4-+3V3*%
X48590000Y-52945000D03*
%TO.P,R2,2*%
%TO.N,Board_4-SDA*%
X48590000Y-51120000D03*
%TD*%
D14*
%TO.P,C4,1*%
%TO.N,Board_5-+3V3*%
X59939000Y-38690000D03*
%TO.P,C4,2*%
%TO.N,Board_5-GND*%
X61489000Y-38690000D03*
%TD*%
D24*
%TO.P,C3,1*%
%TO.N,Board_0-Net-(C3-Pad1)*%
X29550000Y-25775000D03*
%TO.P,C3,2*%
%TO.N,Board_0-GND*%
X29550000Y-24225000D03*
%TD*%
D21*
%TO.P,J1,1,1*%
%TO.N,Board_0-GND*%
X30700000Y-20100000D03*
%TO.P,J1,2,2*%
%TO.N,Board_0-SCL*%
X29700000Y-20100000D03*
%TO.P,J1,3,3*%
%TO.N,Board_0-SDA*%
X28700000Y-20100000D03*
%TO.P,J1,4,4*%
%TO.N,Board_0-+3V3*%
X27700000Y-20100000D03*
D22*
%TO.P,J1,MP*%
%TO.N,N/C*%
X32000000Y-16225000D03*
X26400000Y-16225000D03*
%TD*%
D28*
%TO.N,Board_0-+3V3*%
X24340000Y-25960000D03*
X27450000Y-21310000D03*
X27410000Y-33600000D03*
X34090000Y-17510000D03*
X24310000Y-17500000D03*
X31875000Y-31275000D03*
%TO.N,Board_0-GND*%
X24725000Y-32625000D03*
X31804000Y-32824000D03*
X31450000Y-27930000D03*
X29550000Y-23400000D03*
X30950000Y-21300000D03*
%TO.N,Board_0-SCL*%
X34090000Y-21230000D03*
X29700000Y-21500000D03*
X28300000Y-25950000D03*
%TO.N,Board_0-SDA*%
X28700000Y-21500000D03*
X24310000Y-21230000D03*
X27244696Y-25945350D03*
%TO.N,Board_1-+3V3*%
X38790000Y-25960000D03*
X41900000Y-21310000D03*
X41860000Y-33600000D03*
X48540000Y-17510000D03*
X38760000Y-17500000D03*
X46325000Y-31275000D03*
%TO.N,Board_1-GND*%
X39175000Y-32625000D03*
X46254000Y-32824000D03*
X45900000Y-27930000D03*
X44000000Y-23400000D03*
X45400000Y-21300000D03*
%TO.N,Board_1-SCL*%
X48540000Y-21230000D03*
X44150000Y-21500000D03*
X42750000Y-25950000D03*
%TO.N,Board_1-SDA*%
X43150000Y-21500000D03*
X38760000Y-21230000D03*
X41694696Y-25945350D03*
%TO.N,Board_2-+3V3*%
X53240000Y-25960000D03*
X56350000Y-21310000D03*
X56310000Y-33600000D03*
X62990000Y-17510000D03*
X53210000Y-17500000D03*
X60775000Y-31275000D03*
%TO.N,Board_2-GND*%
X53625000Y-32625000D03*
X60704000Y-32824000D03*
X60350000Y-27930000D03*
X58450000Y-23400000D03*
X59850000Y-21300000D03*
%TO.N,Board_2-SCL*%
X62990000Y-21230000D03*
X58600000Y-21500000D03*
X57200000Y-25950000D03*
%TO.N,Board_2-SDA*%
X57600000Y-21500000D03*
X53210000Y-21230000D03*
X56144696Y-25945350D03*
%TO.N,Board_3-+3V3*%
X34110000Y-45440000D03*
X31000000Y-50090000D03*
X31040000Y-37800000D03*
X24360000Y-53890000D03*
X34140000Y-53900000D03*
X26575000Y-40125000D03*
%TO.N,Board_3-GND*%
X33725000Y-38775000D03*
X26646000Y-38576000D03*
X27000000Y-43470000D03*
X28900000Y-48000000D03*
X27500000Y-50100000D03*
%TO.N,Board_3-SCL*%
X24360000Y-50170000D03*
X28750000Y-49900000D03*
X30150000Y-45450000D03*
%TO.N,Board_3-SDA*%
X29750000Y-49900000D03*
X34140000Y-50170000D03*
X31205304Y-45454650D03*
%TO.N,Board_4-+3V3*%
X48560000Y-45440000D03*
X45450000Y-50090000D03*
X45490000Y-37800000D03*
X38810000Y-53890000D03*
X48590000Y-53900000D03*
X41025000Y-40125000D03*
%TO.N,Board_4-GND*%
X48175000Y-38775000D03*
X41096000Y-38576000D03*
X41450000Y-43470000D03*
X43350000Y-48000000D03*
X41950000Y-50100000D03*
%TO.N,Board_4-SCL*%
X38810000Y-50170000D03*
X43200000Y-49900000D03*
X44600000Y-45450000D03*
%TO.N,Board_4-SDA*%
X44200000Y-49900000D03*
X48590000Y-50170000D03*
X45655304Y-45454650D03*
%TO.N,Board_5-+3V3*%
X63010000Y-45440000D03*
X59900000Y-50090000D03*
X59940000Y-37800000D03*
X53260000Y-53890000D03*
X63040000Y-53900000D03*
X55475000Y-40125000D03*
%TO.N,Board_5-GND*%
X62625000Y-38775000D03*
X55546000Y-38576000D03*
X55900000Y-43470000D03*
X57800000Y-48000000D03*
X56400000Y-50100000D03*
%TO.N,Board_5-SCL*%
X53260000Y-50170000D03*
X57650000Y-49900000D03*
X59050000Y-45450000D03*
%TO.N,Board_5-SDA*%
X58650000Y-49900000D03*
X63040000Y-50170000D03*
X60105304Y-45454650D03*
%TD*%
D29*
%TO.N,Board_0-+3V3*%
X30406000Y-30430000D02*
X31845000Y-30430000D01*
D30*
X34090000Y-18455000D02*
X34090000Y-17570000D01*
D29*
X27411000Y-32710000D02*
X27706000Y-32415000D01*
X31845000Y-30430000D02*
X31875000Y-30400000D01*
X27706000Y-32415000D02*
X27706000Y-31125000D01*
D31*
X27450000Y-20350000D02*
X27700000Y-20100000D01*
X31875000Y-31275000D02*
X31875000Y-30425000D01*
X27450000Y-21300000D02*
X27450000Y-20350000D01*
X24340000Y-25960000D02*
X24340000Y-26870000D01*
X27410000Y-33600000D02*
X27410000Y-32625000D01*
D29*
X27591000Y-32494000D02*
X27385000Y-32700000D01*
D30*
X24310000Y-18455000D02*
X24310000Y-17510000D01*
D31*
X31875000Y-30425000D02*
X31850000Y-30400000D01*
%TO.N,Board_0-GND*%
X25750000Y-32625000D02*
X25850000Y-32725000D01*
X24725000Y-32625000D02*
X25750000Y-32625000D01*
X31875000Y-28850000D02*
X31875000Y-28375000D01*
X31875000Y-28375000D02*
X31450000Y-27950000D01*
X24725000Y-31975000D02*
X24325000Y-31575000D01*
D29*
X28630000Y-33322173D02*
X28966827Y-33659000D01*
D31*
X30950000Y-20350000D02*
X30700000Y-20100000D01*
D29*
X28966827Y-33659000D02*
X30166000Y-33659000D01*
D31*
X29550000Y-23350000D02*
X29550000Y-24200000D01*
D29*
X28206000Y-32376000D02*
X28630000Y-32800000D01*
X28206000Y-31130000D02*
X28206000Y-32376000D01*
X28630000Y-32800000D02*
X28630000Y-33322173D01*
D31*
X31804000Y-32824000D02*
X30979000Y-32824000D01*
X30950000Y-21300000D02*
X30950000Y-20350000D01*
D29*
X31250000Y-27930000D02*
X30400000Y-27930000D01*
D31*
X24725000Y-32625000D02*
X24725000Y-31975000D01*
D29*
X30166000Y-33659000D02*
X30975000Y-32850000D01*
%TO.N,Board_0-Net-(C1-Pad1)*%
X28706000Y-31130000D02*
X28706000Y-32131000D01*
X28706000Y-32131000D02*
X29425000Y-32850000D01*
%TO.N,Board_0-Net-(C3-Pad1)*%
X29550000Y-25775000D02*
X29206000Y-26119000D01*
X29206000Y-26119000D02*
X29206000Y-27250000D01*
D31*
%TO.N,Board_0-Net-(D1-Pad1)*%
X24350000Y-29900000D02*
X24350000Y-28450000D01*
D29*
%TO.N,Board_0-SCL*%
X27706000Y-26594000D02*
X27706000Y-26544000D01*
X29700000Y-21500000D02*
X29700000Y-20150000D01*
X27706000Y-27230000D02*
X27706000Y-26594000D01*
X27706000Y-26544000D02*
X28300000Y-25950000D01*
X34090000Y-21230000D02*
X34090000Y-20280000D01*
%TO.N,Board_0-SDA*%
X27244696Y-26055304D02*
X27244696Y-25945350D01*
X27206000Y-26094000D02*
X27244696Y-26055304D01*
X28700000Y-21500000D02*
X28700000Y-20100000D01*
X27206000Y-27230000D02*
X27206000Y-26094000D01*
X24310000Y-21220000D02*
X24310000Y-20280000D01*
%TO.N,Board_1-+3V3*%
X44856000Y-30430000D02*
X46295000Y-30430000D01*
D30*
X48540000Y-18455000D02*
X48540000Y-17570000D01*
D29*
X41861000Y-32710000D02*
X42156000Y-32415000D01*
X46295000Y-30430000D02*
X46325000Y-30400000D01*
X42156000Y-32415000D02*
X42156000Y-31125000D01*
D31*
X41900000Y-20350000D02*
X42150000Y-20100000D01*
X46325000Y-31275000D02*
X46325000Y-30425000D01*
X41900000Y-21300000D02*
X41900000Y-20350000D01*
X38790000Y-25960000D02*
X38790000Y-26870000D01*
X41860000Y-33600000D02*
X41860000Y-32625000D01*
D29*
X42041000Y-32494000D02*
X41835000Y-32700000D01*
D30*
X38760000Y-18455000D02*
X38760000Y-17510000D01*
D31*
X46325000Y-30425000D02*
X46300000Y-30400000D01*
%TO.N,Board_1-GND*%
X40200000Y-32625000D02*
X40300000Y-32725000D01*
X39175000Y-32625000D02*
X40200000Y-32625000D01*
X46325000Y-28850000D02*
X46325000Y-28375000D01*
X46325000Y-28375000D02*
X45900000Y-27950000D01*
X39175000Y-31975000D02*
X38775000Y-31575000D01*
D29*
X43080000Y-33322173D02*
X43416827Y-33659000D01*
D31*
X45400000Y-20350000D02*
X45150000Y-20100000D01*
D29*
X43416827Y-33659000D02*
X44616000Y-33659000D01*
D31*
X44000000Y-23350000D02*
X44000000Y-24200000D01*
D29*
X42656000Y-32376000D02*
X43080000Y-32800000D01*
X42656000Y-31130000D02*
X42656000Y-32376000D01*
X43080000Y-32800000D02*
X43080000Y-33322173D01*
D31*
X46254000Y-32824000D02*
X45429000Y-32824000D01*
X45400000Y-21300000D02*
X45400000Y-20350000D01*
D29*
X45700000Y-27930000D02*
X44850000Y-27930000D01*
D31*
X39175000Y-32625000D02*
X39175000Y-31975000D01*
D29*
X44616000Y-33659000D02*
X45425000Y-32850000D01*
%TO.N,Board_1-Net-(C1-Pad1)*%
X43156000Y-31130000D02*
X43156000Y-32131000D01*
X43156000Y-32131000D02*
X43875000Y-32850000D01*
%TO.N,Board_1-Net-(C3-Pad1)*%
X44000000Y-25775000D02*
X43656000Y-26119000D01*
X43656000Y-26119000D02*
X43656000Y-27250000D01*
D31*
%TO.N,Board_1-Net-(D1-Pad1)*%
X38800000Y-29900000D02*
X38800000Y-28450000D01*
D29*
%TO.N,Board_1-SCL*%
X42156000Y-26594000D02*
X42156000Y-26544000D01*
X44150000Y-21500000D02*
X44150000Y-20150000D01*
X42156000Y-27230000D02*
X42156000Y-26594000D01*
X42156000Y-26544000D02*
X42750000Y-25950000D01*
X48540000Y-21230000D02*
X48540000Y-20280000D01*
%TO.N,Board_1-SDA*%
X41694696Y-26055304D02*
X41694696Y-25945350D01*
X41656000Y-26094000D02*
X41694696Y-26055304D01*
X43150000Y-21500000D02*
X43150000Y-20100000D01*
X41656000Y-27230000D02*
X41656000Y-26094000D01*
X38760000Y-21220000D02*
X38760000Y-20280000D01*
%TO.N,Board_2-+3V3*%
X59306000Y-30430000D02*
X60745000Y-30430000D01*
D30*
X62990000Y-18455000D02*
X62990000Y-17570000D01*
D29*
X56311000Y-32710000D02*
X56606000Y-32415000D01*
X60745000Y-30430000D02*
X60775000Y-30400000D01*
X56606000Y-32415000D02*
X56606000Y-31125000D01*
D31*
X56350000Y-20350000D02*
X56600000Y-20100000D01*
X60775000Y-31275000D02*
X60775000Y-30425000D01*
X56350000Y-21300000D02*
X56350000Y-20350000D01*
X53240000Y-25960000D02*
X53240000Y-26870000D01*
X56310000Y-33600000D02*
X56310000Y-32625000D01*
D29*
X56491000Y-32494000D02*
X56285000Y-32700000D01*
D30*
X53210000Y-18455000D02*
X53210000Y-17510000D01*
D31*
X60775000Y-30425000D02*
X60750000Y-30400000D01*
%TO.N,Board_2-GND*%
X54650000Y-32625000D02*
X54750000Y-32725000D01*
X53625000Y-32625000D02*
X54650000Y-32625000D01*
X60775000Y-28850000D02*
X60775000Y-28375000D01*
X60775000Y-28375000D02*
X60350000Y-27950000D01*
X53625000Y-31975000D02*
X53225000Y-31575000D01*
D29*
X57530000Y-33322173D02*
X57866827Y-33659000D01*
D31*
X59850000Y-20350000D02*
X59600000Y-20100000D01*
D29*
X57866827Y-33659000D02*
X59066000Y-33659000D01*
D31*
X58450000Y-23350000D02*
X58450000Y-24200000D01*
D29*
X57106000Y-32376000D02*
X57530000Y-32800000D01*
X57106000Y-31130000D02*
X57106000Y-32376000D01*
X57530000Y-32800000D02*
X57530000Y-33322173D01*
D31*
X60704000Y-32824000D02*
X59879000Y-32824000D01*
X59850000Y-21300000D02*
X59850000Y-20350000D01*
D29*
X60150000Y-27930000D02*
X59300000Y-27930000D01*
D31*
X53625000Y-32625000D02*
X53625000Y-31975000D01*
D29*
X59066000Y-33659000D02*
X59875000Y-32850000D01*
%TO.N,Board_2-Net-(C1-Pad1)*%
X57606000Y-31130000D02*
X57606000Y-32131000D01*
X57606000Y-32131000D02*
X58325000Y-32850000D01*
%TO.N,Board_2-Net-(C3-Pad1)*%
X58450000Y-25775000D02*
X58106000Y-26119000D01*
X58106000Y-26119000D02*
X58106000Y-27250000D01*
D31*
%TO.N,Board_2-Net-(D1-Pad1)*%
X53250000Y-29900000D02*
X53250000Y-28450000D01*
D29*
%TO.N,Board_2-SCL*%
X56606000Y-26594000D02*
X56606000Y-26544000D01*
X58600000Y-21500000D02*
X58600000Y-20150000D01*
X56606000Y-27230000D02*
X56606000Y-26594000D01*
X56606000Y-26544000D02*
X57200000Y-25950000D01*
X62990000Y-21230000D02*
X62990000Y-20280000D01*
%TO.N,Board_2-SDA*%
X56144696Y-26055304D02*
X56144696Y-25945350D01*
X56106000Y-26094000D02*
X56144696Y-26055304D01*
X57600000Y-21500000D02*
X57600000Y-20100000D01*
X56106000Y-27230000D02*
X56106000Y-26094000D01*
X53210000Y-21220000D02*
X53210000Y-20280000D01*
%TO.N,Board_3-+3V3*%
X28044000Y-40970000D02*
X26605000Y-40970000D01*
D30*
X24360000Y-52945000D02*
X24360000Y-53830000D01*
D29*
X31039000Y-38690000D02*
X30744000Y-38985000D01*
X26605000Y-40970000D02*
X26575000Y-41000000D01*
X30744000Y-38985000D02*
X30744000Y-40275000D01*
D31*
X31000000Y-51050000D02*
X30750000Y-51300000D01*
X26575000Y-40125000D02*
X26575000Y-40975000D01*
X31000000Y-50100000D02*
X31000000Y-51050000D01*
X34110000Y-45440000D02*
X34110000Y-44530000D01*
X31040000Y-37800000D02*
X31040000Y-38775000D01*
D29*
X30859000Y-38906000D02*
X31065000Y-38700000D01*
D30*
X34140000Y-52945000D02*
X34140000Y-53890000D01*
D31*
X26575000Y-40975000D02*
X26600000Y-41000000D01*
%TO.N,Board_3-GND*%
X32700000Y-38775000D02*
X32600000Y-38675000D01*
X33725000Y-38775000D02*
X32700000Y-38775000D01*
X26575000Y-42550000D02*
X26575000Y-43025000D01*
X26575000Y-43025000D02*
X27000000Y-43450000D01*
X33725000Y-39425000D02*
X34125000Y-39825000D01*
D29*
X29820000Y-38077827D02*
X29483173Y-37741000D01*
D31*
X27500000Y-51050000D02*
X27750000Y-51300000D01*
D29*
X29483173Y-37741000D02*
X28284000Y-37741000D01*
D31*
X28900000Y-48050000D02*
X28900000Y-47200000D01*
D29*
X30244000Y-39024000D02*
X29820000Y-38600000D01*
X30244000Y-40270000D02*
X30244000Y-39024000D01*
X29820000Y-38600000D02*
X29820000Y-38077827D01*
D31*
X26646000Y-38576000D02*
X27471000Y-38576000D01*
X27500000Y-50100000D02*
X27500000Y-51050000D01*
D29*
X27200000Y-43470000D02*
X28050000Y-43470000D01*
D31*
X33725000Y-38775000D02*
X33725000Y-39425000D01*
D29*
X28284000Y-37741000D02*
X27475000Y-38550000D01*
%TO.N,Board_3-Net-(C1-Pad1)*%
X29744000Y-40270000D02*
X29744000Y-39269000D01*
X29744000Y-39269000D02*
X29025000Y-38550000D01*
%TO.N,Board_3-Net-(C3-Pad1)*%
X28900000Y-45625000D02*
X29244000Y-45281000D01*
X29244000Y-45281000D02*
X29244000Y-44150000D01*
D31*
%TO.N,Board_3-Net-(D1-Pad1)*%
X34100000Y-41500000D02*
X34100000Y-42950000D01*
D29*
%TO.N,Board_3-SCL*%
X30744000Y-44806000D02*
X30744000Y-44856000D01*
X28750000Y-49900000D02*
X28750000Y-51250000D01*
X30744000Y-44170000D02*
X30744000Y-44806000D01*
X30744000Y-44856000D02*
X30150000Y-45450000D01*
X24360000Y-50170000D02*
X24360000Y-51120000D01*
%TO.N,Board_3-SDA*%
X31205304Y-45344696D02*
X31205304Y-45454650D01*
X31244000Y-45306000D02*
X31205304Y-45344696D01*
X29750000Y-49900000D02*
X29750000Y-51300000D01*
X31244000Y-44170000D02*
X31244000Y-45306000D01*
X34140000Y-50180000D02*
X34140000Y-51120000D01*
%TO.N,Board_4-+3V3*%
X42494000Y-40970000D02*
X41055000Y-40970000D01*
D30*
X38810000Y-52945000D02*
X38810000Y-53830000D01*
D29*
X45489000Y-38690000D02*
X45194000Y-38985000D01*
X41055000Y-40970000D02*
X41025000Y-41000000D01*
X45194000Y-38985000D02*
X45194000Y-40275000D01*
D31*
X45450000Y-51050000D02*
X45200000Y-51300000D01*
X41025000Y-40125000D02*
X41025000Y-40975000D01*
X45450000Y-50100000D02*
X45450000Y-51050000D01*
X48560000Y-45440000D02*
X48560000Y-44530000D01*
X45490000Y-37800000D02*
X45490000Y-38775000D01*
D29*
X45309000Y-38906000D02*
X45515000Y-38700000D01*
D30*
X48590000Y-52945000D02*
X48590000Y-53890000D01*
D31*
X41025000Y-40975000D02*
X41050000Y-41000000D01*
%TO.N,Board_4-GND*%
X47150000Y-38775000D02*
X47050000Y-38675000D01*
X48175000Y-38775000D02*
X47150000Y-38775000D01*
X41025000Y-42550000D02*
X41025000Y-43025000D01*
X41025000Y-43025000D02*
X41450000Y-43450000D01*
X48175000Y-39425000D02*
X48575000Y-39825000D01*
D29*
X44270000Y-38077827D02*
X43933173Y-37741000D01*
D31*
X41950000Y-51050000D02*
X42200000Y-51300000D01*
D29*
X43933173Y-37741000D02*
X42734000Y-37741000D01*
D31*
X43350000Y-48050000D02*
X43350000Y-47200000D01*
D29*
X44694000Y-39024000D02*
X44270000Y-38600000D01*
X44694000Y-40270000D02*
X44694000Y-39024000D01*
X44270000Y-38600000D02*
X44270000Y-38077827D01*
D31*
X41096000Y-38576000D02*
X41921000Y-38576000D01*
X41950000Y-50100000D02*
X41950000Y-51050000D01*
D29*
X41650000Y-43470000D02*
X42500000Y-43470000D01*
D31*
X48175000Y-38775000D02*
X48175000Y-39425000D01*
D29*
X42734000Y-37741000D02*
X41925000Y-38550000D01*
%TO.N,Board_4-Net-(C1-Pad1)*%
X44194000Y-40270000D02*
X44194000Y-39269000D01*
X44194000Y-39269000D02*
X43475000Y-38550000D01*
%TO.N,Board_4-Net-(C3-Pad1)*%
X43350000Y-45625000D02*
X43694000Y-45281000D01*
X43694000Y-45281000D02*
X43694000Y-44150000D01*
D31*
%TO.N,Board_4-Net-(D1-Pad1)*%
X48550000Y-41500000D02*
X48550000Y-42950000D01*
D29*
%TO.N,Board_4-SCL*%
X45194000Y-44806000D02*
X45194000Y-44856000D01*
X43200000Y-49900000D02*
X43200000Y-51250000D01*
X45194000Y-44170000D02*
X45194000Y-44806000D01*
X45194000Y-44856000D02*
X44600000Y-45450000D01*
X38810000Y-50170000D02*
X38810000Y-51120000D01*
%TO.N,Board_4-SDA*%
X45655304Y-45344696D02*
X45655304Y-45454650D01*
X45694000Y-45306000D02*
X45655304Y-45344696D01*
X44200000Y-49900000D02*
X44200000Y-51300000D01*
X45694000Y-44170000D02*
X45694000Y-45306000D01*
X48590000Y-50180000D02*
X48590000Y-51120000D01*
%TO.N,Board_5-+3V3*%
X56944000Y-40970000D02*
X55505000Y-40970000D01*
D30*
X53260000Y-52945000D02*
X53260000Y-53830000D01*
D29*
X59939000Y-38690000D02*
X59644000Y-38985000D01*
X55505000Y-40970000D02*
X55475000Y-41000000D01*
X59644000Y-38985000D02*
X59644000Y-40275000D01*
D31*
X59900000Y-51050000D02*
X59650000Y-51300000D01*
X55475000Y-40125000D02*
X55475000Y-40975000D01*
X59900000Y-50100000D02*
X59900000Y-51050000D01*
X63010000Y-45440000D02*
X63010000Y-44530000D01*
X59940000Y-37800000D02*
X59940000Y-38775000D01*
D29*
X59759000Y-38906000D02*
X59965000Y-38700000D01*
D30*
X63040000Y-52945000D02*
X63040000Y-53890000D01*
D31*
X55475000Y-40975000D02*
X55500000Y-41000000D01*
%TO.N,Board_5-GND*%
X61600000Y-38775000D02*
X61500000Y-38675000D01*
X62625000Y-38775000D02*
X61600000Y-38775000D01*
X55475000Y-42550000D02*
X55475000Y-43025000D01*
X55475000Y-43025000D02*
X55900000Y-43450000D01*
X62625000Y-39425000D02*
X63025000Y-39825000D01*
D29*
X58720000Y-38077827D02*
X58383173Y-37741000D01*
D31*
X56400000Y-51050000D02*
X56650000Y-51300000D01*
D29*
X58383173Y-37741000D02*
X57184000Y-37741000D01*
D31*
X57800000Y-48050000D02*
X57800000Y-47200000D01*
D29*
X59144000Y-39024000D02*
X58720000Y-38600000D01*
X59144000Y-40270000D02*
X59144000Y-39024000D01*
X58720000Y-38600000D02*
X58720000Y-38077827D01*
D31*
X55546000Y-38576000D02*
X56371000Y-38576000D01*
X56400000Y-50100000D02*
X56400000Y-51050000D01*
D29*
X56100000Y-43470000D02*
X56950000Y-43470000D01*
D31*
X62625000Y-38775000D02*
X62625000Y-39425000D01*
D29*
X57184000Y-37741000D02*
X56375000Y-38550000D01*
%TO.N,Board_5-Net-(C1-Pad1)*%
X58644000Y-40270000D02*
X58644000Y-39269000D01*
X58644000Y-39269000D02*
X57925000Y-38550000D01*
%TO.N,Board_5-Net-(C3-Pad1)*%
X57800000Y-45625000D02*
X58144000Y-45281000D01*
X58144000Y-45281000D02*
X58144000Y-44150000D01*
D31*
%TO.N,Board_5-Net-(D1-Pad1)*%
X63000000Y-41500000D02*
X63000000Y-42950000D01*
D29*
%TO.N,Board_5-SCL*%
X59644000Y-44806000D02*
X59644000Y-44856000D01*
X57650000Y-49900000D02*
X57650000Y-51250000D01*
X59644000Y-44170000D02*
X59644000Y-44806000D01*
X59644000Y-44856000D02*
X59050000Y-45450000D01*
X53260000Y-50170000D02*
X53260000Y-51120000D01*
%TO.N,Board_5-SDA*%
X60105304Y-45344696D02*
X60105304Y-45454650D01*
X60144000Y-45306000D02*
X60105304Y-45344696D01*
X58650000Y-49900000D02*
X58650000Y-51300000D01*
X60144000Y-44170000D02*
X60144000Y-45306000D01*
X63040000Y-50180000D02*
X63040000Y-51120000D01*
%TD*%
M02*
