%TF.GenerationSoftware,KiCad,Pcbnew,6.0.9-8da3e8f707~116~ubuntu20.04.1*%
%TF.CreationDate,2022-11-17T11:37:03+01:00*%
%TF.ProjectId,panel_sensor,70616e65-6c5f-4736-956e-736f722e6b69,rev?*%
%TF.SameCoordinates,Original*%
%TF.FileFunction,Soldermask,Bot*%
%TF.FilePolarity,Negative*%
%FSLAX46Y46*%
G04 Gerber Fmt 4.6, Leading zero omitted, Abs format (unit mm)*
G04 Created by KiCad (PCBNEW 6.0.9-8da3e8f707~116~ubuntu20.04.1) date 2022-11-17 11:37:03*
%MOMM*%
%LPD*%
G01*
G04 APERTURE LIST*
%ADD10C,0.500000*%
%ADD11C,2.100000*%
G04 APERTURE END LIST*
D10*
%TO.C,REF\u002A\u002A*%
X42525000Y-36900000D03*
%TD*%
%TO.C,REF\u002A\u002A*%
X37650000Y-47700000D03*
%TD*%
%TO.C,REF\u002A\u002A*%
X49700000Y-45400000D03*
%TD*%
%TO.C,REF\u002A\u002A*%
X59275000Y-36900000D03*
%TD*%
D11*
%TO.C,H2*%
X25550000Y-47600000D03*
%TD*%
D10*
%TO.C,REF\u002A\u002A*%
X64150000Y-46550000D03*
%TD*%
%TO.C,REF\u002A\u002A*%
X23200000Y-48850000D03*
%TD*%
%TO.C,REF\u002A\u002A*%
X45975000Y-34500000D03*
%TD*%
D11*
%TO.C,H1*%
X47350000Y-47600000D03*
%TD*%
D10*
%TO.C,REF\u002A\u002A*%
X64150000Y-45400000D03*
%TD*%
%TO.C,REF\u002A\u002A*%
X23200000Y-23700000D03*
%TD*%
%TO.C,REF\u002A\u002A*%
X60425000Y-36900000D03*
%TD*%
%TO.C,REF\u002A\u002A*%
X52100000Y-45400000D03*
%TD*%
%TO.C,REF\u002A\u002A*%
X59275000Y-34500000D03*
%TD*%
%TO.C,REF\u002A\u002A*%
X37650000Y-23700000D03*
%TD*%
%TO.C,REF\u002A\u002A*%
X64150000Y-44250000D03*
%TD*%
D11*
%TO.C,H2*%
X32900000Y-23800000D03*
%TD*%
D10*
%TO.C,REF\u002A\u002A*%
X44825000Y-34500000D03*
%TD*%
%TO.C,REF\u002A\u002A*%
X52100000Y-22550000D03*
%TD*%
%TO.C,REF\u002A\u002A*%
X64150000Y-23700000D03*
%TD*%
%TO.C,REF\u002A\u002A*%
X44825000Y-36900000D03*
%TD*%
%TO.C,REF\u002A\u002A*%
X49700000Y-24850000D03*
%TD*%
D11*
%TO.C,H1*%
X32900000Y-47600000D03*
%TD*%
D10*
%TO.C,REF\u002A\u002A*%
X49700000Y-46550000D03*
%TD*%
D11*
%TO.C,H2*%
X61800000Y-23800000D03*
%TD*%
D10*
%TO.C,REF\u002A\u002A*%
X35250000Y-48850000D03*
%TD*%
%TO.C,REF\u002A\u002A*%
X52100000Y-44250000D03*
%TD*%
%TO.C,REF\u002A\u002A*%
X49700000Y-23700000D03*
%TD*%
%TO.C,REF\u002A\u002A*%
X30375000Y-34500000D03*
%TD*%
%TO.C,REF\u002A\u002A*%
X64150000Y-47700000D03*
%TD*%
%TO.C,REF\u002A\u002A*%
X35250000Y-27150000D03*
%TD*%
%TO.C,REF\u002A\u002A*%
X41375000Y-34500000D03*
%TD*%
%TO.C,REF\u002A\u002A*%
X35250000Y-45400000D03*
%TD*%
D11*
%TO.C,H1*%
X61800000Y-47600000D03*
%TD*%
D10*
%TO.C,REF\u002A\u002A*%
X31525000Y-34500000D03*
%TD*%
%TO.C,REF\u002A\u002A*%
X37650000Y-46550000D03*
%TD*%
%TO.C,REF\u002A\u002A*%
X52100000Y-27150000D03*
%TD*%
%TO.C,REF\u002A\u002A*%
X37650000Y-22550000D03*
%TD*%
%TO.C,REF\u002A\u002A*%
X64150000Y-27150000D03*
%TD*%
%TO.C,REF\u002A\u002A*%
X37650000Y-26000000D03*
%TD*%
%TO.C,REF\u002A\u002A*%
X64150000Y-24850000D03*
%TD*%
%TO.C,REF\u002A\u002A*%
X56975000Y-36900000D03*
%TD*%
%TO.C,REF\u002A\u002A*%
X42525000Y-34500000D03*
%TD*%
%TO.C,REF\u002A\u002A*%
X52100000Y-47700000D03*
%TD*%
%TO.C,REF\u002A\u002A*%
X30375000Y-36900000D03*
%TD*%
D11*
%TO.C,H2*%
X54450000Y-47600000D03*
%TD*%
D10*
%TO.C,REF\u002A\u002A*%
X37650000Y-45400000D03*
%TD*%
%TO.C,REF\u002A\u002A*%
X64150000Y-22550000D03*
%TD*%
D11*
%TO.C,H1*%
X40000000Y-23800000D03*
%TD*%
D10*
%TO.C,REF\u002A\u002A*%
X52100000Y-23700000D03*
%TD*%
%TO.C,REF\u002A\u002A*%
X64150000Y-26000000D03*
%TD*%
D11*
%TO.C,H1*%
X54450000Y-23800000D03*
%TD*%
D10*
%TO.C,REF\u002A\u002A*%
X35250000Y-46550000D03*
%TD*%
%TO.C,REF\u002A\u002A*%
X52100000Y-26000000D03*
%TD*%
%TO.C,REF\u002A\u002A*%
X58125000Y-36900000D03*
%TD*%
D11*
%TO.C,H2*%
X40000000Y-47600000D03*
%TD*%
D10*
%TO.C,REF\u002A\u002A*%
X26925000Y-36900000D03*
%TD*%
%TO.C,REF\u002A\u002A*%
X49700000Y-27150000D03*
%TD*%
%TO.C,REF\u002A\u002A*%
X41375000Y-36900000D03*
%TD*%
%TO.C,REF\u002A\u002A*%
X37650000Y-24850000D03*
%TD*%
%TO.C,REF\u002A\u002A*%
X37650000Y-48850000D03*
%TD*%
%TO.C,REF\u002A\u002A*%
X37650000Y-44250000D03*
%TD*%
%TO.C,REF\u002A\u002A*%
X55825000Y-36900000D03*
%TD*%
%TO.C,REF\u002A\u002A*%
X43675000Y-34500000D03*
%TD*%
%TO.C,REF\u002A\u002A*%
X35250000Y-23700000D03*
%TD*%
%TO.C,REF\u002A\u002A*%
X31525000Y-36900000D03*
%TD*%
%TO.C,REF\u002A\u002A*%
X49700000Y-47700000D03*
%TD*%
%TO.C,REF\u002A\u002A*%
X37650000Y-27150000D03*
%TD*%
%TO.C,REF\u002A\u002A*%
X35250000Y-44250000D03*
%TD*%
%TO.C,REF\u002A\u002A*%
X35250000Y-26000000D03*
%TD*%
%TO.C,REF\u002A\u002A*%
X55825000Y-34500000D03*
%TD*%
%TO.C,REF\u002A\u002A*%
X35250000Y-47700000D03*
%TD*%
%TO.C,REF\u002A\u002A*%
X23200000Y-44250000D03*
%TD*%
%TO.C,REF\u002A\u002A*%
X29225000Y-34500000D03*
%TD*%
%TO.C,REF\u002A\u002A*%
X28075000Y-34500000D03*
%TD*%
%TO.C,REF\u002A\u002A*%
X23200000Y-27150000D03*
%TD*%
%TO.C,REF\u002A\u002A*%
X29225000Y-36900000D03*
%TD*%
%TO.C,REF\u002A\u002A*%
X23200000Y-26000000D03*
%TD*%
%TO.C,REF\u002A\u002A*%
X23200000Y-47700000D03*
%TD*%
%TO.C,REF\u002A\u002A*%
X35250000Y-24850000D03*
%TD*%
%TO.C,REF\u002A\u002A*%
X23200000Y-45400000D03*
%TD*%
%TO.C,REF\u002A\u002A*%
X45975000Y-36900000D03*
%TD*%
%TO.C,REF\u002A\u002A*%
X35250000Y-22550000D03*
%TD*%
D11*
%TO.C,H2*%
X47350000Y-23800000D03*
%TD*%
D10*
%TO.C,REF\u002A\u002A*%
X52100000Y-48850000D03*
%TD*%
%TO.C,REF\u002A\u002A*%
X52100000Y-46550000D03*
%TD*%
%TO.C,REF\u002A\u002A*%
X56975000Y-34500000D03*
%TD*%
%TO.C,REF\u002A\u002A*%
X52100000Y-24850000D03*
%TD*%
%TO.C,REF\u002A\u002A*%
X60425000Y-34500000D03*
%TD*%
%TO.C,REF\u002A\u002A*%
X23200000Y-22550000D03*
%TD*%
%TO.C,REF\u002A\u002A*%
X49700000Y-44250000D03*
%TD*%
%TO.C,REF\u002A\u002A*%
X43675000Y-36900000D03*
%TD*%
%TO.C,REF\u002A\u002A*%
X49700000Y-48850000D03*
%TD*%
%TO.C,REF\u002A\u002A*%
X28075000Y-36900000D03*
%TD*%
%TO.C,REF\u002A\u002A*%
X64150000Y-48850000D03*
%TD*%
%TO.C,REF\u002A\u002A*%
X26925000Y-34500000D03*
%TD*%
%TO.C,REF\u002A\u002A*%
X23200000Y-24850000D03*
%TD*%
%TO.C,REF\u002A\u002A*%
X58125000Y-34500000D03*
%TD*%
D11*
%TO.C,H1*%
X25550000Y-23800000D03*
%TD*%
D10*
%TO.C,REF\u002A\u002A*%
X23200000Y-46550000D03*
%TD*%
%TO.C,REF\u002A\u002A*%
X49700000Y-22550000D03*
%TD*%
%TO.C,REF\u002A\u002A*%
X49700000Y-26000000D03*
%TD*%
M02*
