%TF.GenerationSoftware,KiCad,Pcbnew,6.0.9-8da3e8f707~116~ubuntu20.04.1*%
%TF.CreationDate,2022-11-17T11:37:03+01:00*%
%TF.ProjectId,panel_sensor,70616e65-6c5f-4736-956e-736f722e6b69,rev?*%
%TF.SameCoordinates,Original*%
%TF.FileFunction,Copper,L4,Bot*%
%TF.FilePolarity,Positive*%
%FSLAX46Y46*%
G04 Gerber Fmt 4.6, Leading zero omitted, Abs format (unit mm)*
G04 Created by KiCad (PCBNEW 6.0.9-8da3e8f707~116~ubuntu20.04.1) date 2022-11-17 11:37:03*
%MOMM*%
%LPD*%
G01*
G04 APERTURE LIST*
%TA.AperFunction,ViaPad*%
%ADD10C,0.800000*%
%TD*%
%TA.AperFunction,Conductor*%
%ADD11C,0.300000*%
%TD*%
G04 APERTURE END LIST*
D10*
%TO.N,Board_0-+3V3*%
X24340000Y-25960000D03*
X27450000Y-21310000D03*
X27410000Y-33600000D03*
X34090000Y-17510000D03*
X24310000Y-17500000D03*
X31875000Y-31275000D03*
%TO.N,Board_0-GND*%
X24725000Y-32625000D03*
X31804000Y-32824000D03*
X31450000Y-27930000D03*
X29550000Y-23400000D03*
X30950000Y-21300000D03*
%TO.N,Board_0-SCL*%
X34090000Y-21230000D03*
X29700000Y-21500000D03*
X28300000Y-25950000D03*
%TO.N,Board_0-SDA*%
X28700000Y-21500000D03*
X24310000Y-21230000D03*
X27244696Y-25945350D03*
%TO.N,Board_1-+3V3*%
X38790000Y-25960000D03*
X41900000Y-21310000D03*
X41860000Y-33600000D03*
X48540000Y-17510000D03*
X38760000Y-17500000D03*
X46325000Y-31275000D03*
%TO.N,Board_1-GND*%
X39175000Y-32625000D03*
X46254000Y-32824000D03*
X45900000Y-27930000D03*
X44000000Y-23400000D03*
X45400000Y-21300000D03*
%TO.N,Board_1-SCL*%
X48540000Y-21230000D03*
X44150000Y-21500000D03*
X42750000Y-25950000D03*
%TO.N,Board_1-SDA*%
X43150000Y-21500000D03*
X38760000Y-21230000D03*
X41694696Y-25945350D03*
%TO.N,Board_2-+3V3*%
X53240000Y-25960000D03*
X56350000Y-21310000D03*
X56310000Y-33600000D03*
X62990000Y-17510000D03*
X53210000Y-17500000D03*
X60775000Y-31275000D03*
%TO.N,Board_2-GND*%
X53625000Y-32625000D03*
X60704000Y-32824000D03*
X60350000Y-27930000D03*
X58450000Y-23400000D03*
X59850000Y-21300000D03*
%TO.N,Board_2-SCL*%
X62990000Y-21230000D03*
X58600000Y-21500000D03*
X57200000Y-25950000D03*
%TO.N,Board_2-SDA*%
X57600000Y-21500000D03*
X53210000Y-21230000D03*
X56144696Y-25945350D03*
%TO.N,Board_3-+3V3*%
X34110000Y-45440000D03*
X31000000Y-50090000D03*
X31040000Y-37800000D03*
X24360000Y-53890000D03*
X34140000Y-53900000D03*
X26575000Y-40125000D03*
%TO.N,Board_3-GND*%
X33725000Y-38775000D03*
X26646000Y-38576000D03*
X27000000Y-43470000D03*
X28900000Y-48000000D03*
X27500000Y-50100000D03*
%TO.N,Board_3-SCL*%
X24360000Y-50170000D03*
X28750000Y-49900000D03*
X30150000Y-45450000D03*
%TO.N,Board_3-SDA*%
X29750000Y-49900000D03*
X34140000Y-50170000D03*
X31205304Y-45454650D03*
%TO.N,Board_4-+3V3*%
X48560000Y-45440000D03*
X45450000Y-50090000D03*
X45490000Y-37800000D03*
X38810000Y-53890000D03*
X48590000Y-53900000D03*
X41025000Y-40125000D03*
%TO.N,Board_4-GND*%
X48175000Y-38775000D03*
X41096000Y-38576000D03*
X41450000Y-43470000D03*
X43350000Y-48000000D03*
X41950000Y-50100000D03*
%TO.N,Board_4-SCL*%
X38810000Y-50170000D03*
X43200000Y-49900000D03*
X44600000Y-45450000D03*
%TO.N,Board_4-SDA*%
X44200000Y-49900000D03*
X48590000Y-50170000D03*
X45655304Y-45454650D03*
%TO.N,Board_5-+3V3*%
X63010000Y-45440000D03*
X59900000Y-50090000D03*
X59940000Y-37800000D03*
X53260000Y-53890000D03*
X63040000Y-53900000D03*
X55475000Y-40125000D03*
%TO.N,Board_5-GND*%
X62625000Y-38775000D03*
X55546000Y-38576000D03*
X55900000Y-43470000D03*
X57800000Y-48000000D03*
X56400000Y-50100000D03*
%TO.N,Board_5-SCL*%
X53260000Y-50170000D03*
X57650000Y-49900000D03*
X59050000Y-45450000D03*
%TO.N,Board_5-SDA*%
X58650000Y-49900000D03*
X63040000Y-50170000D03*
X60105304Y-45454650D03*
%TD*%
D11*
%TO.N,Board_0-SCL*%
X28300000Y-22960000D02*
X28300661Y-22960000D01*
X31710000Y-18850000D02*
X34090000Y-21230000D01*
X28300000Y-22970000D02*
X28300000Y-22960000D01*
X29700000Y-21500000D02*
X29700000Y-18850000D01*
X28300000Y-23439339D02*
X28300000Y-22970000D01*
X28300661Y-22960000D02*
X29720000Y-21540661D01*
X29700000Y-18850000D02*
X31710000Y-18850000D01*
X28300000Y-25950000D02*
X28300000Y-23439339D01*
%TO.N,Board_0-SDA*%
X27244696Y-25945350D02*
X27244696Y-23205304D01*
X28700000Y-18880000D02*
X26670000Y-18880000D01*
X26670000Y-18880000D02*
X24320000Y-21230000D01*
X28700000Y-21500000D02*
X28700000Y-18880000D01*
X28700000Y-21750000D02*
X28700000Y-21500000D01*
X27244696Y-23205304D02*
X28700000Y-21750000D01*
%TO.N,Board_1-SCL*%
X42750000Y-22960000D02*
X42750661Y-22960000D01*
X46160000Y-18850000D02*
X48540000Y-21230000D01*
X42750000Y-22970000D02*
X42750000Y-22960000D01*
X44150000Y-21500000D02*
X44150000Y-18850000D01*
X42750000Y-23439339D02*
X42750000Y-22970000D01*
X42750661Y-22960000D02*
X44170000Y-21540661D01*
X44150000Y-18850000D02*
X46160000Y-18850000D01*
X42750000Y-25950000D02*
X42750000Y-23439339D01*
%TO.N,Board_1-SDA*%
X41694696Y-25945350D02*
X41694696Y-23205304D01*
X43150000Y-18880000D02*
X41120000Y-18880000D01*
X41120000Y-18880000D02*
X38770000Y-21230000D01*
X43150000Y-21500000D02*
X43150000Y-18880000D01*
X43150000Y-21750000D02*
X43150000Y-21500000D01*
X41694696Y-23205304D02*
X43150000Y-21750000D01*
%TO.N,Board_2-SCL*%
X57200000Y-22960000D02*
X57200661Y-22960000D01*
X60610000Y-18850000D02*
X62990000Y-21230000D01*
X57200000Y-22970000D02*
X57200000Y-22960000D01*
X58600000Y-21500000D02*
X58600000Y-18850000D01*
X57200000Y-23439339D02*
X57200000Y-22970000D01*
X57200661Y-22960000D02*
X58620000Y-21540661D01*
X58600000Y-18850000D02*
X60610000Y-18850000D01*
X57200000Y-25950000D02*
X57200000Y-23439339D01*
%TO.N,Board_2-SDA*%
X56144696Y-25945350D02*
X56144696Y-23205304D01*
X57600000Y-18880000D02*
X55570000Y-18880000D01*
X55570000Y-18880000D02*
X53220000Y-21230000D01*
X57600000Y-21500000D02*
X57600000Y-18880000D01*
X57600000Y-21750000D02*
X57600000Y-21500000D01*
X56144696Y-23205304D02*
X57600000Y-21750000D01*
%TO.N,Board_3-SCL*%
X30150000Y-48440000D02*
X30149339Y-48440000D01*
X26740000Y-52550000D02*
X24360000Y-50170000D01*
X30150000Y-48430000D02*
X30150000Y-48440000D01*
X28750000Y-49900000D02*
X28750000Y-52550000D01*
X30150000Y-47960661D02*
X30150000Y-48430000D01*
X30149339Y-48440000D02*
X28730000Y-49859339D01*
X28750000Y-52550000D02*
X26740000Y-52550000D01*
X30150000Y-45450000D02*
X30150000Y-47960661D01*
%TO.N,Board_3-SDA*%
X31205304Y-45454650D02*
X31205304Y-48194696D01*
X29750000Y-52520000D02*
X31780000Y-52520000D01*
X31780000Y-52520000D02*
X34130000Y-50170000D01*
X29750000Y-49900000D02*
X29750000Y-52520000D01*
X29750000Y-49650000D02*
X29750000Y-49900000D01*
X31205304Y-48194696D02*
X29750000Y-49650000D01*
%TO.N,Board_4-SCL*%
X44600000Y-48440000D02*
X44599339Y-48440000D01*
X41190000Y-52550000D02*
X38810000Y-50170000D01*
X44600000Y-48430000D02*
X44600000Y-48440000D01*
X43200000Y-49900000D02*
X43200000Y-52550000D01*
X44600000Y-47960661D02*
X44600000Y-48430000D01*
X44599339Y-48440000D02*
X43180000Y-49859339D01*
X43200000Y-52550000D02*
X41190000Y-52550000D01*
X44600000Y-45450000D02*
X44600000Y-47960661D01*
%TO.N,Board_4-SDA*%
X45655304Y-45454650D02*
X45655304Y-48194696D01*
X44200000Y-52520000D02*
X46230000Y-52520000D01*
X46230000Y-52520000D02*
X48580000Y-50170000D01*
X44200000Y-49900000D02*
X44200000Y-52520000D01*
X44200000Y-49650000D02*
X44200000Y-49900000D01*
X45655304Y-48194696D02*
X44200000Y-49650000D01*
%TO.N,Board_5-SCL*%
X59050000Y-48440000D02*
X59049339Y-48440000D01*
X55640000Y-52550000D02*
X53260000Y-50170000D01*
X59050000Y-48430000D02*
X59050000Y-48440000D01*
X57650000Y-49900000D02*
X57650000Y-52550000D01*
X59050000Y-47960661D02*
X59050000Y-48430000D01*
X59049339Y-48440000D02*
X57630000Y-49859339D01*
X57650000Y-52550000D02*
X55640000Y-52550000D01*
X59050000Y-45450000D02*
X59050000Y-47960661D01*
%TO.N,Board_5-SDA*%
X60105304Y-45454650D02*
X60105304Y-48194696D01*
X58650000Y-52520000D02*
X60680000Y-52520000D01*
X60680000Y-52520000D02*
X63030000Y-50170000D01*
X58650000Y-49900000D02*
X58650000Y-52520000D01*
X58650000Y-49650000D02*
X58650000Y-49900000D01*
X60105304Y-48194696D02*
X58650000Y-49650000D01*
%TD*%
M02*
